<svg width="24.000000" height="1704.000000" viewBox="0 0 24 1704" fill="none" xmlns="http://www.w3.org/2000/svg" xmlns:xlink="http://www.w3.org/1999/xlink">
	<defs/>
	<path id="Vector 37" d="M12 12L12 1692" stroke="#FFFFFF" stroke-opacity="1.000000" stroke-width="4.000000"/>
	<rect id="Rectangle 56" x="24.000000" rx="12.000000" width="24.000000" height="24.000000" transform="rotate(90 24.000000 0.000000)" fill="#FFFFFF" fill-opacity="1.000000"/>
	<rect id="Rectangle 58" x="24.000000" y="210.000000" rx="12.000000" width="24.000000" height="24.000000" transform="rotate(90 24.000000 210.000000)" fill="#FFFFFF" fill-opacity="1.000000"/>
	<rect id="Rectangle 59" x="24.000000" y="420.000000" rx="12.000000" width="24.000000" height="24.000000" transform="rotate(90 24.000000 420.000000)" fill="#FFFFFF" fill-opacity="1.000000"/>
	<rect id="Rectangle 60" x="24.000000" y="630.000000" rx="12.000000" width="24.000000" height="24.000000" transform="rotate(90 24.000000 630.000000)" fill="#FFFFFF" fill-opacity="1.000000"/>
	<rect id="Rectangle 61" x="24.000000" y="840.000000" rx="12.000000" width="24.000000" height="24.000000" transform="rotate(90 24.000000 840.000000)" fill="#FFFFFF" fill-opacity="1.000000"/>
	<rect id="Rectangle 62" x="24.000000" y="1050.000000" rx="12.000000" width="24.000000" height="24.000000" transform="rotate(90 24.000000 1050.000000)" fill="#FFFFFF" fill-opacity="1.000000"/>
	<rect id="Rectangle 63" x="24.000000" y="1260.000000" rx="12.000000" width="24.000000" height="24.000000" transform="rotate(90 24.000000 1260.000000)" fill="#FFFFFF" fill-opacity="1.000000"/>
	<rect id="Rectangle 64" x="24.000000" y="1470.000000" rx="12.000000" width="24.000000" height="24.000000" transform="rotate(90 24.000000 1470.000000)" fill="#FFFFFF" fill-opacity="1.000000"/>
	<rect id="Rectangle 57" x="24.000000" y="1680.000000" rx="12.000000" width="24.000000" height="24.000000" transform="rotate(90 24.000000 1680.000000)" fill="#FFFFFF" fill-opacity="1.000000"/>
</svg>
