<svg width="180.000000" height="180.000000" viewBox="0 0 180 180" fill="none" xmlns="http://www.w3.org/2000/svg" xmlns:xlink="http://www.w3.org/1999/xlink">
	<desc>
			Created with Pixso.
	</desc>
	<defs>
		<clipPath id="clip2459_6076">
			<rect id="Frame 29357" rx="0.000000" width="179.000000" height="179.000000" transform="translate(0.500000 0.500000)" fill="white" fill-opacity="0"/>
		</clipPath>
	</defs>
	<g clip-path="url(#clip2459_6076)">
		<rect id="Rectangle 72" rx="14.000000" width="180.000000" height="180.000000" fill="#2B24FF" fill-opacity="1.000000"/>
		<path id="Vector" d="M56.77 92.94C33.03 94.63 33.11 129.3 56.77 130.99L112.93 130.99C119.75 131.08 126.32 128.46 131.37 123.89C148.04 109.26 139.11 79.92 117.22 77.13C109.39 29.44 40.77 47.54 57.02 92.94L56.77 92.94Z" fill="#FFFFFF" fill-opacity="1.000000" fill-rule="nonzero"/>
		<path id="Vector" d="M56.77 92.94C33.03 94.63 33.11 129.3 56.77 130.99L112.93 130.99C119.75 131.08 126.32 128.46 131.37 123.89C148.04 109.26 139.11 79.92 117.22 77.13C109.39 29.44 40.77 47.54 57.02 92.94L56.77 92.94Z" fill="#FFFFFF" fill-opacity="0.440000" fill-rule="nonzero"/>
		<path id="Vector" d="M55.97 93.04C33.49 95.65 41.46 129.33 64.77 130.99L120.93 130.99C127.75 131.08 134.32 128.46 139.37 123.89C156.04 109.26 143.39 75.29 121.5 72.49C116.03 30.8 41.83 47.29 56.66 91.97C56.76 92.29 56.88 92.62 57 92.94C56.65 92.97 56.3 93 55.97 93.04ZM64.81 129.99Q60.79 129.7 57.33 128.17Q53.85 126.63 50.92 123.85Q47.87 120.94 46.07 117.4Q44.73 114.76 44.08 111.76Q42.85 106.01 44.77 101.66Q45.17 100.75 45.71 99.9Q46.55 98.58 47.65 97.56Q51.07 94.37 57.07 93.94L58.38 93.85L57.94 92.61Q54.21 82.19 56.56 73.4Q57.7 69.13 60.28 65.24Q61.88 62.82 63.86 60.75Q70.5 53.82 81.35 50.91Q92.47 47.92 101.85 50.74Q104.17 51.44 106.38 52.49Q111.67 55 115.02 59.09Q119.44 64.49 120.5 72.62L120.6 73.39L121.37 73.49Q122.96 73.69 124.5 74.11Q130.26 75.7 135.18 80.37Q136.27 81.41 137.25 82.53Q141.58 87.45 143.95 94.09Q146.76 101.95 145.79 109.3Q145.75 109.62 145.7 109.93Q144.85 115.44 141.97 119.52Q140.57 121.5 138.7 123.15Q134.37 127.06 129.3 128.74Q125.34 130.05 120.93 129.99L64.81 129.99Z" fill="#FFFFFF" fill-opacity="1.000000" fill-rule="evenodd"/>
	</g>
</svg>
