<svg width="104.710938" height="84.999969" viewBox="0 0 104.711 85" fill="none" xmlns="http://www.w3.org/2000/svg" xmlns:xlink="http://www.w3.org/1999/xlink">
	<desc>
			Created with Pixso.
	</desc>
	<defs/>
	<path id="Vector" d="M18.42 45.55C-6.19 47.3 -6.1 83.24 18.42 84.99L76.63 84.99C83.7 85.08 90.51 82.36 95.75 77.63C113.03 62.47 103.78 32.05 81.08 29.16C72.97 -20.27 1.84 -1.52 18.68 45.55L18.42 45.55Z" fill="#FFFFFF" fill-opacity="1.000000" fill-rule="nonzero"/>
	<path id="Vector" d="M18.42 45.55C-6.19 47.3 -6.1 83.24 18.42 84.99L76.63 84.99C83.7 85.08 90.51 82.36 95.75 77.63C113.03 62.47 103.78 32.05 81.08 29.16C72.97 -20.27 1.84 -1.52 18.68 45.55L18.42 45.55Z" fill="#FFFFFF" fill-opacity="0.440000" fill-rule="nonzero"/>
</svg>
