<svg width="83.000000" height="85.000015" viewBox="0 0 83 85" fill="none" xmlns="http://www.w3.org/2000/svg" xmlns:xlink="http://www.w3.org/1999/xlink">
	<desc>
			Created with Pixso.
	</desc>
	<defs/>
	<path id="Vector (Stroke)" d="M44.43 1.24C46.05 2.9 46.05 5.59 44.43 7.25L36.13 15.75C35.95 15.93 35.76 16.09 35.57 16.23C36.7 18.35 37.34 20.78 37.34 23.37C37.34 31.59 30.84 38.25 22.82 38.25C14.8 38.25 8.3 31.59 8.3 23.37C8.3 15.15 14.8 8.5 22.82 8.5C25.34 8.5 27.72 9.15 29.79 10.32C29.93 10.11 30.08 9.92 30.26 9.74L38.56 1.24C40.18 -0.42 42.81 -0.42 44.43 1.24ZM53.94 14.87C53.94 6.65 60.45 0 68.47 0C76.49 0 83 6.65 83 14.87C83 23.09 76.49 29.75 68.47 29.75C65.94 29.75 63.57 29.09 61.5 27.92C61.36 28.13 61.21 28.32 61.03 28.5L27.83 62.5C27.65 62.68 27.47 62.84 27.27 62.98C28.4 65.1 29.05 67.53 29.05 70.12C29.05 78.34 22.54 85 14.52 85C6.5 85 0 78.34 0 70.12C0 61.9 6.5 55.25 14.52 55.25C17.05 55.25 19.42 55.91 21.49 57.07C21.63 56.86 21.78 56.67 21.96 56.49L55.16 22.49C55.34 22.31 55.52 22.15 55.72 22.01C54.59 19.89 53.94 17.46 53.94 14.87ZM68.47 8.5C65.03 8.5 62.25 11.35 62.25 14.87C62.25 18.39 65.03 21.25 68.47 21.25C71.91 21.25 74.69 18.39 74.69 14.87C74.69 11.35 71.91 8.5 68.47 8.5ZM22.82 17C19.38 17 16.59 19.85 16.59 23.37C16.59 26.89 19.38 29.75 22.82 29.75C26.26 29.75 29.05 26.89 29.05 23.37C29.05 19.85 26.26 17 22.82 17ZM45.65 61.62C45.65 53.4 52.15 46.75 60.17 46.75C68.19 46.75 74.69 53.4 74.69 61.62C74.69 69.84 68.19 76.5 60.17 76.5C57.65 76.5 55.27 75.83 53.2 74.67C53.06 74.88 52.91 75.07 52.73 75.25L44.43 83.75C42.81 85.41 40.18 85.41 38.56 83.75C36.94 82.09 36.94 79.4 38.56 77.74L46.86 69.24C47.04 69.06 47.23 68.9 47.42 68.76C46.29 66.64 45.65 64.21 45.65 61.62ZM60.17 55.25C56.73 55.25 53.94 58.1 53.94 61.62C53.94 65.14 56.73 68 60.17 68C63.61 68 66.4 65.14 66.4 61.62C66.4 58.1 63.61 55.25 60.17 55.25ZM14.52 63.75C11.08 63.75 8.3 66.6 8.3 70.12C8.3 73.64 11.08 76.5 14.52 76.5C17.96 76.5 20.75 73.64 20.75 70.12C20.75 66.6 17.96 63.75 14.52 63.75Z" fill="#FFFFFF" fill-opacity="1.000000" fill-rule="evenodd"/>
</svg>
