<svg width="80" height="80" viewBox="0 0 80 80" fill="none" xmlns="http://www.w3.org/2000/svg">
<path fill-rule="evenodd" clip-rule="evenodd" d="M0 8C0 3.58171 3.58171 0 8 0H24C28.4183 0 32 3.58171 32 8V13.3333H48V8C48 3.58171 51.5819 0 56 0H72C76.4181 0 80 3.58171 80 8V24C80 28.4183 76.4181 32 72 32H66.6667V48H72C76.4181 48 80 51.5819 80 56V72C80 76.4181 76.4181 80 72 80H56C51.5819 80 48 76.4181 48 72V66.6667H32V72C32 76.4181 28.4183 80 24 80H8C3.58171 80 0 76.4181 0 72V56C0 51.5819 3.58171 48 8 48H13.3333V32H8C3.58171 32 0 28.4183 0 24V8ZM61.3333 32H56C51.5819 32 48 28.4183 48 24V18.6667H32V24C32 28.4183 28.4183 32 24 32H18.6667V48H24C28.4183 48 32 51.5819 32 56V61.3333H48V56C48 51.5819 51.5819 48 56 48H61.3333V32ZM8 5.33333C6.52725 5.33333 5.33333 6.52725 5.33333 8V24C5.33333 25.4727 6.52725 26.6667 8 26.6667H24C25.4727 26.6667 26.6667 25.4727 26.6667 24V8C26.6667 6.52725 25.4727 5.33333 24 5.33333H8ZM5.33333 56C5.33333 54.5275 6.52725 53.3333 8 53.3333H24C25.4727 53.3333 26.6667 54.5275 26.6667 56V72C26.6667 73.4725 25.4727 74.6667 24 74.6667H8C6.52725 74.6667 5.33333 73.4725 5.33333 72V56ZM53.3333 56C53.3333 54.5275 54.5275 53.3333 56 53.3333H72C73.4725 53.3333 74.6667 54.5275 74.6667 56V72C74.6667 73.4725 73.4725 74.6667 72 74.6667H56C54.5275 74.6667 53.3333 73.4725 53.3333 72V56ZM53.3333 8C53.3333 6.52725 54.5275 5.33333 56 5.33333H72C73.4725 5.33333 74.6667 6.52725 74.6667 8V24C74.6667 25.4727 73.4725 26.6667 72 26.6667H56C54.5275 26.6667 53.3333 25.4727 53.3333 24V8Z" fill="white"/>
</svg>
