<svg width="65" height="80" viewBox="0 0 65 80" fill="none" xmlns="http://www.w3.org/2000/svg">
<path d="M19.3375 61.5841C19.3375 65.506 16.1782 68.6861 12.282 68.6861H7.05351C3.15733 68.6861 -0.00195312 65.506 -0.00195312 61.5841V40.9541C-0.000935315 37.0322 3.15835 33.8521 7.05453 33.8521H12.283C16.1792 33.8521 19.3385 37.0322 19.3385 40.9541L19.3375 61.5841ZM15.2662 40.9541C15.2662 39.2954 13.9298 37.9502 12.282 37.9502H7.05351C5.40567 37.9502 4.06929 39.2954 4.06929 40.9541V61.5851C4.07031 63.2438 5.40669 64.588 7.05453 64.588H12.283C13.9309 64.588 15.2672 63.2428 15.2672 61.5841L15.2662 40.9541Z" fill="white"/>
<path d="M41.9918 61.5844C41.9918 65.5063 38.8325 68.6864 34.9363 68.6864H29.7078C25.8116 68.6864 22.6523 65.5063 22.6523 61.5844V29.6846C22.6523 25.7627 25.8116 22.5825 29.7078 22.5825H34.9363C38.8325 22.5825 41.9918 25.7627 41.9918 29.6846V61.5844ZM37.9205 29.6846C37.9205 28.0259 36.5841 26.6806 34.9363 26.6806H29.7078C28.06 26.6806 26.7236 28.0259 26.7236 29.6846V61.5854C26.7236 63.2441 28.06 64.5893 29.7078 64.5893H34.9363C36.5841 64.5893 37.9205 63.2441 37.9205 61.5854V29.6846Z" fill="white"/>
<path d="M64.6461 61.5837C64.6461 65.5056 61.4868 68.6857 57.5906 68.6857H52.3621C48.4659 68.6857 45.3066 65.5056 45.3066 61.5837V18.4141C45.3077 14.4922 48.4669 11.312 52.3631 11.312H57.5916C61.4878 11.312 64.6471 14.4922 64.6471 18.4141L64.6461 61.5837ZM60.5748 18.4141C60.5748 16.7553 59.2394 15.4101 57.5916 15.4101H52.3631C50.7153 15.4101 49.3789 16.7553 49.3789 18.4141V61.5847C49.3789 63.2434 50.7153 64.5886 52.3631 64.5886H57.5916C59.2394 64.5886 60.5758 63.2434 60.5758 61.5847L60.5748 18.4141Z" fill="white"/>
</svg>
