<svg width="77.000000" height="90.000000" viewBox="0 0 77 90" fill="none" xmlns="http://www.w3.org/2000/svg" xmlns:xlink="http://www.w3.org/1999/xlink">
	<desc>
			Created with Pixso.
	</desc>
	<defs/>
	<path id="Vector" d="M12.15 0C5.44 0 0 5.49 0 12.27L0 77.72C0 84.5 5.44 90 12.15 90L64.84 90C71.55 90 77 84.5 77 77.72L77 36.81C77 35.73 76.57 34.69 75.81 33.92L43.39 1.19C43 0.8 42.54 0.5 42.04 0.29C41.56 0.1 41.05 0 40.52 0L12.15 0ZM36.47 8.18L12.15 8.18C9.91 8.18 8.1 10.01 8.1 12.27L8.1 77.72C8.1 79.98 9.91 81.81 12.15 81.81L64.84 81.81C67.08 81.81 68.89 79.98 68.89 77.72L68.89 40.9L40.52 40.9C38.28 40.9 36.47 39.07 36.47 36.81L36.47 8.18ZM63.16 32.72L44.57 13.96L44.57 32.72L63.16 32.72Z" fill="#FFFFFF" fill-opacity="1.000000" fill-rule="evenodd"/>
	<path id="Vector" d="M12.15 0C5.44 0 0 5.49 0 12.27L0 77.72C0 84.5 5.44 90 12.15 90L64.84 90C71.55 90 77 84.5 77 77.72L77 36.81C77 35.73 76.57 34.69 75.81 33.92L43.39 1.19C43 0.8 42.54 0.5 42.04 0.29C41.56 0.1 41.05 0 40.52 0L12.15 0ZM36.47 8.18L12.15 8.18C9.91 8.18 8.1 10.01 8.1 12.27L8.1 77.72C8.1 79.98 9.91 81.81 12.15 81.81L64.84 81.81C67.08 81.81 68.89 79.98 68.89 77.72L68.89 40.9L40.52 40.9C38.28 40.9 36.47 39.07 36.47 36.81L36.47 8.18ZM63.16 32.72L44.57 13.96L44.57 32.72L63.16 32.72Z" fill="#FFFFFF" fill-opacity="0.440000" fill-rule="evenodd"/>
</svg>
