<svg width="80" height="80" viewBox="0 0 80 80" fill="none" xmlns="http://www.w3.org/2000/svg">
<path d="M38.332 46.6665C37.332 46.6665 36.6654 45.9998 36.6654 44.9998C36.6654 43.9998 37.332 43.3332 38.332 43.3332H41.6654C42.6654 43.3332 43.332 42.6665 43.332 41.6665C43.332 40.6665 42.6654 39.9998 41.6654 39.9998H39.9987V38.3332C39.9987 37.3332 39.332 36.6665 38.332 36.6665C37.332 36.6665 36.6654 37.3332 36.6654 38.3332V40.3332C34.6654 40.9998 33.332 42.9998 33.332 44.9998C33.332 47.6665 35.6654 49.9998 38.332 49.9998C39.332 49.9998 39.9987 50.6665 39.9987 51.6665C39.9987 52.6665 39.332 53.3332 38.332 53.3332H34.9987C33.9987 53.3332 33.332 53.9998 33.332 54.9998C33.332 55.9998 33.9987 56.6665 34.9987 56.6665H36.6654V58.3332C36.6654 59.3332 37.332 59.9998 38.332 59.9998C39.332 59.9998 39.9987 59.3332 39.9987 58.3332V56.3332C41.9987 55.6665 43.332 53.6665 43.332 51.6665C43.332 48.9998 40.9987 46.6665 38.332 46.6665Z" fill="white"/>
<path d="M70 60C67.3333 60 64.6667 61.3333 62.6667 63L54.3333 57.3333C55.6667 54.6667 56.6667 51.6667 56.6667 48.3333C56.6667 46.3333 56.3333 44.3333 55.6667 42.3333L61.6667 39.6667C63.3333 41.6667 65.6667 43.3333 68.3333 43.3333C73 43.3333 76.6667 39.6667 76.6667 35C76.6667 30.3333 73 26.6667 68.3333 26.6667C68 26.6667 67.3333 26.6667 67 26.6667L65 22C66 21 66.6667 19.6667 66.6667 18.3333C66.6667 15.6667 64.3333 13.3333 61.6667 13.3333C59 13.3333 56.6667 15.6667 56.6667 18.3333C56.6667 21 59 23.3333 61.6667 23.3333H62L64 28C61.6667 29.6667 60 32 60 35C60 35.6667 60 36.3333 60.3333 36.6667L54.3333 39.3333C51.3333 33.6667 45.3333 30 38.3333 30C33.3333 30 29 32 25.6667 35L21.3333 31.3333C22.6667 29.6667 23.3333 27.3333 23.3333 25C23.3333 23 22.6667 21.3333 22 19.6667L29.3333 14.3333C30.6667 15.6667 32.6667 16.6667 35 16.6667C39.3333 16.6667 43 13 43.3333 8.66667L50.6667 7.33333C51.3333 9 53 10 55 10C57.6667 10 60 7.66667 60 5C60 2.33333 57.6667 0 55 0C52.6667 0 50.6667 1.66667 50 4L42.6667 5.33333C41.6667 2.33333 38.6667 0 35 0C30.3333 0 26.6667 3.66667 26.6667 8.33333C26.6667 9.66667 27 10.6667 27.3333 11.6667L20 17C18 14.6667 15 13.3333 11.6667 13.3333C5.33333 13.3333 0 18.6667 0 25C0 31.3333 5.33333 36.6667 11.6667 36.6667C14.6667 36.6667 17.3333 35.6667 19.3333 33.6667L23.6667 37.3333C21.3333 40.3333 20 44 20 48C20 51.6667 21 54.6667 22.6667 57.6667L17 62C15.6667 60.6667 13.6667 60 11.3333 60C7 60 3.33333 63.6667 3.33333 68.3333C3.33333 73 7 76.6667 11.6667 76.6667C16.3333 76.6667 20 73 20 68.3333C20 67 19.6667 66 19.3333 64.6667L25 60.3333C28.3333 64 33.3333 66.3333 38.6667 66.3333C44.3333 66.3333 49.3333 63.6667 52.6667 59.6667L61 65.3333C60.3333 67 60 68.6667 60 70C60 75.6667 64.3333 80 70 80C75.6667 80 80 75.6667 80 70C80 64.3333 75.6667 60 70 60ZM60 18.3333C60 17.3333 60.6667 16.6667 61.6667 16.6667C62.6667 16.6667 63.3333 17.3333 63.3333 18.3333C63.3333 19.3333 62.6667 20 61.6667 20C60.6667 20 60 19.3333 60 18.3333ZM68.3333 30C71 30 73.3333 32.3333 73.3333 35C73.3333 37.6667 71 40 68.3333 40C65.6667 40 63.3333 37.6667 63.3333 35C63.3333 32.3333 65.6667 30 68.3333 30ZM55 3.33333C56 3.33333 56.6667 4 56.6667 5C56.6667 6 56 6.66667 55 6.66667C54 6.66667 53.3333 6 53.3333 5C53.3333 4 54 3.33333 55 3.33333ZM35 3.33333C37.6667 3.33333 40 5.66667 40 8.33333C40 11 37.6667 13.3333 35 13.3333C32.3333 13.3333 30 11 30 8.33333C30 5.66667 32.3333 3.33333 35 3.33333ZM11.6667 73.3333C9 73.3333 6.66667 71 6.66667 68.3333C6.66667 65.6667 9 63.3333 11.6667 63.3333C14.3333 63.3333 16.6667 65.6667 16.6667 68.3333C16.6667 71 14.3333 73.3333 11.6667 73.3333ZM11.6667 33.3333C7 33.3333 3.33333 29.6667 3.33333 25C3.33333 20.3333 7 16.6667 11.6667 16.6667C16.3333 16.6667 20 20.3333 20 25C20 29.6667 16.3333 33.3333 11.6667 33.3333ZM38.3333 63.3333C30 63.3333 23.3333 56.6667 23.3333 48.3333C23.3333 40 30 33.3333 38.3333 33.3333C46.6667 33.3333 53.3333 40 53.3333 48.3333C53.3333 56.6667 46.6667 63.3333 38.3333 63.3333ZM70 76.6667C66.3333 76.6667 63.3333 73.6667 63.3333 70C63.3333 66.3333 66.3333 63.3333 70 63.3333C73.6667 63.3333 76.6667 66.3333 76.6667 70C76.6667 73.6667 73.6667 76.6667 70 76.6667Z" fill="white"/>
</svg>
