<svg width="80.000000" height="80.000000" viewBox="0 0 80 80" fill="none" xmlns="http://www.w3.org/2000/svg" xmlns:xlink="http://www.w3.org/1999/xlink">
	<defs/>
	<path id="Vector (Stroke)" d="M1.06 1.06C2.48 -0.36 4.78 -0.36 6.2 1.06L13.48 8.33C14.9 9.75 14.9 12.06 13.48 13.48C12.06 14.9 9.75 14.9 8.33 13.48L1.06 6.2C-0.36 4.78 -0.36 2.48 1.06 1.06ZM21.81 3.63C21.81 1.62 23.44 0 25.45 0C27.46 0 29.09 1.62 29.09 3.63L29.09 9.09C29.09 11.09 27.46 12.72 25.45 12.72C23.44 12.72 21.81 11.09 21.81 9.09L21.81 3.63ZM50.9 3.63C50.9 1.62 52.53 0 54.54 0C56.55 0 58.18 1.62 58.18 3.63L58.18 18.18C58.18 20.18 56.55 21.81 54.54 21.81C52.53 21.81 50.9 20.18 50.9 18.18L50.9 3.63ZM73.79 1.06C75.21 -0.36 77.51 -0.36 78.93 1.06C80.35 2.48 80.35 4.78 78.93 6.2L71.66 13.48C70.24 14.9 67.93 14.9 66.51 13.48C65.09 12.06 65.09 9.75 66.51 8.33L73.79 1.06ZM0 25.45C0 23.44 1.62 21.81 3.63 21.81L18.18 21.81C20.18 21.81 21.81 23.44 21.81 25.45C21.81 27.46 20.18 29.09 18.18 29.09L3.63 29.09C1.62 29.09 0 27.46 0 25.45ZM40 29.09C33.97 29.09 29.09 33.97 29.09 40C29.09 46.02 33.97 50.9 40 50.9C46.02 50.9 50.9 46.02 50.9 40C50.9 33.97 46.02 29.09 40 29.09ZM21.81 40C21.81 29.95 29.95 21.81 40 21.81C50.04 21.81 58.18 29.95 58.18 40C58.18 50.04 50.04 58.18 40 58.18C29.95 58.18 21.81 50.04 21.81 40ZM67.27 25.45C67.27 23.44 68.9 21.81 70.9 21.81L76.36 21.81C78.37 21.81 80 23.44 80 25.45C80 27.46 78.37 29.09 76.36 29.09L70.9 29.09C68.9 29.09 67.27 27.46 67.27 25.45ZM0 54.54C0 52.53 1.62 50.9 3.63 50.9L9.09 50.9C11.09 50.9 12.72 52.53 12.72 54.54C12.72 56.55 11.09 58.18 9.09 58.18L3.63 58.18C1.62 58.18 0 56.55 0 54.54ZM58.18 54.54C58.18 52.53 59.81 50.9 61.81 50.9L74.54 50.9C76.55 50.9 78.18 52.53 78.18 54.54C78.18 56.55 76.55 58.18 74.54 58.18L61.81 58.18C59.81 58.18 58.18 56.55 58.18 54.54ZM25.45 58.18C27.46 58.18 29.09 59.81 29.09 61.81L29.09 76.36C29.09 78.37 27.46 80 25.45 80C23.44 80 21.81 78.37 21.81 76.36L21.81 61.81C21.81 59.81 23.44 58.18 25.45 58.18ZM13.48 66.51C14.9 67.93 14.9 70.24 13.48 71.66L6.2 78.93C4.78 80.35 2.48 80.35 1.06 78.93C-0.36 77.51 -0.36 75.21 1.06 73.79L8.33 66.51C9.75 65.09 12.06 65.09 13.48 66.51ZM66.51 66.51C67.93 65.09 70.24 65.09 71.66 66.51L78.93 73.79C80.35 75.21 80.35 77.51 78.93 78.93C77.51 80.35 75.21 80.35 73.79 78.93L66.51 71.66C65.09 70.24 65.09 67.93 66.51 66.51ZM54.54 67.27C56.55 67.27 58.18 68.9 58.18 70.9L58.18 76.36C58.18 78.37 56.55 80 54.54 80C52.53 80 50.9 78.37 50.9 76.36L50.9 70.9C50.9 68.9 52.53 67.27 54.54 67.27Z" fill="#FFFFFF" fill-opacity="1.000000" fill-rule="evenodd"/>
</svg>
