<svg width="56" height="80" viewBox="0 0 56 80" fill="none" xmlns="http://www.w3.org/2000/svg">
<path fill-rule="evenodd" clip-rule="evenodd" d="M56 13.897C56.0025 12.6365 55.7071 11.3933 55.1377 10.2687C54.5676 9.14265 53.7391 8.16747 52.72 7.42286C52.6913 7.40188 52.6623 7.38129 52.633 7.36109C45.4043 2.36983 36.7805 -0.202308 28 0.0124309C19.2195 -0.202308 10.5957 2.36983 3.36698 7.36109C3.33772 7.38129 3.30873 7.40188 3.28002 7.42286C2.26084 8.16748 1.43236 9.14266 0.862293 10.2687C0.293162 11.3929 -0.00227517 12.6356 1.31928e-05 13.8955V52.0048C1.31928e-05 59.4296 2.95 66.5503 8.20102 71.8004C13.452 77.0505 20.5739 80 28 80C35.4261 80 42.548 77.0505 47.799 71.8004C53.05 66.5503 56 59.4296 56 52.0048V13.897ZM8.00001 13.8914L8 13.8829C12.7684 10.6125 18.2824 8.64173 24 8.13148V28.0089H8.00001V13.8914ZM8.00001 36.0076V52.0048C8.00001 57.3082 10.1071 62.3944 13.8579 66.1445C17.6086 69.8946 22.6957 72.0014 28 72.0014C33.3043 72.0014 38.3914 69.8946 42.1421 66.1445C45.8929 62.3944 48 57.3082 48 52.0048V36.0076H8.00001ZM48 28.0089H32V8.13148C37.7176 8.64173 43.2316 10.6125 48 13.8829L48 13.8914V28.0089Z" fill="white"/>
</svg>
