<svg width="80.000000" height="80.000000" viewBox="0 0 80 80" fill="none" xmlns="http://www.w3.org/2000/svg" xmlns:xlink="http://www.w3.org/1999/xlink">
	<desc>
			Created with Pixso.
	</desc>
	<defs/>
	<path id="Vector (Stroke)" d="M79.83 36.42L80 39.98L80 40.02C80 49.31 76.81 57.86 71.48 64.65L71.46 64.69L69.07 67.47L69.04 67.5C67.39 69.24 65.58 70.85 63.63 72.28L63.59 72.31L60.04 74.63L60 74.65C54.6 77.79 48.41 79.7 41.81 79.99L41.77 80L38.22 80L38.18 79.99C31.76 79.7 25.73 77.89 20.44 74.91L20.4 74.89L16.84 72.62L16.8 72.6C14.69 71.09 12.73 69.38 10.95 67.5L10.92 67.47L8.53 64.69L8.51 64.66C3.18 57.86 0 49.31 0 40.02L0 39.98L0.16 36.42L0.17 36.38C2.01 16.01 19.16 0 40 0C60.83 0 77.98 16.01 79.82 36.38L79.83 36.42ZM74.78 40.02C74.78 20.83 59.17 5.22 40 5.22C20.82 5.22 5.21 20.83 5.21 40.02C5.21 59.21 20.82 74.82 40 74.82C59.17 74.82 74.78 59.21 74.78 40.02Z" fill="#FFFFFF" fill-opacity="1.000000" fill-rule="evenodd"/>
	<path id="Vector" d="M17.39 41.76C18.35 41.76 19.13 40.98 19.13 40.02C19.13 39.06 18.35 38.28 17.39 38.28C16.43 38.28 15.65 39.06 15.65 40.02C15.65 40.98 16.43 41.76 17.39 41.76Z" fill="#FFFFFF" fill-opacity="1.000000" fill-rule="nonzero"/>
	<path id="Vector" d="M62.6 41.76C63.56 41.76 64.34 40.98 64.34 40.02C64.34 39.06 63.56 38.28 62.6 38.28C61.64 38.28 60.86 39.06 60.86 40.02C60.86 40.98 61.64 41.76 62.6 41.76Z" fill="#FFFFFF" fill-opacity="1.000000" fill-rule="nonzero"/>
	<path id="Vector" d="M40 71.34C57.25 71.34 71.3 57.29 71.3 40.02C71.3 22.75 57.25 8.7 40 8.7C22.73 8.7 8.69 22.75 8.69 40.02C8.69 57.29 22.73 71.34 40 71.34ZM40 12.18C55.34 12.18 67.82 24.67 67.82 40.02C67.82 55.37 55.34 67.86 40 67.86C24.65 67.86 12.17 55.37 12.17 40.02C12.17 24.67 24.65 12.18 40 12.18Z" fill="#FFFFFF" fill-opacity="1.000000" fill-rule="nonzero"/>
	<path id="Vector" d="M24.34 48.72C25.31 48.72 26.08 47.94 26.08 46.98L26.08 40.43L29.75 47.76C30.04 48.36 30.66 48.72 31.3 48.72C31.43 48.72 31.57 48.7 31.7 48.67C32.49 48.49 33.04 47.79 33.04 46.98L33.04 33.06C33.04 32.1 32.26 31.32 31.3 31.32C30.34 31.32 29.56 32.1 29.56 33.06L29.56 39.61L25.9 32.28C25.54 31.56 24.73 31.18 23.95 31.36C23.16 31.55 22.61 32.25 22.61 33.06L22.61 46.98C22.61 47.94 23.38 48.72 24.34 48.72Z" fill="#FFFFFF" fill-opacity="1.000000" fill-rule="nonzero"/>
	<path id="Vector" d="M45.21 34.8C46.17 34.8 46.95 34.02 46.95 33.06C46.95 32.1 46.17 31.32 45.21 31.32L38.25 31.32C37.29 31.32 36.52 32.1 36.52 33.06L36.52 46.98C36.52 47.94 37.29 48.72 38.25 48.72C39.22 48.72 40 47.94 40 46.98L40 41.76L43.47 41.76C44.43 41.76 45.21 40.98 45.21 40.02C45.21 39.06 44.43 38.28 43.47 38.28L40 38.28L40 34.8L45.21 34.8Z" fill="#FFFFFF" fill-opacity="1.000000" fill-rule="nonzero"/>
	<path id="Vector" d="M50.43 33.06C50.43 34.02 51.21 34.8 52.17 34.8L53.91 34.8L53.91 46.98C53.91 47.94 54.68 48.72 55.65 48.72C56.61 48.72 57.39 47.94 57.39 46.98L57.39 34.8L59.12 34.8C60.09 34.8 60.86 34.02 60.86 33.06C60.86 32.1 60.09 31.32 59.12 31.32L52.17 31.32C51.21 31.32 50.43 32.1 50.43 33.06Z" fill="#FFFFFF" fill-opacity="1.000000" fill-rule="nonzero"/>
	<path id="Vector" d="M30.52 27.54L40 21.23L49.46 27.54C49.76 27.74 50.1 27.84 50.43 27.84C50.99 27.84 51.54 27.57 51.88 27.06C52.41 26.26 52.19 25.18 51.39 24.65L40.96 17.69C40.38 17.3 39.62 17.3 39.03 17.69L28.6 24.65C27.8 25.18 27.58 26.26 28.11 27.06C28.65 27.86 29.72 28.08 30.52 27.54Z" fill="#FFFFFF" fill-opacity="1.000000" fill-rule="nonzero"/>
	<path id="Vector" d="M49.46 52.49L40 58.81L30.52 52.49C29.72 51.96 28.65 52.17 28.11 52.97C27.58 53.77 27.79 54.85 28.59 55.39L39.03 62.35C39.32 62.54 39.66 62.64 40 62.64C40.33 62.64 40.67 62.54 40.96 62.35L51.39 55.39C52.19 54.85 52.41 53.77 51.88 52.97C51.34 52.17 50.26 51.96 49.46 52.49Z" fill="#FFFFFF" fill-opacity="1.000000" fill-rule="nonzero"/>
</svg>
