<svg width="66" height="80" viewBox="0 0 66 80" fill="none" xmlns="http://www.w3.org/2000/svg">
<path d="M65.9968 70.0232C65.9968 60.7337 58.5514 53.203 49.3672 53.203H45.0745C42.8461 53.203 41.0395 51.3758 41.0395 49.1218C41.0395 48.2847 41.3744 47.4834 41.9637 46.8971C44.4594 44.4347 46.5591 41.1319 48.079 37.575C48.3882 37.8063 48.7199 37.9724 49.0934 37.9724C51.5054 37.9724 54.3361 32.585 54.3361 28.9109C54.3361 25.2368 54.0012 22.2597 51.5859 22.2597C51.3026 22.2597 50.9966 22.3085 50.6907 22.3867C50.52 12.4262 48.0307 0 32.9952 0C17.3059 0 15.4735 12.4034 15.2996 22.3541C15.0807 22.3118 14.8552 22.2629 14.6524 22.2629C12.2404 22.2629 11.9054 25.24 11.9054 28.9141C11.9054 32.5882 14.7361 37.9756 17.1481 37.9756C17.4444 37.9756 17.7213 37.891 17.9789 37.7411C19.4925 41.2426 21.5663 44.4835 24.0266 46.9036C24.6192 47.4899 24.9509 48.2912 24.9509 49.1283C24.9509 51.3823 23.1443 53.2096 20.9158 53.2096H16.6296C7.44533 53.203 0 60.7337 0 70.0232V74.6875C0 77.619 2.35082 80 5.25231 80H60.7445C63.6492 80 66 77.6222 66 74.6875L65.9968 70.0232Z" fill="white"/>
</svg>
