<svg width="82.669922" height="82.666656" viewBox="0 0 82.6699 82.6667" fill="none" xmlns="http://www.w3.org/2000/svg" xmlns:xlink="http://www.w3.org/1999/xlink">
	<defs/>
	<path id="Vector" d="M77.33 56C74.19 62.27 69.37 67.55 63.41 71.24C57.44 74.93 50.57 76.88 43.55 76.88C37.69 76.9 31.9 75.53 26.66 72.88L1.33 81.33L9.78 56C7.13 50.76 5.76 44.97 5.78 39.11C5.78 32.09 7.73 25.22 11.42 19.25C15.11 13.29 20.39 8.46 26.66 5.33C31.9 2.68 37.69 1.31 43.55 1.33L45.78 1.33C55.04 1.84 63.79 5.75 70.35 12.31C76.91 18.87 80.82 27.62 81.33 36.88L81.33 39.11C81.35 44.97 79.98 50.76 77.33 56Z" stroke="#FFFFFF" stroke-opacity="1.000000" stroke-width="2.666667" stroke-linejoin="round"/>
	<circle id="Ellipse 2" cx="29.871094" cy="41.078613" r="6.114649" fill="#FFFFFF" fill-opacity="1.000000"/>
	<circle id="Ellipse 3" cx="44.138672" cy="41.078613" r="6.114649" fill="#FFFFFF" fill-opacity="1.000000"/>
	<circle id="Ellipse 4" cx="58.406250" cy="41.078613" r="6.114649" fill="#FFFFFF" fill-opacity="1.000000"/>
</svg>
