<svg width="72.000000" height="90.000000" viewBox="0 0 72 90" fill="none" xmlns="http://www.w3.org/2000/svg" xmlns:xlink="http://www.w3.org/1999/xlink">
	<desc>
			Created with Pixso.
	</desc>
	<defs/>
	<path id="Vector" d="M72 6L72 84C72 87.31 69.31 90 66 90L6 90C2.68 90 0 87.31 0 84L0 6C0 2.68 2.68 0 6 0L66 0C69.31 0 72 2.68 72 6ZM57 9L15 9C11.68 9 9 11.68 9 15L9 75C9 78.31 11.68 81 15 81L57 81C60.31 81 63 78.31 63 75L63 15C63 11.68 60.31 9 57 9ZM49.5 58.5C51.98 58.5 54 60.51 54 63C54 65.48 51.98 67.5 49.5 67.5L22.5 67.5C20.01 67.5 18 65.48 18 63C18 60.51 20.01 58.5 22.5 58.5L49.5 58.5ZM49.5 40.5C51.98 40.5 54 42.51 54 45C54 47.48 51.98 49.5 49.5 49.5L22.5 49.5C20.01 49.5 18 47.48 18 45C18 42.51 20.01 40.5 22.5 40.5L49.5 40.5ZM49.5 22.5C51.98 22.5 54 24.51 54 27C54 29.48 51.98 31.5 49.5 31.5L22.5 31.5C20.01 31.5 18 29.48 18 27C18 24.51 20.01 22.5 22.5 22.5L49.5 22.5Z" fill="#FFFFFF" fill-opacity="1.000000" fill-rule="evenodd"/>
	<path id="Vector" d="M72 6L72 84C72 87.31 69.31 90 66 90L6 90C2.68 90 0 87.31 0 84L0 6C0 2.68 2.68 0 6 0L66 0C69.31 0 72 2.68 72 6ZM57 9L15 9C11.68 9 9 11.68 9 15L9 75C9 78.31 11.68 81 15 81L57 81C60.31 81 63 78.31 63 75L63 15C63 11.68 60.31 9 57 9ZM49.5 58.5C51.98 58.5 54 60.51 54 63C54 65.48 51.98 67.5 49.5 67.5L22.5 67.5C20.01 67.5 18 65.48 18 63C18 60.51 20.01 58.5 22.5 58.5L49.5 58.5ZM49.5 40.5C51.98 40.5 54 42.51 54 45C54 47.48 51.98 49.5 49.5 49.5L22.5 49.5C20.01 49.5 18 47.48 18 45C18 42.51 20.01 40.5 22.5 40.5L49.5 40.5ZM49.5 22.5C51.98 22.5 54 24.51 54 27C54 29.48 51.98 31.5 49.5 31.5L22.5 31.5C20.01 31.5 18 29.48 18 27C18 24.51 20.01 22.5 22.5 22.5L49.5 22.5Z" fill="#FFFFFF" fill-opacity="0.440000" fill-rule="evenodd"/>
</svg>
