<svg width="102.000000" height="90.000000" viewBox="0 0 102 90" fill="none" xmlns="http://www.w3.org/2000/svg" xmlns:xlink="http://www.w3.org/1999/xlink">
	<defs/>
	<path id="Union" d="M18 18L18 21C18 25.97 22.02 30 27 30C31.97 30 36 25.97 36 21L36 18L99 18C100.65 18 102 16.65 102 15C102 13.34 100.65 12 99 12L36 12L36 9C36 4.02 31.97 0 27 0C22.02 0 18 4.02 18 9L18 12L3 12C1.34 12 0 13.34 0 15C0 16.65 1.34 18 3 18L18 18ZM27 6C25.34 6 24 7.34 24 9L24 14.99L24 15L24 15L24 21C24 22.65 25.34 24 27 24C28.65 24 30 22.65 30 21L30 15L30 15L30 14.99L30 9C30 7.34 28.65 6 27 6ZM84 51L84 48L99 48C100.65 48 102 46.65 102 45C102 43.34 100.65 42 99 42L84 42L84 39C84 34.02 79.97 30 75 30C70.02 30 66 34.02 66 39L66 42L3 42C1.34 42 0 43.34 0 45C0 46.65 1.34 48 3 48L66 48L66 51C66 55.97 70.02 60 75 60C79.97 60 84 55.97 84 51ZM75 36C73.34 36 72 37.34 72 39L72 51C72 52.65 73.34 54 75 54C76.65 54 78 52.65 78 51L78 45L78 45L78 44.99L78 39C78 37.34 76.65 36 75 36ZM18 69L18 72L3 72C1.34 72 0 73.34 0 75C0 76.65 1.34 78 3 78L18 78L18 81C18 85.97 22.02 90 27 90C31.97 90 36 85.97 36 81L36 78L99 78C100.65 78 102 76.65 102 75C102 73.34 100.65 72 99 72L36 72L36 69C36 64.02 31.97 60 27 60C22.02 60 18 64.02 18 69ZM27 66C25.34 66 24 67.34 24 69L24 74.99L24 75L24 75L24 81C24 82.65 25.34 84 27 84C28.65 84 30 82.65 30 81L30 75L30 75L30 74.99L30 69C30 67.34 28.65 66 27 66Z" fill="#FFFFFF" fill-opacity="1.000000" fill-rule="evenodd"/>
	<path id="Union" d="M18 18L18 21C18 25.97 22.02 30 27 30C31.97 30 36 25.97 36 21L36 18L99 18C100.65 18 102 16.65 102 15C102 13.34 100.65 12 99 12L36 12L36 9C36 4.02 31.97 0 27 0C22.02 0 18 4.02 18 9L18 12L3 12C1.34 12 0 13.34 0 15C0 16.65 1.34 18 3 18L18 18ZM27 6C25.34 6 24 7.34 24 9L24 14.99L24 15L24 15L24 21C24 22.65 25.34 24 27 24C28.65 24 30 22.65 30 21L30 15L30 15L30 14.99L30 9C30 7.34 28.65 6 27 6ZM84 51L84 48L99 48C100.65 48 102 46.65 102 45C102 43.34 100.65 42 99 42L84 42L84 39C84 34.02 79.97 30 75 30C70.02 30 66 34.02 66 39L66 42L3 42C1.34 42 0 43.34 0 45C0 46.65 1.34 48 3 48L66 48L66 51C66 55.97 70.02 60 75 60C79.97 60 84 55.97 84 51ZM75 36C73.34 36 72 37.34 72 39L72 51C72 52.65 73.34 54 75 54C76.65 54 78 52.65 78 51L78 45L78 45L78 44.99L78 39C78 37.34 76.65 36 75 36ZM18 69L18 72L3 72C1.34 72 0 73.34 0 75C0 76.65 1.34 78 3 78L18 78L18 81C18 85.97 22.02 90 27 90C31.97 90 36 85.97 36 81L36 78L99 78C100.65 78 102 76.65 102 75C102 73.34 100.65 72 99 72L36 72L36 69C36 64.02 31.97 60 27 60C22.02 60 18 64.02 18 69ZM27 66C25.34 66 24 67.34 24 69L24 74.99L24 75L24 75L24 81C24 82.65 25.34 84 27 84C28.65 84 30 82.65 30 81L30 75L30 75L30 74.99L30 69C30 67.34 28.65 66 27 66Z" fill="#FFFFFF" fill-opacity="0.440000" fill-rule="evenodd"/>
</svg>
