<svg width="80.000000" height="80.000000" viewBox="0 0 80 80" fill="none" xmlns="http://www.w3.org/2000/svg" xmlns:xlink="http://www.w3.org/1999/xlink">
	<desc>
			Created with Pixso.
	</desc>
	<defs/>
	<path id="Vector" d="M32.75 79.38C31.31 79.1 30.45 77.96 30.45 76.53L30.45 70.83C29.01 70.25 27.28 69.68 25.84 69.11L21.53 73.39C20.67 74.25 18.94 74.53 18.08 73.68C14.06 71.11 10.6 67.69 7.73 63.98C6.87 62.84 6.87 61.12 8.02 60.27L12.04 56.27C10.89 54.28 9.74 51.99 9.17 49.71L3.41 49.71C1.98 49.71 0.83 48.57 0.54 47.43C-0.04 45.15 -0.32 35.73 0.54 33.16C0.83 31.74 1.98 30.88 3.41 30.88L9.17 30.88C9.74 29.17 10.32 27.46 11.18 25.75L6.87 21.18C6 20.32 5.72 18.9 6.58 17.76C9.17 13.76 12.62 10.34 16.64 7.48C17.79 6.63 19.23 6.91 20.38 7.77L24.41 11.76C26.42 10.62 28.43 9.77 30.45 9.2L30.45 3.49C30.45 2.06 31.31 0.92 32.75 0.64C37.35 -0.22 42.52 -0.22 47.12 0.64C48.56 0.92 49.42 2.06 49.42 3.49L49.42 9.2C51.73 9.77 54.03 10.91 56.04 12.05L60.07 8.06C60.93 6.91 62.65 6.91 63.8 7.77C67.83 10.62 70.99 14.05 73.58 18.04C74.44 19.18 74.16 20.61 73.29 21.47L68.98 25.75C69.84 27.17 70.42 28.6 70.7 30.31L76.46 30.31C77.89 30.31 78.76 31.45 79.33 32.59C80.48 35.73 79.91 44.29 79.33 46.86C79.04 48.29 77.89 49.14 76.46 49.14L70.7 49.14C70.13 51.14 69.27 53.14 68.12 55.13L72.14 59.13C73 59.98 73.29 61.7 72.43 62.84C69.55 66.83 66.1 69.97 62.08 72.82C60.93 73.68 59.49 73.39 58.34 72.54L54.6 68.54C52.88 69.4 51.15 69.97 49.42 70.54L49.42 76.25C49.42 77.67 48.27 78.53 47.12 79.1C43.96 80.24 35.91 80.24 32.75 79.38ZM36.2 73.96C38.78 74.25 41.37 74.25 43.67 73.96L43.67 68.54C43.67 67.12 44.54 65.98 45.97 65.69C48.85 65.12 51.44 63.98 53.74 62.55C54.89 61.98 56.33 61.98 57.19 62.84L61.21 66.83C63.23 65.4 64.95 63.41 66.68 61.7L62.65 57.7C61.79 56.84 61.5 55.13 62.36 54.28C64.09 51.71 65.24 48.86 65.82 46C66.1 44.58 67.25 43.72 68.69 43.72L74.16 43.72C74.44 42.58 74.44 37.44 74.16 36.3L68.69 36.3C67.25 36.3 66.1 35.45 65.82 34.02C65.24 31.45 64.38 29.17 62.94 26.89C62.36 25.75 62.36 24.32 63.51 23.46L67.54 19.47C66.1 17.47 64.38 15.76 62.36 14.05L58.63 17.76C57.76 18.61 56.04 18.9 54.89 18.04C52.01 16.33 49.14 14.9 45.97 14.05C44.54 13.76 43.67 12.62 43.67 11.19L43.67 6.06C41.08 5.77 38.5 5.77 36.2 6.06L36.2 11.48C36.2 12.91 35.33 14.05 33.9 14.33C31.02 14.9 28.15 16.33 25.56 17.76C24.41 18.61 22.97 18.33 22.11 17.47L18.08 13.48C16.07 15.19 14.34 16.9 12.62 18.9L16.64 22.89C17.5 23.75 17.79 25.17 16.93 26.32C15.78 28.88 14.63 31.45 14.06 34.02C13.77 35.45 12.62 36.3 11.18 36.3L5.72 36.3C5.14 37.44 5.14 42.58 5.72 43.72L11.18 43.72C12.62 43.72 13.77 44.58 14.06 46C14.92 49.14 16.07 51.99 18.08 54.85C18.94 55.99 18.66 57.42 17.79 58.56L14.06 62.27C15.78 64.26 17.5 65.98 19.52 67.4L23.54 63.41C24.41 62.55 25.84 62.27 27 62.84C29.3 64.26 31.6 65.12 34.18 65.69C35.62 65.98 36.49 67.12 36.49 68.54L36.49 73.96L36.2 73.96Z" fill="#FFFFFF" fill-opacity="1.000000" fill-rule="nonzero"/>
	<path id="Vector" d="M39.94 57.13C30.45 57.13 22.68 49.43 22.68 40.01C22.68 30.6 30.45 22.89 39.94 22.89C49.42 22.89 57.19 30.6 57.19 40.01C57.19 49.43 49.42 57.13 39.94 57.13ZM39.94 28.6C33.61 28.6 28.43 33.73 28.43 40.01C28.43 46.29 33.61 51.42 39.94 51.42C46.26 51.42 51.44 46.29 51.44 40.01C51.44 33.73 46.26 28.6 39.94 28.6Z" fill="#FFFFFF" fill-opacity="1.000000" fill-rule="nonzero"/>
</svg>
