<svg width="90.000000" height="90.000000" viewBox="0 0 90 90" fill="none" xmlns="http://www.w3.org/2000/svg" xmlns:xlink="http://www.w3.org/1999/xlink">
	<defs/>
	<path id="Union" d="M75 26.25L85.02 26.25C87.51 26.25 89.31 23.86 88.63 21.46L83.27 2.71C82.81 1.1 81.34 0 79.67 0L10.32 0C8.65 0 7.18 1.1 6.72 2.71L1.36 21.46C0.68 23.86 2.48 26.25 4.97 26.25L15 26.25L15 52.5L3.75 52.5C1.67 52.5 0 54.17 0 56.25C0 58.32 1.67 60 3.75 60L7.5 60L7.5 86.25C7.5 88.32 9.17 90 11.25 90L78.75 90C80.82 90 82.5 88.32 82.5 86.25L82.5 60L86.25 60C88.32 60 90 58.32 90 56.25C90 54.17 88.32 52.5 86.25 52.5L75 52.5L75 26.25ZM9.94 18.75L13.15 7.5L76.84 7.5L80.05 18.75L9.94 18.75ZM67.5 26.25L22.5 26.25L22.5 52.5L67.5 52.5L67.5 26.25ZM75 60L75 82.5L67.5 82.5L67.5 60L75 60ZM60 82.5L60 60L48.75 60L48.75 82.5L60 82.5ZM41.25 60L41.25 82.5L30 82.5L30 60L41.25 60ZM22.5 82.5L22.5 60L15 60L15 82.5L22.5 82.5Z" fill="#FFFFFF" fill-opacity="1.000000" fill-rule="evenodd"/>
	<path id="Union" d="M75 26.25L85.02 26.25C87.51 26.25 89.31 23.86 88.63 21.46L83.27 2.71C82.81 1.1 81.34 0 79.67 0L10.32 0C8.65 0 7.18 1.1 6.72 2.71L1.36 21.46C0.68 23.86 2.48 26.25 4.97 26.25L15 26.25L15 52.5L3.75 52.5C1.67 52.5 0 54.17 0 56.25C0 58.32 1.67 60 3.75 60L7.5 60L7.5 86.25C7.5 88.32 9.17 90 11.25 90L78.75 90C80.82 90 82.5 88.32 82.5 86.25L82.5 60L86.25 60C88.32 60 90 58.32 90 56.25C90 54.17 88.32 52.5 86.25 52.5L75 52.5L75 26.25ZM9.94 18.75L13.15 7.5L76.84 7.5L80.05 18.75L9.94 18.75ZM67.5 26.25L22.5 26.25L22.5 52.5L67.5 52.5L67.5 26.25ZM75 60L75 82.5L67.5 82.5L67.5 60L75 60ZM60 82.5L60 60L48.75 60L48.75 82.5L60 82.5ZM41.25 60L41.25 82.5L30 82.5L30 60L41.25 60ZM22.5 82.5L22.5 60L15 60L15 82.5L22.5 82.5Z" fill="#FFFFFF" fill-opacity="0.440000" fill-rule="evenodd"/>
</svg>
