<svg width="90.000000" height="90.000000" viewBox="0 0 90 90" fill="none" xmlns="http://www.w3.org/2000/svg" xmlns:xlink="http://www.w3.org/1999/xlink">
	<desc>
			Created with Pixso.
	</desc>
	<defs/>
	<path id="Vector" d="M90 27.37L90 7.5L71.25 7.5L71.25 0L18.75 0L18.75 7.5L0 7.5L0 27.37C0 37.5 7.87 45 18.75 45L21.37 45C23.25 49.12 26.25 52.5 29.62 54.75C26.25 58.12 23.62 62.62 22.87 67.5L15 67.5L15 90L63.75 90C78.37 90 90 78.37 90 63.75C90 55.5 85.87 48 79.87 43.12C85.87 40.12 90 34.5 90 27.37ZM18.75 37.5C12.37 37.5 7.5 33.37 7.5 27.37L7.5 15L18.75 15L18.75 33.75C18.75 34.87 18.75 36.37 18.75 37.5ZM26.25 33.75L26.25 7.5L63.75 7.5L63.75 37.5C53.62 37.5 44.62 43.5 40.5 51.75C32.25 49.87 26.25 42.37 26.25 33.75ZM36.75 58.87C37.12 58.87 37.5 59.25 37.87 59.25C37.5 60.37 37.5 62.25 37.5 63.75C37.5 64.87 37.5 66.37 37.87 67.5L30.37 67.5C31.5 63.75 33.75 60.75 36.75 58.87ZM22.5 82.5L22.5 75L40.12 75C41.62 77.62 43.12 80.25 45.37 82.5L22.5 82.5ZM82.5 63.75C82.5 74.25 74.25 82.5 63.75 82.5C53.25 82.5 45 74.25 45 63.75C45 53.25 53.25 45 63.75 45C74.25 45 82.5 53.25 82.5 63.75ZM82.5 27.37C82.5 33.37 77.62 37.5 71.25 37.5L71.25 15L82.5 15L82.5 27.37Z" fill="#FFFFFF" fill-opacity="1.000000" fill-rule="evenodd"/>
	<path id="Vector" d="M90 27.37L90 7.5L71.25 7.5L71.25 0L18.75 0L18.75 7.5L0 7.5L0 27.37C0 37.5 7.87 45 18.75 45L21.37 45C23.25 49.12 26.25 52.5 29.62 54.75C26.25 58.12 23.62 62.62 22.87 67.5L15 67.5L15 90L63.75 90C78.37 90 90 78.37 90 63.75C90 55.5 85.87 48 79.87 43.12C85.87 40.12 90 34.5 90 27.37ZM18.75 37.5C12.37 37.5 7.5 33.37 7.5 27.37L7.5 15L18.75 15L18.75 33.75C18.75 34.87 18.75 36.37 18.75 37.5ZM26.25 33.75L26.25 7.5L63.75 7.5L63.75 37.5C53.62 37.5 44.62 43.5 40.5 51.75C32.25 49.87 26.25 42.37 26.25 33.75ZM36.75 58.87C37.12 58.87 37.5 59.25 37.87 59.25C37.5 60.37 37.5 62.25 37.5 63.75C37.5 64.87 37.5 66.37 37.87 67.5L30.37 67.5C31.5 63.75 33.75 60.75 36.75 58.87ZM22.5 82.5L22.5 75L40.12 75C41.62 77.62 43.12 80.25 45.37 82.5L22.5 82.5ZM82.5 63.75C82.5 74.25 74.25 82.5 63.75 82.5C53.25 82.5 45 74.25 45 63.75C45 53.25 53.25 45 63.75 45C74.25 45 82.5 53.25 82.5 63.75ZM82.5 27.37C82.5 33.37 77.62 37.5 71.25 37.5L71.25 15L82.5 15L82.5 27.37Z" fill="#FFFFFF" fill-opacity="0.440000" fill-rule="evenodd"/>
</svg>
