<svg width="91" height="90" viewBox="0 0 91 90" fill="none" xmlns="http://www.w3.org/2000/svg">
<path d="M73.418 52.875L78.668 58.125L61.418 75.375L50.168 64.125L55.418 58.875L61.418 64.875L73.418 52.875Z" fill="white"/>
<path d="M73.418 52.875L78.668 58.125L61.418 75.375L50.168 64.125L55.418 58.875L61.418 64.875L73.418 52.875Z" fill="white" fill-opacity="0.44"/>
<path d="M90.668 27.375V7.5H71.918V0H19.418V7.5H0.667969V27.375C0.667969 37.5 8.54297 45 19.418 45H22.043C23.918 49.125 26.918 52.5 30.293 54.75C26.918 58.125 24.293 62.625 23.543 67.5H15.668V90H64.418C79.043 90 90.668 78.375 90.668 63.75C90.668 55.5 86.543 48 80.543 43.125C86.543 40.125 90.668 34.5 90.668 27.375ZM19.418 37.5C13.043 37.5 8.16797 33.375 8.16797 27.375V15H19.418V33.75C19.418 34.875 19.418 36.375 19.418 37.5ZM26.918 33.75V7.5H64.418V37.5C54.293 37.5 45.293 43.5 41.168 51.75C32.918 49.875 26.918 42.375 26.918 33.75ZM37.418 58.875C37.793 58.875 38.168 59.25 38.543 59.25C38.168 60.375 38.168 62.25 38.168 63.75C38.168 64.875 38.168 66.375 38.543 67.5H31.043C32.168 63.75 34.418 60.75 37.418 58.875ZM23.168 82.5V75H40.793C42.293 77.625 43.793 80.25 46.043 82.5H23.168ZM83.168 63.75C83.168 74.25 74.918 82.5 64.418 82.5C53.918 82.5 45.668 74.25 45.668 63.75C45.668 53.25 53.918 45 64.418 45C74.918 45 83.168 53.25 83.168 63.75ZM83.168 27.375C83.168 33.375 78.293 37.5 71.918 37.5V15H83.168V27.375Z" fill="white"/>
<path d="M90.668 27.375V7.5H71.918V0H19.418V7.5H0.667969V27.375C0.667969 37.5 8.54297 45 19.418 45H22.043C23.918 49.125 26.918 52.5 30.293 54.75C26.918 58.125 24.293 62.625 23.543 67.5H15.668V90H64.418C79.043 90 90.668 78.375 90.668 63.75C90.668 55.5 86.543 48 80.543 43.125C86.543 40.125 90.668 34.5 90.668 27.375ZM19.418 37.5C13.043 37.5 8.16797 33.375 8.16797 27.375V15H19.418V33.75C19.418 34.875 19.418 36.375 19.418 37.5ZM26.918 33.75V7.5H64.418V37.5C54.293 37.5 45.293 43.5 41.168 51.75C32.918 49.875 26.918 42.375 26.918 33.75ZM37.418 58.875C37.793 58.875 38.168 59.25 38.543 59.25C38.168 60.375 38.168 62.25 38.168 63.75C38.168 64.875 38.168 66.375 38.543 67.5H31.043C32.168 63.75 34.418 60.75 37.418 58.875ZM23.168 82.5V75H40.793C42.293 77.625 43.793 80.25 46.043 82.5H23.168ZM83.168 63.75C83.168 74.25 74.918 82.5 64.418 82.5C53.918 82.5 45.668 74.25 45.668 63.75C45.668 53.25 53.918 45 64.418 45C74.918 45 83.168 53.25 83.168 63.75ZM83.168 27.375C83.168 33.375 78.293 37.5 71.918 37.5V15H83.168V27.375Z" fill="white" fill-opacity="0.44"/>
</svg>
