<svg width="180.000000" height="180.000000" viewBox="0 0 180 180" fill="none" xmlns="http://www.w3.org/2000/svg" xmlns:xlink="http://www.w3.org/1999/xlink">
	<defs>
		<clipPath id="clip2267_4733">
			<rect id="Frame 29357" rx="0.000000" width="179.000000" height="179.000000" transform="translate(0.500000 0.500000)" fill="white" fill-opacity="0"/>
		</clipPath>
	</defs>
	<g clip-path="url(#clip2267_4733)">
		<rect id="Rectangle 72" rx="14.000000" width="180.000000" height="180.000000" fill="#2B24FF" fill-opacity="1.000000"/>
		<path id="TS" d="M157.59 148.75C157.59 154.78 152.14 158.26 143.09 158.26C132.42 158.26 127.55 152.34 127.08 145.62L110.38 145.62C110.84 159.19 119.31 173.34 142.16 173.34C161.77 173.34 174.76 162.9 174.76 148.17C174.76 115.46 130.22 128.45 130.22 111.98C130.22 106.64 135.32 102.7 143.32 102.7C152.14 102.7 157.24 107.92 157.59 115.11L174.18 115.11C173.72 100.26 162.81 87.62 143.56 87.62C124.53 87.62 113.51 99.1 113.51 113.02C113.51 145.27 157.59 132.51 157.59 148.75ZM105.75 105.25L105.75 89.36L43.58 89.36L43.58 105.25L66.19 105.25L66.19 171.72L83.13 171.72L83.13 105.25L105.75 105.25Z" fill="#FFFFFF" fill-opacity="1.000000" fill-rule="evenodd"/>
	</g>
</svg>
