<svg width="157.000000" height="157.000000" viewBox="0 0 157 157" fill="none" xmlns="http://www.w3.org/2000/svg" xmlns:xlink="http://www.w3.org/1999/xlink">
	<desc>
			Created with Pixso.
	</desc>
	<defs/>
	<path id="Vector" d="M78.5 157C121.85 157 157 121.85 157 78.5C157 35.14 121.85 0 78.5 0C35.14 0 0 35.14 0 78.5C0 121.85 35.14 157 78.5 157ZM98.57 122.14C117.77 113.07 123.78 96.33 125.14 89.8C118.12 96.99 110.36 104.28 105.13 99.23C105.13 99.23 104.85 72.32 104.85 61.28C104.85 46.44 118.93 35.38 118.93 35.38C111.18 36.75 101.89 39.51 92.02 49.19C91.13 50.08 90.29 51 89.49 51.98C85.26 48.74 79.78 49.71 79.78 49.71C82.75 51.34 85.7 56.07 85.7 60L85.7 98.54C85.7 98.54 79.25 104.22 74.27 104.22C73.15 104.23 72.04 103.97 71.04 103.46C70.04 102.96 69.18 102.22 68.52 101.31C68.13 100.8 67.8 100.23 67.55 99.64L67.55 52.01C66.08 53.22 61.11 54.22 61.11 45.97C61.11 40.85 64.8 34.74 71.38 30.99C62.35 32.37 53.89 36.27 46.98 42.24C41.73 46.78 37.53 52.41 34.68 58.73C31.82 65.05 30.38 71.92 30.45 78.86C30.45 78.86 35.26 63.83 41.28 62.45C42.16 62.22 43.07 62.19 43.96 62.38C44.85 62.57 45.68 62.96 46.39 63.53C47.1 64.09 47.67 64.82 48.05 65.64C48.43 66.46 48.61 67.37 48.58 68.27L48.58 103.56C48.58 107.14 46.28 107.92 44.14 107.88C42.7 107.78 41.28 107.51 39.89 107.08C44.29 113.03 50 117.89 56.59 121.27C63.17 124.65 70.45 126.46 77.85 126.55L90.86 113.48L98.57 122.14Z" fill="#FFFFFF" fill-opacity="1.000000" fill-rule="evenodd"/>
</svg>
