<svg width="164.000000" height="165.000000" viewBox="0 0 164 165" fill="none" xmlns="http://www.w3.org/2000/svg" xmlns:xlink="http://www.w3.org/1999/xlink">
	<desc>
			Created with Pixso.
	</desc>
	<defs/>
	<path id="Vector" d="M136.35 132.34L106.92 82.5L136.35 32.64L150.55 82.49L136.34 132.33L136.35 132.34ZM70.76 127.56L33.75 90.6L92.58 90.6L122 140.45L70.76 127.57L70.76 127.56ZM70.76 37.43L122 24.55L92.59 74.4L33.75 74.4L70.76 37.43ZM164 65.53L146.05 0L79.06 17.56L69.15 34.68L49.02 34.53L0 82.5L49.03 130.47L69.14 130.31L79.08 147.43L146.04 165L164 99.48L153.8 82.5L164 65.53Z" fill="#FFFFFF" fill-opacity="1.000000" fill-rule="nonzero"/>
</svg>
