<svg width="86.000000" height="90.000000" viewBox="0 0 86 90" fill="none" xmlns="http://www.w3.org/2000/svg" xmlns:xlink="http://www.w3.org/1999/xlink">
	<desc>
			Created with Pixso.
	</desc>
	<defs/>
	<path id="Union" d="M18.28 20.05C18.28 8.97 27.36 0 38.55 0C49.74 0 58.81 8.97 58.81 20.05C58.81 31.13 49.74 40.11 38.55 40.11C27.36 40.11 18.28 31.13 18.28 20.05ZM38.55 4.76C30.01 4.76 23.09 11.6 23.09 20.05C23.09 28.5 30.01 35.35 38.55 35.35C47.08 35.35 54 28.5 54 20.05C54 11.6 47.08 4.76 38.55 4.76ZM38.55 43.31C33.48 43.31 28.47 44.3 23.79 46.22C19.11 48.14 14.86 50.95 11.28 54.5C7.7 58.04 4.86 62.25 2.92 66.88C0.99 71.51 -0.01 76.48 0 81.49L0 83.87L49.34 83.87C53.23 87.66 58.57 90 64.45 90C76.35 90 86 80.45 86 68.67C86 56.89 76.35 47.34 64.45 47.34C62.31 47.34 60.25 47.65 58.3 48.23C55.86 46.76 52.67 45.61 49.48 44.81C45.77 43.86 41.8 43.31 38.55 43.31ZM42.91 68.67C42.91 72.46 43.91 76.02 45.66 79.11L4.89 79.11C5.14 75.54 5.98 72.02 7.37 68.7C9.06 64.65 11.55 60.96 14.68 57.86C17.82 54.76 21.53 52.3 25.63 50.62C29.73 48.94 34.12 48.07 38.55 48.07C41.32 48.07 44.89 48.55 48.29 49.42C49.87 49.82 51.36 50.29 52.68 50.8C46.8 54.61 42.91 61.19 42.91 68.67ZM64.45 52.1C55.21 52.1 47.72 59.52 47.72 68.67C47.72 77.82 55.21 85.23 64.45 85.23C73.69 85.23 81.19 77.82 81.19 68.67C81.19 59.52 73.69 52.1 64.45 52.1ZM63.01 66.1L63.01 57.37L67.82 57.37L67.82 66.1L76.63 66.1L76.63 70.86L67.82 70.86L67.82 79.59L63.01 79.59L63.01 70.86L54.19 70.86L54.19 66.1L63.01 66.1Z" fill="#FFFFFF" fill-opacity="1.000000" fill-rule="evenodd"/>
	<path id="Union" d="M18.28 20.05C18.28 8.97 27.36 0 38.55 0C49.74 0 58.81 8.97 58.81 20.05C58.81 31.13 49.74 40.11 38.55 40.11C27.36 40.11 18.28 31.13 18.28 20.05ZM38.55 4.76C30.01 4.76 23.09 11.6 23.09 20.05C23.09 28.5 30.01 35.35 38.55 35.35C47.08 35.35 54 28.5 54 20.05C54 11.6 47.08 4.76 38.55 4.76ZM38.55 43.31C33.48 43.31 28.47 44.3 23.79 46.22C19.11 48.14 14.86 50.95 11.28 54.5C7.7 58.04 4.86 62.25 2.92 66.88C0.99 71.51 -0.01 76.48 0 81.49L0 83.87L49.34 83.87C53.23 87.66 58.57 90 64.45 90C76.35 90 86 80.45 86 68.67C86 56.89 76.35 47.34 64.45 47.34C62.31 47.34 60.25 47.65 58.3 48.23C55.86 46.76 52.67 45.61 49.48 44.81C45.77 43.86 41.8 43.31 38.55 43.31ZM42.91 68.67C42.91 72.46 43.91 76.02 45.66 79.11L4.89 79.11C5.14 75.54 5.98 72.02 7.37 68.7C9.06 64.65 11.55 60.96 14.68 57.86C17.82 54.76 21.53 52.3 25.63 50.62C29.73 48.94 34.12 48.07 38.55 48.07C41.32 48.07 44.89 48.55 48.29 49.42C49.87 49.82 51.36 50.29 52.68 50.8C46.8 54.61 42.91 61.19 42.91 68.67ZM64.45 52.1C55.21 52.1 47.72 59.52 47.72 68.67C47.72 77.82 55.21 85.23 64.45 85.23C73.69 85.23 81.19 77.82 81.19 68.67C81.19 59.52 73.69 52.1 64.45 52.1ZM63.01 66.1L63.01 57.37L67.82 57.37L67.82 66.1L76.63 66.1L76.63 70.86L67.82 70.86L67.82 79.59L63.01 79.59L63.01 70.86L54.19 70.86L54.19 66.1L63.01 66.1Z" fill="#FFFFFF" fill-opacity="0.440000" fill-rule="evenodd"/>
</svg>
