<svg width="84.000000" height="103.000000" viewBox="0 0 84 103" fill="none" xmlns="http://www.w3.org/2000/svg" xmlns:xlink="http://www.w3.org/1999/xlink">
	<desc>
			Created with Pixso.
	</desc>
	<defs/>
	<path id="Vector" d="M63 0C58.02 0 54 4.06 54 9.08C54 13.04 56.5 16.41 60 17.65L60 24.23L9 24.23C4.02 24.23 0 28.3 0 33.32L0 69.67C0 74.69 4.02 78.76 9 78.76L18 78.76L18 85.34C14.5 86.58 12 89.95 12 93.91C12 98.93 16.02 103 21 103C25.97 103 30 98.93 30 93.91C30 89.95 27.49 86.58 24 85.34L24 78.76L69 78.76C73.97 78.76 78 74.69 78 69.67L78 60.07C81.49 58.82 84 55.45 84 51.5C84 47.54 81.49 44.17 78 42.92L78 33.32C78 28.3 73.97 24.23 69 24.23L66 24.23L66 17.65C69.49 16.41 72 13.04 72 9.08C72 4.06 67.97 0 63 0ZM60 9.08C60 7.41 61.34 6.05 63 6.05C64.65 6.05 66 7.41 66 9.08C66 10.76 64.65 12.11 63 12.11C61.34 12.11 60 10.76 60 9.08ZM72 42.41L72 33.32C72 31.65 70.65 30.29 69 30.29L9 30.29C7.34 30.29 6 31.65 6 33.32L6 69.67C6 71.34 7.34 72.7 9 72.7L69 72.7C70.65 72.7 72 71.34 72 69.67L72 60.58L51 60.58C46.02 60.58 42 56.51 42 51.5C42 46.48 46.02 42.41 51 42.41L72 42.41ZM21 90.88C19.34 90.88 18 92.23 18 93.91C18 95.58 19.34 96.94 21 96.94C22.65 96.94 24 95.58 24 93.91C24 92.23 22.65 90.88 21 90.88ZM48 51.5C48 49.82 49.34 48.47 51 48.47L75 48.47C76.65 48.47 78 49.82 78 51.5C78 53.17 76.65 54.52 75 54.52L51 54.52C49.34 54.52 48 53.17 48 51.5Z" fill="#FFFFFF" fill-opacity="1.000000" fill-rule="evenodd"/>
	<path id="Vector" d="M63 0C58.02 0 54 4.06 54 9.08C54 13.04 56.5 16.41 60 17.65L60 24.23L9 24.23C4.02 24.23 0 28.3 0 33.32L0 69.67C0 74.69 4.02 78.76 9 78.76L18 78.76L18 85.34C14.5 86.58 12 89.95 12 93.91C12 98.93 16.02 103 21 103C25.97 103 30 98.93 30 93.91C30 89.95 27.49 86.58 24 85.34L24 78.76L69 78.76C73.97 78.76 78 74.69 78 69.67L78 60.07C81.49 58.82 84 55.45 84 51.5C84 47.54 81.49 44.17 78 42.92L78 33.32C78 28.3 73.97 24.23 69 24.23L66 24.23L66 17.65C69.49 16.41 72 13.04 72 9.08C72 4.06 67.97 0 63 0ZM60 9.08C60 7.41 61.34 6.05 63 6.05C64.65 6.05 66 7.41 66 9.08C66 10.76 64.65 12.11 63 12.11C61.34 12.11 60 10.76 60 9.08ZM72 42.41L72 33.32C72 31.65 70.65 30.29 69 30.29L9 30.29C7.34 30.29 6 31.65 6 33.32L6 69.67C6 71.34 7.34 72.7 9 72.7L69 72.7C70.65 72.7 72 71.34 72 69.67L72 60.58L51 60.58C46.02 60.58 42 56.51 42 51.5C42 46.48 46.02 42.41 51 42.41L72 42.41ZM21 90.88C19.34 90.88 18 92.23 18 93.91C18 95.58 19.34 96.94 21 96.94C22.65 96.94 24 95.58 24 93.91C24 92.23 22.65 90.88 21 90.88ZM48 51.5C48 49.82 49.34 48.47 51 48.47L75 48.47C76.65 48.47 78 49.82 78 51.5C78 53.17 76.65 54.52 75 54.52L51 54.52C49.34 54.52 48 53.17 48 51.5Z" fill="#FFFFFF" fill-opacity="0.440000" fill-rule="evenodd"/>
</svg>
