<svg width="546.260254" height="284.785156" viewBox="0 0 546.26 284.785" fill="none" xmlns="http://www.w3.org/2000/svg" xmlns:xlink="http://www.w3.org/1999/xlink">
	<desc>
			Created with Pixso.
	</desc>
	<defs/>
	<rect id="Rectangle 50" x="478.721191" y="104.416016" rx="5.114161" width="57.716957" height="32.389683" fill="#FFFFFF" fill-opacity="1.000000"/>
	<path id="Vector" d="M377.05 90.8C377.35 90.78 377.67 90.75 377.97 90.77C378.67 90.84 379.2 91.17 379.61 91.74C380.06 92.36 379.98 92.83 379.9 93.53C379.41 94.16 379.24 94.36 378.48 94.69C377.84 94.75 377.2 94.75 376.68 94.3C376.26 93.93 376.08 93.55 376.03 93C375.95 92.05 376.47 91.45 377.05 90.8Z" fill="#0B0F36" fill-opacity="1.000000" fill-rule="nonzero"/>
	<path id="Vector" d="M225.98 143.26C226.09 143.26 226.19 143.26 226.3 143.27C227.11 143.33 228.09 143.62 228.6 144.31C229.02 144.89 229.05 145.43 228.96 146.11C228.82 147.11 228.14 147.62 227.4 148.18C226.51 148.09 225.69 148 225.04 147.3C224.61 146.84 224.42 146.33 224.46 145.7C224.54 144.54 225.18 144.01 225.98 143.26Z" fill="#0B0F36" fill-opacity="1.000000" fill-rule="nonzero"/>
	<path id="Vector" d="M346.74 123.53C347.41 123.49 348.16 123.58 348.77 123.88C349.51 124.24 350.13 124.97 350.37 125.76C350.55 126.36 350.51 127.08 350.18 127.63C349.74 128.37 348.98 128.86 348.17 129.1C347.76 129.12 347.33 129.1 346.93 129.03C346.29 128.91 345.78 128.5 345.41 127.97C345.36 127.89 345.31 127.81 345.26 127.73C345.21 127.65 345.17 127.56 345.13 127.47C345.09 127.38 345.06 127.3 345.03 127.2C345 127.11 344.98 127.02 344.96 126.93C344.94 126.83 344.93 126.74 344.92 126.64C344.91 126.55 344.91 126.45 344.91 126.35C344.91 126.26 344.91 126.16 344.93 126.07C344.94 125.97 344.95 125.88 344.97 125.79C345.21 124.75 345.88 124.09 346.74 123.53Z" fill="#0B0F36" fill-opacity="1.000000" fill-rule="nonzero"/>
	<path id="Vector" d="M443.77 52.98C444.43 52.93 445.11 52.87 445.72 53.16C446.37 53.46 446.89 54.08 447.16 54.74C447.47 55.53 447.39 56.28 447.03 57.03C446.58 57.98 445.85 58.21 444.93 58.54C444.49 58.57 444.08 58.53 443.66 58.4C442.99 58.18 442.39 57.7 442.08 57.07C441.72 56.34 441.75 55.56 441.98 54.8C442.28 53.79 442.91 53.46 443.77 52.98Z" fill="#0B0F36" fill-opacity="1.000000" fill-rule="nonzero"/>
	<path id="Vector" d="M53.88 204.35C54.63 204.41 54.84 204.38 55.43 204.9C55.95 205.97 55.93 207.2 56.01 208.37C56.36 212.68 56.48 216.86 56.03 221.18L55.27 221.19L53.26 218.78C53.6 218.13 53.93 217.46 54.2 216.78C55.39 213.68 55.8 208.83 54.4 205.77C54.05 205.44 53.98 204.81 53.88 204.35Z" fill="#0CC634" fill-opacity="1.000000" fill-rule="nonzero"/>
	<path id="Vector" d="M532.32 252.2C535.18 252.15 543.91 251.65 546.05 252.36C544.57 253.77 532.95 253.07 530.35 253.05C528.53 252.02 514.82 253.76 512.99 252.5L513.38 252.23C519.67 252.22 526.04 252.43 532.32 252.2Z" fill="#02020F" fill-opacity="1.000000" fill-rule="nonzero"/>
	<path id="Vector" d="M51.37 252.15C56.8 252.12 62.41 252.49 67.81 252.22L68.1 252.63C67.23 253.14 48.79 252.38 45.44 253.04C41.97 253.18 25.85 253.67 23.87 252.54C26.43 251.59 41.44 252.17 45.18 252.18L51.37 252.15Z" fill="#02020F" fill-opacity="1.000000" fill-rule="nonzero"/>
	<path id="Vector" d="M49.88 158.2C51.1 158.44 52.56 160.95 53.24 161.97C54.3 163.57 55.29 165.22 56.28 166.85C54.83 168.51 53.39 170.16 52.02 171.88C51.87 168 51.29 163.95 50.3 160.18C49.99 159.48 49.91 158.94 49.88 158.2Z" fill="#0CC634" fill-opacity="1.000000" fill-rule="nonzero"/>
	<path id="Vector" d="M45.59 167.4C46.72 164.22 48.37 161.21 49.88 158.2C49.91 158.94 49.99 159.48 50.3 160.18C50.46 164.01 51.35 168.06 51.93 171.86C49.92 170.25 47.72 168.85 45.59 167.4Z" fill="#0CC634" fill-opacity="1.000000" fill-rule="nonzero"/>
	<path id="Vector" d="M43.97 188.61C45.13 189.03 46.02 189.63 47.02 190.33C47.73 191.56 53.01 193.58 54.38 194.21C54.65 196.37 55.94 202.17 54.91 203.85C54.23 203.88 53.97 203.48 53.47 203.06C52.73 200.39 50.83 198.26 49.82 195.74C49.73 194.95 49.02 194.44 48.47 193.95C47.2 193.03 44.47 190.07 43.97 188.61Z" fill="#0CC634" fill-opacity="1.000000" fill-rule="nonzero"/>
	<path id="Vector" d="M544.38 192.31L545.41 192.62C545.56 192.8 545.67 192.92 545.76 193.14C546.37 194.62 546.44 196.91 545.83 198.39C545.51 199.18 544.85 199.91 544.01 200.19C542.9 200.55 540.74 200.5 539.7 199.98C539.71 199.94 539.71 199.89 539.71 199.85C539.67 198.63 537.96 196.61 537.06 195.86C539.5 195 542.02 193.45 544.38 192.31Z" fill="#64B7EC" fill-opacity="1.000000" fill-rule="nonzero"/>
	<path id="Vector" d="M519.61 83.29C519.95 83.24 520.28 83.29 520.61 83.33C521.95 84.32 524.69 86.22 525.18 87.81C525.17 87.87 525.16 87.93 525.15 87.99C524.87 89.17 521.6 91.83 520.54 92.47L520.45 92.49C519.17 92.21 516.39 88.73 514.93 87.78C516.33 87.06 518.91 84.72 519.61 83.29Z" fill="#FF9B3F" fill-opacity="1.000000" fill-rule="nonzero"/>
	<path id="Vector" d="M56.56 167.18L58.52 170.68L60.37 174.61L59.82 174.9C57.67 176.25 54.78 180.73 53.17 182.88C52.99 179.41 52.36 175.99 52.06 172.52C53.31 170.63 55.07 168.9 56.56 167.18Z" fill="#0CC634" fill-opacity="1.000000" fill-rule="nonzero"/>
	<path id="Vector" d="M0 0L0.22 0L0.26 284.78L0 284.78L0 0Z" fill="#3C407C" fill-opacity="1.000000" fill-rule="nonzero"/>
	<path id="Vector" d="M523.01 216.39C523.52 215.8 523.7 214.85 523.95 214.12L524.32 214.15C525.4 215.75 527.45 220.49 528.73 221.3C531.5 221.52 534.4 221.41 537.15 221.78C535.75 224.33 528.65 226.96 526 227.75C525.61 227.87 525.22 227.96 524.83 228.03L524.19 228.01L523.37 227.19C523.56 226.02 522.88 224.41 522.82 223.17C522.71 221.06 523.45 218.33 523.01 216.39Z" fill="#64B7EC" fill-opacity="1.000000" fill-rule="nonzero"/>
	<path id="Vector" d="M370.47 149.15C370.77 149.11 371.21 149.02 371.5 149.16C372.61 149.69 377.7 154.75 378.14 155.98C377.85 157.09 372.39 162.2 371.18 162.93C368.67 161.77 366.11 157.33 363.18 155.83C364.47 155.23 369.88 150.48 370.47 149.15Z" fill="#FF9B3F" fill-opacity="1.000000" fill-rule="nonzero"/>
	<path id="Vector" d="M233.34 94.91C234.97 95.68 236.14 98.68 236.74 100.35C238.6 105.51 238.48 111.3 236.1 116.26C233.79 121.08 229.44 124.68 224.43 126.43C224.11 126.54 223.78 126.64 223.46 126.74C223.13 126.83 222.8 126.92 222.47 127C222.14 127.07 221.81 127.14 221.48 127.2C221.14 127.27 220.81 127.32 220.47 127.37C220.14 127.41 219.8 127.45 219.46 127.48C219.12 127.51 218.79 127.53 218.45 127.54C218.11 127.55 217.77 127.56 217.43 127.55C217.09 127.55 216.75 127.54 216.41 127.52C216.07 127.5 215.74 127.47 215.4 127.43C215.06 127.4 214.73 127.35 214.39 127.3C214.06 127.25 213.72 127.18 213.39 127.12C213.06 127.05 212.73 126.97 212.4 126.88C212.07 126.8 211.75 126.71 211.42 126.6C211.1 126.5 210.78 126.4 210.46 126.28C210.14 126.16 209.82 126.04 209.51 125.91C209.2 125.77 208.89 125.63 208.58 125.49C207.01 124.73 204.36 123.16 203.56 121.6C204.56 122.16 205.57 122.72 206.63 123.17C211.77 125.35 217.49 125.5 222.67 123.37C227.67 121.32 231.87 117.03 233.93 112.05C236.32 106.28 235.68 100.54 233.34 94.91Z" fill="#0B0F36" fill-opacity="1.000000" fill-rule="nonzero"/>
	<path id="Vector" d="M524.2 228.01L524.83 228.03C527.43 228.19 537.19 227.41 538.56 229.08C538.86 229.46 538.84 230.16 538.78 230.64C538.7 231.38 538.52 231.76 537.98 232.26C537.02 232.42 536.08 232.45 535.11 232.47C535.43 233.62 535.43 234.55 534.83 235.62C534.73 235.8 534.62 235.97 534.48 236.13L519.28 236.23C516.46 236.24 513.44 236.05 510.65 236.41C510.72 236.23 510.73 236.21 510.77 235.99C510.88 235.23 510.92 233.82 510.41 233.19C509.74 232.36 509.06 232.44 508.06 232.29C508.02 231.2 507.78 229.83 508.54 228.94C509.95 227.28 516.85 228.28 519.29 228.04C520.92 228.08 522.58 228.2 524.2 228.01Z" fill="#EE687C" fill-opacity="1.000000" fill-rule="nonzero"/>
	<path id="Vector" d="M508.06 232.29C510.95 232.31 534.16 231.94 535.11 232.47C535.43 233.62 535.43 234.55 534.83 235.62C534.73 235.8 534.62 235.97 534.48 236.13L519.28 236.23C516.46 236.24 513.44 236.05 510.65 236.41C510.72 236.23 510.73 236.21 510.77 235.99C510.88 235.23 510.92 233.82 510.41 233.19C509.74 232.36 509.05 232.44 508.06 232.29Z" fill="#9D3049" fill-opacity="1.000000" fill-rule="nonzero"/>
	<path id="Vector" d="M60.38 174.61C61.65 177.54 63.73 181.72 63.98 184.88C64.7 186.27 66.3 192.75 66.01 194.13C64.18 198.33 59.82 201.5 56.44 204.34C55.5 203.42 55.04 196.49 54.98 194.94C54.96 194.19 55 194.17 55.51 193.63L54.82 193.38C53.84 191.5 53.79 185.91 53.27 183.38C55.44 180.71 58.12 177.88 59.82 174.9L60.38 174.61Z" fill="#0CC634" fill-opacity="1.000000" fill-rule="nonzero"/>
	<path id="Vector" d="M31.66 207.63C36.1 208.12 40.58 207.97 45.03 208.22C45.91 208.27 46 208.5 46.55 209.12C46.58 208.83 46.53 208.66 46.44 208.39C45.75 206.21 48.61 197.99 49.72 195.91L49.82 195.74C50.83 198.26 52.73 200.39 53.47 203.06L53.88 204.35C53.98 204.81 54.05 205.45 54.4 205.77C54.7 208.29 54.9 210.79 54.58 213.32C54.33 215.27 53.73 217.75 52.06 218.99C50.87 219.87 49.29 219.91 47.88 219.68C40.43 218.47 35.91 213.46 31.66 207.63Z" fill="#0CC634" fill-opacity="1.000000" fill-rule="nonzero"/>
	<path id="Vector" d="M528.17 204.24C528.5 204.04 536.79 196.08 536.83 196C536.87 196.04 536.92 196.08 536.96 196.13C537.95 197.1 539.38 199.19 539.42 200.6C539.43 201.15 539.3 201.58 539.02 202.05L539.2 202.16C539.47 201.85 539.94 201.16 540.27 200.97C541.31 200.35 544 200.44 545.29 200.07C546.07 201.66 545.65 203.85 545.11 205.46C545.01 205.75 544.89 206.03 544.76 206.31C542.66 206.54 537.6 207.73 536.02 206.43C534.88 205.49 533.93 203.81 533.07 202.6L532.98 202.68C533.92 204.38 534.95 205.99 536.03 207.6C538.43 207.35 542.52 206.37 544.65 206.75C545.2 207.94 543.87 211.23 543.42 212.43C543.24 212.9 542.97 213.25 542.64 213.6C539.46 214.22 536.11 213.74 532.99 214.33L532.78 214.02L533.59 212.48L533.4 212.27C533.26 212.49 532.82 213.33 532.64 213.43C532.41 213.56 531.33 213.54 531.41 213.86C531.52 214.36 531.71 214.62 532.05 215C532.13 214.96 532.2 214.92 532.28 214.88C533.26 214.41 541.3 213.94 542.63 214.18C542.58 215.82 539.41 220.01 538.14 221.13C537.97 221.28 537.97 221.28 537.8 221.38C535.56 221.33 531.31 221.83 529.49 220.51L529.13 219.69L528.57 220.31C526.72 219.4 526.4 215.03 524.32 214.15C524.33 213.87 524.35 213.59 524.36 213.31C524.41 211.8 525.39 210.54 525.36 209.09C525.9 208.48 526.49 207.33 527.25 207.17L527.97 208.14L528.25 208.15C527.89 207.48 527.48 206.85 527.42 206.08C527.79 205.49 528.19 204.97 528.17 204.24Z" fill="#64B7EC" fill-opacity="1.000000" fill-rule="nonzero"/>
	<path id="Vector" d="M510.65 236.41C513.44 236.05 516.46 236.24 519.28 236.23L534.48 236.13C535.25 237.69 533.26 249.08 532.9 251.51L532.32 252.2C526.04 252.43 519.67 252.22 513.38 252.22C513.49 250.15 511.52 238.08 510.65 236.41Z" fill="#EE687C" fill-opacity="1.000000" fill-rule="nonzero"/>
	<path id="Vector" d="M55.27 221.19L56.03 221.18C57.79 221.22 59.56 221.29 61.33 221.27C65.03 221.28 68.9 221.54 72.58 221.27C73.25 221.32 73.96 221.2 74.42 221.78C74.45 221.81 74.46 221.85 74.48 221.88C74.45 223.07 74.75 225.2 74.07 226.13C73.33 226.54 72.62 226.42 71.81 226.35C71.55 228.1 71.44 231.88 70.76 233.25L70.42 232.66C67.84 232.1 64.3 232.58 61.6 232.56C55.23 232.52 48.51 232.03 42.17 232.56C41.87 233.03 41.87 233.45 41.83 234C41.5 231.45 41.27 228.89 41.12 226.32L36.73 226.46L36.77 221.18C42.88 220.95 49.15 221.09 55.27 221.19Z" fill="#9D3049" fill-opacity="1.000000" fill-rule="nonzero"/>
	<path id="Vector" d="M55.27 221.19L56.03 221.18C57.79 221.22 59.56 221.29 61.33 221.27C65.03 221.28 68.9 221.54 72.58 221.27C73.25 221.32 73.96 221.2 74.42 221.78C74.45 221.81 74.46 221.85 74.48 221.88C74.45 223.07 74.75 225.2 74.07 226.13C73.33 226.54 72.62 226.42 71.81 226.35C61.71 225.81 51.24 225.98 41.12 226.32L36.73 226.46L36.77 221.18C42.88 220.95 49.15 221.09 55.27 221.19Z" fill="#EE687C" fill-opacity="1.000000" fill-rule="nonzero"/>
	<path id="Vector" d="M235.61 163.46C238.31 159.67 240.9 154.01 245.9 153.17C248.62 152.7 260.38 153.87 262.39 155.2C262.96 155.58 263.37 156.28 263.42 156.96C263.48 157.68 263.25 157.93 262.83 158.46C260.71 159.55 257.82 158.44 255.53 158.39C255.13 157.77 254.8 157.08 254.07 156.81C254.01 157.65 254.52 158.37 254.96 159.07C258.39 159.49 261.83 159.8 265.27 160C266.18 157.97 267.12 154.38 269.06 153.22C269.82 153.13 269.92 153.1 270.59 153.45C271.03 154.16 271.05 154.91 270.87 155.71C270.57 157.08 270.15 158.44 269.83 159.81C271.17 157.66 273.03 154.44 275.63 153.77C275.93 153.7 276.23 153.66 276.53 153.64L276.97 154.06C276.85 156.28 275.37 157.59 274.01 159.2C275.9 158.3 277.33 157.38 279.48 157.77L280.04 158.19C280.09 158.99 279.92 159.42 279.36 160.02C278.1 161.37 269.25 165.99 267.21 166.7C265.88 167.17 264.54 167.35 263.13 167.36C258.94 167.38 250.96 165.99 247.87 169.09C247.5 169.46 247.25 169.93 247 170.39C243.32 167.94 239.39 165.77 235.61 163.46Z" fill="#FF9B3F" fill-opacity="1.000000" fill-rule="nonzero"/>
	<path id="Vector" d="M58.52 170.68C58.73 168.21 59.51 165.75 61.41 164.04C62.65 162.92 64.19 162.33 65.82 162.03C68.98 161.44 79.73 161.73 83.37 161.91C79.38 167.83 78.65 172.7 79.99 179.64C80.27 181.08 80.56 182.52 80.86 183.96C78.4 185.54 68.33 192.22 67.67 194.67C67.66 194.71 67.66 194.75 67.66 194.79L66.58 195.59L66.01 194.14C66.3 192.75 64.7 186.27 63.98 184.89C63.73 181.72 61.65 177.55 60.38 174.61L58.52 170.68Z" fill="#0B0F36" fill-opacity="1.000000" fill-rule="nonzero"/>
	<path id="Vector" d="M41.83 234C41.86 233.45 41.86 233.03 42.17 232.56C48.51 232.03 55.23 232.52 61.6 232.56C64.3 232.58 67.84 232.1 70.42 232.66L70.75 233.25L68.48 251.21L68.11 251.94L67.81 252.22C62.42 252.49 56.8 252.12 51.37 252.15L45.18 252.18C45.1 252.12 45.01 252.06 44.93 251.99C43.37 250.67 42.97 241.97 42.78 239.61C42.29 237.81 42.22 235.84 41.83 234Z" fill="#EE687C" fill-opacity="1.000000" fill-rule="nonzero"/>
	<path id="Vector" d="M51.01 251.45C53.74 249.98 63.11 251.47 66.52 250.91C67.09 250.81 67.44 249.83 67.72 249.36C67.75 249.44 67.77 249.52 67.82 249.6C68.19 250.17 68.31 250.54 68.48 251.21L68.11 251.94L67.81 252.22C62.42 252.49 56.8 252.12 51.37 252.15L51.01 251.45Z" fill="#FF9B3F" fill-opacity="1.000000" fill-rule="nonzero"/>
	<path id="Vector" d="M132.84 119.97C133.67 122.32 134.58 124.54 135.94 126.64C136.39 127.36 137.88 128.85 138 129.55C143.05 134.38 147.66 136.77 154.5 138.25L154.57 141.63C154.86 142.68 154.62 145.05 155.17 145.78C153.86 148.29 151.21 158.19 149.67 159.34L149.15 159.3C148.76 159.66 148.37 159.97 148.13 160.45L146.9 160.39C146.23 160.01 145.56 159.62 144.88 159.24C140.4 155.02 129.32 146.58 126.34 142.46C129.5 139.71 131.81 124.56 132.84 119.97Z" fill="#FF9B3F" fill-opacity="1.000000" fill-rule="nonzero"/>
	<path id="Vector" d="M138 129.55C143.04 134.38 147.66 136.77 154.5 138.25L154.57 141.63C154.44 141.67 154.31 141.7 154.18 141.74C151.39 142.46 148.27 141.72 145.82 140.28C142.19 138.16 139.02 133.62 138 129.55Z" fill="#02020F" fill-opacity="1.000000" fill-rule="nonzero"/>
	<path id="Vector" d="M45.47 167.74L51.74 172.13C52.22 175.71 52.52 179.32 53.02 182.9C50.44 181.17 47.87 179.25 45.13 177.77C47.08 179.94 50.6 181.8 53.05 183.47C53.47 186.92 53.8 190.41 54.35 193.84C52.66 193 48.68 190.53 47.02 190.33C46.02 189.63 45.13 189.03 43.97 188.61C44.47 190.07 47.2 193.03 48.47 193.95C49.43 195.75 48.97 196.76 48.4 198.63C47.52 201.56 46.42 204.41 45.61 207.36C45.08 206.58 44.45 205.36 43.65 204.87C44.18 205.9 44.76 206.81 45.45 207.75L31.62 207.41C29.65 204.35 28.03 201.28 26.62 197.93C29.13 198.04 37.76 198.11 39.62 199.02C39.59 198.6 39.51 198.22 39.41 197.81C39.07 197.64 38.79 197.57 38.42 197.49L38.56 197.69C35.46 198.49 29.83 197.82 26.5 197.65C25.53 195.1 24.8 192.43 23.99 189.82C27.33 189.94 30.66 190.1 33.99 190.31C34.57 188.86 35.05 187.43 35.45 185.91C34.58 187.05 34.53 188.8 33.49 189.84C30.31 189.63 27.12 189.49 23.93 189.4C23.48 187.57 22.66 185.41 23.4 183.57C25.04 182.35 26.74 184.62 28.59 184.3C28.84 183.79 28.94 183.7 28.85 183.13L28.04 183.33C27.86 183.27 27.67 183.23 27.48 183.17C26.44 182.87 25.74 183.62 24.75 183.72C24.27 183.76 23.95 183.74 23.58 183.4C22.2 182.13 22.28 179.22 22.15 177.51C28.86 179.61 34.85 182.89 40.88 186.44C40.98 184.32 41.23 178.02 42.73 176.67C42.9 176.52 43.48 176.65 43.71 176.67C43.24 176.27 42.93 176.16 42.86 175.52C42.63 173.54 44.69 169.61 45.47 167.74Z" fill="#0CC634" fill-opacity="1.000000" fill-rule="nonzero"/>
	<path id="Vector" d="M85.1 206.71L86.06 205.88C86.57 211.25 88.71 217.56 89.99 222.9C91.39 228.74 92.45 236.51 94.79 241.91C95.94 244.57 97.68 247.02 99.92 248.87C102.51 251 105.73 252.19 109.05 252.45L107.31 252.67L107.07 253.04C100.09 253.52 92.73 253.08 85.71 253.09C72.29 253.1 58.85 253.23 45.44 253.04C48.79 252.38 67.24 253.14 68.1 252.63L67.81 252.22L68.11 251.94L68.48 251.21L70.75 233.25C71.43 231.88 71.55 228.1 71.81 226.35C72.62 226.42 73.33 226.54 74.07 226.13C74.75 225.2 74.45 223.07 74.48 221.88C74.81 223.51 75.57 224.92 75.91 226.5C76.06 223.43 75.87 220.3 75.97 217.21C79.4 214.71 83.49 210.72 85.1 206.71Z" fill="#03041C" fill-opacity="1.000000" fill-rule="nonzero"/>
	<path id="Vector" d="M74.48 221.88C74.81 223.51 75.57 224.92 75.91 226.5C76.33 229.63 76.17 232.95 76.16 236.1L76.14 252.15C74.14 252.18 69.82 252.74 68.11 251.94L68.48 251.21L70.75 233.25C71.43 231.88 71.55 228.1 71.81 226.35C72.62 226.42 73.33 226.54 74.07 226.13C74.75 225.2 74.45 223.07 74.48 221.88Z" fill="#0B0F36" fill-opacity="1.000000" fill-rule="nonzero"/>
	<path id="Vector" d="M80.86 183.96C83.29 182.67 90.04 178.47 92.66 179.27C93.09 179.4 93.36 179.66 93.58 180.07C94.59 181.92 93.25 186.74 92.63 188.69C92.02 191.58 91.07 194.35 89.99 197.09C88.89 200.1 87.08 202.9 86.06 205.88L85.1 206.71C83.49 210.72 79.4 214.71 75.97 217.21C75.88 220.3 76.06 223.43 75.91 226.5C75.57 224.92 74.81 223.51 74.48 221.88C74.46 221.85 74.44 221.81 74.42 221.78C73.96 221.2 73.25 221.32 72.58 221.26C68.9 221.54 65.03 221.28 61.33 221.27C59.56 221.29 57.79 221.22 56.03 221.18C56.48 216.86 56.36 212.68 56.01 208.37C56.17 207.11 55.77 205.45 56.44 204.34C59.82 201.5 64.18 198.33 66.01 194.14L66.58 195.59L67.66 194.79C67.66 194.75 67.66 194.71 67.67 194.67C68.33 192.22 78.4 185.54 80.86 183.96Z" fill="#0CC634" fill-opacity="1.000000" fill-rule="nonzero"/>
	<path id="Vector" d="M66.01 194.14L66.58 195.59C62.74 201.42 61.16 203.64 60.53 210.84C60.32 213.25 60.21 215.57 60.72 217.94C60.79 218.26 60.86 218.51 61.01 218.79C60.82 219.67 60.24 220.02 59.65 220.68C60.19 221.09 60.67 221.15 61.33 221.27C59.56 221.29 57.79 221.22 56.03 221.18C56.48 216.86 56.36 212.68 56.01 208.37C56.17 207.11 55.77 205.45 56.44 204.34C59.82 201.5 64.18 198.33 66.01 194.14Z" fill="#0CC634" fill-opacity="1.000000" fill-rule="nonzero"/>
	<path id="Vector" d="M61.01 218.79C62.4 216.07 65.22 213.28 67.21 210.9C67.69 210.32 68.9 208.69 69.61 208.49C69.98 208.39 70.29 208.92 70.62 209.07C70.92 209.2 71.79 209.09 72.13 209.06C76.54 208.71 80.75 207.1 85.1 206.71C83.49 210.72 79.4 214.71 75.97 217.21C75.87 220.3 76.06 223.43 75.91 226.5C75.57 224.92 74.81 223.51 74.48 221.88C74.46 221.85 74.44 221.81 74.42 221.78C73.96 221.2 73.25 221.32 72.58 221.27C68.9 221.54 65.02 221.28 61.33 221.27C60.67 221.15 60.19 221.09 59.64 220.68C60.24 220.02 60.82 219.67 61.01 218.79Z" fill="#0CC634" fill-opacity="1.000000" fill-rule="nonzero"/>
	<path id="Vector" d="M75.97 217.21C75.87 220.3 76.06 223.43 75.91 226.5C75.57 224.92 74.81 223.51 74.48 221.88C74.46 221.85 74.44 221.81 74.42 221.78C73.96 221.2 73.25 221.32 72.58 221.27C72.66 220.65 72.75 220.35 72.52 219.74C69.46 219.16 67.4 221.37 62.63 219.99C67.46 220.39 71.84 219.88 75.97 217.21Z" fill="#0B0F36" fill-opacity="1.000000" fill-rule="nonzero"/>
	<path id="Vector" d="M80.86 183.96C83.29 182.67 90.04 178.47 92.66 179.27C93.09 179.4 93.36 179.66 93.58 180.07C94.59 181.92 93.25 186.74 92.62 188.69C92.02 191.58 91.07 194.35 89.99 197.09C86.55 196.95 80.67 199.9 77.54 198.45C75.54 199.76 73.16 204.49 71.19 206.25C70.74 206.64 70.65 206.71 70.04 206.68C69.75 206.24 68.02 196.41 67.66 194.79C67.66 194.75 67.66 194.71 67.67 194.67C68.33 192.22 78.4 185.54 80.86 183.96Z" fill="#0CC634" fill-opacity="1.000000" fill-rule="nonzero"/>
	<path id="Vector" d="M126.28 107.85C126.22 107.71 126.19 107.58 126.16 107.43C125.74 105.24 125.58 103 125.29 100.79C124.55 95.08 123.67 89.65 127.21 84.59C129.06 81.96 131.9 80.18 135.01 79.44C138.39 78.64 142.08 79.04 145.52 79.16C152.1 79.4 164.63 80.26 170.77 79.17C173.7 78.64 175.44 77.5 177.1 75.06C177.94 79.38 178.7 83.58 177.81 87.97C177.43 89.85 176.42 92.36 174.74 93.45L174.12 94.13C169.64 97.93 164.43 99.05 158.66 98.57C151.63 97.99 145.21 95.1 139.41 91.23C138.51 96.99 136.93 102.65 136.1 108.41C135.09 106.75 134.15 105.4 132.15 104.89C130.86 104.56 129.61 104.84 128.48 105.54C127.53 106.14 126.91 106.94 126.28 107.85Z" fill="#02020F" fill-opacity="1.000000" fill-rule="nonzero"/>
	<path id="Vector" d="M479.83 158.21C482.85 157.58 509.78 157.71 513.31 158.26C515.83 158.65 518.36 159.5 520.49 160.9C524.36 163.43 526.9 167.57 527.83 172.06C528.58 175.71 528.73 200.1 528.18 204.24C528.19 204.97 527.8 205.49 527.42 206.08C527.48 206.85 527.9 207.48 528.25 208.15L527.97 208.14L527.25 207.17C526.49 207.33 525.9 208.47 525.37 209.09C525.1 207.93 524.68 205.44 523.78 204.65C523.17 205.62 522.52 206.47 521.74 207.32L521.58 207.17C522.26 206.34 523.26 205.36 523.52 204.31C523.53 204.26 523.54 204.21 523.55 204.16C523.69 202.28 521.84 199.3 520.8 197.76C520.5 198.43 519.95 198.88 519.43 199.38C519.43 198.74 520.36 198.3 520.54 197.63C520.56 197.56 520.58 197.48 520.59 197.41C520.14 195.64 518.23 192.86 516.97 191.56L516.53 191.58C516.61 191.04 516.52 190.66 516.22 190.2C515.17 188.54 512.42 184.88 510.47 184.4L509.72 184.92C509.91 184.56 510.12 184.18 510.25 183.8C510.54 182.97 509.67 180.99 509.27 180.21C508.4 178.51 506.85 176.72 505.46 175.41C501.02 171.2 496.34 171.39 490.68 171.28C489.35 171.26 487.89 171.27 486.62 170.82C486.55 170.8 486.48 170.77 486.41 170.75C486.47 170.48 486.5 170.28 486.46 170.01C485.91 166.2 482.96 160.5 479.83 158.21Z" fill="#0B0F36" fill-opacity="1.000000" fill-rule="nonzero"/>
	<path id="Vector" d="M395.87 245.02L423.31 244.98C428.11 244.97 433.1 244.68 437.89 245.08C442.21 245.44 446.69 246.39 450.97 247.13L450.92 246.51C462.6 248.47 474.31 250.96 486.03 252.6L486.05 252.97C479.79 253.32 473.35 253.05 467.07 253.06L425.44 252.9L330.56 253.14L179.78 253.1C155.57 253.09 131.28 253.48 107.07 253.04L107.31 252.67L109.05 252.45C113.94 252.09 119.08 252.4 123.99 252.4L154.03 252.41L154.02 247.28L223.71 247.27L243.35 247.3C246.96 247.31 250.84 247.61 254.41 247.1C253.61 249.38 252.17 250.43 250.05 251.45C249.27 251.83 248.48 252.18 247.68 252.51C253.68 252.51 314.8 252.79 315.53 252.23C319.98 252.58 324.59 252.33 329.06 252.33L354.12 252.3L378.79 252.35C383.47 252.37 388.26 252.61 392.92 252.3C394.36 252.21 395.12 251.61 396.03 250.55L396.27 250.88C396.87 250.3 397.12 249.9 397.13 249.03C397.15 247.83 396.71 245.91 395.87 245.02Z" fill="#02020F" fill-opacity="1.000000" fill-rule="nonzero"/>
	<path id="Vector" d="M395.87 245.02L423.31 244.98C428.11 244.97 433.1 244.68 437.89 245.08C442.21 245.44 446.69 246.39 450.97 247.13C451.85 247.3 452.15 247.28 452.8 247.92C453 248.89 453.12 250.11 452.52 250.97C452.09 251.59 451.42 251.87 450.69 251.95C448.42 252.2 445.97 252.02 443.67 252.01L430.12 251.99L405.02 252.11C402.21 252.11 399.11 252.63 396.35 252.05L396.06 251.72L396.27 250.88C396.87 250.3 397.12 249.9 397.13 249.03C397.15 247.83 396.71 245.91 395.87 245.02Z" fill="#64B7EC" fill-opacity="1.000000" fill-rule="nonzero"/>
	<path id="Vector" d="M203.56 121.6C203.06 120.97 202.26 120.52 201.63 120.01C199.95 118.66 198.33 117.02 197.19 115.18C194.32 110.55 193.52 104.75 194.76 99.47C196.05 94.03 199.38 89.59 204.12 86.67C208.9 83.72 214.3 82.61 219.8 83.96C226.17 85.51 230.03 89.46 233.34 94.91C235.68 100.54 236.32 106.28 233.93 112.05C231.87 117.03 227.67 121.32 222.67 123.37C217.49 125.5 211.77 125.35 206.63 123.17C205.57 122.72 204.56 122.16 203.56 121.6Z" fill="#2B3FD0" fill-opacity="1.000000" fill-rule="nonzero"/>
	<path id="Vector" d="M211.63 89.06C215.42 88.75 218.7 88.81 222.16 90.67C222.38 90.79 222.61 90.92 222.83 91.05C223.05 91.19 223.27 91.33 223.48 91.47C223.69 91.62 223.9 91.77 224.11 91.92C224.32 92.08 224.52 92.24 224.72 92.4C224.91 92.57 225.11 92.74 225.3 92.91C225.49 93.09 225.67 93.27 225.85 93.45C226.04 93.64 226.21 93.83 226.38 94.02C226.55 94.21 226.72 94.41 226.88 94.61C227.04 94.81 227.2 95.02 227.35 95.23C227.5 95.43 227.65 95.65 227.79 95.86C227.93 96.08 228.07 96.3 228.2 96.52C228.33 96.75 228.45 96.97 228.57 97.2C228.69 97.43 228.8 97.66 228.91 97.9C229.01 98.13 229.11 98.37 229.21 98.61C229.3 98.85 229.39 99.09 229.47 99.34C229.56 99.58 229.63 99.83 229.7 100.08C229.78 100.32 229.84 100.56 229.9 100.81C229.96 101.05 230.02 101.3 230.06 101.55C230.11 101.8 230.15 102.05 230.19 102.3C230.22 102.55 230.25 102.8 230.27 103.05C230.29 103.3 230.31 103.55 230.32 103.8C230.33 104.05 230.33 104.31 230.33 104.56C230.32 104.81 230.31 105.06 230.3 105.32C230.28 105.57 230.26 105.82 230.23 106.07C230.2 106.32 230.16 106.57 230.12 106.82C230.08 107.07 230.03 107.31 229.98 107.56C229.92 107.81 229.86 108.05 229.8 108.3C229.73 108.54 229.66 108.78 229.58 109.02C229.5 109.26 229.42 109.5 229.32 109.73C229.23 109.97 229.14 110.2 229.03 110.43C228.93 110.66 228.82 110.89 228.71 111.11C228.6 111.34 228.48 111.56 228.35 111.78C226.31 115.37 222.68 117.99 218.73 119.11C218.51 119.16 218.28 119.21 218.05 119.26C217.82 119.3 217.59 119.34 217.36 119.38C217.13 119.41 216.9 119.44 216.67 119.46C216.44 119.49 216.21 119.51 215.97 119.52C215.74 119.54 215.51 119.55 215.28 119.55C215.04 119.55 214.81 119.55 214.58 119.54C214.35 119.54 214.11 119.53 213.88 119.51C213.65 119.49 213.42 119.47 213.19 119.44C212.96 119.41 212.72 119.38 212.5 119.34C212.27 119.3 212.04 119.26 211.81 119.21C211.58 119.16 211.35 119.11 211.13 119.05C210.9 118.99 210.68 118.93 210.46 118.86C210.23 118.79 210.01 118.72 209.79 118.64C209.58 118.56 209.36 118.48 209.14 118.39C208.93 118.3 208.71 118.21 208.5 118.11C208.29 118.02 208.08 117.91 207.88 117.81C207.65 117.69 207.43 117.57 207.21 117.44C206.99 117.31 206.77 117.18 206.56 117.04C206.35 116.91 206.14 116.76 205.93 116.61C205.73 116.47 205.53 116.31 205.33 116.15C205.13 116 204.94 115.83 204.75 115.66C204.56 115.5 204.37 115.32 204.19 115.15C204.01 114.97 203.83 114.79 203.66 114.6C203.49 114.41 203.32 114.22 203.16 114.03C203 113.83 202.84 113.64 202.69 113.43C202.54 113.23 202.39 113.03 202.25 112.82C202.1 112.61 201.97 112.39 201.83 112.18C201.7 111.96 201.58 111.74 201.46 111.52C201.34 111.29 201.22 111.07 201.11 110.84C201 110.61 200.9 110.38 200.8 110.15C200.7 109.91 200.61 109.68 200.52 109.44C200.44 109.2 200.36 108.96 200.28 108.72C200.2 108.47 200.13 108.22 200.06 107.97C200 107.72 199.94 107.46 199.88 107.21C199.83 106.95 199.78 106.7 199.74 106.44C199.7 106.18 199.66 105.93 199.64 105.67C199.61 105.41 199.58 105.15 199.57 104.89C199.55 104.63 199.54 104.37 199.54 104.11C199.54 103.85 199.54 103.59 199.55 103.33C199.56 103.07 199.58 102.81 199.6 102.55C199.63 102.29 199.66 102.03 199.69 101.77C199.73 101.51 199.77 101.26 199.82 101C199.87 100.75 199.92 100.49 199.98 100.24C200.05 99.98 200.11 99.73 200.19 99.48C200.26 99.23 200.34 98.99 200.43 98.74C200.51 98.49 200.61 98.25 200.7 98.01C200.8 97.77 200.91 97.53 201.02 97.29C201.13 97.06 201.24 96.82 201.37 96.59C203.65 92.37 207.23 90.35 211.63 89.06Z" fill="#FF9B3F" fill-opacity="1.000000" fill-rule="nonzero"/>
	<path id="Vector" d="M218.15 92.54C218.67 92.58 219.22 92.67 219.73 92.8C220.54 93.01 221.05 93.45 221.48 94.18C221.83 96.25 217.68 107.2 216.85 109.82C214.8 109.86 212.76 109.95 210.72 110.11C209.94 110.13 209.2 110.14 208.45 109.87C207.68 109.59 207.1 109.17 206.75 108.41C206.8 107.7 206.89 107.32 207.41 106.81C208.93 105.31 210.99 105.56 212.95 105.57C214.06 102.32 215.83 94.75 218.15 92.54Z" fill="#FF9B3F" fill-opacity="1.000000" fill-rule="nonzero"/>
	<path id="Vector" d="M486.41 170.75C486.48 170.77 486.55 170.8 486.62 170.82C487.89 171.27 489.35 171.26 490.68 171.28C496.34 171.39 501.02 171.2 505.46 175.41C506.85 176.72 508.4 178.51 509.27 180.21C509.67 180.99 510.54 182.97 510.25 183.8C510.12 184.18 509.91 184.56 509.72 184.92L510.47 184.4C512.42 184.88 515.17 188.54 516.22 190.2C516.52 190.66 516.61 191.04 516.53 191.58L516.97 191.56C518.23 192.86 520.14 195.64 520.59 197.41C520.58 197.48 520.56 197.56 520.54 197.63C520.36 198.3 519.43 198.74 519.43 199.38C519.95 198.88 520.5 198.43 520.8 197.76C521.85 199.3 523.69 202.28 523.55 204.16C523.54 204.21 523.53 204.26 523.52 204.31C523.26 205.36 522.26 206.34 521.58 207.17L521.74 207.32C522.52 206.46 523.17 205.62 523.78 204.64C524.68 205.44 525.1 207.93 525.37 209.09C525.39 210.54 524.41 211.8 524.36 213.31C524.36 213.59 524.33 213.87 524.33 214.15L523.95 214.12C523.71 214.85 523.52 215.8 523.01 216.39C523.45 218.33 522.72 221.06 522.82 223.17C522.88 224.41 523.56 226.02 523.38 227.19L524.2 228.01C522.58 228.2 520.91 228.08 519.29 228.04C516.85 228.28 509.95 227.28 508.54 228.94C507.78 229.83 508.02 231.2 508.06 232.29C509.05 232.44 509.74 232.36 510.41 233.19C510.92 233.82 510.88 235.23 510.77 235.99C510.73 236.21 510.72 236.23 510.65 236.41C511.52 238.08 513.49 250.15 513.38 252.22L512.99 252.5C514.82 253.76 528.53 252.02 530.35 253.05C525.45 253.59 520.03 253.1 515.06 253.08C505.39 253.1 495.72 253.06 486.05 252.97L486.03 252.6C490.09 252.86 494.04 252.3 497.6 250.23C501.13 248.18 503.67 244.96 504.7 240.99C505.33 238.5 505.35 235.96 504.87 233.44C504.1 229.46 502.52 225.43 501.37 221.53L494.6 198.34L489.32 179.99C488.51 177.18 487.88 173.24 486.41 170.75Z" fill="#03041C" fill-opacity="1.000000" fill-rule="nonzero"/>
	<path id="Vector" d="M509.72 184.92L510.47 184.4C512.42 184.88 515.17 188.54 516.22 190.2C516.52 190.66 516.6 191.04 516.53 191.58L516.96 191.56C518.22 192.86 520.14 195.64 520.59 197.41C520.57 197.48 520.56 197.56 520.54 197.63C520.36 198.3 519.43 198.74 519.43 199.38C519.95 198.88 520.5 198.43 520.8 197.76C521.84 199.3 523.69 202.28 523.55 204.16C523.53 204.21 523.53 204.26 523.52 204.31C523.26 205.36 522.26 206.34 521.58 207.17L521.74 207.32C522.52 206.47 523.17 205.62 523.78 204.65C524.67 205.44 525.1 207.93 525.36 209.09C525.39 210.54 524.41 211.8 524.36 213.31C524.36 213.59 524.33 213.87 524.32 214.15L523.95 214.12C523.7 214.85 523.52 215.8 523.01 216.39C523.45 218.33 522.71 221.06 522.82 223.17C522.88 224.41 523.56 226.02 523.37 227.19L524.19 228.01C522.58 228.2 520.91 228.08 519.29 228.04C519.15 227.73 512.49 224.13 511.29 223.06C509.23 221.24 507.41 218.93 507.23 216.1L507.77 215.86L507.73 215.37L507.89 215.71C507.52 215.35 507.12 214.97 506.81 214.56C505.88 213.32 505.81 210.36 506.01 208.87L506.48 208.62C506.47 208.58 506.47 208.53 506.46 208.49C504.58 203.94 507.79 198.75 507.05 194.16C507.64 193.38 509.81 185.84 509.72 184.92Z" fill="#2B3FD0" fill-opacity="1.000000" fill-rule="nonzero"/>
	<path id="Vector" d="M423.72 75.58C426.41 73.09 429.18 71.32 433.01 71.43C436.03 71.53 439.12 72.7 441.2 74.95C442.43 76.28 443.74 78.44 443.9 80.28C447.77 79.98 451.21 80.47 454.25 83.13C454.39 83.25 454.52 83.37 454.66 83.5C454.79 83.62 454.91 83.75 455.04 83.88C455.16 84.02 455.28 84.15 455.4 84.29C455.52 84.43 455.63 84.57 455.74 84.71C455.85 84.85 455.96 85 456.06 85.15C456.17 85.3 456.27 85.45 456.36 85.6C456.46 85.76 456.55 85.91 456.64 86.07C456.72 86.23 456.81 86.39 456.89 86.56C456.97 86.72 457.04 86.88 457.11 87.05C457.19 87.22 457.25 87.39 457.32 87.56C457.38 87.73 457.44 87.9 457.49 88.07C457.55 88.24 457.6 88.42 457.64 88.59C457.69 88.77 457.73 88.94 457.76 89.12C457.8 89.3 457.83 89.48 457.86 89.66C457.89 89.84 457.91 90.02 457.93 90.2C457.95 90.38 457.96 90.56 457.97 90.74C458.02 91.6 457.97 92.41 457.82 93.25C459.99 94.45 461.51 96.09 462.2 98.51C462.82 100.7 462.65 103.15 461.49 105.14C460.93 106.08 460.21 107 459.24 107.54C460.88 108.77 461.81 110.44 462.08 112.47C462.39 114.71 461.82 116.94 460.41 118.71C459.94 119.29 459.39 119.76 458.75 120.15C457.99 120.96 456.97 121.35 455.91 121.65C456.11 123.06 455.82 123.95 455.07 125.14C454.52 126.93 452.76 128.2 451.18 129.04C450.67 129.31 450.14 129.54 449.6 129.73C449.05 129.93 448.5 130.08 447.93 130.19C448.37 128.71 448.43 124.86 447.7 123.47C447.3 122.32 445.87 121.24 445 120.4L445.02 119.89C446.25 119.76 447.53 119.69 448.72 119.34C450.74 118.75 452.85 117.49 453.85 115.57C454.63 114.07 454.48 112.3 453.97 110.74C453.39 108.97 452.34 107.74 450.67 106.91C448.28 105.72 446.36 106.55 444.02 107.35C444.63 108.2 444.97 110.08 444.83 111.1C444.79 111.36 444.61 111.39 444.41 111.54C444.28 111.28 444 110.58 443.81 110.4C442.76 109.41 438.36 109.57 435.47 105.29C434.17 103.36 433.4 100.24 433.86 97.93C433.87 97.86 433.89 97.8 433.9 97.73L433.77 97.57C426.68 98.04 425.43 94.5 419.8 91.42C419.76 91.6 419.71 91.76 419.64 91.93C419.58 92.1 419.51 92.26 419.44 92.42C419.36 92.58 419.27 92.73 419.18 92.89C419.09 93.04 418.99 93.18 418.89 93.33C418.78 93.47 418.67 93.6 418.55 93.74C418.43 93.87 418.31 93.99 418.17 94.11C418.04 94.23 417.91 94.34 417.77 94.45C417.63 94.56 417.48 94.66 417.33 94.75C415.07 96.13 412.39 95.48 410.02 94.9C410.09 95.36 410 95.79 409.84 96.23C408.93 98.77 406.42 99.89 404.16 101C402.52 101.26 401.46 101.17 400.1 100.16C398.84 99.23 398.17 97.83 397.96 96.3C397.94 96.15 397.93 96 397.92 95.85C397.9 95.7 397.9 95.55 397.89 95.4C397.89 95.25 397.89 95.09 397.89 94.94C397.89 94.79 397.9 94.64 397.91 94.49C397.92 94.34 397.94 94.19 397.95 94.04C397.97 93.89 398 93.74 398.02 93.59C398.05 93.44 398.08 93.29 398.11 93.14C398.15 92.99 398.18 92.85 398.22 92.7C398.27 92.55 398.31 92.41 398.36 92.26C398.41 92.12 398.46 91.98 398.51 91.84C398.57 91.7 398.63 91.56 398.69 91.42C398.75 91.28 398.82 91.14 398.89 91.01C398.96 90.87 399.03 90.74 399.11 90.61C399.18 90.48 399.26 90.35 399.34 90.22C399.43 90.1 399.51 89.97 399.6 89.85C399.69 89.73 399.78 89.6 399.88 89.49C401.7 87.19 404.1 86.24 406.8 85.4C406.84 85.33 406.88 85.27 406.93 85.2C407.26 84.62 407.14 83.58 407.29 82.91C408.2 78.76 410.37 75.99 414.52 74.61C417.13 73.75 420.16 73.67 422.65 74.97C423.01 75.16 423.37 75.36 423.72 75.58Z" fill="#FF9B3F" fill-opacity="1.000000" fill-rule="nonzero"/>
	<path id="Vector" d="M139.41 91.23C145.21 95.1 151.63 97.99 158.65 98.57C164.43 99.05 169.64 97.93 174.12 94.13L174.74 93.45C175.05 98.76 174.89 104.16 174.91 109.47C174.92 114.32 175.13 119.31 174.75 124.14C174.26 128.49 172.9 132.33 169.37 135.19C164.93 138.79 159.86 138.55 154.5 138.25C147.66 136.77 143.05 134.38 138 129.55C137.88 128.85 136.39 127.36 135.93 126.64C134.58 124.54 133.67 122.32 132.84 119.97C132.9 119.59 132.78 119.37 132.63 119.03C131.79 118.81 130.95 118.53 130.17 118.17C128.25 117.3 126.29 115.62 125.56 113.6C124.86 111.65 125.42 109.64 126.27 107.85C126.91 106.94 127.53 106.14 128.48 105.54C129.6 104.84 130.85 104.56 132.15 104.89C134.15 105.4 135.09 106.75 136.1 108.41C136.93 102.65 138.51 96.99 139.41 91.23Z" fill="#FF9B3F" fill-opacity="1.000000" fill-rule="nonzero"/>
	<path id="Vector" d="M147.09 101.61L154.53 101.56L154.49 104.67C152.33 104.62 149.27 105.4 147.41 104.31C146.9 103.41 147.07 102.62 147.09 101.61Z" fill="#02020F" fill-opacity="1.000000" fill-rule="nonzero"/>
	<path id="Vector" d="M167.11 101.43C169.26 101.66 171.46 101.57 173.62 101.55L173.64 104.55C172.19 104.54 170.47 104.35 169.06 104.66C168.47 104.64 167.99 104.59 167.43 104.38C166.92 103.49 167.1 102.44 167.11 101.43Z" fill="#03041C" fill-opacity="1.000000" fill-rule="nonzero"/>
	<path id="Vector" d="M35.78 96.02C51.38 96.18 66.99 95.84 82.59 96.05C84.53 96.08 86.77 95.96 88.21 97.5C89.49 98.88 89.26 100.91 89.2 102.64L98.99 102.64C96.18 106.45 92.38 109.68 89.3 113.28L89.24 123.78C89.23 124.47 89.24 125.2 89.11 125.87C88.81 127.48 87.68 128.32 86.41 129.2L54 129.13C48.27 129.14 42.32 129.5 36.61 129.08C35.66 129.01 34.81 128.92 33.98 128.39C33.11 127.84 32.58 127.13 32.37 126.1C31.54 122 32.27 114.64 32.26 110.17C32.25 107.02 31.85 103.65 32.15 100.53C32.24 99.51 32.47 98.37 33.06 97.52C33.76 96.53 34.65 96.23 35.78 96.02Z" fill="#FDFDFC" fill-opacity="1.000000" fill-rule="nonzero"/>
	<path id="Vector" d="M468.91 34.34C471.75 34.04 474.73 34.22 477.6 34.21L493.45 34.21C502.84 34.25 512.72 33.82 522.05 34.24C523.43 34.31 524.79 34.46 526.11 34.85C526.32 35.06 526.5 35.29 526.62 35.56C527.17 36.73 527.36 38.22 527.45 39.51C527.69 42.86 527.92 62.92 527.16 65.09C527 65.73 526.68 66.17 526.21 66.62C524.53 68.25 519.45 67.59 517.13 67.55L484.54 67.47C484.51 67.54 484.49 67.62 484.45 67.69C483.71 69.25 477.12 73.58 475.31 74.31C475.37 74.19 475.44 74.06 475.5 73.93C476.17 72.44 476.02 68.96 475.45 67.41C473.64 67.48 471.63 67.7 469.84 67.36C468.89 67.18 467.35 66.66 466.84 65.77C465.78 63.9 465.69 39.29 466.43 36.82C466.83 35.51 467.74 34.93 468.91 34.34Z" fill="#6C63FF" fill-opacity="1.000000" fill-rule="nonzero"/>
	<path id="Vector" d="M290.81 120.56C288.66 120.33 286.42 120.46 284.26 120.46L272.31 120.46C265.24 120.49 257.79 120.16 250.77 120.48C249.73 120.53 248.7 120.64 247.71 120.95C247.55 121.1 247.41 121.28 247.32 121.48C246.91 122.36 246.77 123.49 246.7 124.46C246.51 127 246.35 142.17 246.92 143.81C247.04 144.3 247.28 144.63 247.63 144.97C248.9 146.21 252.73 145.71 254.47 145.67L279.03 145.62C279.05 145.67 279.07 145.73 279.1 145.78C279.66 146.96 284.62 150.24 285.99 150.79C285.93 150.7 285.89 150.6 285.84 150.5C285.34 149.37 285.45 146.74 285.88 145.57C287.24 145.62 288.75 145.79 290.1 145.53C290.82 145.4 291.98 145.01 292.36 144.33C293.16 142.91 293.23 124.3 292.67 122.43C292.37 121.44 291.68 121 290.81 120.56Z" fill="#FFFFFF" fill-opacity="1.000000" fill-rule="nonzero"/>
	<path id="Vector" d="M419.8 91.42C425.43 94.5 426.68 98.04 433.77 97.57L433.9 97.73C433.89 97.8 433.87 97.86 433.86 97.93C433.4 100.24 434.17 103.36 435.47 105.29C438.36 109.57 442.76 109.41 443.81 110.4C444 110.58 444.28 111.28 444.41 111.54C444.61 111.39 444.79 111.36 444.83 111.1C444.97 110.08 444.63 108.2 444.02 107.35C446.36 106.55 448.28 105.72 450.67 106.91C452.34 107.74 453.39 108.97 453.97 110.74C454.48 112.3 454.63 114.07 453.85 115.57C452.85 117.49 450.74 118.75 448.72 119.34C447.53 119.69 446.25 119.76 445.02 119.89L445 120.4C445.86 121.24 447.3 122.32 447.7 123.46C448.43 124.86 448.37 128.71 447.93 130.19C448.44 131.69 448.62 149.42 447.87 150.87C447.85 150.91 447.82 150.95 447.8 150.99C448.58 152.85 448.25 155.43 447.48 157.25C446.27 160.13 443.73 162.35 440.86 163.49C437.61 164.78 433.57 164.85 430.35 163.4C427.96 162.32 425.87 160.25 424.95 157.77C424.24 155.85 424.47 153.22 423.66 151.54C423.68 151.51 423.71 151.48 423.73 151.45C425.57 149.26 422.9 143.69 424.52 141.38C424.97 141.34 425.44 141.31 425.85 141.14C425.93 141.1 426.01 141.07 426.09 141.03C425.32 141.06 424.64 141.06 423.89 140.91C423.41 139.46 422.71 138.1 422.05 136.72C422.47 136.6 422.89 136.46 423.31 136.31C420.52 136.31 417.84 136.06 415.2 135.06C403.06 130.43 404.66 117.31 404.7 106.84C404.71 105.18 404.96 102.64 404.24 101.15C404.22 101.1 404.19 101.05 404.16 101C406.42 99.89 408.93 98.77 409.84 96.23C410 95.79 410.09 95.36 410.02 94.9C412.39 95.48 415.07 96.13 417.33 94.75C417.48 94.66 417.62 94.56 417.77 94.45C417.91 94.34 418.04 94.23 418.17 94.11C418.31 93.99 418.43 93.87 418.55 93.74C418.67 93.6 418.78 93.47 418.89 93.33C418.99 93.18 419.09 93.04 419.18 92.89C419.27 92.73 419.36 92.58 419.44 92.42C419.51 92.26 419.58 92.1 419.64 91.93C419.71 91.76 419.76 91.6 419.8 91.42Z" fill="#FDFDFC" fill-opacity="1.000000" fill-rule="nonzero"/>
	<path id="Vector" d="M423.32 136.32C428.54 135.97 435.51 133.46 438.96 129.31C439.1 129.14 439.17 129 439.26 128.81C439.2 131.7 436.86 134.59 434.83 136.53C432.47 138.79 429.41 140.76 426.09 141.03C425.32 141.06 424.65 141.06 423.89 140.92C423.41 139.46 422.71 138.1 422.05 136.72C422.47 136.6 422.89 136.46 423.32 136.32Z" fill="#02020F" fill-opacity="1.000000" fill-rule="nonzero"/>
	<path id="Vector" d="M149.67 159.34C151.21 158.19 153.86 148.29 155.17 145.78C156.38 146.36 157.58 146.99 158.82 147.51C163.42 149.82 168.8 151.84 172.83 155.05C177.1 158.45 180.84 164.63 184.12 169.02C191.23 178.53 198.15 188.25 205.39 197.66C207.26 195.15 209.15 192.07 211.42 189.93C211.84 188.58 230.01 164.95 232.46 161.75L235.61 163.46C239.39 165.77 243.32 167.94 247 170.39L251.83 173.18C247.65 179.17 243.39 185.14 239.59 191.39C230.58 191.37 221.39 191.73 212.4 191.3L212.34 191.57C210.69 192.33 210.24 194.38 209.65 195.97C208.51 199.06 199.77 224.96 198.84 225.69L198.49 226.14L198.3 226.06C194.34 224.48 191.03 221.83 186.56 223.77C183.86 224.95 180.94 226.6 178.49 228.22C175.03 228.11 171.56 228.18 168.11 228.02L168.17 227.48C167.91 226.68 167.89 225.63 167.75 224.79C161.64 224.14 154.64 224.63 148.45 224.7C148.17 211.18 148.46 197.62 148.42 184.1C148.41 179.85 147.73 163.66 148.53 160.98C148.55 160.93 148.57 160.89 148.58 160.84L148.13 160.45C148.36 159.97 148.76 159.66 149.15 159.3L149.67 159.34Z" fill="#6C63FF" fill-opacity="1.000000" fill-rule="nonzero"/>
	<path id="Vector" d="M177.95 227.52C177.93 221.91 177.73 216.29 177.82 210.68C177.93 204.19 178.34 197.68 178.61 191.19C178.8 186.54 178.62 181.42 179.39 176.84C179.76 177.43 179.82 178.62 179.84 179.32C179.91 181.97 179.56 184.77 179.45 187.42C179.12 195.65 178.55 203.92 178.5 212.15C180.74 215.98 183.76 219.61 186.38 223.2C191.87 221.64 194.14 223.21 198.84 225.69L198.5 226.13L198.3 226.06C194.34 224.48 191.03 221.82 186.56 223.77C183.87 224.95 180.95 226.6 178.49 228.22C175.03 228.11 171.57 228.18 168.11 228.02L168.17 227.48C171.39 227.3 174.72 227.49 177.95 227.52Z" fill="#03041C" fill-opacity="1.000000" fill-rule="nonzero"/>
	<path id="Vector" d="M149.67 159.34C151.21 158.19 153.86 148.29 155.17 145.78C156.38 146.36 157.58 146.99 158.82 147.51L163.81 165.96C161.44 164.82 150.36 160.57 149.67 159.34Z" fill="#FDFDFC" fill-opacity="1.000000" fill-rule="nonzero"/>
	<path id="Vector" d="M120.22 224.65C117.68 213.74 114.93 202.87 112.24 191.99C110.8 186.18 109.68 179.86 107.65 174.24C106.86 172.06 105.7 169.7 104.13 167.99C101.95 165.6 99.52 164.22 96.42 163.37C95.34 163.08 94.27 162.89 93.33 162.26L93.38 162.05C95.91 162.13 98.62 163.03 100.77 164.35C103.3 165.9 105.77 168.45 107.11 171.11C109.59 176.02 110.69 183 112.04 188.39C115.06 200.45 117.99 212.54 120.85 224.64L147.92 224.69L148.45 224.7C154.64 224.63 161.64 224.14 167.75 224.79C167.89 225.63 167.91 226.68 168.17 227.48L168.11 228.02C171.56 228.18 175.03 228.11 178.49 228.22C180.94 226.6 183.86 224.95 186.56 223.77C191.03 221.82 194.34 224.48 198.3 226.06L198.5 226.13L198.84 225.69C199.77 224.96 208.52 199.06 209.65 195.97C210.24 194.38 210.69 192.33 212.34 191.57C217.34 191.81 222.4 191.68 227.41 191.68L258.16 191.56C262.25 191.55 266.45 191.24 270.53 191.44C271.37 191.49 272.19 191.5 272.87 192.04C273.23 192.63 273.34 192.86 273.16 193.57C272.51 196.12 271.33 198.74 270.44 201.22L264.77 216.93L258.19 235.23C256.87 238.94 255.66 242.92 253.95 246.48L180.31 246.41L161.69 246.37C158.8 246.37 155.42 246.02 152.61 246.54L152.62 240.21L167.38 240.21L167.35 225.29L130.44 225.31C126.8 225.31 117.54 225.85 114.52 225.01C116.38 224.53 118.31 224.63 120.22 224.65Z" fill="#02020F" fill-opacity="1.000000" fill-rule="nonzero"/>
	<path id="Vector" d="M184.62 240.21C185.52 238.84 186.87 236.12 188.59 235.71C190.49 235.26 192.78 237.09 194.26 238.06L194.51 239.54C193.71 241.86 193.08 243.84 191.64 245.85L191.4 245.87C191.57 244.17 193.1 241.86 193.7 240.15L184.62 240.21Z" fill="#FF9B3F" fill-opacity="1.000000" fill-rule="nonzero"/>
	<path id="Vector" d="M234.42 211.68C235.54 211.56 236.55 211.46 237.62 211.9C238.8 212.38 239.68 213.22 240.17 214.4C241 216.39 240.63 218.83 239.81 220.76C238.73 223.27 237 225.07 234.47 226.08C233.6 226.24 232.77 226.3 231.9 226.09C230.71 225.8 229.59 225.15 228.99 224.06C228.04 222.36 228.14 220 228.69 218.19C229.62 215.13 231.66 213.12 234.42 211.68Z" fill="#FDFDFC" fill-opacity="1.000000" fill-rule="nonzero"/>
	<path id="Vector" d="M178.49 228.23C180.94 226.6 183.86 224.95 186.56 223.77C191.03 221.83 194.34 224.48 198.3 226.06L198.5 226.14C198.88 227.59 197.55 230.24 196.99 231.66C195.24 230.5 193.95 229.59 191.79 229.43L191.38 229.59C193.25 230.56 195.07 231.24 196.92 232.35C196.08 234.74 195.28 237.14 194.51 239.54L194.26 238.06C194.36 237.84 194.31 237.66 194.3 237.43C193.77 236.85 193.19 236.46 192.51 236.06C191.17 235.28 189.57 234.67 188.01 235.13C186.03 235.69 184.94 238.59 183.99 240.23L167.99 240.24C167.95 236.35 167.48 231.84 168.11 228.02C171.56 228.18 175.03 228.11 178.49 228.23Z" fill="#FF9B3F" fill-opacity="1.000000" fill-rule="nonzero"/>
	<path id="Vector" d="M315.53 252.23C314.77 251.15 313.1 250.76 312.38 249.5C310.75 246.66 309.8 242.93 308.72 239.82C306 231.9 303.35 223.94 300.79 215.97L295.87 201.01C294.95 198.23 293.82 195.36 293.23 192.5C292.96 191.19 292.68 189.39 293.49 188.22C294.14 187.27 295.27 186.61 296.39 186.44C300.29 185.86 304.78 186.3 308.74 186.32L331.07 186.33L358.96 186.31C363.34 186.3 368.08 185.93 372.43 186.36C373.81 186.49 375.2 187.08 376.31 187.92C378.48 189.56 379.48 192.07 379.87 194.69C381.03 197.42 381.77 200.44 382.62 203.28L387.46 219.44C389.37 225.76 391.32 232.06 393.31 238.35C394.3 241.51 395.56 244.77 396.33 247.98C396.53 248.82 396.44 249.56 396.12 250.36C396.09 250.42 396.06 250.49 396.03 250.55C395.12 251.61 394.36 252.21 392.92 252.3C388.26 252.61 383.47 252.37 378.79 252.35L354.12 252.3L329.06 252.33C324.59 252.33 319.98 252.58 315.53 252.23Z" fill="#64B7EC" fill-opacity="1.000000" fill-rule="nonzero"/>
	<path id="Vector" d="M339.84 214C341.35 213.79 342.47 213.79 343.82 214.56C345.3 215.39 346.45 216.8 346.9 218.43C347.19 219.47 347.14 220.58 346.59 221.52C345.92 222.67 344.93 223.2 343.68 223.51C343.19 223.57 342.68 223.62 342.19 223.56C340.64 223.35 339.12 222.49 338.2 221.21C337.41 220.1 337.04 218.68 337.3 217.33C337.61 215.72 338.55 214.89 339.84 214Z" fill="#FDFDFC" fill-opacity="1.000000" fill-rule="nonzero"/>
	<path id="Vector" d="M119.58 144.59C121.85 143.92 124.01 142.92 126.33 142.46C129.32 146.58 140.4 155.03 144.88 159.24C145.56 159.62 146.23 160.01 146.9 160.4L148.13 160.45L148.58 160.84C148.57 160.89 148.55 160.93 148.53 160.98C147.73 163.66 148.41 179.85 148.42 184.1C148.46 197.62 148.17 211.18 148.45 224.7L147.92 224.69L120.85 224.64C117.99 212.54 115.06 200.45 112.04 188.39C110.69 183 109.59 176.02 107.11 171.11C105.77 168.45 103.3 165.91 100.77 164.35C98.62 163.03 95.91 162.13 93.38 162.05L93.33 162.26C94.27 162.89 95.34 163.08 96.41 163.37C99.52 164.22 101.95 165.6 104.13 167.99C105.7 169.7 106.86 172.06 107.65 174.24C109.68 179.86 110.8 186.18 112.24 191.99C114.93 202.87 117.68 213.74 120.22 224.65C118.31 224.63 116.38 224.53 114.52 225.01C117.54 225.85 126.8 225.31 130.44 225.31L167.35 225.29L167.38 240.21L152.62 240.21L152.61 246.54C161.24 246.98 170.05 246.63 178.7 246.63L228.4 246.63L244.81 246.62C247.59 246.62 250.5 246.44 253.27 246.66C253.67 246.7 254.09 246.85 254.41 247.1C250.84 247.61 246.96 247.31 243.35 247.3L223.71 247.27L154.02 247.28L154.03 252.41L123.99 252.4C119.08 252.4 113.94 252.09 109.05 252.45C105.72 252.19 102.51 251 99.92 248.87C97.68 247.02 95.94 244.57 94.78 241.91C92.45 236.51 91.39 228.74 89.99 222.9C88.71 217.56 86.57 211.25 86.06 205.88C87.08 202.9 88.89 200.1 89.98 197.09C91.07 194.35 92.02 191.58 92.62 188.69C93.25 186.74 94.59 181.92 93.58 180.07C93.36 179.66 93.09 179.4 92.65 179.27C90.04 178.48 83.29 182.67 80.86 183.96C80.56 182.52 80.27 181.08 79.99 179.64C78.65 172.7 79.37 167.83 83.37 161.91C85.33 160.61 86.79 158.5 88.87 157.21C92.06 155.24 95.87 153.95 99.33 152.53C106.05 149.81 112.8 147.16 119.58 144.59Z" fill="#6C63FF" fill-opacity="1.000000" fill-rule="nonzero"/>
	<path id="Vector" d="M146.9 160.4L148.13 160.45L148.58 160.84C148.57 160.89 148.55 160.93 148.53 160.98C147.73 163.66 148.41 179.85 148.42 184.1C148.46 197.62 148.17 211.18 148.45 224.7L147.92 224.69C148.43 218.32 147.97 210.06 147.96 203.52L147.94 160.51C142.36 162.82 137.22 166.43 131.7 168.99C131.22 169.28 130.67 169.67 130.12 169.77C129.58 169.88 129.47 169.76 129.05 169.48L128.95 168.95C129.48 168.09 131.04 167.58 131.94 167.14L132.1 167.3C134.56 165.63 137.62 164.71 140.19 163.17C142.41 162.15 144.6 161.21 146.9 160.4Z" fill="#222663" fill-opacity="1.000000" fill-rule="nonzero"/>
	<path id="Vector" d="M119.58 144.59C121.85 143.92 124.01 142.92 126.33 142.46C129.32 146.58 140.4 155.03 144.88 159.24C143.55 159.9 141.88 160.52 140.68 161.36C137.42 162.89 134.14 164.41 131 166.18L130.53 166.25C129.05 165.18 121.04 147.66 119.58 144.59Z" fill="#FDFDFC" fill-opacity="1.000000" fill-rule="nonzero"/>
	<path id="Vector" d="M447.8 150.99C457 151.82 465.43 149.7 474.21 153.76C476.1 154.64 478.48 156.15 479.7 157.88C479.79 158.01 479.79 158.07 479.83 158.21C482.96 160.5 485.91 166.2 486.46 170.01C486.5 170.28 486.47 170.48 486.41 170.75C487.88 173.24 488.51 177.18 489.32 179.99L494.6 198.34L501.37 221.53C502.52 225.43 504.1 229.46 504.87 233.44C505.35 235.96 505.33 238.5 504.69 240.99C503.67 244.96 501.13 248.18 497.6 250.23C494.04 252.3 490.09 252.86 486.03 252.6C474.31 250.96 462.6 248.47 450.92 246.51L450.97 247.13C446.69 246.39 442.21 245.43 437.89 245.08C433.1 244.68 428.11 244.97 423.31 244.98L395.87 245.02C396.71 245.91 397.15 247.83 397.13 249.03C397.12 249.9 396.87 250.3 396.27 250.88L396.03 250.55C396.06 250.49 396.09 250.42 396.12 250.36C396.44 249.56 396.53 248.82 396.33 247.98C395.56 244.76 394.3 241.51 393.31 238.35C391.32 232.06 389.37 225.76 387.46 219.44L382.62 203.28C381.77 200.44 381.03 197.42 379.87 194.69L380.47 194.7L380.51 194.97C382.31 192.66 383.39 188.99 384.55 186.3C386.39 182.04 388.47 177.89 390.34 173.65C392.34 169.12 394.12 164.26 396.72 160.04C397.82 158.28 399.12 156.67 400.72 155.34C405.42 151.44 410.46 151.23 416.31 151.3C418.75 151.33 421.22 151.32 423.66 151.54C424.47 153.22 424.24 155.85 424.95 157.77C425.87 160.25 427.96 162.32 430.35 163.4C433.57 164.85 437.61 164.78 440.86 163.49C443.73 162.35 446.27 160.13 447.48 157.25C448.25 155.43 448.58 152.85 447.8 150.99Z" fill="#FF9B3F" fill-opacity="1.000000" fill-rule="nonzero"/>
	<path id="Vector" d="M469.63 221.69C469.64 221.62 469.64 221.56 469.65 221.49C469.93 218.9 468.52 215.02 467.94 212.42C466.96 208.01 460.34 180.23 460.62 178.77C460.65 178.62 460.79 178.52 460.87 178.39C461.02 178.58 471.51 223.32 471.33 225.77C471.32 225.91 471.27 226.11 471.23 226.24C473.29 226.48 484.5 227.87 485.55 228.87C483.77 229.63 441.94 221.53 435.77 221.29C436.1 222.15 436.09 223.32 435.7 224.17C435.65 224.29 435.63 224.32 435.56 224.42L435.24 224.32C435.3 223.17 435.24 221.91 435.9 220.92C436.05 220.83 436.19 220.7 436.37 220.65C436.88 220.5 459.22 224.02 461.31 224.62C461.39 224.65 461.52 224.7 461.59 224.73C464.26 224.04 467.14 222.88 469.63 221.69Z" fill="#03041C" fill-opacity="1.000000" fill-rule="nonzero"/>
	<path id="Vector" d="M407.48 206.83C408.59 204.86 403.37 170.42 404.64 167.95C404.69 168.01 404.8 168.12 404.85 168.2C405.58 169.54 409.56 218.51 409.78 223.95C409.8 224.44 409.7 224.85 409.53 225.31C408.32 226.69 405.32 227.77 403.69 228.79C399.69 231.3 396.63 234.9 393.85 238.66C393.68 237.47 393.36 235.33 392.53 234.45C392.78 234.36 393.01 234.26 393.2 234.09C394.45 233.03 407.33 208.58 407.48 206.83Z" fill="#0B0F36" fill-opacity="1.000000" fill-rule="nonzero"/>
	<path id="Vector" d="M379.87 194.69L380.47 194.7L380.51 194.97C381.39 196.3 392.71 233.15 392.53 234.45C393.36 235.32 393.68 237.47 393.85 238.66C396.63 234.9 399.69 231.3 403.69 228.79C405.32 227.77 408.32 226.69 409.53 225.31C411.69 225.02 413.92 224.13 416.08 223.69C421.48 222.6 429.87 222.2 434.92 224.73L435.24 224.32L435.56 224.42C435.74 226.91 434.1 241.81 433.1 243.57C438.99 244.47 445.13 245.12 450.92 246.51L450.97 247.13C446.69 246.39 442.21 245.43 437.89 245.08C433.1 244.68 428.11 244.97 423.31 244.98L395.87 245.02C396.71 245.91 397.15 247.83 397.13 249.03C397.12 249.9 396.87 250.3 396.27 250.88L396.03 250.55C396.06 250.49 396.09 250.42 396.12 250.36C396.44 249.56 396.53 248.82 396.33 247.98C395.56 244.76 394.3 241.51 393.31 238.35C391.32 232.06 389.37 225.76 387.46 219.44L382.62 203.28C381.77 200.44 381.03 197.42 379.87 194.69Z" fill="#FDFDFC" fill-opacity="1.000000" fill-rule="nonzero"/>
	<path id="Vector" d="M379.87 194.69L380.47 194.7L380.51 194.97C381.39 196.3 392.71 233.15 392.53 234.45C393.36 235.32 393.68 237.47 393.85 238.66C395.05 240.02 394.89 242.75 396.11 243.9C397.07 244.79 399.1 244.47 400.32 244.44C401.44 243.45 402.35 241.68 403.21 240.45C406.69 235.53 410.67 232.19 416.68 230.88C415.94 231.8 410.54 233.43 408.88 234.71C405.25 237.51 403.59 241.98 400.5 244.44L406.11 244.44C407.19 243.63 408.06 241.93 408.99 240.88C409.92 239.83 411.16 238.97 412.28 238.16C411.57 239.21 407.36 243.67 406.27 244.45C408.94 244.41 412.73 245.04 415.28 244.33C416.63 243.94 417.72 242.77 419.15 242.59C423.21 242.07 428.19 242.55 432.35 242.53C432.37 242.5 432.39 242.46 432.42 242.43C432.45 242.37 432.49 242.31 432.53 242.25C433.51 240.75 435.19 226.78 434.92 224.73L435.24 224.32L435.56 224.42C435.74 226.91 434.1 241.81 433.1 243.57C438.99 244.47 445.13 245.12 450.92 246.51L450.97 247.13C446.69 246.39 442.21 245.43 437.89 245.08C433.1 244.68 428.11 244.97 423.31 244.98L395.87 245.02C396.71 245.91 397.15 247.83 397.13 249.03C397.12 249.9 396.87 250.3 396.27 250.88L396.03 250.55C396.06 250.49 396.09 250.42 396.12 250.36C396.44 249.56 396.53 248.82 396.33 247.98C395.56 244.76 394.3 241.51 393.31 238.35C391.32 232.06 389.37 225.76 387.46 219.44L382.62 203.28C381.77 200.44 381.03 197.42 379.87 194.69Z" fill="#02020F" fill-opacity="1.000000" fill-rule="nonzero"/>
	<circle id="Ellipse 48" cx="482.698486" cy="51.096680" r="1.948252" fill="#FFFFFF" fill-opacity="1.000000"/>
	<circle id="Ellipse 49" cx="489.760498" cy="51.096680" r="1.948252" fill="#FFFFFF" fill-opacity="1.000000"/>
	<circle id="Ellipse 50" cx="496.823975" cy="51.096680" r="1.948252" fill="#FFFFFF" fill-opacity="1.000000"/>
	<circle id="Ellipse 51" cx="503.887207" cy="51.096680" r="1.948252" fill="#FFFFFF" fill-opacity="1.000000"/>
	<circle id="Ellipse 52" cx="510.947998" cy="51.096680" r="1.948252" fill="#FFFFFF" fill-opacity="1.000000"/>
	<circle id="Ellipse 48" r="1.470599" transform="matrix(-1 0 0 1 280.646 132.694)" fill="#6C63FF" fill-opacity="1.000000"/>
	<circle id="Ellipse 49" r="1.470599" transform="matrix(-1 0 0 1 275.315 132.694)" fill="#6C63FF" fill-opacity="1.000000"/>
	<circle id="Ellipse 50" r="1.470599" transform="matrix(-1 0 0 1 269.983 132.694)" fill="#6C63FF" fill-opacity="1.000000"/>
	<circle id="Ellipse 51" r="1.470599" transform="matrix(-1 0 0 1 264.653 132.694)" fill="#6C63FF" fill-opacity="1.000000"/>
	<circle id="Ellipse 52" r="1.470599" transform="matrix(-1 0 0 1 259.51 132.694)" fill="#6C63FF" fill-opacity="1.000000"/>
	<circle id="Ellipse 48" cx="494.387451" cy="116.835449" r="1.948252" fill="#6C63FF" fill-opacity="1.000000"/>
	<circle id="Ellipse 49" cx="501.449707" cy="116.835449" r="1.948252" fill="#6C63FF" fill-opacity="1.000000"/>
	<circle id="Ellipse 50" cx="508.512939" cy="116.835449" r="1.948252" fill="#6C63FF" fill-opacity="1.000000"/>
	<circle id="Ellipse 51" cx="515.576172" cy="116.835449" r="1.948252" fill="#6C63FF" fill-opacity="1.000000"/>
	<circle id="Ellipse 52" cx="522.637207" cy="116.835449" r="1.948252" fill="#6C63FF" fill-opacity="1.000000"/>
	<circle id="Ellipse 48" cx="494.387451" cy="124.295898" r="1.948252" fill="#6C63FF" fill-opacity="1.000000"/>
	<circle id="Ellipse 49" cx="501.449707" cy="124.295898" r="1.948252" fill="#6C63FF" fill-opacity="1.000000"/>
	<circle id="Ellipse 50" cx="508.512939" cy="124.295898" r="1.948252" fill="#6C63FF" fill-opacity="1.000000"/>
	<circle id="Ellipse 51" cx="515.576172" cy="124.295898" r="1.948252" fill="#6C63FF" fill-opacity="1.000000"/>
	<circle id="Ellipse 52" cx="522.637207" cy="124.295898" r="1.948252" fill="#6C63FF" fill-opacity="1.000000"/>
	<circle id="Ellipse 48" cx="45.670410" cy="108.555176" r="1.948252" fill="#6C63FF" fill-opacity="1.000000"/>
	<circle id="Ellipse 49" cx="52.732422" cy="108.555176" r="1.948252" fill="#6C63FF" fill-opacity="1.000000"/>
	<circle id="Ellipse 50" cx="59.795654" cy="108.555176" r="1.948252" fill="#6C63FF" fill-opacity="1.000000"/>
	<circle id="Ellipse 51" cx="66.859131" cy="108.555176" r="1.948252" fill="#6C63FF" fill-opacity="1.000000"/>
	<circle id="Ellipse 52" cx="73.919922" cy="108.555176" r="1.948252" fill="#6C63FF" fill-opacity="1.000000"/>
	<circle id="Ellipse 48" cx="45.670410" cy="116.348145" r="1.948252" fill="#6C63FF" fill-opacity="1.000000"/>
	<circle id="Ellipse 49" cx="52.732666" cy="116.348145" r="1.948252" fill="#6C63FF" fill-opacity="1.000000"/>
	<circle id="Ellipse 50" cx="59.795654" cy="116.348145" r="1.948252" fill="#6C63FF" fill-opacity="1.000000"/>
	<circle id="Ellipse 51" cx="66.859131" cy="116.348145" r="1.948252" fill="#6C63FF" fill-opacity="1.000000"/>
	<circle id="Ellipse 52" cx="73.919922" cy="116.348145" r="1.948252" fill="#6C63FF" fill-opacity="1.000000"/>
	<circle id="Ellipse 12" r="24.144953" transform="matrix(0.947298 -0.320354 0.320354 0.947298 217.692 104.645)" fill="#6C63FF" fill-opacity="1.000000"/>
	<circle id="Ellipse 13" r="13.390431" transform="matrix(0.947298 -0.320354 0.320354 0.947298 217.693 104.645)" fill="#FFFFFF" fill-opacity="1.000000"/>
	<path id="Line 1 (Stroke)" d="M224.41 95.82C224.22 95.7 224.03 95.6 223.82 95.52C223.61 95.45 223.39 95.39 223.18 95.36C222.97 95.32 222.77 95.31 222.56 95.32C222.35 95.33 222.15 95.36 221.96 95.4C221.75 95.45 221.55 95.52 221.36 95.61C221.17 95.69 220.99 95.8 220.82 95.92C220.65 96.04 220.5 96.17 220.36 96.32C220.21 96.47 220.09 96.63 219.98 96.81C219.86 96.99 219.76 97.19 219.68 97.4L215.91 107.43L214.23 106.87C214.02 106.8 213.8 106.76 213.58 106.73C213.38 106.71 213.17 106.71 212.96 106.72C212.76 106.74 212.56 106.78 212.37 106.83C212.16 106.89 211.97 106.96 211.78 107.06C211.59 107.16 211.41 107.27 211.25 107.4C211.09 107.52 210.94 107.66 210.81 107.81C210.67 107.97 210.55 108.14 210.45 108.32C210.34 108.51 210.25 108.71 210.18 108.92C210.11 109.14 210.06 109.35 210.04 109.57C210.01 109.77 210.01 109.98 210.03 110.19C210.04 110.39 210.08 110.59 210.13 110.79C210.19 110.99 210.27 111.18 210.36 111.37C210.46 111.56 210.57 111.74 210.7 111.91C210.82 112.06 210.96 112.21 211.12 112.34C211.27 112.48 211.44 112.6 211.62 112.71C211.81 112.82 212.01 112.91 212.22 112.98L215.95 114.2C216.22 114.29 216.5 114.35 216.78 114.38C217.03 114.41 217.29 114.42 217.55 114.4C217.81 114.38 218.06 114.34 218.3 114.27C218.56 114.21 218.82 114.12 219.06 114C219.31 113.88 219.54 113.74 219.75 113.58C219.95 113.43 220.14 113.26 220.32 113.07C220.49 112.88 220.65 112.68 220.79 112.46C220.94 112.22 221.07 111.97 221.17 111.7L225.69 99.66C225.77 99.45 225.83 99.24 225.86 99.02C225.89 98.82 225.9 98.61 225.89 98.4C225.89 98.2 225.86 98 225.81 97.8C225.77 97.6 225.7 97.4 225.61 97.2C225.52 97.01 225.42 96.83 225.3 96.66C225.18 96.49 225.05 96.34 224.9 96.2C224.75 96.06 224.58 95.93 224.41 95.82ZM214.31 109.26L213.53 109C213.02 108.84 212.47 109.11 212.31 109.62C212.14 110.13 212.42 110.68 212.92 110.85L213.7 111.1L216.65 112.07C217.64 112.4 218.7 111.88 219.07 110.91L223.59 98.87C223.78 98.37 223.53 97.81 223.03 97.62C222.53 97.43 221.97 97.69 221.78 98.19L221.49 98.96L217.25 110.23L214.31 109.26Z" fill="#FF9B3F" fill-opacity="1.000000" fill-rule="evenodd"/>
</svg>
