<svg width="18.465576" height="135.546875" viewBox="0 0 18.4656 135.547" fill="none" xmlns="http://www.w3.org/2000/svg" xmlns:xlink="http://www.w3.org/1999/xlink">
	<desc>
			Created with Pixso.
	</desc>
	<defs/>
	<path id="Vector" d="M0.01 74.47C6.04 71.87 12.07 69.26 18.25 66.6C18.25 66.91 18.25 67.21 18.25 67.51C18.26 68.5 18.26 69.43 18.23 70.36C18.23 70.5 17.96 70.69 17.78 70.77C16.97 71.11 16.13 71.39 15.33 71.77C15.1 71.87 14.86 72.22 14.86 72.46C14.83 73.32 14.83 74.19 14.83 75.06C14.83 75.77 14.84 76.49 14.82 77.2C14.81 77.64 15 77.82 15.37 77.97C16.15 78.26 16.9 78.62 17.69 78.9C18.14 79.07 18.29 79.33 18.27 79.8C18.25 80.4 18.25 81.01 18.26 81.67C18.26 81.95 18.26 82.25 18.26 82.55C12.09 79.89 6.04 77.28 0 74.67C0 74.6 0 74.54 0.01 74.47ZM18.44 41.28C18.22 46.22 14.06 49.79 9.55 49.79C9.34 49.79 9.14 49.78 8.93 49.77C4 49.41 0.21 45.09 0.48 40.48C0.76 35.71 4.89 31.91 9.52 31.91C9.73 31.91 9.94 31.91 10.15 31.93C14.93 32.29 18.81 36.69 18.44 41.28ZM2 52.51C3.07 52.95 4.11 53.38 5.23 53.84C4.14 55.44 3.51 57.1 4.03 58.99C4.36 60.17 5.11 61.09 6.12 61.77C7.09 62.42 8.33 62.74 9.55 62.74C11.07 62.74 12.57 62.24 13.53 61.3C15.53 59.33 15.64 56.4 13.75 53.54C14.71 53.1 15.65 52.66 16.62 52.26C16.63 52.26 16.64 52.25 16.65 52.25C16.77 52.25 16.99 52.41 17.07 52.53C19.94 57.13 18.56 65.18 10.87 66.24C10.4 66.3 9.93 66.34 9.46 66.34C7.97 66.34 6.51 66 5.11 65.36C2.12 63.97 0.27 60.81 0.49 57.53C0.61 55.75 1.01 54.08 2 52.51ZM9.53 117.69C14.41 117.7 18.47 121.77 18.46 126.65C18.45 131.56 14.43 135.54 9.49 135.54L9.48 135.54C4.57 135.54 0.48 131.5 0.48 126.64C0.48 121.78 4.61 117.69 9.52 117.69L9.53 117.69ZM14.87 99.22L14.87 96.56L18.2 96.56C18.22 96.75 18.26 96.94 18.26 97.14C18.33 100.22 18.4 103.3 18.46 106.39C18.53 110.1 16.07 113.54 12.42 114.84C11.49 115.17 10.52 115.33 9.55 115.33C6.88 115.33 4.22 114.13 2.51 112.01C-0.29 108.51 -0.17 103.82 2.8 100.49C4.58 98.51 6.98 97.47 9.44 97.47C11.07 97.47 12.72 97.92 14.23 98.84C14.4 98.95 14.57 99.04 14.87 99.22ZM18.26 15.06C18.26 15.41 18.26 15.75 18.26 16.09C18.26 17.04 18.27 17.93 18.23 18.81C18.23 19.02 17.95 19.26 17.74 19.4C16.32 20.36 14.9 21.33 13.44 22.22C12.84 22.59 12.6 23.01 12.68 23.68C12.71 23.96 12.7 24.25 12.69 24.57C12.69 24.72 12.69 24.88 12.69 25.05L18.22 25.05L18.22 28.42L0.72 28.42C0.72 28.32 0.71 28.23 0.71 28.14C0.69 27.93 0.68 27.74 0.69 27.54C0.7 26.91 0.71 26.28 0.71 25.65C0.71 24.17 0.72 22.69 0.9 21.23C1.21 18.79 2.59 17.02 5.14 16.53C5.73 16.42 6.3 16.36 6.85 16.36C8.75 16.36 10.44 17.08 11.72 18.85C11.76 18.91 11.82 18.96 11.92 19.08C13.98 17.77 16.05 16.46 18.26 15.06ZM4.05 94.21L0.74 94.21L0.74 82.53L4.02 82.53L4.02 86.71L18.22 86.71L18.22 90.15L4.05 90.15L4.05 94.21ZM11.09 8.71L14.88 8.71L14.88 0L18.21 0L18.21 12.14L0.75 12.14L0.75 0.33L4.02 0.33L4.02 8.7L7.75 8.7L7.75 1.32L11.09 1.32L11.09 8.71ZM9.51 35.5L9.5 35.5C6.31 35.5 3.86 37.8 3.84 40.83C3.81 43.83 6.3 46.21 9.47 46.21L9.48 46.21C12.63 46.21 15.14 43.77 15.1 40.73C15.07 37.76 12.66 35.5 9.51 35.5ZM9.51 131.96C12.64 131.95 15.09 129.58 15.1 126.54C15.11 123.58 12.63 121.25 9.48 121.25L9.48 121.25C6.33 121.25 3.82 123.64 3.84 126.63C3.86 129.65 6.3 131.96 9.48 131.96L9.51 131.96ZM15.06 106.4C15.14 103.52 12.75 101.11 9.76 101.04C9.7 101.04 9.65 101.04 9.6 101.04C6.41 101.04 4.04 103.24 3.94 106.3C3.85 109.18 6.23 111.66 9.17 111.75C9.24 111.75 9.31 111.75 9.37 111.75C12.6 111.75 14.98 109.52 15.06 106.4ZM9.33 25.01C9.33 24.78 9.33 24.56 9.33 24.34C9.33 23.84 9.34 23.37 9.33 22.9C9.32 22.55 9.3 22.2 9.24 21.86C9.05 20.77 8.07 19.99 6.85 19.93C6.79 19.93 6.73 19.93 6.68 19.93C5.45 19.93 4.35 20.56 4.19 21.56C4.01 22.68 4.05 23.83 4 25.01L9.33 25.01ZM11.85 76.49L11.85 73.11C10.44 73.66 9.12 74.18 7.65 74.76C9.11 75.36 10.45 75.91 11.85 76.49Z" fill="#FFFFFF" fill-opacity="1.000000" fill-rule="evenodd"/>
</svg>
