<svg width="238" height="61" viewBox="0 0 238 61" fill="none" xmlns="http://www.w3.org/2000/svg"><g clip-path="url(#clip0_511_1041)"><path d="M22.38 32.374h-8.045l4.26-14.672 3.785 14.672zM10.115 48.162l2.682-9.489H23.72l2.683 9.49h10.056L26.402 11.84c-.67-2.032-1.775-3.149-4.26-3.149H8.104v3.39h1.105c1.578 0 2.445.678 2.445 1.794 0 .678-.236 1.117-.907 3.15L.73 48.162h9.385zm37.94 0v-36.32c0-2.034-1.105-3.15-2.92-3.15H36.42v3.388h.237c1.774 0 2.445.678 2.445 2.034v33.849h8.952v.2zm15.42 0v-36.32c0-2.034-1.105-3.15-2.92-3.15h-8.912v3.388h.434c1.577 0 2.01.678 2.01 2.034v33.849h9.387v.2zM79.09 12.28c.001-2.472-1.773-4.067-5.362-4.067-2.919 0-4.93 1.595-4.93 4.067 0 2.71 2.011 4.306 4.93 4.306 3.589-.04 5.363-1.595 5.363-4.306zm-.472 35.882V21.77c0-1.796-.907-3.151-2.682-3.151h-8.913v3.388h.67c1.578 0 2.012.677 2.012 2.033v24.162h8.913v-.04zM98.495 33.93v5.86c-1.578 1.793-3.353 2.71-4.694 2.71-1.773 0-2.444-.916-2.444-3.15 0-2.232.67-3.388 2.012-4.066 1.34-.438 2.681-.877 5.127-1.355zm-12.029-6.74c2.918-1.594 6.231-2.471 8.913-2.471 2.444-.001 3.351.916 3.351 3.627v.678c-3.588.677-4.692.917-6.703 1.116-1.104.24-2.445.679-3.59 1.117-3.588 1.595-5.362 4.306-5.362 8.812 0 5.42 2.445 8.132 7.374 8.132 1.774 0 3.352-.24 4.692-.917 1.105-.678 2.012-1.117 3.786-2.472v.678c0 1.795.907 2.712 2.682 2.712h8.243v-3.15h-.67c-1.578 0-2.012-.917-2.012-2.71V28.306c0-7.655-2.444-10.167-9.82-10.167-2.444 0-4.692.24-6.703.678-2.446.678-3.59 1.116-6.232 2.472l2.051 5.9zm36.36 20.972V28.068c1.58-1.595 2.92-2.472 4.695-2.472 2.012 0 2.446.917 2.446 4.067v18.5h9.15V28.067c0-4.505-.67-6.1-1.776-7.655-1.577-1.595-3.352-2.033-5.797-2.033-3.59 0-5.797 1.116-9.15 4.306V21.33c0-1.794-.906-2.711-2.68-2.711h-8.48v3.388h.67c1.578 0 2.012.677 2.012 2.033v24.162h8.912v-.04zm42.436-6.1H152.76l11.832-17.383v-6.1h-18.536c-2.01 0-2.918.916-2.918 3.388v5.183h3.352v-.677c0-1.116.67-1.794 2.01-1.794h6.47L142.9 42.06v6.1h22.56v-6.1h-.198zm47.09 5.422v-33.41c0-2.711-.91-3.628-3.354-3.628h-7.572v4.066h.237c1.775 0 2.01.24 2.01 2.472v30.7h8.717v-.2h-.04zm3.785 0h8.242V21.29c0-2.472-.908-3.389-3.353-3.389h-4.93v29.584h.04zm-16.052 0V17.901h-4.93c-2.444.001-3.588.918-3.588 3.39v26.194h8.518zm32.34-16.944c0 14.672-10.255 25.277-24.334 25.277-14.275 0-24.568-10.605-24.568-25.277 0-14.672 10.253-25.716 24.57-25.716 13.842 0 24.332 11.044 24.332 25.716zm4.93 0C237.354 13.157 224.85.319 208.09.319c-16.76-.001-29.46 12.877-29.46 30.22 0 17.343 12.74 30.22 29.46 30.22 16.723 0 29.264-12.837 29.264-30.22z" fill="white"/></g><defs><clipPath id="clip0_511_1041"><rect width="236.625" height="61" fill="white" transform="translate(0.729004)"/></clipPath></defs></svg>