<svg width="162" height="61" viewBox="0 0 162 61" fill="none" xmlns="http://www.w3.org/2000/svg"><path fill-rule="evenodd" clip-rule="evenodd" d="M13.986 4.679c.614-1.535 1.356-3.197 1.637-3.734.255-.537.613-.946.792-.87.154.052.895 1.586 1.662 3.401.411.973.793 1.864 1.062 2.494v.003c.233.545.383.895.395.93.05.077 1.968-1.457 4.244-3.4 2.3-1.918 4.243-3.503 4.37-3.503.103 0 .23.153.308.307.076.179-.358 2.684-2.071 10.815l.588.05c.537.078.588.206.588 3.146h-22.5v-1.534c0-1.355.052-1.534.512-1.534.281 0 .511-.18.511-.384s-.46-2.557-1.023-5.241C4.501 2.94 4.041.639 4.041.51c0-.126.23-.229.487-.203.255.05 2.173 1.636 4.244 3.528 2.072 1.892 3.836 3.477 3.913 3.528.102.026.69-1.176 1.304-2.684zM3.018 20.453v-4.092h26.59v4.09h-1.917l-5.113 10.228h1.918v4.092h-1.15c-.972 0-1.126.076-1.023.435.076.255 1.33 3.681 5.394 14.778l3.938.127v5.114H.973v-5.114l3.963-.127 2.608-7.16a615.86 615.86 0 0 0 2.76-7.593c.103-.383-.05-.46-2.172-.46v-4.09h.894c.486 0 .895-.052.895-.129.001-.076-1.124-2.378-4.984-10.1H3.018zm63.714 15.162.077 19.226 4.473.128V16.363h-4.602l.052 19.253zm-19.994.588.515-3.447v-.001c1.295-8.674 2.298-15.39 2.298-15.55-.025-.23.717-.331 5.472-.331l3.043 18.485 1.069 6.528.013.08 2.037 12.44c.102.562.077.562-4.116.434l-.537-3.58-.104-.667-.074-.47v-.004l-.001-.001v-.002c-.22-1.41-.387-2.465-.407-2.486 0-.025-1.534-.025-6.776.051l-1.048 7.16-2.097.076c-1.15.025-2.122.025-2.122 0 0-.026 1.279-8.464 2.838-18.716zm32.446-16.39v2.941H76.37v3.324h2.814c.128 25.285.179 26.538.588 27.305.255.511.818.997 1.406 1.227.537.23 2.07.486 3.452.588l2.505.18-.025-3.708c-2.071-.256-2.813-.46-3.017-.614-.256-.23-.307-2.838-.307-12.63v-12.35h3.324v-3.323h-3.324v-5.88h-4.602v2.94zm15.852 3.504c.51-.358 1.431-.819 2.045-.998.64-.178 1.97-.28 2.94-.23 1.28.052 2.174.256 3.07.69.74.359 1.508.998 1.84 1.51.307.51.793 1.66 1.023 2.556.41 1.508.46 3.068.46 27.996l-4.474.128v-2.3l-.82.92c-.46.51-1.354 1.1-1.994 1.33-.792.28-1.508.357-2.3.23-.614-.103-1.56-.46-2.097-.82-.615-.408-1.177-1.098-1.586-1.968-.384-.792-.767-2.275-.92-3.656-.18-1.253-.257-3.375-.18-4.73.077-1.815.256-2.761.716-3.81.358-.74 1.074-1.764 1.636-2.275.563-.51 2.174-1.456 3.58-2.12 1.406-.666 2.89-1.305 4.04-1.637l-.103-3.35c-.076-2.94-.153-3.477-.64-4.09-.357-.512-.792-.742-1.405-.819-.46-.025-1.125 0-1.432.077-.332.078-.741.512-.971 1.024-.205.511-.46 1.994-.767 5.778H92.35l.18-2.633c.102-1.433.358-3.146.588-3.785.23-.614.537-1.407.716-1.74.179-.331.716-.894 1.202-1.277zm26.206-.972c-.562.153-1.406.665-1.917 1.176-.486.512-1.023 1.125-1.176 1.406-.283.46-.308.307-.334-.946l-.025-1.483h-4.346v32.47h4.347c0-26.13 0-26.462.512-27.153.28-.383 1.023-.945 1.61-1.252.59-.282 1.637-.614 2.302-.69l1.227-.18c-.024-3.605-.05-3.681-.587-3.656-.307 0-1.048.153-1.61.306zm10.227.486c.434-.23 1.124-.486 1.533-.614.435-.102 1.534-.153 2.43-.128 1.15.052 2.07.282 2.94.69.74.359 1.508.998 1.84 1.51.333.51.793 1.482 1.023 2.172.307.997.435 2.583.588 12.4h-9.716l.026 3.401c0 1.867.102 4.423.23 5.676.205 1.866.384 2.428.844 2.888.307.307.97.64 1.457.716.69.128 1.074.026 1.61-.383.512-.383.768-.894.947-1.815.153-.69.256-2.48.256-6.647h4.346v1.866a37.46 37.46 0 0 1-.256 4.014c-.153 1.202-.536 2.762-.843 3.452-.307.69-.92 1.56-1.38 1.969-.46.408-1.254.842-1.79.97-.538.154-1.714.256-2.634.281-.894.001-2.172-.178-2.812-.382-.613-.23-1.482-.716-1.892-1.1-.41-.383-1.022-1.278-1.33-1.994-.33-.69-.69-2.07-.843-3.068-.153-.971-.255-5.522-.255-10.1 0-4.601.102-9.024.255-9.97.154-.895.512-2.174.793-2.813.28-.613.818-1.457 1.176-1.866.383-.41 1.048-.895 1.457-1.125zm16.097 6.7c.438 2.634.97 5.842 1.544 9.28 1.484 8.744 2.685 16.235 2.685 16.618 0 .384-.102.87-.23 1.074-.18.281-.87.435-2.173.512l-1.943.127v3.196c5.956-.103 6.468-.18 7.08-.64.41-.307.87-.997 1.05-1.534.178-.562 1.534-8.488 3.016-17.641 1.458-9.128 2.736-16.926 2.813-17.31l.1-.69c-3.732 0-4.345.077-4.345.307 0 .143-.293 2.562-.684 5.793v.014c-.1.816-.204 1.684-.312 2.58-.563 4.423-1.202 9.946-1.432 12.272-.23 2.301-.46 4.27-.512 4.347a.192.192 0 0 1-.23 0c-.05-.077-.28-1.815-.51-3.835-.206-2.046-.947-7.722-1.612-12.605l-1.227-8.898c-3.247 0-4.22.102-4.22.204.017.062.466 2.76 1.142 6.828zm-132.89 1.021-2.531-4.909-2.531-4.934H22.96l-4.985 9.997-3.298-.154zm36.306 3.708c.64-4.832 1.253-8.973 1.33-9.152.076-.205.178-.333.23-.256.025.05.69 4.32 1.483 9.485l.29 1.95v.002c.631 4.251 1.116 7.514 1.116 7.558 0 .077-1.253.128-2.813.128-2.506 0-2.813-.025-2.813-.434 0-.256.511-4.424 1.176-9.281zm83.3-8.385c-.46.127-.998.485-1.228.792-.205.307-.512 1.432-.64 2.506-.153 1.048-.28 2.965-.28 4.27v2.377h5.368c-.127-7.235-.23-8.233-.588-8.897-.23-.46-.715-.946-1.073-1.1a9.31 9.31 0 0 0-.69-.23c-.052.026-.435.154-.87.281zM12.094 42.263c1.483-4.04 2.684-7.389 2.684-7.414 0-.027.664-.078 2.94-.078l2.76 7.491c1.51 4.117 2.737 7.568 2.737 7.67 0 .103-3.094.18-6.904.18-4.423 0-6.903-.077-6.903-.256 0-.128 1.202-3.554 2.685-7.594zm88.72-4.755c-.41.23-1.33.767-1.995 1.201-.793.51-1.406 1.176-1.739 1.815-.382.87-.485 1.636-.485 4.55 0 2.02.128 4.015.333 4.705.153.665.537 1.355.818 1.56.358.255.818.307 1.534.179.682-.12 1.304-.47 1.866-1.05l.82-.869c0-9.689-.078-12.501-.18-12.501-.128-.001-.537.178-.972.408z" fill="white"/></svg>