<svg width="55" height="61" viewBox="0 0 55 61" fill="none" xmlns="http://www.w3.org/2000/svg"><path d="M50.39 57.647C45.87 60.255 38.12 61 27.396 61s-18.474-.745-22.993-3.353C1.693 56.085.32 53.957.32 52.43c0-.87.452-1.366 1.46-1.366h51.234c1.008 0 1.46.497 1.46 1.366 0 1.527-1.373 3.655-4.085 5.217zm2.624-40.454H1.778c-1.008 0-1.46-.533-1.46-1.49C.32 10.024 8.68 0 27.397 0 45.94 0 54.474 10.024 54.474 15.703c0 .957-.452 1.49-1.46 1.49z" fill="white"/><path d="M11.233 40.614c-.156-.248-.173-.408-.173-.479 0-.195.104-.337.312-.532.487-.462 1.686-1.615 2.347-2.661.502-.799.711-1.526.711-2.129.001-1.543-1.372-2.75-2.867-2.75-.955 0-1.86.55-2.467 1.56-.817 1.35-1.79 2.91-2.415 3.532-.156.16-.243.195-.364.195-.21 0-.296-.141-.296-.372v-1.775c0-1.738-1.008-3.14-2.833-3.14-1.842 0-2.833 1.4-2.833 3.14v10.93c0 1.739.99 3.141 2.833 3.141 1.825 0 2.833-1.401 2.833-3.14v-2.52c0-.213.087-.372.296-.372.278 0 .348.284.417.425.4.976 1.564 3.052 2.642 4.276.73.816 1.634 1.331 2.59 1.331 1.616 0 2.972-1.437 2.972-2.98 0-.958-.4-1.669-1.165-2.52-.974-1.084-2.12-2.504-2.539-3.16z" fill="white"/><path d="M32.906 31.05c2.73 0 4.45-1.774 4.45-4.364 0-1.65-.974-2.786-2.92-2.786h-.556c-1.026 0-1.825.497-1.825 1.615 0 .994.851 1.473 1.495 1.473.33 0 .539.106.539.355-.001.319-.366.532-.784.532-1.303 0-2.19-.94-2.19-2.697 0-1.952 1.218-2.661 2.156-2.661 1.147 0 1.338.603 2.137.603.92 0 1.547-.78 1.547-1.596 0-.604-.262-1.065-.66-1.385-.73-.55-1.756-.958-3.285-.958-2.694 0-5.319 1.81-5.319 5.997 0 4.007 2.624 5.87 5.213 5.87z" fill="white"/><path d="M2.353 30.944h2.45c2.312 0 3.72-1.58 3.72-3.55 0-1.578-.922-2.306-1.13-2.483-.086-.07-.173-.14-.173-.212 0-.089.052-.124.139-.23.329-.39.66-1.012.66-1.917 0-2.128-1.41-3.264-3.599-3.264H2.354c-1.373 0-2.033.817-2.033 1.917v7.824c0 1.1.66 1.917 2.033 1.917zm1.026-8.606c-.001-.23.138-.408.433-.408h.226c.746 0 .972.532.972.994 0 .426-.225 1.03-.973 1.03h-.227c-.295 0-.434-.178-.434-.41v-1.206zm-.001 4.153c-.001-.23.138-.408.433-.408h.313c.834 0 1.077.567 1.077 1.083 0 .461-.244 1.117-1.077 1.117h-.313c-.295 0-.434-.177-.434-.408V26.49z" fill="white"/><path d="M47.73 31.032c1.112 0 1.72-.852 1.72-1.917v-1.88c0-.23.105-.337.278-.337.21 0 .278.124.313.337.157.905.574 2.129 1.043 2.75.592.8 1.147 1.048 1.703 1.048.904 0 1.686-.728 1.686-1.633 0-.603-.243-1.047-.556-1.455-.59-.762-.955-1.26-1.181-1.88-.052-.142-.018-.267.139-.39.539-.426 1.165-1.367 1.165-2.857-.001-2.253-1.826-3.53-4.034-3.53h-1.964c-1.373 0-2.033.815-2.033 1.916v7.913c0 1.064.607 1.915 1.72 1.915zm1.53-8.392c0-.23.138-.408.434-.408h.243c.73 0 .956.532.956.994 0 .444-.226 1.03-.956 1.03h-.243c-.296 0-.435-.178-.435-.41V22.64z" fill="white"/><path d="M19.16 32.062c-1.947 0-3.007 1.49-3.007 3.353v10.504c0 1.862 1.06 3.352 3.007 3.352 1.946 0 3.006-1.49 3.006-3.353V35.414c0-1.863-1.06-3.354-3.007-3.354z" fill="white"/><path d="M50.059 38.892h-.853c-1.529 0-2.71.728-2.71 2.324 0 1.455 1.285 2.147 2.241 2.147.47 0 .8.142.8.514 0 .462-.556.763-1.147.763-1.963 0-3.302-1.366-3.302-3.904 0-2.82 1.825-3.85 3.233-3.85 1.721 0 2 .887 3.198.887 1.39 0 2.33-1.152 2.33-2.324a2.43 2.43 0 0 0-.991-2.006c-1.06-.798-2.66-1.384-4.919-1.384-4.049 0-7.995 2.608-7.995 8.676 0 5.802 3.945 8.517 7.839 8.517 4.083 0 6.673-2.573 6.673-6.334 0-2.378-1.459-4.028-4.396-4.028z" fill="white"/><path d="M43.49 30.943c.973 0 1.738-.586 1.738-1.65 0-1.047-.764-1.633-1.738-1.633h-1.564c-.296 0-.435-.177-.435-.408v-.337c.001-.23.14-.409.436-.409h1.2c.834 0 1.494-.514 1.494-1.42 0-.904-.66-1.419-1.495-1.419h-1.2c-.295 0-.434-.177-.434-.408v-.285c.001-.23.14-.409.436-.409h1.564c.973 0 1.738-.585 1.738-1.65 0-1.047-.764-1.632-1.738-1.632h-3.285c-1.372 0-2.033.816-2.033 1.916v7.824c0 1.1.66 1.917 2.033 1.917h3.285v.003z" fill="white"/><path d="M13.632 31.032c2.816 0 4.31-1.721 4.31-3.885v-5.98c0-1.064-.607-1.916-1.72-1.916-1.112 0-1.72.853-1.72 1.917v5.784c0 .427-.244.924-.87.924-.625 0-.834-.497-.834-.923v-5.783c0-1.064-.626-1.916-1.739-1.916-1.113 0-1.721.853-1.721 1.917v5.98c0 2.165 1.477 3.885 4.292 3.885z" fill="white"/><path d="M25.833 31.032c.903 0 1.686-.727 1.686-1.633-.001-.604-.245-1.048-.557-1.456-.504-.674-.956-1.26-1.182-1.88-.05-.142-.017-.267.14-.39.54-.426 1.165-1.367 1.165-2.857 0-2.253-1.825-3.53-4.032-3.53h-1.965c-1.373 0-2.033.815-2.033 1.916v7.913c0 1.065.608 1.917 1.72 1.917 1.113 0 1.72-.852 1.72-1.917v-1.88c0-.23.105-.337.279-.337.209 0 .278.123.312.336.157.904.574 2.129 1.043 2.75.59.798 1.146 1.046 1.703 1.046zm-2.851-6.778h-.244c-.295 0-.434-.177-.434-.408V22.64c0-.23.139-.408.434-.408h.244c.73 0 .956.532.956.994 0 .443-.226 1.028-.956 1.028z" fill="white"/><path d="M35.826 32.062c-1.79 0-2.763 1.366-2.763 3.087v3.831c0 .32-.104.463-.296.463-.139 0-.243-.089-.364-.337l-2.416-4.79c-.92-1.829-1.877-2.255-2.972-2.255-1.825.001-2.833 1.403-2.833 3.16v10.966c0 1.72.974 3.087 2.763 3.087 1.79 0 2.764-1.366 2.764-3.087v-3.833c-.001-.318.103-.461.294-.461.14 0 .243.088.365.337l2.414 4.79c.922 1.828 1.912 2.253 2.972 2.253 1.825 0 2.833-1.401 2.833-3.158V35.15c0-1.722-.973-3.089-2.764-3.089z" fill="white"/><path d="M52.009 59.49c-.001-.477.36-.876.857-.876.496 0 .858.399.858.876 0 .512-.362.881-.858.881-.496.002-.858-.374-.858-.88zm1.528 0a.673.673 0 0 0-.671-.697.673.673 0 0 0-.672.697c0 .459.339.702.672.702s.671-.243.671-.702zm-.969.376v-.745c0-.046.04-.094.087-.094h.245c.192 0 .326.12.326.28 0 .137-.075.256-.25.285l.192.222a.096.096 0 0 1 .029.06c-.001.053-.037.09-.089.09a.09.09 0 0 1-.075-.043l-.256-.31h-.03v.256c0 .047-.04.09-.093.09a.092.092 0 0 1-.088-.09zm.309-.424c.104 0 .162-.053.162-.125 0-.077-.052-.119-.145-.119h-.146v.245h.129z" fill="white"/></svg>