<svg width="60.339355" height="61.000000" viewBox="0 0 60.3394 61" fill="none" xmlns="http://www.w3.org/2000/svg" xmlns:xlink="http://www.w3.org/1999/xlink">
	<desc>
			Created with Pixso.
	</desc>
	<defs/>
	<path id="Vector" d="M30.07 0C30.9 -0.01 31.52 0.01 31.98 0.04C32.35 0.06 32.92 0.11 33.24 0.14C33.57 0.18 34.02 0.23 34.26 0.26C34.49 0.29 34.92 0.36 35.22 0.41C35.51 0.46 36.01 0.55 36.32 0.62C36.64 0.68 37.15 0.8 37.47 0.88C37.79 0.96 38.26 1.08 38.52 1.16C38.78 1.23 39.19 1.36 39.44 1.44C39.69 1.52 40.11 1.66 40.36 1.75C40.61 1.84 41.09 2.02 41.42 2.16C41.75 2.29 42.27 2.51 42.57 2.64C42.87 2.78 43.4 3.04 43.76 3.22C44.12 3.4 44.59 3.65 44.82 3.78C45.05 3.91 45.43 4.13 45.68 4.27C45.92 4.42 46.37 4.7 46.68 4.91C46.99 5.11 47.4 5.39 47.59 5.53C47.79 5.66 48.1 5.9 48.3 6.04C48.49 6.19 48.82 6.44 49.02 6.6C49.22 6.77 49.52 7.01 49.68 7.15C49.85 7.29 50.17 7.57 50.4 7.78C50.64 7.99 51.13 8.46 51.5 8.83C51.86 9.19 52.33 9.69 52.54 9.92C52.76 10.16 53.04 10.48 53.18 10.64C53.32 10.81 53.56 11.1 53.72 11.31C53.89 11.51 54.19 11.91 54.4 12.19C54.61 12.47 54.94 12.93 55.13 13.21C55.31 13.48 55.6 13.91 55.75 14.16C55.91 14.41 56.17 14.84 56.32 15.11C56.47 15.38 56.74 15.85 56.9 16.17C57.07 16.48 57.36 17.06 57.53 17.43C57.71 17.82 57.95 18.37 58.07 18.67C58.2 18.97 58.38 19.45 58.49 19.73C58.59 20.02 58.76 20.49 58.86 20.79C58.96 21.09 59.09 21.55 59.17 21.81C59.24 22.07 59.37 22.54 59.45 22.86C59.53 23.17 59.64 23.69 59.71 24.01C59.78 24.32 59.87 24.82 59.92 25.11C59.97 25.4 60.03 25.84 60.07 26.08C60.1 26.32 60.15 26.78 60.18 27.1C60.22 27.41 60.26 27.99 60.29 28.37C60.32 28.78 60.33 29.49 60.33 30.14C60.33 30.74 60.32 31.45 60.3 31.73C60.29 32.01 60.25 32.54 60.21 32.9C60.18 33.27 60.13 33.77 60.1 34.02C60.07 34.27 59.99 34.77 59.93 35.11C59.88 35.46 59.78 36.01 59.71 36.32C59.64 36.64 59.54 37.13 59.47 37.41C59.39 37.69 59.25 38.22 59.14 38.59C59.04 38.96 58.86 39.52 58.75 39.86C58.63 40.19 58.45 40.69 58.35 40.98C58.24 41.26 58.05 41.72 57.93 41.99C57.82 42.27 57.6 42.75 57.45 43.07C57.3 43.38 57.05 43.89 56.89 44.19C56.73 44.49 56.5 44.91 56.37 45.13C56.24 45.35 56.02 45.74 55.86 45.99C55.71 46.24 55.4 46.71 55.18 47.03C54.97 47.36 54.58 47.9 54.32 48.24C54.07 48.58 53.72 49.03 53.54 49.24C53.37 49.45 53.07 49.81 52.87 50.04C52.67 50.26 52.31 50.67 52.05 50.94C51.8 51.2 51.36 51.64 51.08 51.91C50.8 52.18 50.43 52.52 50.27 52.66C50.11 52.81 49.85 53.04 49.68 53.18C49.52 53.32 49.22 53.56 49.02 53.72C48.82 53.88 48.52 54.12 48.36 54.24C48.2 54.36 47.96 54.53 47.84 54.62C47.72 54.71 47.39 54.94 47.12 55.13C46.85 55.31 46.41 55.6 46.16 55.75C45.91 55.91 45.49 56.16 45.23 56.31C44.97 56.46 44.53 56.71 44.25 56.86C43.96 57.01 43.53 57.23 43.27 57.35C43.02 57.47 42.59 57.67 42.32 57.79C42.04 57.92 41.54 58.12 41.2 58.26C40.86 58.39 40.3 58.6 39.96 58.71C39.62 58.83 39.08 59 38.77 59.1C38.45 59.19 37.9 59.34 37.54 59.43C37.19 59.52 36.64 59.64 36.32 59.71C36.01 59.78 35.51 59.87 35.22 59.92C34.92 59.97 34.49 60.03 34.24 60.07C34 60.1 33.54 60.15 33.23 60.19C32.91 60.22 32.34 60.27 31.96 60.29C31.55 60.32 30.83 60.33 30.16 60.33C29.49 60.33 28.79 60.32 28.37 60.29C27.99 60.26 27.42 60.22 27.1 60.19C26.8 60.15 26.3 60.1 26 60.05C25.71 60.02 25.2 59.93 24.87 59.88C24.55 59.82 24.07 59.72 23.8 59.67C23.53 59.61 23.1 59.51 22.84 59.45C22.58 59.38 22.08 59.24 21.72 59.14C21.37 59.04 20.8 58.86 20.47 58.75C20.14 58.63 19.63 58.45 19.35 58.34C19.07 58.23 18.6 58.05 18.32 57.92C18.04 57.8 17.55 57.59 17.24 57.44C16.93 57.3 16.44 57.05 16.14 56.89C15.84 56.73 15.41 56.5 15.2 56.37C14.98 56.25 14.59 56.02 14.34 55.86C14.09 55.71 13.62 55.4 13.3 55.18C12.97 54.97 12.5 54.63 12.25 54.45C12 54.26 11.63 53.98 11.44 53.83C11.24 53.67 10.92 53.41 10.72 53.24C10.51 53.07 10.16 52.75 9.92 52.54C9.69 52.33 9.2 51.87 8.84 51.51C8.49 51.15 8.02 50.66 7.8 50.42C7.58 50.18 7.29 49.85 7.15 49.68C7.01 49.52 6.77 49.22 6.6 49.02C6.44 48.82 6.14 48.42 5.92 48.14C5.71 47.85 5.39 47.39 5.2 47.12C5.01 46.85 4.73 46.41 4.57 46.16C4.41 45.91 4.16 45.49 4.01 45.23C3.86 44.98 3.62 44.53 3.47 44.25C3.32 43.96 3.09 43.53 2.97 43.27C2.85 43.02 2.66 42.59 2.53 42.32C2.41 42.04 2.2 41.54 2.07 41.2C1.93 40.86 1.73 40.3 1.61 39.96C1.5 39.62 1.33 39.08 1.23 38.77C1.14 38.45 0.98 37.9 0.9 37.54C0.81 37.19 0.68 36.64 0.61 36.32C0.55 36.01 0.46 35.51 0.41 35.22C0.36 34.92 0.28 34.44 0.24 34.13C0.2 33.82 0.14 33.27 0.11 32.92C0.08 32.56 0.04 32 0.02 31.68C0 31.3 -0.01 30.63 0 29.78C0.01 29.04 0.04 28.24 0.06 27.94C0.09 27.65 0.13 27.2 0.15 26.95C0.18 26.7 0.24 26.22 0.29 25.88C0.34 25.54 0.42 25.04 0.47 24.77C0.51 24.5 0.6 24.07 0.66 23.8C0.71 23.53 0.84 23.01 0.93 22.64C1.03 22.26 1.17 21.74 1.26 21.47C1.34 21.2 1.5 20.69 1.63 20.32C1.75 19.96 1.98 19.35 2.13 18.98C2.28 18.61 2.51 18.06 2.64 17.76C2.78 17.46 3.04 16.92 3.22 16.57C3.4 16.21 3.65 15.74 3.76 15.53C3.88 15.33 4.06 15.01 4.16 14.84C4.26 14.67 4.45 14.37 4.57 14.16C4.7 13.96 4.96 13.56 5.16 13.27C5.36 12.97 5.68 12.52 5.87 12.26C6.06 12 6.37 11.6 6.56 11.37C6.75 11.13 7.05 10.76 7.24 10.54C7.43 10.32 7.72 9.99 7.89 9.8C8.06 9.62 8.48 9.18 8.83 8.83C9.18 8.48 9.62 8.06 9.8 7.89C9.99 7.72 10.32 7.43 10.54 7.24C10.76 7.05 11.13 6.75 11.37 6.56C11.6 6.37 12 6.06 12.26 5.87C12.52 5.68 13.03 5.32 13.4 5.08C13.76 4.83 14.31 4.49 14.61 4.31C14.91 4.13 15.32 3.88 15.52 3.77C15.72 3.66 16.12 3.45 16.4 3.3C16.69 3.15 17.18 2.91 17.51 2.76C17.83 2.61 18.37 2.38 18.7 2.24C19.03 2.1 19.56 1.9 19.87 1.79C20.17 1.68 20.63 1.52 20.88 1.44C21.13 1.36 21.6 1.22 21.91 1.13C22.23 1.04 22.65 0.93 22.84 0.88C23.04 0.83 23.37 0.75 23.59 0.7C23.81 0.66 24.24 0.57 24.54 0.51C24.84 0.45 25.25 0.38 25.46 0.35C25.67 0.32 26.05 0.26 26.3 0.23C26.55 0.2 26.98 0.15 27.25 0.12C27.51 0.1 27.98 0.06 28.29 0.04C28.6 0.02 29.4 0 30.07 0ZM27.72 2.07C27.42 2.1 26.91 2.15 26.6 2.19C26.28 2.23 25.78 2.3 25.48 2.35C25.18 2.4 24.65 2.5 24.31 2.57C23.98 2.65 23.46 2.77 23.17 2.84C22.87 2.92 22.34 3.07 21.97 3.18C21.61 3.29 21.1 3.45 20.85 3.54C20.6 3.63 20.26 3.75 20.09 3.82C19.92 3.88 19.66 3.98 19.51 4.04C19.36 4.1 19.16 4.19 19.04 4.24C18.93 4.29 18.63 4.42 18.38 4.54C18.13 4.65 17.68 4.87 17.38 5.02C17.08 5.18 16.62 5.42 16.36 5.57C16.1 5.71 15.68 5.96 15.43 6.12C15.18 6.27 14.71 6.57 14.39 6.79C14.06 7.01 13.54 7.38 13.24 7.61C12.93 7.84 12.46 8.21 12.21 8.42C11.95 8.64 11.55 8.97 11.34 9.17C11.12 9.36 10.62 9.84 10.23 10.23C9.84 10.62 9.37 11.11 9.18 11.32C8.99 11.53 8.66 11.92 8.43 12.19C8.21 12.46 7.84 12.93 7.61 13.24C7.38 13.54 7.01 14.06 6.79 14.39C6.57 14.71 6.27 15.19 6.11 15.45C5.95 15.71 5.67 16.18 5.5 16.49C5.32 16.81 5.04 17.35 4.87 17.69C4.7 18.02 4.46 18.53 4.34 18.81C4.22 19.08 4.04 19.52 3.93 19.79C3.83 20.06 3.65 20.53 3.54 20.84C3.43 21.15 3.26 21.68 3.16 22.02C3.06 22.36 2.9 22.93 2.81 23.28C2.72 23.64 2.59 24.23 2.51 24.59C2.44 24.96 2.35 25.48 2.31 25.74C2.27 26.01 2.21 26.39 2.19 26.58C2.16 26.78 2.13 27.13 2.1 27.36C2.08 27.6 2.04 28.02 2.02 28.29C2 28.6 1.98 29.33 1.98 30.18C1.98 31.24 2 31.72 2.03 32.23C2.06 32.59 2.12 33.16 2.16 33.49C2.2 33.83 2.27 34.31 2.31 34.58C2.35 34.85 2.44 35.37 2.52 35.73C2.59 36.1 2.72 36.68 2.81 37.03C2.89 37.38 3.05 37.95 3.16 38.3C3.26 38.64 3.43 39.18 3.54 39.49C3.65 39.8 3.83 40.27 3.93 40.53C4.04 40.8 4.22 41.25 4.34 41.52C4.46 41.8 4.7 42.3 4.87 42.64C5.04 42.98 5.32 43.52 5.5 43.83C5.67 44.15 5.95 44.62 6.11 44.88C6.27 45.14 6.55 45.58 6.74 45.87C6.93 46.15 7.22 46.56 7.38 46.78C7.54 47 7.79 47.34 7.94 47.53C8.1 47.73 8.35 48.04 8.52 48.24C8.68 48.43 8.97 48.77 9.17 48.99C9.36 49.21 9.84 49.71 10.23 50.1C10.62 50.49 11.12 50.96 11.34 51.16C11.55 51.35 11.89 51.65 12.09 51.81C12.28 51.97 12.6 52.23 12.79 52.38C12.99 52.53 13.33 52.79 13.55 52.95C13.76 53.11 14.21 53.42 14.55 53.64C14.88 53.86 15.41 54.2 15.73 54.39C16.04 54.58 16.49 54.83 16.71 54.96C16.94 55.08 17.38 55.31 17.69 55.46C17.99 55.61 18.45 55.82 18.69 55.93C18.93 56.04 19.29 56.19 19.48 56.27C19.68 56.35 19.96 56.46 20.12 56.52C20.27 56.58 20.6 56.7 20.85 56.79C21.1 56.88 21.6 57.03 21.94 57.14C22.29 57.25 22.83 57.4 23.14 57.48C23.45 57.56 23.88 57.66 24.11 57.71C24.34 57.76 24.73 57.84 24.98 57.89C25.23 57.93 25.71 58.01 26.05 58.06C26.39 58.11 26.86 58.17 27.08 58.2C27.31 58.22 27.76 58.26 28.07 58.29C28.39 58.31 29.13 58.34 29.72 58.35C30.39 58.36 31.05 58.35 31.46 58.33C31.83 58.32 32.36 58.28 32.64 58.25C32.92 58.23 33.42 58.18 33.74 58.14C34.07 58.1 34.57 58.02 34.85 57.97C35.13 57.93 35.6 57.84 35.88 57.78C36.16 57.72 36.69 57.6 37.04 57.51C37.4 57.43 37.97 57.27 38.31 57.17C38.65 57.06 39.18 56.89 39.49 56.78C39.8 56.68 40.31 56.48 40.62 56.36C40.94 56.23 41.4 56.04 41.64 55.93C41.88 55.82 42.35 55.6 42.67 55.44C42.99 55.28 43.52 55.01 43.83 54.83C44.15 54.66 44.62 54.38 44.88 54.22C45.14 54.06 45.58 53.78 45.87 53.58C46.15 53.4 46.56 53.11 46.78 52.95C47 52.79 47.34 52.53 47.53 52.38C47.73 52.23 48.04 51.97 48.24 51.81C48.43 51.65 48.77 51.35 48.99 51.16C49.21 50.96 49.71 50.49 50.1 50.1C50.49 49.71 50.96 49.21 51.16 48.99C51.35 48.77 51.65 48.43 51.81 48.24C51.97 48.04 52.22 47.73 52.37 47.55C52.51 47.36 52.77 47.02 52.94 46.8C53.1 46.57 53.4 46.15 53.58 45.87C53.78 45.58 54.06 45.14 54.22 44.88C54.38 44.62 54.66 44.15 54.83 43.83C55.01 43.52 55.28 43 55.44 42.67C55.6 42.35 55.82 41.88 55.93 41.64C56.04 41.39 56.19 41.04 56.27 40.84C56.35 40.65 56.46 40.36 56.52 40.21C56.58 40.06 56.71 39.7 56.8 39.43C56.9 39.16 57.06 38.67 57.15 38.35C57.25 38.04 57.41 37.47 57.5 37.09C57.6 36.71 57.74 36.1 57.81 35.73C57.88 35.37 57.98 34.8 58.03 34.48C58.08 34.16 58.15 33.66 58.18 33.37C58.21 33.09 58.26 32.57 58.29 32.23C58.33 31.75 58.34 31.25 58.34 30.18C58.35 29.08 58.33 28.62 58.29 28.1C58.26 27.74 58.21 27.17 58.17 26.83C58.13 26.5 58.06 26.01 58.02 25.74C57.98 25.48 57.88 24.96 57.81 24.59C57.74 24.23 57.6 23.62 57.5 23.24C57.41 22.86 57.25 22.29 57.15 21.97C57.06 21.66 56.9 21.17 56.8 20.9C56.71 20.62 56.58 20.27 56.52 20.12C56.46 19.96 56.35 19.68 56.27 19.48C56.19 19.29 56.04 18.93 55.93 18.69C55.82 18.44 55.6 17.98 55.44 17.66C55.28 17.33 55.01 16.81 54.83 16.49C54.66 16.18 54.38 15.71 54.22 15.45C54.06 15.19 53.75 14.71 53.53 14.39C53.32 14.06 52.95 13.54 52.72 13.24C52.49 12.93 52.12 12.46 51.9 12.21C51.69 11.95 51.35 11.55 51.16 11.34C50.96 11.12 50.49 10.62 50.1 10.23C49.71 9.84 49.21 9.36 48.99 9.17C48.77 8.97 48.43 8.68 48.24 8.52C48.04 8.35 47.73 8.1 47.53 7.94C47.34 7.79 47 7.54 46.78 7.38C46.56 7.22 46.15 6.93 45.87 6.74C45.58 6.55 45.14 6.27 44.88 6.11C44.62 5.95 44.15 5.67 43.83 5.5C43.52 5.32 42.99 5.04 42.67 4.88C42.35 4.72 41.88 4.5 41.64 4.4C41.4 4.29 40.94 4.1 40.62 3.97C40.31 3.84 39.8 3.65 39.49 3.54C39.18 3.43 38.65 3.26 38.31 3.16C37.97 3.06 37.45 2.91 37.15 2.84C36.85 2.76 36.36 2.65 36.06 2.58C35.76 2.52 35.25 2.42 34.92 2.36C34.6 2.31 34.12 2.24 33.86 2.2C33.6 2.17 33.26 2.13 33.11 2.11C32.96 2.1 32.57 2.06 32.26 2.04C31.9 2.01 31.19 1.99 30.41 1.98C29.72 1.98 28.95 1.98 28.7 2C28.46 2.01 28.02 2.04 27.72 2.07Z" fill="#FFFFFF" fill-opacity="1.000000" fill-rule="evenodd"/>
	<path id="Vector" d="M30.16 21.71L30.16 30.16L13.25 30.16C13.27 30.38 13.29 30.68 13.3 30.96C13.3 31.24 13.33 31.67 13.35 31.9C13.38 32.14 13.43 32.51 13.46 32.73C13.49 32.95 13.56 33.32 13.61 33.55C13.66 33.79 13.75 34.18 13.81 34.42C13.87 34.67 13.99 35.05 14.06 35.29C14.14 35.53 14.26 35.87 14.33 36.06C14.4 36.24 14.53 36.58 14.63 36.82C14.73 37.05 14.92 37.44 15.05 37.7C15.17 37.95 15.38 38.34 15.51 38.56C15.63 38.78 15.88 39.19 16.07 39.46C16.25 39.73 16.52 40.12 16.66 40.31C16.81 40.51 17.02 40.77 17.13 40.9C17.23 41.03 17.45 41.29 17.61 41.46C17.77 41.64 18.1 41.99 18.35 42.23C18.6 42.47 18.96 42.81 19.16 42.98C19.35 43.15 19.72 43.44 19.98 43.64C20.24 43.83 20.66 44.13 20.91 44.29C21.16 44.46 21.55 44.7 21.77 44.82C21.98 44.95 22.34 45.14 22.56 45.25C22.78 45.36 23.1 45.51 23.27 45.59C23.44 45.66 23.74 45.79 23.95 45.87C24.15 45.96 24.57 46.11 24.87 46.21C25.18 46.31 25.61 46.44 25.83 46.5C26.05 46.55 26.45 46.65 26.72 46.7C26.98 46.76 27.38 46.83 27.6 46.87C27.82 46.9 28.19 46.95 28.43 46.97C28.66 47 29.09 47.02 29.37 47.03C29.65 47.04 29.95 47.06 30.03 47.06L30.16 47.08L30.16 30.16L47.08 30.16C47.06 29.88 47.04 29.59 47.03 29.34C47.03 29.09 47 28.68 46.97 28.44C46.95 28.2 46.9 27.82 46.87 27.6C46.83 27.38 46.77 27.01 46.72 26.78C46.67 26.54 46.58 26.15 46.52 25.91C46.45 25.66 46.34 25.27 46.26 25.04C46.19 24.8 46.07 24.46 46 24.27C45.93 24.09 45.79 23.74 45.69 23.51C45.59 23.28 45.41 22.88 45.28 22.63C45.15 22.37 44.95 21.98 44.82 21.77C44.7 21.55 44.46 21.16 44.29 20.91C44.13 20.66 43.85 20.27 43.68 20.04C43.51 19.82 43.23 19.45 43.04 19.23C42.86 19.01 42.43 18.56 42.08 18.22C41.74 17.87 41.27 17.44 41.04 17.24C40.8 17.04 40.46 16.77 40.28 16.64C40.11 16.51 39.73 16.25 39.46 16.07C39.19 15.88 38.78 15.63 38.56 15.51C38.34 15.38 37.96 15.18 37.71 15.05C37.46 14.92 37.09 14.75 36.9 14.67C36.7 14.58 36.37 14.45 36.16 14.37C35.95 14.29 35.57 14.16 35.32 14.07C35.07 13.99 34.67 13.87 34.42 13.81C34.18 13.75 33.79 13.66 33.55 13.61C33.32 13.56 32.95 13.49 32.73 13.46C32.51 13.43 32.14 13.38 31.9 13.35C31.67 13.33 31.24 13.3 30.96 13.3C30.68 13.29 30.38 13.27 30.3 13.27L30.16 13.25L30.16 21.71Z" fill="#FFFFFF" fill-opacity="1.000000" fill-rule="evenodd"/>
	<path id="Vector" d="M28.21 3.71C28.27 3.71 28.31 3.72 28.32 3.74C28.32 3.76 28.69 4.67 29.13 5.75C29.57 6.84 29.95 7.79 30 7.99L30.05 7.82C30.07 7.72 30.46 6.76 31.69 3.72L31.97 3.73C32.12 3.73 32.43 3.75 32.65 3.76C32.88 3.78 33.3 3.81 33.6 3.84C33.89 3.87 34.14 3.9 34.16 3.91C34.19 3.92 34.23 4.83 34.33 7.58C34.41 9.59 34.46 11.24 34.46 11.24C34.45 11.25 34.21 11.22 33.92 11.18C33.63 11.14 33.24 11.09 33.05 11.07C32.87 11.05 32.7 11.02 32.69 11.02C32.68 11.01 32.63 9.86 32.58 8.48C32.53 7.09 32.49 5.96 32.48 5.95C32.48 5.95 32.36 6.21 32.22 6.53C32.08 6.85 31.69 7.71 30.77 9.76L29.25 9.77L29.21 9.69C29.18 9.65 28.8 8.81 28.37 7.83C27.92 6.85 27.55 6 27.54 5.95C27.52 5.9 27.51 5.86 27.5 5.86C27.49 5.86 27.49 5.89 27.49 5.94C27.5 5.98 27.48 6.93 27.43 8.04C27.4 9.15 27.36 10.27 27.32 11.03L26.98 11.06C26.8 11.08 26.4 11.13 26.1 11.17C25.8 11.22 25.55 11.24 25.54 11.23C25.53 11.22 25.58 9.68 25.65 7.81C25.72 5.93 25.78 4.29 25.82 3.9L26.01 3.88C26.11 3.87 26.46 3.84 26.77 3.81C27.09 3.79 27.52 3.75 27.73 3.74C27.94 3.73 28.16 3.71 28.21 3.71ZM45.13 8.28C45.15 8.28 45.43 8.5 45.76 8.76C46.09 9.03 46.4 9.28 46.56 9.42L45.3 11.31C44.6 12.35 44 13.25 43.95 13.31C43.88 13.4 44.06 13.32 47.46 11.62L48.67 12.82L47.81 14.53C47.34 15.47 46.93 16.26 46.91 16.29C46.89 16.31 46.87 16.35 46.85 16.37C46.84 16.4 46.9 16.36 46.99 16.3C47.08 16.23 47.98 15.63 48.99 14.97C50 14.31 50.85 13.75 50.87 13.74C50.89 13.73 51.06 13.91 51.34 14.26C51.58 14.56 51.84 14.87 51.91 14.96C51.98 15.06 52.04 15.14 52.03 15.15C52.03 15.16 51.6 15.43 51.09 15.76C50.58 16.09 49.21 16.95 45.94 19.01L45.85 18.89C45.8 18.83 45.58 18.56 45.36 18.3C45.15 18.05 44.89 17.75 44.6 17.44L44.77 17.1C44.87 16.92 45.3 16.1 45.72 15.28C46.15 14.47 46.51 13.78 46.53 13.75C46.56 13.73 46.57 13.7 46.57 13.68C46.58 13.66 46.56 13.66 46.54 13.68C46.52 13.71 45.67 14.15 42.79 15.63L42.36 15.26C42.13 15.06 41.78 14.76 41.59 14.61C41.39 14.45 41.24 14.32 41.24 14.31C41.24 14.3 41.49 13.92 41.78 13.46C42.08 13 42.9 11.72 43.6 10.61C44.31 9.51 44.94 8.53 45 8.44C45.06 8.35 45.12 8.27 45.13 8.28ZM13.87 9.63C14.03 9.63 14.2 9.65 14.36 9.69C14.49 9.72 14.67 9.79 14.77 9.84C14.87 9.9 15.04 10.03 15.17 10.16C15.31 10.3 15.43 10.45 15.5 10.59C15.56 10.7 15.63 10.88 15.65 11C15.69 11.14 15.7 11.28 15.69 11.48C15.68 11.64 15.66 11.79 15.62 11.9L15.78 11.84C15.87 11.81 16.03 11.77 16.14 11.75C16.24 11.73 16.39 11.72 16.47 11.72C16.55 11.72 16.71 11.74 16.84 11.77C16.96 11.79 17.16 11.86 17.28 11.91C17.42 11.98 17.56 12.08 17.69 12.2C17.79 12.3 17.94 12.47 18.01 12.57C18.08 12.68 18.17 12.86 18.22 12.97C18.28 13.13 18.3 13.25 18.31 13.47C18.32 13.71 18.31 13.81 18.26 14.02C18.23 14.16 18.14 14.39 18.07 14.53C17.99 14.68 17.85 14.91 17.74 15.06C17.64 15.2 17.45 15.42 17.33 15.56C17.2 15.69 16.78 16.13 16.39 16.54C16 16.94 15.38 17.59 15.02 17.98C14.65 18.37 14.16 18.9 13.47 19.65L13.3 19.47C13.2 19.38 12.08 18.32 10.81 17.13C9.53 15.93 8.44 14.9 8.26 14.73L8.46 14.47C8.57 14.33 8.9 13.92 9.2 13.58C9.49 13.23 9.82 12.83 9.95 12.69C10.07 12.55 10.38 12.21 10.64 11.93C10.9 11.64 11.31 11.21 11.56 10.97C11.8 10.73 12.15 10.41 12.32 10.27C12.53 10.1 12.76 9.95 12.94 9.86C13.1 9.78 13.32 9.7 13.43 9.67C13.53 9.65 13.73 9.63 13.87 9.63ZM13.38 11.34C13.3 11.39 12.94 11.73 12.59 12.08C12.23 12.44 11.73 12.97 11.48 13.25C11.23 13.53 10.9 13.91 10.75 14.09L10.48 14.4C10.95 14.85 11.18 15.06 11.29 15.17L11.49 15.36C11.75 15.08 12.21 14.59 12.69 14.09C13.17 13.59 13.72 13 13.91 12.79C14.16 12.52 14.29 12.35 14.36 12.21C14.44 12.04 14.46 11.97 14.46 11.82C14.46 11.68 14.44 11.62 14.36 11.48C14.29 11.36 14.23 11.31 14.11 11.24C14.01 11.19 13.9 11.16 13.84 11.16C13.78 11.16 13.69 11.18 13.63 11.2C13.58 11.22 13.47 11.28 13.38 11.34ZM15.59 13.18C15.53 13.22 15.33 13.41 15.14 13.6C14.95 13.79 14.29 14.48 13.67 15.13C13.05 15.78 12.54 16.32 12.54 16.33C12.54 16.34 12.78 16.56 13.06 16.83L13.58 17.32C15.75 15 16.44 14.24 16.5 14.14C16.57 14.03 16.65 13.9 16.67 13.84C16.68 13.79 16.7 13.67 16.7 13.59C16.7 13.49 16.67 13.4 16.63 13.31C16.59 13.23 16.51 13.15 16.43 13.1C16.35 13.05 16.24 13.01 16.15 13C16.05 12.99 15.96 13 15.86 13.04C15.78 13.07 15.66 13.13 15.59 13.18ZM30.17 12.27L30.81 12.29C31.16 12.3 31.64 12.33 31.87 12.35C32.11 12.38 32.44 12.42 32.61 12.44C32.78 12.47 33.01 12.5 33.12 12.52C33.24 12.53 33.55 12.59 33.82 12.65C34.08 12.71 34.46 12.79 34.64 12.84C34.83 12.89 35.16 12.99 35.38 13.05C35.6 13.12 35.97 13.24 36.2 13.33C36.44 13.41 36.78 13.54 36.95 13.61C37.13 13.68 37.47 13.84 37.71 13.94C37.94 14.05 38.33 14.25 38.58 14.38C38.82 14.51 39.2 14.73 39.43 14.87C39.66 15 39.99 15.22 40.17 15.34C40.34 15.46 40.69 15.71 40.93 15.89C41.18 16.07 41.57 16.39 41.82 16.6C42.06 16.81 42.5 17.22 42.8 17.52C43.1 17.82 43.52 18.27 43.73 18.51C43.94 18.76 44.27 19.16 44.46 19.42C44.66 19.68 44.94 20.08 45.09 20.31C45.24 20.54 45.45 20.87 45.55 21.04C45.66 21.22 45.83 21.53 45.94 21.74C46.05 21.94 46.22 22.26 46.3 22.44C46.39 22.63 46.55 22.98 46.65 23.23C46.75 23.47 46.9 23.85 46.99 24.08C47.07 24.31 47.19 24.68 47.27 24.92C47.34 25.16 47.44 25.51 47.49 25.7C47.54 25.89 47.62 26.24 47.67 26.47C47.72 26.69 47.79 27.08 47.83 27.32C47.87 27.57 47.92 27.95 47.94 28.18C47.97 28.4 48 28.78 48.02 29.02C48.03 29.25 48.05 29.6 48.05 30.16L47.08 30.16L47.06 30.04C47.05 29.97 47.04 29.67 47.03 29.38C47.03 29.09 47 28.66 46.97 28.43C46.95 28.19 46.9 27.82 46.87 27.6C46.83 27.38 46.77 27.01 46.72 26.78C46.67 26.54 46.58 26.15 46.52 25.91C46.45 25.66 46.34 25.27 46.26 25.04C46.19 24.8 46.07 24.46 46 24.27C45.93 24.09 45.79 23.74 45.69 23.51C45.59 23.28 45.41 22.88 45.28 22.63C45.15 22.37 44.95 21.98 44.82 21.77C44.7 21.55 44.46 21.16 44.29 20.91C44.13 20.66 43.85 20.27 43.68 20.04C43.51 19.82 43.22 19.45 43.04 19.23C42.86 19.02 42.43 18.56 42.08 18.22C41.74 17.87 41.27 17.44 41.04 17.24C40.8 17.04 40.46 16.77 40.28 16.64C40.11 16.51 39.73 16.25 39.46 16.07C39.19 15.88 38.78 15.63 38.56 15.51C38.34 15.38 37.96 15.18 37.71 15.05C37.46 14.92 37.09 14.75 36.9 14.67C36.7 14.58 36.37 14.45 36.16 14.37C35.95 14.29 35.57 14.16 35.32 14.07C35.07 13.99 34.67 13.87 34.42 13.81C34.18 13.75 33.79 13.66 33.55 13.61C33.32 13.56 32.94 13.49 32.73 13.46C32.51 13.43 32.14 13.38 31.9 13.35C31.67 13.33 31.22 13.3 30.91 13.29C30.61 13.28 30.31 13.27 30.16 13.25L30.17 12.27ZM12.27 30.16L13.25 30.16L13.26 30.26C13.27 30.31 13.28 30.61 13.29 30.92C13.3 31.22 13.33 31.67 13.35 31.9C13.38 32.14 13.43 32.51 13.46 32.73C13.49 32.95 13.56 33.32 13.61 33.55C13.65 33.79 13.75 34.18 13.81 34.42C13.87 34.67 13.99 35.06 14.06 35.29C14.14 35.53 14.26 35.87 14.33 36.06C14.39 36.24 14.53 36.58 14.63 36.82C14.73 37.05 14.92 37.44 15.05 37.7C15.17 37.95 15.38 38.34 15.5 38.56C15.63 38.78 15.88 39.19 16.06 39.46C16.24 39.74 16.52 40.12 16.66 40.31C16.81 40.51 17.02 40.77 17.13 40.9C17.23 41.03 17.45 41.29 17.61 41.46C17.77 41.64 18.1 41.99 18.35 42.23C18.6 42.47 18.96 42.81 19.16 42.98C19.35 43.15 19.72 43.44 19.98 43.64C20.24 43.84 20.66 44.13 20.91 44.29C21.16 44.46 21.55 44.7 21.77 44.82C21.98 44.95 22.34 45.14 22.56 45.25C22.78 45.36 23.1 45.51 23.27 45.59C23.44 45.66 23.74 45.79 23.95 45.88C24.15 45.96 24.57 46.11 24.87 46.21C25.18 46.31 25.61 46.44 25.83 46.5C26.05 46.56 26.45 46.65 26.72 46.71C26.98 46.76 27.38 46.83 27.6 46.87C27.82 46.9 28.19 46.95 28.42 46.97C28.66 47 29.1 47.03 29.41 47.04C29.72 47.04 30.01 47.06 30.16 47.08L30.16 48.06L29.55 48.04C29.21 48.03 28.74 48 28.5 47.98C28.25 47.95 27.94 47.92 27.81 47.9C27.67 47.88 27.41 47.84 27.23 47.81C27.05 47.78 26.74 47.72 26.54 47.68C26.34 47.64 25.99 47.56 25.76 47.5C25.53 47.44 25.15 47.34 24.9 47.26C24.66 47.19 24.29 47.06 24.08 46.99C23.87 46.91 23.48 46.76 23.22 46.65C22.97 46.54 22.49 46.33 22.18 46.17C21.86 46.01 21.47 45.8 21.31 45.71C21.15 45.61 20.84 45.43 20.63 45.3C20.42 45.17 20.04 44.91 19.79 44.73C19.54 44.56 19.19 44.29 19.01 44.15C18.83 44 18.58 43.79 18.45 43.68C18.32 43.57 18.05 43.32 17.85 43.13C17.65 42.94 17.31 42.6 17.1 42.38C16.89 42.15 16.59 41.81 16.42 41.61C16.26 41.42 16.01 41.1 15.87 40.92C15.73 40.73 15.51 40.41 15.37 40.21C15.23 40.01 15 39.66 14.87 39.43C14.73 39.2 14.5 38.81 14.36 38.55C14.22 38.29 14.03 37.9 13.93 37.68C13.83 37.46 13.66 37.07 13.56 36.82C13.46 36.57 13.3 36.15 13.21 35.88C13.12 35.61 12.98 35.16 12.9 34.86C12.82 34.57 12.7 34.07 12.64 33.74C12.57 33.42 12.49 32.96 12.46 32.73C12.42 32.49 12.38 32.09 12.35 31.84C12.33 31.59 12.3 31.11 12.29 30.78L12.27 30.16Z" fill="#FFFFFF" fill-opacity="1.000000" fill-rule="evenodd"/>
</svg>
