<svg width="60.339" height="61" viewBox="0 0 60.339 61" fill="none" xmlns="http://www.w3.org/2000/svg"><desc>
			Created with Pixso.
	</desc><path id="Vector" d="M30.07 0c.83-.01 1.45.01 1.91.04.37.02.94.07 1.26.1.33.04.78.09 1.02.12.23.03.66.1.96.15.29.05.79.14 1.1.21.32.06.83.18 1.15.26.32.08.79.2 1.05.28a33.153 33.153 0 0 1 1.84.59c.25.09.73.27 1.06.41.33.13.85.35 1.15.48.3.14.83.4 1.19.58.36.18.83.43 1.06.56.23.13.61.35.86.49.24.15.69.43 1 .64.31.2.72.48.91.62.2.13.51.37.71.51.19.15.52.4.72.56.2.17.5.41.66.55a29.38 29.38 0 0 1 1.82 1.68c.36.36.83.86 1.04 1.09.22.24.5.56.64.72.14.17.38.46.54.67.17.2.47.6.68.88.21.28.54.74.73 1.02.18.27.47.7.62.95.16.25.42.68.57.95.15.27.42.74.58 1.06.17.31.46.89.63 1.26.18.39.42.94.54 1.24.13.3.31.78.42 1.06.1.29.27.76.37 1.06.1.3.23.76.31 1.02.07.26.2.73.28 1.05.08.31.19.83.26 1.15.07.31.16.81.21 1.1.05.29.11.73.15.97.03.24.08.7.11 1.02.04.31.08.89.11 1.27.03.41.04 1.12.04 1.77 0 .6-.01 1.31-.03 1.59-.01.28-.05.81-.09 1.17-.03.37-.08.87-.11 1.12-.03.25-.11.75-.17 1.09-.05.35-.15.9-.22 1.21-.07.32-.17.81-.24 1.09-.08.28-.22.81-.33 1.18-.1.37-.28.93-.39 1.27-.12.33-.3.83-.4 1.12-.11.28-.3.74-.42 1.01-.11.28-.33.76-.48 1.08-.15.31-.4.82-.56 1.12s-.39.72-.52.94c-.13.22-.35.61-.51.86-.15.25-.46.72-.68 1.04-.21.33-.6.87-.86 1.21-.25.34-.6.79-.78 1-.17.21-.47.57-.67.8-.2.22-.56.63-.82.9-.25.26-.69.7-.97.97-.28.27-.65.61-.81.75-.16.15-.42.38-.59.52-.16.14-.46.38-.66.54-.2.16-.5.4-.66.52-.16.12-.4.29-.52.38-.12.09-.45.32-.72.51-.27.18-.71.47-.96.62-.25.16-.67.41-.93.56s-.7.4-.98.55c-.29.15-.72.37-.98.49-.25.12-.68.32-.95.44-.28.13-.78.33-1.12.47-.34.13-.9.34-1.24.45-.34.12-.88.29-1.19.39-.32.09-.87.24-1.23.33-.35.09-.9.21-1.22.28-.31.07-.81.16-1.1.21-.3.05-.73.11-.98.15-.24.03-.7.08-1.01.12-.32.03-.89.08-1.27.1-.41.03-1.13.04-1.8.04-.67 0-1.37-.01-1.79-.04-.38-.03-.95-.07-1.27-.1-.3-.04-.8-.09-1.1-.14-.29-.03-.8-.12-1.13-.17-.32-.06-.8-.16-1.07-.21-.27-.06-.7-.16-.96-.22-.26-.07-.76-.21-1.12-.31-.35-.1-.92-.28-1.25-.39-.33-.12-.84-.3-1.12-.41-.28-.11-.75-.29-1.03-.42-.28-.12-.77-.33-1.08-.48-.31-.14-.8-.39-1.1-.55-.3-.16-.73-.39-.94-.52-.22-.12-.61-.35-.86-.51-.25-.15-.72-.46-1.04-.68-.33-.21-.8-.55-1.05-.73-.25-.19-.62-.47-.81-.62-.2-.16-.52-.42-.72-.59-.21-.17-.56-.49-.8-.7-.23-.21-.72-.67-1.08-1.03-.35-.36-.82-.85-1.04-1.09a23.1 23.1 0 0 1-.65-.74c-.14-.16-.38-.46-.55-.66-.16-.2-.46-.6-.68-.88-.21-.29-.53-.75-.72-1.02-.19-.27-.47-.71-.63-.96s-.41-.67-.56-.93c-.15-.25-.39-.7-.54-.98-.15-.29-.38-.72-.5-.98-.12-.25-.31-.68-.44-.95a36.03 36.03 0 0 1-.92-2.36c-.11-.34-.28-.88-.38-1.19-.09-.32-.25-.87-.33-1.23-.09-.35-.22-.9-.29-1.22-.06-.31-.15-.81-.2-1.1-.05-.3-.13-.78-.17-1.09a34.71 34.71 0 0 1-.22-2.45c-.02-.38-.03-1.05-.02-1.9.01-.74.04-1.54.06-1.84.03-.29.07-.74.09-.99a37.54 37.54 0 0 1 .32-2.18c.04-.27.13-.7.19-.97.05-.27.18-.79.27-1.16.1-.38.24-.9.33-1.17a28.537 28.537 0 0 1 .87-2.49c.15-.37.38-.92.51-1.22.14-.3.4-.84.58-1.19.18-.36.43-.83.54-1.04.12-.2.3-.52.4-.69.1-.17.29-.47.41-.68a43.832 43.832 0 0 1 1.3-1.9c.19-.26.5-.66.69-.89A30.278 30.278 0 0 1 7.89 9.8c.17-.18.59-.62.94-.97.35-.35.79-.77.97-.94a30.278 30.278 0 0 1 1.57-1.33 22.996 22.996 0 0 1 2.03-1.48c.36-.25.91-.59 1.21-.77s.71-.43.91-.54c.2-.11.6-.32.88-.47.29-.15.78-.39 1.11-.54.32-.15.86-.38 1.19-.52.33-.14.86-.34 1.17-.45.3-.11.76-.27 1.01-.35.25-.08.72-.22 1.03-.31.32-.09.74-.2.93-.25.2-.05.53-.13.75-.18.22-.04.65-.13.95-.19.3-.06.71-.13.92-.16.21-.03.59-.09.84-.12.25-.03.68-.08.95-.11.26-.02.73-.06 1.04-.08C28.6.02 29.4 0 30.07 0zm-2.35 2.07c-.3.03-.81.08-1.12.12-.32.04-.82.11-1.12.16-.3.05-.83.15-1.17.22-.33.08-.85.2-1.14.27-.3.08-.83.23-1.2.34-.36.11-.87.27-1.12.36s-.59.21-.76.28c-.17.06-.43.16-.58.22-.15.06-.35.15-.47.2-.11.05-.41.18-.66.3-.25.11-.7.33-1 .48-.3.16-.76.4-1.02.55-.26.14-.68.39-.93.55-.25.15-.72.45-1.04.67-.33.22-.85.59-1.15.82-.31.23-.78.6-1.03.81-.26.22-.66.55-.87.75-.22.19-.72.67-1.11 1.06-.39.39-.86.88-1.05 1.09-.19.21-.52.6-.75.87-.22.27-.59.74-.82 1.05-.23.3-.6.82-.82 1.15-.22.32-.52.8-.68 1.06-.16.26-.44.73-.61 1.04-.18.32-.46.86-.63 1.2-.17.33-.41.84-.53 1.12-.12.27-.3.71-.41.98-.1.27-.28.74-.39 1.05-.11.31-.28.84-.38 1.18-.1.34-.26.91-.35 1.26-.09.36-.22.95-.3 1.31-.07.37-.16.89-.2 1.15-.04.27-.1.65-.12.84-.03.2-.06.55-.09.78-.02.24-.06.66-.08.93-.02.31-.04 1.04-.04 1.89 0 1.06.02 1.54.05 2.05.03.36.09.93.13 1.26.04.34.11.82.15 1.09.04.27.13.79.21 1.15.07.37.2.95.29 1.3.08.35.24.92.35 1.27.1.34.27.88.38 1.19.11.31.29.78.39 1.04.11.27.29.72.41.99.12.28.36.78.53 1.12.17.34.45.88.63 1.19.17.32.45.79.61 1.05.16.26.44.7.63.99.19.28.48.69.64.91.16.22.41.56.56.75a31 31 0 0 0 1.23 1.46c.19.22.67.72 1.06 1.11.39.39.89.86 1.11 1.06.21.19.55.49.75.65.19.16.51.42.7.57.2.15.54.41.76.57.21.16.66.47 1 .69.33.22.86.56 1.18.75.31.19.76.44.98.57.23.12.67.35.98.5.3.15.76.36 1 .47.24.11.6.26.79.34a38.552 38.552 0 0 0 1.37.52c.25.09.75.24 1.09.35.35.11.89.26 1.2.34a30.732 30.732 0 0 0 1.84.41c.25.04.73.12 1.07.17.34.05.81.11 1.03.14.23.02.68.06.99.09.32.02 1.06.05 1.65.06.67.01 1.33 0 1.74-.02.37-.01.9-.05 1.18-.08.28-.02.78-.07 1.1-.11.33-.04.83-.12 1.11-.17.28-.04.75-.13 1.03-.19.28-.06.81-.18 1.16-.27.36-.08.93-.24 1.27-.34.34-.11.87-.28 1.18-.39.31-.1.82-.3 1.13-.42.32-.13.78-.32 1.02-.43.24-.11.71-.33 1.03-.49s.85-.43 1.16-.61c.32-.17.79-.45 1.05-.61.26-.16.7-.44.99-.64a23.02 23.02 0 0 0 1.66-1.2c.2-.15.51-.41.71-.57.19-.16.53-.46.75-.65.22-.2.72-.67 1.11-1.06.39-.39.86-.89 1.06-1.11.19-.22.49-.56.65-.75.16-.2.41-.51.56-.69.14-.19.4-.53.57-.75.16-.23.46-.65.64-.93.2-.29.48-.73.64-.99s.44-.73.61-1.05c.18-.31.45-.83.61-1.16.16-.32.38-.79.49-1.03.11-.25.26-.6.34-.8.08-.19.19-.48.25-.63.06-.15.19-.51.28-.78.1-.27.26-.76.35-1.08.1-.31.26-.88.35-1.26a24 24 0 0 0 .31-1.36c.07-.36.17-.93.22-1.25.05-.32.12-.82.15-1.11.03-.28.08-.8.11-1.14.04-.48.05-.98.05-2.05.01-1.1-.01-1.56-.05-2.08-.03-.36-.08-.93-.12-1.27-.04-.33-.11-.82-.15-1.09-.04-.26-.14-.78-.21-1.15-.07-.36-.21-.97-.31-1.35-.09-.38-.25-.95-.35-1.27-.09-.31-.25-.8-.35-1.07-.09-.28-.22-.63-.28-.78-.06-.16-.17-.44-.25-.64-.08-.19-.23-.55-.34-.79-.11-.25-.33-.71-.49-1.03a25.964 25.964 0 0 0-1.22-2.21c-.16-.26-.47-.74-.69-1.06-.21-.33-.58-.85-.81-1.15-.23-.31-.6-.78-.82-1.03-.21-.26-.55-.66-.74-.87-.2-.22-.67-.72-1.06-1.11-.39-.39-.89-.87-1.11-1.06a31 31 0 0 0-1.46-1.23c-.19-.15-.53-.4-.75-.56-.22-.16-.63-.45-.91-.64-.29-.19-.73-.47-.99-.63s-.73-.44-1.05-.61c-.31-.18-.84-.46-1.16-.62s-.79-.38-1.03-.48a32.195 32.195 0 0 0-2.15-.86c-.31-.11-.84-.28-1.18-.38-.34-.1-.86-.25-1.16-.32-.3-.08-.79-.19-1.09-.26-.3-.06-.81-.16-1.14-.22-.32-.05-.8-.12-1.06-.16-.26-.03-.6-.07-.75-.09-.15-.01-.54-.05-.85-.07-.36-.03-1.07-.05-1.85-.06-.69 0-1.46 0-1.71.02-.24.01-.68.04-.98.07z" fill="#FFFFFF" fill-opacity="1.000000" fill-rule="evenodd"/><path id="Vector" d="M30.16 21.71v8.45H13.25c.02.22.04.52.05.8 0 .28.03.71.05.94.03.24.08.61.11.83.03.22.1.59.15.82.05.24.14.63.2.87.06.25.18.63.25.87.08.24.2.58.27.77.07.18.2.52.3.76a22.376 22.376 0 0 0 .88 1.74c.12.22.37.63.56.9.18.27.45.66.59.85.15.2.36.46.47.59.1.13.32.39.48.56.16.18.49.53.74.77.25.24.61.58.81.75.19.17.56.46.82.66.26.19.68.49.93.65.25.17.64.41.86.53.21.13.57.32.79.43.22.11.54.26.71.34.17.07.47.2.68.28.2.09.62.24.92.34.31.1.74.23.96.29.22.05.62.15.89.2.26.06.66.13.88.17.22.03.59.08.83.1.23.03.66.05.94.06.28.01.58.03.66.03l.13.02V30.16h16.92c-.02-.28-.04-.57-.05-.82 0-.25-.03-.66-.06-.9-.02-.24-.07-.62-.1-.84-.04-.22-.1-.59-.15-.82-.05-.24-.14-.63-.2-.87-.07-.25-.18-.64-.26-.87-.07-.24-.19-.58-.26-.77-.07-.18-.21-.53-.31-.76-.1-.23-.28-.63-.41-.88-.13-.26-.33-.65-.46-.86-.12-.22-.36-.61-.53-.86-.16-.25-.44-.64-.61-.87-.17-.22-.45-.59-.64-.81-.18-.22-.61-.67-.96-1.01a20 20 0 0 0-1.04-.98c-.24-.2-.58-.47-.76-.6-.17-.13-.55-.39-.82-.57-.27-.19-.68-.44-.9-.56-.22-.13-.6-.33-.85-.46s-.62-.3-.81-.38c-.2-.09-.53-.22-.74-.3-.21-.08-.59-.21-.84-.3-.25-.08-.65-.2-.9-.26-.24-.06-.63-.15-.87-.2-.23-.05-.6-.12-.82-.15-.22-.03-.59-.08-.83-.11-.23-.02-.66-.05-.94-.05-.28-.01-.58-.03-.66-.03l-.14-.02v8.46z" fill="#FFFFFF" fill-opacity="1.000000" fill-rule="evenodd"/><path id="Vector" d="M28.21 3.71c.06 0 .1.01.11.03 0 .02.37.93.81 2.01.44 1.09.82 2.04.87 2.24l.05-.17c.02-.1.41-1.06 1.64-4.1l.28.01c.15 0 .46.02.68.03.23.02.65.05.95.08.29.03.54.06.56.07.03.01.07.92.17 3.67.08 2.01.13 3.66.13 3.66-.01.01-.25-.02-.54-.06-.29-.04-.68-.09-.87-.11-.18-.02-.35-.05-.36-.05-.01-.01-.06-1.16-.11-2.54-.05-1.39-.09-2.52-.1-2.53 0 0-.12.26-.26.58-.14.32-.53 1.18-1.45 3.23l-1.52.01-.04-.08c-.03-.04-.41-.88-.84-1.86-.45-.98-.82-1.83-.83-1.88-.02-.05-.03-.09-.04-.09s-.01.03-.01.08c.01.04-.01.99-.06 2.1-.03 1.11-.07 2.23-.11 2.99l-.34.03c-.18.02-.58.07-.88.11-.3.05-.55.07-.56.06-.01-.01.04-1.55.11-3.42.07-1.88.13-3.52.17-3.91l.19-.02c.1-.01.45-.04.76-.07.32-.02.75-.06.96-.07.21-.01.43-.03.48-.03zm16.92 4.57c.02 0 .3.22.63.48.33.27.64.52.8.66l-1.26 1.89c-.7 1.04-1.3 1.94-1.35 2-.07.09.11.01 3.51-1.69l1.21 1.2-.86 1.71c-.47.94-.88 1.73-.9 1.76-.02.02-.04.06-.06.08-.01.03.05-.01.14-.07.09-.07.99-.67 2-1.33s1.86-1.22 1.88-1.23c.02-.01.19.17.47.52.24.3.5.61.57.7.07.1.13.18.12.19 0 .01-.43.28-.94.61s-1.88 1.19-5.15 3.25l-.09-.12c-.05-.06-.27-.33-.49-.59-.21-.25-.47-.55-.76-.86l.17-.34c.1-.18.53-1 .95-1.82.43-.81.79-1.5.81-1.53.03-.02.04-.05.04-.07.01-.02-.01-.02-.03 0-.02.03-.87.47-3.75 1.95l-.43-.37c-.23-.2-.58-.5-.77-.65-.2-.16-.35-.29-.35-.3 0-.01.25-.39.54-.85.3-.46 1.12-1.74 1.82-2.85.71-1.1 1.34-2.08 1.4-2.17.06-.09.12-.17.13-.16zM13.87 9.63a2.053 2.053 0 0 1 .9.21c.1.06.27.19.4.32.14.14.26.29.33.43.06.11.13.29.15.41.04.14.05.28.04.48-.01.16-.03.31-.07.42l.16-.06c.09-.03.25-.07.36-.09.1-.02.25-.03.33-.03a2.49 2.49 0 0 1 .81.19c.14.07.28.17.41.29.1.1.25.27.32.37.07.11.16.29.21.4.06.16.08.28.09.5.01.24 0 .34-.05.55-.03.14-.12.37-.19.51-.08.15-.22.38-.33.53-.1.14-.29.36-.41.5-.13.13-.55.57-.94.98-.39.4-1.01 1.05-1.37 1.44-.37.39-.86.92-1.55 1.67l-.17-.18c-.1-.09-1.22-1.15-2.49-2.34-1.28-1.2-2.37-2.23-2.55-2.4l.2-.26c.11-.14.44-.55.74-.89.29-.35.62-.75.75-.89.12-.14.43-.48.69-.76.26-.29.67-.72.92-.96.24-.24.59-.56.76-.7.21-.17.44-.32.62-.41.16-.08.38-.16.49-.19.1-.02.3-.04.44-.04zm-.49 1.71c-.08.05-.44.39-.79.74-.36.36-.86.89-1.11 1.17-.25.28-.58.66-.73.84l-.27.31c.47.45.7.66.81.77l.2.19c.26-.28.72-.77 1.2-1.27.48-.5 1.03-1.09 1.22-1.3.25-.27.38-.44.45-.58.08-.17.1-.24.1-.39 0-.14-.02-.2-.1-.34a.58.58 0 0 0-.25-.24.716.716 0 0 0-.27-.08.78.78 0 0 0-.21.04c-.05.02-.16.08-.25.14zm2.21 1.84c-.06.04-.26.23-.45.42-.19.19-.85.88-1.47 1.53s-1.13 1.19-1.13 1.2c0 .01.24.23.52.5l.52.49c2.17-2.32 2.86-3.08 2.92-3.18.07-.11.15-.24.17-.3.01-.05.03-.17.03-.25 0-.1-.03-.19-.07-.28a.574.574 0 0 0-.2-.21.726.726 0 0 0-.28-.1c-.1-.01-.19 0-.29.04-.08.03-.2.09-.27.14zm14.58-.91.64.02c.35.01.83.04 1.06.06l.74.09c.17.03.4.06.51.08.12.01.43.07.7.13.26.06.64.14.82.19.19.05.52.15.74.21.22.07.59.19.82.28.24.08.58.21.75.28.18.07.52.23.76.33.23.11.62.31.87.44.24.13.62.35.85.49.23.13.56.35.74.47.17.12.52.37.76.55.25.18.64.5.89.71.24.21.68.62.98.92s.72.75.93.99c.21.25.54.65.73.91.2.26.48.66.63.89a14.65 14.65 0 0 1 .85 1.43c.11.2.28.52.36.7.09.19.25.54.35.79.1.24.25.62.34.85.08.23.2.6.28.84.07.24.17.59.22.78a18.43 18.43 0 0 1 .34 1.62c.04.25.09.63.11.86.03.22.06.6.08.84.01.23.03.58.03 1.14h-.97l-.02-.12c-.01-.07-.02-.37-.03-.66 0-.29-.03-.72-.06-.95-.02-.24-.07-.61-.1-.83-.04-.22-.1-.59-.15-.82-.05-.24-.14-.63-.2-.87-.07-.25-.18-.64-.26-.87-.07-.24-.19-.58-.26-.77-.07-.18-.21-.53-.31-.76-.1-.23-.28-.63-.41-.88-.13-.26-.33-.65-.46-.86-.12-.22-.36-.61-.53-.86-.16-.25-.44-.64-.61-.87-.17-.22-.46-.59-.64-.81-.18-.21-.61-.67-.96-1.01a20 20 0 0 0-1.04-.98c-.24-.2-.58-.47-.76-.6-.17-.13-.55-.39-.82-.57-.27-.19-.68-.44-.9-.56-.22-.13-.6-.33-.85-.46s-.62-.3-.81-.38c-.2-.09-.53-.22-.74-.3-.21-.08-.59-.21-.84-.3-.25-.08-.65-.2-.9-.26-.24-.06-.63-.15-.87-.2-.23-.05-.61-.12-.82-.15-.22-.03-.59-.08-.83-.11-.23-.02-.68-.05-.99-.06-.3-.01-.6-.02-.75-.04l.01-.98zm-17.9 17.89h.98l.01.1c.01.05.02.35.03.66.01.3.04.75.06.98.03.24.08.61.11.83.03.22.1.59.15.82.04.24.14.63.2.87.06.25.18.64.25.87.08.24.2.58.27.77.06.18.2.52.3.76.1.23.29.62.42.88.12.25.33.64.45.86.13.22.38.63.56.9.18.28.46.66.6.85.15.2.36.46.47.59.1.13.32.39.48.56.16.18.49.53.74.77.25.24.61.58.81.75a15.858 15.858 0 0 0 1.75 1.31c.25.17.64.41.86.53.21.13.57.32.79.43.22.11.54.26.71.34.17.07.47.2.68.29.2.08.62.23.92.33.31.1.74.23.96.29.22.06.62.15.89.21.26.05.66.12.88.16.22.03.59.08.82.1.24.03.68.06.99.07.31 0 .6.02.75.04v.98l-.61-.02c-.34-.01-.81-.04-1.05-.06-.25-.03-.56-.06-.69-.08-.14-.02-.4-.06-.58-.09-.18-.03-.49-.09-.69-.13a19.128 19.128 0 0 1-1.64-.42c-.24-.07-.61-.2-.82-.27-.21-.08-.6-.23-.86-.34-.25-.11-.73-.32-1.04-.48-.32-.16-.71-.37-.87-.46-.16-.1-.47-.28-.68-.41-.21-.13-.59-.39-.84-.57-.25-.17-.6-.44-.78-.58l-.56-.47c-.13-.11-.4-.36-.6-.55-.2-.19-.54-.53-.75-.75a34.7 34.7 0 0 1-.68-.77c-.16-.19-.41-.51-.55-.69-.14-.19-.36-.51-.5-.71-.14-.2-.37-.55-.5-.78-.14-.23-.37-.62-.51-.88a17.283 17.283 0 0 1-.8-1.73c-.1-.25-.26-.67-.35-.94-.09-.27-.23-.72-.31-1.02-.08-.29-.2-.79-.26-1.12-.07-.32-.15-.78-.18-1.01-.04-.24-.08-.64-.11-.89-.02-.25-.05-.73-.06-1.06l-.02-.62z" fill="#FFFFFF" fill-opacity="1.000000" fill-rule="evenodd"/></svg>