<svg width="196" height="61" viewBox="0 0 196 61" fill="none" xmlns="http://www.w3.org/2000/svg"><g clip-path="url(#clip0_511_1069)"><path fill-rule="evenodd" clip-rule="evenodd" d="M29.875 31.944c-.976.98-2.355 1.477-4.096 1.477-1.743 0-3.122-.496-4.098-1.476-.976-.978-1.47-2.35-1.47-4.073s.494-3.094 1.47-4.073c.977-.979 2.355-1.475 4.097-1.475 1.74 0 3.118.496 4.095 1.476.976.979 1.471 2.349 1.471 4.073 0 1.725-.495 3.096-1.47 4.074zm2.302-10.338a8.425 8.425 0 0 0-2.88-1.716c-2.19-.781-4.848-.781-7.037 0-1.1.394-2.069.971-2.88 1.716a8.274 8.274 0 0 0-1.939 2.706c-.475 1.05-.716 2.249-.716 3.56 0 1.31.24 2.507.717 3.559a8.274 8.274 0 0 0 1.94 2.706 8.412 8.412 0 0 0 2.88 1.715c1.093.392 2.277.59 3.52.59 1.24 0 2.424-.198 3.518-.59a8.405 8.405 0 0 0 2.88-1.714 8.276 8.276 0 0 0 1.938-2.705c.477-1.052.718-2.25.718-3.559s-.24-2.506-.718-3.558a8.288 8.288 0 0 0-1.94-2.706z" fill="white"/><path fill-rule="evenodd" clip-rule="evenodd" d="M48.85 19.814c-.771-.34-1.733-.513-2.859-.513-1.171 0-2.232.23-3.153.685-.713.352-1.392.89-2.024 1.603l-.148-1.97h-3.182v16.505h3.582V25.01c.62-.867 1.274-1.522 1.942-1.948.673-.429 1.571-.645 2.67-.645.531 0 1.051.12 1.546.362.496.24.952.618 1.356 1.125l.222.278 2.468-2.254-.195-.25c-.699-.894-1.448-1.522-2.226-1.866z" fill="white"/><path fill-rule="evenodd" clip-rule="evenodd" d="M64.412 32.36c-.56.345-1.11.61-1.64.793a5.424 5.424 0 0 1-1.756.267c-.776 0-1.387-.22-1.87-.67-.47-.438-.707-1.217-.707-2.315v-7.97l6.123.03-.025-2.876h-6.1v-3.75l-3.462-.022.043 3.77h-2.636v3.073l2.442-.002v7.778c0 1.943.513 3.44 1.524 4.451 1.01 1.01 2.475 1.523 4.353 1.523 1.068 0 2.01-.111 2.797-.328a7 7 0 0 0 2.22-1.064l.224-.161-1.208-2.726-.324.2z" fill="white"/><path fill-rule="evenodd" clip-rule="evenodd" d="M75.544 31.964 69.68 19.617H65.7l8.13 16.31-.506 1.278c-.324.79-.723 1.325-1.186 1.593-.48.275-1.062.414-1.729.414a5.23 5.23 0 0 1-1.15-.15l-.336-.076-.558 2.904.267.1c.413.153.776.264 1.079.33.313.068.685.102 1.104.102 1.124 0 2.175-.31 3.124-.924a5.45 5.45 0 0 0 2.102-2.546l7.894-19.335H80.07l-4.526 12.347z" fill="white"/><path fill-rule="evenodd" clip-rule="evenodd" d="m95.305 23.487-2.914-.601c-1.095-.22-1.873-.562-2.313-1.018-.43-.448-.64-.995-.64-1.674 0-.302.052-.62.156-.946.098-.308.267-.572.52-.81.257-.244.618-.45 1.073-.614.464-.166 1.079-.25 1.83-.25 1.024 0 1.949.127 2.749.38.798.252 1.62.678 2.443 1.267l.31.222 1.576-2.978-.257-.17c-1.07-.704-2.15-1.193-3.205-1.45-1.044-.256-2.26-.385-3.617-.385-1.116-.002-2.12.143-2.983.426-.872.287-1.62.691-2.226 1.202a5.046 5.046 0 0 0-1.39 1.866c-.31.713-.468 1.516-.468 2.383 0 1.383.441 2.632 1.312 3.712.872 1.08 2.113 1.787 3.69 2.097l3.194.601c1.285.24 2.202.62 2.725 1.13.502.49.758 1.244.758 2.24 0 .866-.382 1.575-1.165 2.167-.804.606-2.047.914-3.698.914-1.029-.001-2.009-.136-2.913-.4-.906-.263-1.941-.762-3.078-1.482l-.35-.22-1.243 3.418.253.14c.612.343 1.208.636 1.77.871a12.213 12.213 0 0 0 3.539.91 20.51 20.51 0 0 0 2.085.098c1.28 0 2.444-.16 3.464-.473 1.03-.318 1.914-.769 2.632-1.34a6.038 6.038 0 0 0 1.673-2.046 5.794 5.794 0 0 0 .584-2.59c0-1.835-.544-3.32-1.617-4.417-1.055-1.077-2.487-1.812-4.258-2.183z" fill="white"/><path fill-rule="evenodd" clip-rule="evenodd" d="M106.483 25.981c.084-.516.246-.98.485-1.383.3-.502.674-.926 1.116-1.259.443-.334.958-.59 1.532-.759a6.26 6.26 0 0 1 1.763-.258c1.593 0 2.747.304 3.43.906.62.542.964 1.467 1.03 2.753h-9.357zm10.968-4.733c-.637-.61-1.446-1.094-2.405-1.435-.95-.339-2.083-.51-3.367-.51-1.266 0-2.45.21-3.518.624a8.783 8.783 0 0 0-2.815 1.745 7.78 7.78 0 0 0-1.882 2.73c-.444 1.06-.668 2.238-.668 3.503 0 1.282.202 2.463.6 3.509.404 1.056 1 1.97 1.773 2.718.77.747 1.734 1.328 2.862 1.722 1.114.39 2.415.588 3.867.588.695 0 1.34-.022 1.92-.064.584-.043 1.14-.115 1.648-.21.514-.098 1.02-.23 1.5-.393.482-.161.995-.375 1.527-.633l.272-.132-1.08-3.07-.346.196a8.33 8.33 0 0 1-2.394.93c-.818.173-1.78.261-2.86.261-.716 0-1.418-.096-2.084-.288a5.298 5.298 0 0 1-1.753-.863 4.287 4.287 0 0 1-1.22-1.47c-.264-.507-.44-1.1-.522-1.767h12.48l.063-.256c.107-.43.183-.844.227-1.23.043-.382.065-.805.065-1.257 0-.983-.154-1.907-.46-2.744a5.758 5.758 0 0 0-1.43-2.203z" fill="white"/><path fill-rule="evenodd" clip-rule="evenodd" d="m129.09 32.56-5.29-12.942h-3.9l7.152 16.505h3.816l7.445-16.505h-3.75l-5.472 12.942z" fill="white"/><path fill-rule="evenodd" clip-rule="evenodd" d="M142.555 25.981c.084-.517.246-.981.485-1.383a4.36 4.36 0 0 1 1.116-1.259c.443-.334.96-.59 1.532-.759a6.255 6.255 0 0 1 1.764-.258c1.593 0 2.747.304 3.432.906.617.542.963 1.467 1.03 2.753h-9.36zm10.968-4.733c-.638-.61-1.447-1.094-2.405-1.435-.95-.339-2.084-.51-3.368-.51-1.266 0-2.45.21-3.518.624a8.783 8.783 0 0 0-2.815 1.745 7.78 7.78 0 0 0-1.882 2.73c-.444 1.061-.67 2.24-.67 3.503 0 1.282.204 2.462.603 3.508a7.415 7.415 0 0 0 1.772 2.72c.77.747 1.734 1.328 2.862 1.722 1.115.39 2.415.588 3.866.588.696 0 1.342-.022 1.92-.064.585-.043 1.14-.115 1.65-.21.513-.098 1.018-.23 1.5-.393.48-.161.995-.375 1.526-.633l.272-.132-1.08-3.07-.346.196a8.33 8.33 0 0 1-2.394.93c-.818.173-1.78.261-2.86.261a7.55 7.55 0 0 1-2.084-.288 5.298 5.298 0 0 1-1.753-.863 4.287 4.287 0 0 1-1.22-1.47 5.23 5.23 0 0 1-.523-1.767h12.48l.063-.256c.107-.43.183-.844.227-1.23.043-.382.065-.805.065-1.257 0-.983-.154-1.907-.46-2.744a5.77 5.77 0 0 0-1.43-2.203z" fill="white"/><path fill-rule="evenodd" clip-rule="evenodd" d="M172.06 21.2c-1.137-1.26-2.858-1.9-5.116-1.9a8.46 8.46 0 0 0-3.34.677c-.83.354-1.582.898-2.244 1.621l-.15-1.98h-3.18v16.505h3.58V25.006c.68-.857 1.445-1.507 2.275-1.932.857-.436 1.886-.657 3.06-.657 1.225 0 2.046.342 2.506 1.047.484.741.73 1.783.73 3.097v9.563h3.58v-9.55c0-2.314-.572-4.12-1.7-5.373z" fill="white"/><mask id="mask0_511_1069" style="" maskUnits="userSpaceOnUse" x="0" y="0" width="195" height="61"><path d="M.474 60.653h194.508V.003H.474v60.65z" fill="white"/></mask><g mask="url(#mask0_511_1069)"><path fill-rule="evenodd" clip-rule="evenodd" d="M179.724 15.43h15.26V.003h-15.26v15.425z" fill="white"/></g><mask id="mask1_511_1069" style="" maskUnits="userSpaceOnUse" x="0" y="0" width="195" height="61"><path d="M.474 60.653h194.508V.003H.474v60.65z" fill="white"/></mask><g mask="url(#mask1_511_1069)"><path fill-rule="evenodd" clip-rule="evenodd" d="M6.517 50.778a4.234 4.234 0 0 1 1.436.924l-1.098 1.31c-.635-.508-1.302-.762-1.999-.762-.36 0-.637.07-.826.208a.678.678 0 0 0-.285.582c0 .178.048.325.145.44.097.117.26.228.49.335.23.108.591.24 1.085.402.944.303 1.634.684 2.072 1.144.436.46.654 1.096.654 1.907.001.588-.149 1.109-.449 1.559-.299.45-.733.8-1.303 1.05-.568.25-1.237.374-2.004.374-1.465 0-2.66-.45-3.587-1.351l1.205-1.352c.733.607 1.496.91 2.29.91.414 0 .736-.092.966-.275a.887.887 0 0 0 .345-.728.958.958 0 0 0-.132-.529c-.088-.138-.245-.264-.47-.375a6.977 6.977 0 0 0-.986-.366c-1.041-.33-1.773-.727-2.197-1.191-.423-.464-.635-1.048-.635-1.753 0-.553.148-1.039.444-1.458.295-.42.705-.743 1.23-.97a4.4 4.4 0 0 1 1.767-.342c.698 0 1.313.103 1.847.308z" fill="white"/></g><mask id="mask2_511_1069" style="" maskUnits="userSpaceOnUse" x="0" y="0" width="195" height="61"><path d="M.474 60.653h194.508V.003H.474v60.65z" fill="white"/></mask><g mask="url(#mask2_511_1069)"><path fill-rule="evenodd" clip-rule="evenodd" d="M12.155 52.972c-.269.481-.403 1.275-.403 2.382 0 1.105.136 1.901.41 2.388.273.485.692.728 1.257.728.581 0 1.005-.24 1.27-.722s.397-1.28.397-2.395c0-1.106-.132-1.9-.397-2.38-.265-.482-.689-.723-1.27-.723-.574 0-.996.24-1.265.722zm4.374-1.217c.74.856 1.11 2.055 1.11 3.598 0 1.008-.165 1.88-.495 2.616-.331.734-.814 1.3-1.45 1.691-.634.394-1.393.59-2.276.59-1.333 0-2.368-.428-3.104-1.284-.737-.857-1.105-2.061-1.105-3.612 0-1.009.166-1.878.498-2.61.33-.73.81-1.293 1.442-1.685.63-.394 1.387-.59 2.27-.59 1.332 0 2.368.428 3.11 1.285z" fill="white"/></g><mask id="mask3_511_1069" style="" maskUnits="userSpaceOnUse" x="0" y="0" width="195" height="61"><path d="M.474 60.653h194.508V.003H.474v60.65z" fill="white"/></mask><g mask="url(#mask3_511_1069)"><path fill-rule="evenodd" clip-rule="evenodd" d="M19.095 60.01V50.71h5.65l-.25 1.755h-2.952v2.234h2.595v1.751h-2.595v3.56h-2.448z" fill="white"/></g><mask id="mask4_511_1069" style="" maskUnits="userSpaceOnUse" x="0" y="0" width="195" height="61"><path d="M.474 60.653h194.508V.003H.474v60.65z" fill="white"/></mask><g mask="url(#mask4_511_1069)"><path fill-rule="evenodd" clip-rule="evenodd" d="m32.475 50.711-.251 1.888h-2.17v7.412h-2.449v-7.412h-2.302v-1.887h7.172z" fill="white"/></g><mask id="mask5_511_1069" style="" maskUnits="userSpaceOnUse" x="0" y="0" width="195" height="61"><path d="M.474 60.653h194.508V.003H.474v60.65z" fill="white"/></mask><g mask="url(#mask5_511_1069)"><path fill-rule="evenodd" clip-rule="evenodd" d="m44.067 50.711-1.43 9.3H39.45l-.98-6.89-1.06 6.89H34.3l-1.389-9.299h2.437l.754 7.466 1.125-7.465h2.568l1.006 7.466.925-7.465h2.342z" fill="white"/></g><mask id="mask6_511_1069" style="" maskUnits="userSpaceOnUse" x="0" y="0" width="195" height="61"><path d="M.474 60.653h194.508V.003H.474v60.65z" fill="white"/></mask><g mask="url(#mask6_511_1069)"><path fill-rule="evenodd" clip-rule="evenodd" d="M47.614 56.344h1.667l-.832-3.866-.834 3.866zm2.462 3.666-.41-1.9H47.23l-.41 1.9h-2.541l2.726-9.299h2.937l2.726 9.3h-2.594z" fill="white"/></g><mask id="mask7_511_1069" style="" maskUnits="userSpaceOnUse" x="0" y="0" width="195" height="61"><path d="M.474 60.653h194.508V.003H.474v60.65z" fill="white"/></mask><g mask="url(#mask7_511_1069)"><path fill-rule="evenodd" clip-rule="evenodd" d="M55.978 54.9h.82c.848 0 1.27-.434 1.27-1.299 0-.4-.116-.694-.35-.882-.234-.187-.584-.28-1.052-.28h-.688v2.46zm.675 1.685h-.675v3.425H53.53V50.71h3.19c1.297.001 2.264.238 2.904.71.64.474.96 1.2.96 2.182 0 .588-.135 1.078-.404 1.47-.27.393-.7.746-1.29 1.058l2.289 3.88h-2.727l-1.8-3.425z" fill="white"/></g><mask id="mask8_511_1069" style="" maskUnits="userSpaceOnUse" x="0" y="0" width="195" height="61"><path d="M.474 60.653h194.508V.003H.474v60.65z" fill="white"/></mask><g mask="url(#mask8_511_1069)"><path fill-rule="evenodd" clip-rule="evenodd" d="m67.967 50.711-.252 1.754H64.58v1.98h2.739v1.699h-2.74v2.114h3.347v1.753h-5.796V50.71h5.837z" fill="white"/></g><mask id="mask9_511_1069" style="" maskUnits="userSpaceOnUse" x="0" y="0" width="195" height="61"><path d="M.474 60.653h194.508V.003H.474v60.65z" fill="white"/></mask><g mask="url(#mask9_511_1069)"><path fill-rule="evenodd" clip-rule="evenodd" d="M77.065 54.9c.234-.233.35-.599.35-1.098 0-.9-.48-1.351-1.442-1.351h-.661v2.797h.714c.46 0 .805-.116 1.04-.348zm1.826-3.406c.685.521 1.027 1.286 1.027 2.295 0 1.051-.33 1.852-.993 2.4-.661.548-1.552.823-2.673.823h-.938v2.997h-2.449V50.71h3.15c1.235.001 2.194.263 2.879.785z" fill="white"/></g><mask id="mask10_511_1069" style="" maskUnits="userSpaceOnUse" x="0" y="0" width="195" height="61"><path d="M.474 60.653h194.508V.003H.474v60.65z" fill="white"/></mask><g mask="url(#mask10_511_1069)"><path fill-rule="evenodd" clip-rule="evenodd" d="M83.715 54.9h.82c.847 0 1.27-.434 1.27-1.299 0-.4-.116-.694-.35-.882-.234-.187-.585-.28-1.052-.28h-.688v2.46zm.675 1.685h-.675v3.425h-2.448V50.71h3.19c1.296.001 2.264.238 2.903.71.64.474.96 1.2.96 2.182 0 .588-.134 1.078-.403 1.47-.27.393-.7.746-1.291 1.058l2.29 3.88H86.19l-1.8-3.425z" fill="white"/></g><mask id="mask11_511_1069" style="" maskUnits="userSpaceOnUse" x="0" y="0" width="195" height="61"><path d="M.474 60.653h194.508V.003H.474v60.65z" fill="white"/></mask><g mask="url(#mask11_511_1069)"><path fill-rule="evenodd" clip-rule="evenodd" d="M92.27 52.972c-.27.481-.403 1.275-.403 2.382 0 1.105.136 1.901.41 2.388.273.485.692.728 1.257.728.582 0 1.005-.24 1.27-.722s.397-1.28.397-2.395c.001-1.106-.13-1.9-.396-2.38-.265-.482-.688-.723-1.27-.723-.573 0-.995.24-1.264.722zm4.374-1.217c.74.856 1.111 2.055 1.111 3.598 0 1.008-.165 1.88-.495 2.616-.332.734-.814 1.3-1.45 1.691-.635.394-1.394.59-2.276.59-1.332 0-2.367-.428-3.104-1.284-.737-.857-1.104-2.061-1.104-3.612 0-1.009.165-1.878.496-2.61.33-.73.812-1.293 1.443-1.685.63-.394 1.387-.59 2.269-.59 1.332 0 2.369.428 3.11 1.285z" fill="white"/></g><mask id="mask12_511_1069" style="" maskUnits="userSpaceOnUse" x="0" y="0" width="195" height="61"><path d="M.474 60.653h194.508V.003H.474v60.65z" fill="white"/></mask><g mask="url(#mask12_511_1069)"><path fill-rule="evenodd" clip-rule="evenodd" d="M99.21 60.01V50.71h5.652l-.252 1.755h-2.95v2.234h2.593v1.751h-2.594v3.56h-2.45z" fill="white"/></g><mask id="mask13_511_1069" style="" maskUnits="userSpaceOnUse" x="0" y="0" width="195" height="61"><path d="M.474 60.653h194.508V.003H.474v60.65z" fill="white"/></mask><g mask="url(#mask13_511_1069)"><path fill-rule="evenodd" clip-rule="evenodd" d="m111.876 50.711-.252 1.754h-3.136v1.98h2.74v1.699h-2.74v2.114h3.348v1.753h-5.796V50.71h5.836z" fill="white"/></g><mask id="mask14_511_1069" style="" maskUnits="userSpaceOnUse" x="0" y="0" width="195" height="61"><path d="M.474 60.653h194.508V.003H.474v60.65z" fill="white"/></mask><g mask="url(#mask14_511_1069)"><path fill-rule="evenodd" clip-rule="evenodd" d="M118.247 50.778a4.237 4.237 0 0 1 1.436.924l-1.1 1.31c-.634-.508-1.3-.762-1.997-.762-.36 0-.638.07-.827.208a.678.678 0 0 0-.286.582c0 .178.05.325.146.44.097.117.26.228.49.335.23.108.59.24 1.084.402.944.303 1.635.684 2.072 1.144.436.46.655 1.096.655 1.907 0 .588-.15 1.109-.45 1.559-.3.45-.733.8-1.303 1.05-.568.25-1.237.374-2.004.374-1.466 0-2.66-.45-3.587-1.351l1.204-1.352c.732.607 1.495.91 2.29.91.414 0 .736-.092.966-.275a.887.887 0 0 0 .344-.728.957.957 0 0 0-.133-.529c-.087-.138-.245-.264-.47-.375a6.955 6.955 0 0 0-.985-.366c-1.042-.33-1.774-.727-2.197-1.191-.423-.464-.635-1.048-.635-1.753 0-.553.147-1.039.443-1.458.295-.42.706-.743 1.23-.97a4.4 4.4 0 0 1 1.768-.342c.697 0 1.313.103 1.847.308z" fill="white"/></g><mask id="mask15_511_1069" style="" maskUnits="userSpaceOnUse" x="0" y="0" width="195" height="61"><path d="M.474 60.653h194.508V.003H.474v60.65z" fill="white"/></mask><g mask="url(#mask15_511_1069)"><path fill-rule="evenodd" clip-rule="evenodd" d="M126.187 50.778a4.237 4.237 0 0 1 1.436.924l-1.1 1.31c-.634-.508-1.3-.762-1.997-.762-.36 0-.638.07-.827.208a.678.678 0 0 0-.286.582c0 .178.048.325.146.44.097.117.26.228.49.335.23.108.59.24 1.084.402.944.303 1.635.684 2.072 1.144.436.46.655 1.096.655 1.907 0 .588-.15 1.109-.45 1.559-.3.45-.733.8-1.303 1.05-.57.25-1.237.374-2.004.374-1.466 0-2.66-.45-3.587-1.351l1.204-1.352c.732.607 1.495.91 2.29.91.414 0 .736-.092.966-.275a.887.887 0 0 0 .344-.728.957.957 0 0 0-.133-.529c-.087-.138-.245-.264-.47-.375a6.956 6.956 0 0 0-.985-.366c-1.042-.33-1.774-.727-2.197-1.191-.423-.464-.635-1.048-.635-1.753 0-.553.147-1.039.443-1.458.295-.42.706-.743 1.23-.97a4.4 4.4 0 0 1 1.768-.342c.697 0 1.313.103 1.847.308z" fill="white"/></g><mask id="mask16_511_1069" style="" maskUnits="userSpaceOnUse" x="0" y="0" width="195" height="61"><path d="M.474 60.653h194.508V.003H.474v60.65z" fill="white"/></mask><g mask="url(#mask16_511_1069)"><path fill-rule="evenodd" clip-rule="evenodd" d="M129.238 60.009h2.448v-9.3h-2.448v9.299z" fill="white"/></g><mask id="mask17_511_1069" style="" maskUnits="userSpaceOnUse" x="0" y="0" width="195" height="61"><path d="M.474 60.653h194.508V.003H.474v60.65z" fill="white"/></mask><g mask="url(#mask17_511_1069)"><path fill-rule="evenodd" clip-rule="evenodd" d="M136.1 52.972c-.27.481-.404 1.275-.404 2.382 0 1.105.136 1.901.41 2.388.273.485.692.728 1.257.728.582 0 1.005-.24 1.27-.722s.398-1.28.398-2.395c0-1.106-.132-1.9-.397-2.38-.265-.482-.688-.723-1.27-.723-.573 0-.995.24-1.264.722zm4.373-1.217c.74.856 1.11 2.055 1.11 3.598 0 1.008-.164 1.88-.494 2.616-.332.734-.815 1.3-1.45 1.691-.636.394-1.395.59-2.277.59-1.332 0-2.367-.428-3.103-1.284-.737-.857-1.105-2.061-1.105-3.612 0-1.009.165-1.878.496-2.61.332-.73.813-1.293 1.444-1.685.63-.394 1.387-.59 2.27-.59 1.33 0 2.368.428 3.11 1.285z" fill="white"/></g><mask id="mask18_511_1069" style="" maskUnits="userSpaceOnUse" x="0" y="0" width="195" height="61"><path d="M.474 60.653h194.508V.003H.474v60.65z" fill="white"/></mask><g mask="url(#mask18_511_1069)"><path fill-rule="evenodd" clip-rule="evenodd" d="M150.305 60.01h-3.084l-2.327-6.997.04.28c.088.616.156 1.194.204 1.734.05.539.073 1.152.073 1.839v3.144h-2.17V50.71h3.017l2.41 7.026a36.07 36.07 0 0 1-.246-1.807 17.353 17.353 0 0 1-.085-1.847V50.71h2.17v9.3z" fill="white"/></g><mask id="mask19_511_1069" style="" maskUnits="userSpaceOnUse" x="0" y="0" width="195" height="61"><path d="M.474 60.653h194.508V.003H.474v60.65z" fill="white"/></mask><g mask="url(#mask19_511_1069)"><path fill-rule="evenodd" clip-rule="evenodd" d="M154.5 56.344h1.667l-.833-3.866-.834 3.866zm2.46 3.666-.41-1.9h-2.434l-.41 1.9h-2.54l2.725-9.299h2.938l2.727 9.3h-2.594z" fill="white"/></g><mask id="mask20_511_1069" style="" maskUnits="userSpaceOnUse" x="0" y="0" width="195" height="61"><path d="M.474 60.653h194.508V.003H.474v60.65z" fill="white"/></mask><g mask="url(#mask20_511_1069)"><path fill-rule="evenodd" clip-rule="evenodd" d="M162.863 50.711v7.373h3.533l-.264 1.927h-5.716V50.71h2.447z" fill="white"/></g><mask id="mask21_511_1069" style="" maskUnits="userSpaceOnUse" x="0" y="0" width="195" height="61"><path d="M.474 60.653h194.508V.003H.474v60.65z" fill="white"/></mask><g mask="url(#mask21_511_1069)"><path fill-rule="evenodd" clip-rule="evenodd" d="M172.53 50.778a4.237 4.237 0 0 1 1.437.924l-1.098 1.31c-.637-.508-1.303-.762-2-.762-.36 0-.638.07-.827.208a.677.677 0 0 0-.284.582c0 .178.047.325.144.44.097.117.26.228.49.335.23.108.59.24 1.084.402.945.303 1.635.684 2.072 1.144.436.46.655 1.096.655 1.907 0 .588-.15 1.109-.45 1.559-.3.45-.734.8-1.304 1.05-.567.25-1.236.374-2.003.374-1.465 0-2.66-.45-3.587-1.351l1.204-1.352c.732.607 1.496.91 2.29.91.414 0 .736-.092.966-.275a.887.887 0 0 0 .344-.728.958.958 0 0 0-.133-.529c-.086-.138-.243-.264-.468-.375a6.976 6.976 0 0 0-.986-.366c-1.04-.33-1.774-.727-2.197-1.191-.424-.464-.636-1.048-.636-1.753 0-.553.148-1.039.443-1.458.296-.42.706-.743 1.23-.97a4.4 4.4 0 0 1 1.768-.342c.696 0 1.312.103 1.846.308z" fill="white"/></g><mask id="mask22_511_1069" style="" maskUnits="userSpaceOnUse" x="0" y="0" width="195" height="61"><path d="M.474 60.653h194.508V.003H.474v60.65z" fill="white"/></mask><g mask="url(#mask22_511_1069)"><path fill-rule="evenodd" clip-rule="evenodd" d="M1.568 36.124h3.645v-9.401h9.081v-3.115h-9.08v-5.622h10.113V14.87H1.568v21.254z" fill="white"/></g></g><defs><clipPath id="clip0_511_1069"><rect width="194.88" height="61" fill="white" transform="translate(0.474121)"/></clipPath></defs></svg>