<svg width="196" height="61" viewBox="0 0 196 61" fill="none" xmlns="http://www.w3.org/2000/svg">
<g clip-path="url(#clip0_511_1069)">
<path fill-rule="evenodd" clip-rule="evenodd" d="M29.8752 31.9443C28.8991 32.9236 27.5203 33.4206 25.7794 33.4206C24.0369 33.4206 22.6581 32.9236 21.6821 31.9443C20.706 30.9658 20.2119 29.595 20.2119 27.8713C20.2119 26.1468 20.706 24.776 21.6821 23.7975C22.6589 22.8182 24.0369 22.3219 25.7794 22.3219C27.5203 22.3219 28.8983 22.8182 29.8752 23.7975C30.8512 24.7768 31.3461 26.1468 31.3461 27.8713C31.3461 29.595 30.8512 30.9658 29.8752 31.9443ZM32.177 21.6056C31.3665 20.8612 30.397 20.2842 29.2979 19.8902C27.1061 19.1087 24.4487 19.1087 22.2602 19.891C21.1602 20.2842 20.1915 20.8612 19.3794 21.6056C18.5681 22.3516 17.9157 23.2617 17.4412 24.3119C16.965 25.3629 16.7236 26.5606 16.7236 27.8713C16.7236 29.1812 16.965 30.3789 17.4412 31.4307C17.9157 32.4809 18.5689 33.391 19.3794 34.1362C20.1907 34.8805 21.1594 35.4576 22.2602 35.8508C23.3528 36.2415 24.5368 36.4402 25.7794 36.4402C27.0205 36.4402 28.2044 36.2415 29.2979 35.8508C30.3978 35.4576 31.3665 34.8805 32.177 34.1362C32.9883 33.391 33.6407 32.4809 34.116 31.4307C34.5931 30.3781 34.8344 29.1795 34.8344 27.8713C34.8344 26.5614 34.5931 25.3645 34.116 24.3119C33.6407 23.2617 32.9883 22.3516 32.177 21.6056Z" fill="white"/>
<path fill-rule="evenodd" clip-rule="evenodd" d="M48.8492 19.8143C48.0787 19.4739 47.1173 19.3008 45.9912 19.3008C44.8187 19.3008 43.7579 19.5308 42.8373 19.985C42.1238 20.337 41.4454 20.8752 40.8135 21.5883L40.6651 19.6181H37.4834V36.1228H41.0654V25.0101C41.686 24.1429 42.3391 23.4883 43.0069 23.0622C43.6796 22.6335 44.5782 22.4167 45.6773 22.4167C46.2081 22.4167 46.7284 22.5379 47.2233 22.7786C47.7191 23.0193 48.1749 23.3985 48.5793 23.9046L48.8019 24.1833L51.2701 21.9287L51.0752 21.6798C50.3764 20.7862 49.6271 20.1581 48.8492 19.8143Z" fill="white"/>
<path fill-rule="evenodd" clip-rule="evenodd" d="M64.4117 32.361C63.8523 32.7048 63.3011 32.971 62.7711 33.1532C62.2558 33.3296 61.6655 33.4203 61.0164 33.4203C60.2401 33.4203 59.6286 33.201 59.1459 32.7501C58.677 32.3124 58.4389 31.5334 58.4389 30.4346V22.4642L64.5634 22.4947L64.5381 19.6186H58.4389V15.8696L54.9759 15.8481L55.0191 19.6186H52.3838V22.6909L54.8259 22.6884V30.4659C54.8259 32.4088 55.3388 33.9066 56.3499 34.9172C57.3602 35.9279 58.8246 36.4398 60.7033 36.4398C61.7706 36.4398 62.7124 36.3285 63.5001 36.1117C64.2959 35.8908 65.0428 35.5338 65.7196 35.0475L65.9438 34.8867L64.7362 32.1615L64.4117 32.361Z" fill="white"/>
<path fill-rule="evenodd" clip-rule="evenodd" d="M75.5437 31.9639L69.6801 19.6172H65.7002L73.8305 35.9264L73.3242 37.205C73.0004 37.9947 72.6009 38.5305 72.1378 38.7976C71.6583 39.0729 71.0761 39.2122 70.4091 39.2122C70.0805 39.2122 69.6948 39.1619 69.261 39.0622L68.9243 38.9855L68.3657 41.8904L68.6332 41.9902C69.0458 42.1427 69.4086 42.254 69.7119 42.3199C70.0251 42.3875 70.3969 42.4221 70.816 42.4221C71.9396 42.4221 72.9907 42.1113 73.9398 41.4981C74.8913 40.8815 75.5983 40.0258 76.0419 38.9525L83.9357 19.6172H80.0699L75.5437 31.9639Z" fill="white"/>
<path fill-rule="evenodd" clip-rule="evenodd" d="M95.3054 23.4873L92.3912 22.8856C91.2953 22.6663 90.5166 22.3242 90.0771 21.8675C89.6466 21.4199 89.4362 20.8734 89.4362 20.1941C89.4362 19.8916 89.4892 19.5734 89.5928 19.2478C89.6906 18.9403 89.8602 18.6757 90.113 18.4375C90.3698 18.1943 90.7311 17.9883 91.1861 17.8242C91.65 17.6577 92.2648 17.5736 93.015 17.5736C94.0399 17.5736 94.9646 17.7014 95.7645 17.9536C96.5628 18.2059 97.3847 18.6321 98.2083 19.2206L98.5173 19.4424L100.094 16.4641L99.8366 16.2943C98.7668 15.5903 97.688 15.1015 96.6321 14.8435C95.5876 14.5879 94.371 14.4585 93.015 14.4585C91.8995 14.4585 90.8958 14.6028 90.0315 14.8863C89.1598 15.1732 88.4113 15.5771 87.8062 16.0882C87.1939 16.6059 86.7258 17.234 86.4152 17.9536C86.1053 18.6675 85.9479 19.4696 85.9479 20.3368C85.9479 21.72 86.3891 22.9688 87.2599 24.0487C88.1316 25.131 89.3726 25.8366 90.9504 26.1466L94.1443 26.7483C95.4286 26.9874 96.3459 27.3682 96.8694 27.8777C97.3725 28.3681 97.6277 29.1216 97.6277 30.1182C97.6277 30.9837 97.2461 31.6926 96.4625 32.2845C95.6593 32.8912 94.4158 33.1987 92.7647 33.1987C91.7364 33.1987 90.7563 33.0643 89.8521 32.8005C88.9462 32.5368 87.9106 32.038 86.7739 31.3184L86.4241 31.0975L85.1807 34.516L85.4326 34.6561C86.045 34.999 86.641 35.2916 87.2037 35.5274C87.7671 35.7648 88.3452 35.961 88.9241 36.1127C89.5063 36.2643 90.1187 36.374 90.7425 36.4383C91.3646 36.5026 92.0659 36.5347 92.8275 36.5347C94.106 36.5347 95.2712 36.3756 96.2913 36.0616C97.3195 35.7442 98.2042 35.2933 98.9217 34.7212C99.6458 34.1442 100.209 33.4559 100.595 32.6761C100.982 31.8921 101.179 31.0216 101.179 30.0869C101.179 28.2511 100.636 26.7657 99.5634 25.6693C98.5083 24.5927 97.0757 23.8583 95.3054 23.4873Z" fill="white"/>
<path fill-rule="evenodd" clip-rule="evenodd" d="M106.483 25.9813C106.567 25.4636 106.729 24.9995 106.968 24.5972C107.267 24.0952 107.642 23.6715 108.084 23.3385C108.527 23.0038 109.042 22.7483 109.616 22.5793C110.197 22.4086 110.791 22.3221 111.379 22.3221C112.973 22.3221 114.127 22.6263 114.811 23.228C115.429 23.7696 115.774 24.6953 115.841 25.9813H106.483ZM117.451 21.2472C116.813 20.6363 116.004 20.1533 115.045 19.812C114.095 19.4732 112.962 19.3018 111.678 19.3018C110.412 19.3018 109.229 19.5111 108.16 19.9258C107.091 20.3412 106.145 20.9281 105.345 21.6709C104.541 22.4177 103.907 23.336 103.463 24.3994C103.019 25.4603 102.795 26.6382 102.795 27.9028C102.795 29.1854 102.997 30.3658 103.396 31.4119C103.799 32.4679 104.395 33.382 105.168 34.1297C105.939 34.8774 106.902 35.4577 108.03 35.8517C109.144 36.2416 110.445 36.4403 111.897 36.4403C112.592 36.4403 113.238 36.418 113.816 36.376C114.401 36.3331 114.957 36.2614 115.465 36.165C115.979 36.0677 116.484 35.9366 116.966 35.7734C117.447 35.6118 117.96 35.3983 118.492 35.1403L118.764 35.0084L117.684 31.937L117.338 32.134C116.556 32.5791 115.752 32.8924 114.944 33.063C114.126 33.237 113.164 33.3252 112.085 33.3252C111.368 33.3252 110.666 33.2287 110 33.0375C109.343 32.8495 108.754 32.5585 108.247 32.1744C107.745 31.7944 107.335 31.3006 107.027 30.7046C106.763 30.1969 106.588 29.6042 106.505 28.9373H118.985L119.048 28.6809C119.155 28.2498 119.231 27.836 119.275 27.4502C119.318 27.0677 119.34 26.6448 119.34 26.1931C119.34 25.2097 119.186 24.2864 118.881 23.4489C118.571 22.6007 118.09 21.8596 117.451 21.2472Z" fill="white"/>
<path fill-rule="evenodd" clip-rule="evenodd" d="M129.091 32.5601L123.8 19.6182H119.901L127.052 36.1228H130.868L138.313 19.6182H134.564L129.091 32.5601Z" fill="white"/>
<path fill-rule="evenodd" clip-rule="evenodd" d="M142.555 25.9813C142.639 25.4628 142.801 24.9987 143.04 24.5972C143.339 24.0952 143.715 23.6715 144.156 23.3385C144.599 23.0038 145.115 22.7483 145.688 22.5793C146.269 22.4086 146.862 22.3221 147.452 22.3221C149.045 22.3221 150.199 22.6263 150.884 23.228C151.501 23.7696 151.847 24.6953 151.913 25.9813H142.555ZM153.523 21.2472C152.885 20.6363 152.076 20.1533 151.118 19.812C150.167 19.4732 149.034 19.3018 147.75 19.3018C146.484 19.3018 145.301 19.5111 144.232 19.9258C143.163 20.3412 142.217 20.9281 141.417 21.6709C140.613 22.4177 139.979 23.336 139.535 24.3994C139.091 25.4611 138.866 26.6391 138.866 27.9028C138.866 29.1846 139.069 30.365 139.468 31.4111C139.871 32.467 140.466 33.382 141.24 34.1297C142.011 34.8774 142.974 35.4577 144.102 35.8517C145.217 36.2416 146.517 36.4403 147.968 36.4403C148.664 36.4403 149.31 36.418 149.888 36.376C150.473 36.3331 151.029 36.2614 151.537 36.165C152.051 36.0677 152.556 35.9366 153.038 35.7734C153.519 35.6118 154.033 35.3983 154.564 35.1403L154.836 35.0084L153.756 31.937L153.41 32.134C152.628 32.5791 151.824 32.8924 151.016 33.063C150.198 33.237 149.236 33.3252 148.157 33.3252C147.439 33.3252 146.738 33.2287 146.072 33.0375C145.415 32.8495 144.826 32.5585 144.319 32.1744C143.817 31.7944 143.407 31.3006 143.099 30.7046C142.836 30.1969 142.66 29.6042 142.577 28.9373H155.057L155.12 28.6809C155.227 28.2498 155.303 27.836 155.347 27.4502C155.39 27.0677 155.412 26.6448 155.412 26.1931C155.412 25.2097 155.258 24.2856 154.953 23.4489C154.643 22.6007 154.161 21.8596 153.523 21.2472Z" fill="white"/>
<path fill-rule="evenodd" clip-rule="evenodd" d="M172.061 21.2C170.923 19.9405 169.202 19.3008 166.944 19.3008C165.777 19.3008 164.654 19.5283 163.603 19.9767C162.774 20.3312 162.022 20.8752 161.36 21.5982L161.211 19.6181H158.029V36.1228H161.611V25.0059C162.29 24.1486 163.055 23.4991 163.885 23.0745C164.742 22.6376 165.771 22.4167 166.944 22.4167C168.17 22.4167 168.991 22.7588 169.451 23.4644C169.934 24.2055 170.179 25.2466 170.179 26.5614V36.1228H173.761V26.573C173.761 24.2591 173.188 22.4522 172.061 21.2Z" fill="white"/>
<mask id="mask0_511_1069" style="mask-type:luminance" maskUnits="userSpaceOnUse" x="0" y="0" width="195" height="61">
<path d="M0.473633 60.6526H194.982V0.00292969H0.473633V60.6526Z" fill="white"/>
</mask>
<g mask="url(#mask0_511_1069)">
<path fill-rule="evenodd" clip-rule="evenodd" d="M179.724 15.4295H194.983V0.00390625H179.724V15.4295Z" fill="white"/>
</g>
<mask id="mask1_511_1069" style="mask-type:luminance" maskUnits="userSpaceOnUse" x="0" y="0" width="195" height="61">
<path d="M0.473633 60.6526H194.982V0.00292969H0.473633V60.6526Z" fill="white"/>
</mask>
<g mask="url(#mask1_511_1069)">
<path fill-rule="evenodd" clip-rule="evenodd" d="M6.51727 50.7785C7.05054 50.9838 7.52918 51.2912 7.95319 51.7018L6.85485 53.0124C6.21966 52.5038 5.55348 52.2499 4.85631 52.2499C4.49509 52.2499 4.21867 52.3192 4.0295 52.4577C3.83951 52.5961 3.74493 52.7899 3.74493 53.0396C3.74493 53.2177 3.79303 53.3652 3.89007 53.4806C3.9871 53.5969 4.15018 53.7082 4.38012 53.8153C4.60925 53.9225 4.97128 54.056 5.4646 54.2168C6.40883 54.5201 7.09947 54.901 7.53652 55.3609C7.97276 55.8201 8.19128 56.4556 8.19128 57.2668C8.19128 57.8553 8.04125 58.3755 7.74118 58.8256C7.44112 59.2765 7.00733 59.626 6.43737 59.8758C5.86903 60.1255 5.20041 60.25 4.43312 60.25C2.96785 60.25 1.7733 59.7999 0.846191 58.8989L2.05053 57.5479C2.78276 58.1546 3.54597 58.4571 4.34017 58.4571C4.75439 58.4571 5.07647 58.3664 5.30641 58.1834C5.53554 58.0004 5.65051 57.7572 5.65051 57.4547C5.65051 57.2404 5.60648 57.064 5.5176 56.9263C5.43035 56.7878 5.27298 56.6625 5.04793 56.5513C4.82288 56.44 4.49509 56.3171 4.06212 56.1836C3.02085 55.8531 2.28863 55.4566 1.86544 54.9925C1.44225 54.5292 1.23024 53.9447 1.23024 53.2399C1.23024 52.6868 1.37783 52.2013 1.67382 51.7817C1.96899 51.3621 2.37914 51.039 2.90425 50.8123C3.42937 50.5848 4.01808 50.4702 4.67122 50.4702C5.36757 50.4702 5.98319 50.5733 6.51727 50.7785Z" fill="white"/>
</g>
<mask id="mask2_511_1069" style="mask-type:luminance" maskUnits="userSpaceOnUse" x="0" y="0" width="195" height="61">
<path d="M0.473633 60.6526H194.982V0.00292969H0.473633V60.6526Z" fill="white"/>
</mask>
<g mask="url(#mask2_511_1069)">
<path fill-rule="evenodd" clip-rule="evenodd" d="M12.1553 52.972C11.8863 53.4534 11.7517 54.2473 11.7517 55.3535C11.7517 56.4589 11.8879 57.2552 12.1619 57.7416C12.435 58.2271 12.8541 58.4703 13.4192 58.4703C14.0014 58.4703 14.4246 58.2296 14.6896 57.7482C14.9546 57.2659 15.0867 56.468 15.0867 55.3535C15.0867 54.2473 14.9546 53.4534 14.6896 52.972C14.4246 52.4906 14.0014 52.2499 13.4192 52.2499C12.846 52.2499 12.4244 52.4906 12.1553 52.972ZM16.5291 51.7545C17.2695 52.611 17.6405 53.8104 17.6405 55.3535C17.6405 56.3608 17.475 57.233 17.1447 57.9691C16.8137 58.7044 16.331 59.2691 15.695 59.6614C15.0606 60.0538 14.3015 60.25 13.4192 60.25C12.0868 60.25 11.0521 59.8222 10.3158 58.9657C9.57868 58.1092 9.21094 56.9049 9.21094 55.3535C9.21094 54.3454 9.37646 53.4757 9.70751 52.7445C10.0377 52.0133 10.5188 51.4512 11.15 51.0588C11.7803 50.6664 12.5369 50.4702 13.4192 50.4702C14.7516 50.4702 15.7879 50.898 16.5291 51.7545Z" fill="white"/>
</g>
<mask id="mask3_511_1069" style="mask-type:luminance" maskUnits="userSpaceOnUse" x="0" y="0" width="195" height="61">
<path d="M0.473633 60.6526H194.982V0.00292969H0.473633V60.6526Z" fill="white"/>
</mask>
<g mask="url(#mask3_511_1069)">
<path fill-rule="evenodd" clip-rule="evenodd" d="M19.0952 60.0098V50.7114H24.7459L24.4948 52.4648H21.543V54.6987H24.1376V56.4512H21.543V60.0098H19.0952Z" fill="white"/>
</g>
<mask id="mask4_511_1069" style="mask-type:luminance" maskUnits="userSpaceOnUse" x="0" y="0" width="195" height="61">
<path d="M0.473633 60.6526H194.982V0.00292969H0.473633V60.6526Z" fill="white"/>
</mask>
<g mask="url(#mask4_511_1069)">
<path fill-rule="evenodd" clip-rule="evenodd" d="M32.4755 50.7114L32.2235 52.5983H30.0537V60.0098H27.6051V52.5983H25.3032V50.7114H32.4755Z" fill="white"/>
</g>
<mask id="mask5_511_1069" style="mask-type:luminance" maskUnits="userSpaceOnUse" x="0" y="0" width="195" height="61">
<path d="M0.473633 60.6526H194.982V0.00292969H0.473633V60.6526Z" fill="white"/>
</mask>
<g mask="url(#mask5_511_1069)">
<path fill-rule="evenodd" clip-rule="evenodd" d="M44.0674 50.7114L42.638 60.0098H39.449L38.4697 53.1193L37.4105 60.0098H34.3006L32.9111 50.7114H35.3467L36.101 58.1765L37.2254 50.7114H39.7931L40.7985 58.1765L41.7248 50.7114H44.0674Z" fill="white"/>
</g>
<mask id="mask6_511_1069" style="mask-type:luminance" maskUnits="userSpaceOnUse" x="0" y="0" width="195" height="61">
<path d="M0.473633 60.6526H194.982V0.00292969H0.473633V60.6526Z" fill="white"/>
</mask>
<g mask="url(#mask6_511_1069)">
<path fill-rule="evenodd" clip-rule="evenodd" d="M47.6138 56.344H49.2813L48.4479 52.478L47.6138 56.344ZM50.0755 60.0098L49.6653 58.1097H47.2305L46.8196 60.0098H44.2788L47.0055 50.7114H49.9426L52.6692 60.0098H50.0755Z" fill="white"/>
</g>
<mask id="mask7_511_1069" style="mask-type:luminance" maskUnits="userSpaceOnUse" x="0" y="0" width="195" height="61">
<path d="M0.473633 60.6526H194.982V0.00292969H0.473633V60.6526Z" fill="white"/>
</mask>
<g mask="url(#mask7_511_1069)">
<path fill-rule="evenodd" clip-rule="evenodd" d="M55.9781 54.899H56.7984C57.6456 54.899 58.0688 54.4662 58.0688 53.6015C58.0688 53.2001 57.9522 52.9058 57.7182 52.7178C57.4841 52.5307 57.1335 52.4376 56.6663 52.4376H55.9781V54.899ZM56.6532 56.5847H55.9781V60.0098H53.5303V50.7114H56.7193C58.0166 50.7114 58.9845 50.948 59.6237 51.4203C60.263 51.8935 60.5835 52.6206 60.5835 53.6015C60.5835 54.1901 60.4489 54.6805 60.1798 55.0729C59.9108 55.4653 59.4802 55.8181 58.8891 56.1297L61.1787 60.0098H58.4528L56.6532 56.5847Z" fill="white"/>
</g>
<mask id="mask8_511_1069" style="mask-type:luminance" maskUnits="userSpaceOnUse" x="0" y="0" width="195" height="61">
<path d="M0.473633 60.6526H194.982V0.00292969H0.473633V60.6526Z" fill="white"/>
</mask>
<g mask="url(#mask8_511_1069)">
<path fill-rule="evenodd" clip-rule="evenodd" d="M67.9671 50.7114L67.7152 52.4639H64.5792V54.444H67.3189V56.1429H64.5792V58.2573H67.9272V60.0098H62.1313V50.7114H67.9671Z" fill="white"/>
</g>
<mask id="mask9_511_1069" style="mask-type:luminance" maskUnits="userSpaceOnUse" x="0" y="0" width="195" height="61">
<path d="M0.473633 60.6526H194.982V0.00292969H0.473633V60.6526Z" fill="white"/>
</mask>
<g mask="url(#mask9_511_1069)">
<path fill-rule="evenodd" clip-rule="evenodd" d="M77.065 54.899C77.299 54.6674 77.4156 54.3014 77.4156 53.8018C77.4156 52.9017 76.9346 52.4507 75.9732 52.4507H75.3119V55.2469H76.0262C76.4853 55.2469 76.831 55.1306 77.065 54.899ZM78.8915 51.4945C79.5748 52.0155 79.9173 52.7805 79.9173 53.7886C79.9173 54.8413 79.5862 55.6417 78.9241 56.1899C78.2628 56.7381 77.3716 57.0126 76.2513 57.0126H75.3119V60.0098H72.8633V50.7114H76.0132C77.2485 50.7114 78.2074 50.9727 78.8915 51.4945Z" fill="white"/>
</g>
<mask id="mask10_511_1069" style="mask-type:luminance" maskUnits="userSpaceOnUse" x="0" y="0" width="195" height="61">
<path d="M0.473633 60.6526H194.982V0.00292969H0.473633V60.6526Z" fill="white"/>
</mask>
<g mask="url(#mask10_511_1069)">
<path fill-rule="evenodd" clip-rule="evenodd" d="M83.7149 54.899H84.5352C85.3824 54.899 85.8056 54.4662 85.8056 53.6015C85.8056 53.2001 85.689 52.9058 85.455 52.7178C85.2209 52.5307 84.8703 52.4376 84.4031 52.4376H83.7149V54.899ZM84.3901 56.5847H83.7149V60.0098H81.2671V50.7114H84.4561C85.7534 50.7114 86.7213 50.948 87.3605 51.4203C87.9998 51.8935 88.3203 52.6206 88.3203 53.6015C88.3203 54.1901 88.1857 54.6805 87.9166 55.0729C87.6476 55.4653 87.217 55.8181 86.6259 56.1297L88.9155 60.0098H86.1896L84.3901 56.5847Z" fill="white"/>
</g>
<mask id="mask11_511_1069" style="mask-type:luminance" maskUnits="userSpaceOnUse" x="0" y="0" width="195" height="61">
<path d="M0.473633 60.6526H194.982V0.00292969H0.473633V60.6526Z" fill="white"/>
</mask>
<g mask="url(#mask11_511_1069)">
<path fill-rule="evenodd" clip-rule="evenodd" d="M92.2701 52.972C92.001 53.4534 91.8665 54.2473 91.8665 55.3535C91.8665 56.4589 92.0026 57.2552 92.2766 57.7416C92.5498 58.2271 92.9689 58.4703 93.5339 58.4703C94.1161 58.4703 94.5393 58.2296 94.8043 57.7482C95.0693 57.2659 95.2014 56.468 95.2014 55.3535C95.2014 54.2473 95.0693 53.4534 94.8043 52.972C94.5393 52.4906 94.1161 52.2499 93.5339 52.2499C92.9607 52.2499 92.5392 52.4906 92.2701 52.972ZM96.6439 51.7545C97.3843 52.611 97.7553 53.8104 97.7553 55.3535C97.7553 56.3608 97.5897 57.233 97.2595 57.9691C96.9284 58.7044 96.4457 59.2691 95.8097 59.6614C95.1753 60.0538 94.4162 60.25 93.5339 60.25C92.2016 60.25 91.1669 59.8222 90.4305 58.9657C89.6934 58.1092 89.3257 56.9049 89.3257 55.3535C89.3257 54.3454 89.4912 53.4757 89.8223 52.7445C90.1525 52.0133 90.6336 51.4512 91.2647 51.0588C91.895 50.6664 92.6517 50.4702 93.5339 50.4702C94.8663 50.4702 95.9027 50.898 96.6439 51.7545Z" fill="white"/>
</g>
<mask id="mask12_511_1069" style="mask-type:luminance" maskUnits="userSpaceOnUse" x="0" y="0" width="195" height="61">
<path d="M0.473633 60.6526H194.982V0.00292969H0.473633V60.6526Z" fill="white"/>
</mask>
<g mask="url(#mask12_511_1069)">
<path fill-rule="evenodd" clip-rule="evenodd" d="M99.2109 60.0098V50.7114H104.862L104.61 52.4648H101.659V54.6987H104.253V56.4512H101.659V60.0098H99.2109Z" fill="white"/>
</g>
<mask id="mask13_511_1069" style="mask-type:luminance" maskUnits="userSpaceOnUse" x="0" y="0" width="195" height="61">
<path d="M0.473633 60.6526H194.982V0.00292969H0.473633V60.6526Z" fill="white"/>
</mask>
<g mask="url(#mask13_511_1069)">
<path fill-rule="evenodd" clip-rule="evenodd" d="M111.876 50.7114L111.624 52.4639H108.488V54.444H111.228V56.1429H108.488V58.2573H111.836V60.0098H106.04V50.7114H111.876Z" fill="white"/>
</g>
<mask id="mask14_511_1069" style="mask-type:luminance" maskUnits="userSpaceOnUse" x="0" y="0" width="195" height="61">
<path d="M0.473633 60.6526H194.982V0.00292969H0.473633V60.6526Z" fill="white"/>
</mask>
<g mask="url(#mask14_511_1069)">
<path fill-rule="evenodd" clip-rule="evenodd" d="M118.247 50.7785C118.78 50.9838 119.259 51.2912 119.683 51.7018L118.584 53.0124C117.949 52.5038 117.283 52.2499 116.586 52.2499C116.225 52.2499 115.948 52.3192 115.759 52.4577C115.569 52.5961 115.474 52.7899 115.474 53.0396C115.474 53.2177 115.523 53.3652 115.62 53.4806C115.717 53.5969 115.88 53.7082 116.11 53.8153C116.339 53.9225 116.701 54.056 117.194 54.2168C118.138 54.5201 118.829 54.901 119.266 55.3609C119.702 55.8201 119.921 56.4556 119.921 57.2668C119.921 57.8553 119.771 58.3755 119.471 58.8256C119.171 59.2765 118.737 59.626 118.167 59.8758C117.599 60.1255 116.93 60.25 116.163 60.25C114.697 60.25 113.503 59.7999 112.576 58.8989L113.78 57.5479C114.512 58.1546 115.275 58.4571 116.07 58.4571C116.484 58.4571 116.806 58.3664 117.036 58.1834C117.265 58.0004 117.38 57.7572 117.38 57.4547C117.38 57.2404 117.336 57.064 117.247 56.9263C117.16 56.7878 117.002 56.6625 116.777 56.5513C116.552 56.44 116.225 56.3171 115.792 56.1836C114.75 55.8531 114.018 55.4566 113.595 54.9925C113.172 54.5292 112.96 53.9447 112.96 53.2399C112.96 52.6868 113.107 52.2013 113.403 51.7817C113.698 51.3621 114.109 51.039 114.634 50.8123C115.159 50.5848 115.748 50.4702 116.401 50.4702C117.097 50.4702 117.713 50.5733 118.247 50.7785Z" fill="white"/>
</g>
<mask id="mask15_511_1069" style="mask-type:luminance" maskUnits="userSpaceOnUse" x="0" y="0" width="195" height="61">
<path d="M0.473633 60.6526H194.982V0.00292969H0.473633V60.6526Z" fill="white"/>
</mask>
<g mask="url(#mask15_511_1069)">
<path fill-rule="evenodd" clip-rule="evenodd" d="M126.187 50.7785C126.72 50.9838 127.199 51.2912 127.623 51.7018L126.524 53.0124C125.889 52.5038 125.223 52.2499 124.526 52.2499C124.165 52.2499 123.888 52.3192 123.699 52.4577C123.509 52.5961 123.414 52.7899 123.414 53.0396C123.414 53.2177 123.462 53.3652 123.56 53.4806C123.657 53.5969 123.82 53.7082 124.05 53.8153C124.279 53.9225 124.641 54.056 125.134 54.2168C126.078 54.5201 126.769 54.901 127.206 55.3609C127.642 55.8201 127.861 56.4556 127.861 57.2668C127.861 57.8553 127.711 58.3755 127.411 58.8256C127.111 59.2765 126.677 59.626 126.107 59.8758C125.538 60.1255 124.87 60.25 124.103 60.25C122.637 60.25 121.443 59.7999 120.516 58.8989L121.72 57.5479C122.452 58.1546 123.215 58.4571 124.01 58.4571C124.424 58.4571 124.746 58.3664 124.976 58.1834C125.205 58.0004 125.32 57.7572 125.32 57.4547C125.32 57.2404 125.276 57.064 125.187 56.9263C125.1 56.7878 124.942 56.6625 124.717 56.5513C124.492 56.44 124.165 56.3171 123.732 56.1836C122.69 55.8531 121.958 55.4566 121.535 54.9925C121.112 54.5292 120.9 53.9447 120.9 53.2399C120.9 52.6868 121.047 52.2013 121.343 51.7817C121.638 51.3621 122.049 51.039 122.574 50.8123C123.099 50.5848 123.688 50.4702 124.341 50.4702C125.037 50.4702 125.653 50.5733 126.187 50.7785Z" fill="white"/>
</g>
<mask id="mask16_511_1069" style="mask-type:luminance" maskUnits="userSpaceOnUse" x="0" y="0" width="195" height="61">
<path d="M0.473633 60.6526H194.982V0.00292969H0.473633V60.6526Z" fill="white"/>
</mask>
<g mask="url(#mask16_511_1069)">
<path fill-rule="evenodd" clip-rule="evenodd" d="M129.238 60.0088H131.686V50.7104H129.238V60.0088Z" fill="white"/>
</g>
<mask id="mask17_511_1069" style="mask-type:luminance" maskUnits="userSpaceOnUse" x="0" y="0" width="195" height="61">
<path d="M0.473633 60.6526H194.982V0.00292969H0.473633V60.6526Z" fill="white"/>
</mask>
<g mask="url(#mask17_511_1069)">
<path fill-rule="evenodd" clip-rule="evenodd" d="M136.099 52.972C135.83 53.4534 135.696 54.2473 135.696 55.3535C135.696 56.4589 135.832 57.2552 136.106 57.7416C136.379 58.2271 136.798 58.4703 137.363 58.4703C137.945 58.4703 138.368 58.2296 138.633 57.7482C138.898 57.2659 139.031 56.468 139.031 55.3535C139.031 54.2473 138.898 53.4534 138.633 52.972C138.368 52.4906 137.945 52.2499 137.363 52.2499C136.79 52.2499 136.368 52.4906 136.099 52.972ZM140.473 51.7545C141.213 52.611 141.584 53.8104 141.584 55.3535C141.584 56.3608 141.419 57.233 141.089 57.9691C140.758 58.7044 140.275 59.2691 139.639 59.6614C139.004 60.0538 138.245 60.25 137.363 60.25C136.031 60.25 134.996 59.8222 134.26 58.9657C133.523 58.1092 133.155 56.9049 133.155 55.3535C133.155 54.3454 133.32 53.4757 133.651 52.7445C133.982 52.0133 134.463 51.4512 135.094 51.0588C135.724 50.6664 136.481 50.4702 137.363 50.4702C138.695 50.4702 139.732 50.898 140.473 51.7545Z" fill="white"/>
</g>
<mask id="mask18_511_1069" style="mask-type:luminance" maskUnits="userSpaceOnUse" x="0" y="0" width="195" height="61">
<path d="M0.473633 60.6526H194.982V0.00292969H0.473633V60.6526Z" fill="white"/>
</mask>
<g mask="url(#mask18_511_1069)">
<path fill-rule="evenodd" clip-rule="evenodd" d="M150.305 60.0098H147.221L144.893 53.0129L144.933 53.294C145.021 53.909 145.089 54.4868 145.137 55.0268C145.186 55.5659 145.21 56.1792 145.21 56.8658V60.0098H143.04V50.7114H146.057L148.466 57.7355C148.36 57.067 148.278 56.4644 148.221 55.9294C148.163 55.3944 148.135 54.7786 148.135 54.0829V50.7114H150.305V60.0098Z" fill="white"/>
</g>
<mask id="mask19_511_1069" style="mask-type:luminance" maskUnits="userSpaceOnUse" x="0" y="0" width="195" height="61">
<path d="M0.473633 60.6526H194.982V0.00292969H0.473633V60.6526Z" fill="white"/>
</mask>
<g mask="url(#mask19_511_1069)">
<path fill-rule="evenodd" clip-rule="evenodd" d="M154.5 56.344H156.167L155.334 52.478L154.5 56.344ZM156.961 60.0098L156.551 58.1097H154.116L153.705 60.0098H151.165L153.891 50.7114H156.828L159.555 60.0098H156.961Z" fill="white"/>
</g>
<mask id="mask20_511_1069" style="mask-type:luminance" maskUnits="userSpaceOnUse" x="0" y="0" width="195" height="61">
<path d="M0.473633 60.6526H194.982V0.00292969H0.473633V60.6526Z" fill="white"/>
</mask>
<g mask="url(#mask20_511_1069)">
<path fill-rule="evenodd" clip-rule="evenodd" d="M162.863 50.7114V58.0834H166.396L166.132 60.0098H160.416V50.7114H162.863Z" fill="white"/>
</g>
<mask id="mask21_511_1069" style="mask-type:luminance" maskUnits="userSpaceOnUse" x="0" y="0" width="195" height="61">
<path d="M0.473633 60.6526H194.982V0.00292969H0.473633V60.6526Z" fill="white"/>
</mask>
<g mask="url(#mask21_511_1069)">
<path fill-rule="evenodd" clip-rule="evenodd" d="M172.531 50.7785C173.064 50.9838 173.543 51.2912 173.967 51.7018L172.869 53.0124C172.233 52.5038 171.567 52.2499 170.87 52.2499C170.509 52.2499 170.232 52.3192 170.043 52.4577C169.853 52.5961 169.759 52.7899 169.759 53.0396C169.759 53.2177 169.807 53.3652 169.904 53.4806C170.001 53.5969 170.164 53.7082 170.394 53.8153C170.623 53.9225 170.985 54.056 171.478 54.2168C172.423 54.5201 173.113 54.901 173.55 55.3609C173.986 55.8201 174.205 56.4556 174.205 57.2668C174.205 57.8553 174.055 58.3755 173.755 58.8256C173.455 59.2765 173.021 59.626 172.451 59.8758C171.883 60.1255 171.214 60.25 170.447 60.25C168.982 60.25 167.787 59.7999 166.86 58.8989L168.064 57.5479C168.796 58.1546 169.56 58.4571 170.354 58.4571C170.768 58.4571 171.09 58.3664 171.32 58.1834C171.549 58.0004 171.664 57.7572 171.664 57.4547C171.664 57.2404 171.62 57.064 171.531 56.9263C171.444 56.7878 171.287 56.6625 171.062 56.5513C170.837 56.44 170.509 56.3171 170.076 56.1836C169.035 55.8531 168.302 55.4566 167.879 54.9925C167.456 54.5292 167.244 53.9447 167.244 53.2399C167.244 52.6868 167.392 52.2013 167.687 51.7817C167.983 51.3621 168.393 51.039 168.918 50.8123C169.443 50.5848 170.032 50.4702 170.685 50.4702C171.381 50.4702 171.997 50.5733 172.531 50.7785Z" fill="white"/>
</g>
<mask id="mask22_511_1069" style="mask-type:luminance" maskUnits="userSpaceOnUse" x="0" y="0" width="195" height="61">
<path d="M0.473633 60.6526H194.982V0.00292969H0.473633V60.6526Z" fill="white"/>
</mask>
<g mask="url(#mask22_511_1069)">
<path fill-rule="evenodd" clip-rule="evenodd" d="M1.56836 36.1242H5.21318V26.7227H14.2943V23.6076H5.21318V17.9857H15.3274V14.8706H1.56836V36.1242Z" fill="white"/>
</g>
</g>
<defs>
<clipPath id="clip0_511_1069">
<rect width="194.88" height="61" fill="white" transform="translate(0.474121)"/>
</clipPath>
</defs>
</svg>
