<svg width="294" height="61" viewBox="0 0 294 61" fill="none" xmlns="http://www.w3.org/2000/svg"><g clip-path="url(#clip0_511_1174)"><path d="M90.647 13.09c-9.843 0-17.624 7.956-17.624 17.744 0 9.792 7.78 17.822 17.624 17.822 9.86 0 17.473-8.03 17.473-17.821 0-9.789-7.61-17.745-17.473-17.745zm0 32.64c-8.438 0-14.32-6.445-14.32-14.896s5.882-14.816 14.32-14.816c8.45 0 14.157 6.365 14.157 14.816S99.098 45.73 90.647 45.73z" fill="white"/><path d="M152.006 16.502h9.043V48.01h3.23V16.5h9.264c2.143 0 2.143-2.677 2.143-2.677h-25.822s0 2.677 2.14 2.677z" fill="white"/><path d="M140.388 15.991v16.772c0 8.287-3.314 12.898-10.934 12.898-7.625 0-10.94-4.611-10.94-12.898v-16.77c0-2.184-3.23-2.167-3.23-2.167v19.188c0 10.057 5.635 15.662 14.17 15.662 8.533 0 14.166-5.606 14.166-15.662V13.825s-3.232-.017-3.232 2.167z" fill="white"/><path d="M221.504 13.799h-5.078v34.295h5.078V13.799z" fill="white"/><path d="M242.315 27.826c-6.555-1.984-7.48-3.02-7.48-5.806 0-2.548 2.208-4.193 5.626-4.193 3.716 0 5.822 2.343 6.936 4.308l.515.91 4.073-2.476-.474-.87c-2.408-4.385-6.122-6.61-11.05-6.61-6.018 0-10.557 3.904-10.557 9.084 0 6.575 5.226 8.66 10.564 10.228 6.133 1.924 8.12 2.843 8.12 6.367 0 3.12-2.73 5.138-6.954 5.138-4.422 0-7.444-1.927-9.235-5.887l-.42-.919-4.49 2.003.385.93c2.254 5.442 7.4 8.69 13.76 8.69 7.313 0 12.035-3.938 12.035-10.035 0-6.866-5.863-9.207-11.353-10.862z" fill="white"/><path d="M276.468 13.09c-9.738 0-17.666 7.974-17.666 17.78 0 9.845 7.926 17.854 17.666 17.854 6.45 0 12.167-3.41 15.283-9.119l.835-1.523h-5.63l-.3.464c-2.237 3.457-5.855 5.362-10.187 5.362-6.37 0-11.198-4.239-12.275-10.39h29.616l.084-.933c.053-.587.08-1.162.08-1.714-.002-9.97-7.688-17.78-17.506-17.78zm-12.294 15.29c1.03-6.194 5.88-10.47 12.294-10.47 6.446 0 11.165 4.196 12.15 10.47h-24.444z" fill="white"/><path d="M204.204 18.026c-2.112 5.122-8.673 20.559-8.673 20.559-.15.34-.3.72-.436 1.108a18.4 18.4 0 0 0-.447-1.102c0 .001-6.666-15.25-9.135-20.68-1.987-4.368-4.575-4.11-7.2-4.11 5.31 11.876 15.61 34.924 15.61 34.924l1.132 2.538 1.13-2.538s9.954-22.687 15.274-34.923c-2.747 0-5.466-.11-7.254 4.226z" fill="white"/><path d="M46.34 32.77c-1.032 0-1.994.247-2.802.487-1.173.35-2.127.52-2.922.52-1.441 0-2.485-.543-3.285-1.702l-.018-.032-.016-.028a3.125 3.125 0 0 1-.39-1.486c0-.538.143-1.092.41-1.556.811-1.15 1.838-1.661 3.28-1.661.88 0 1.96.184 3.486.598.759.208 1.52.312 2.256.312 4.723 0 8.558-3.88 8.558-8.648 0-4.77-3.835-8.65-8.558-8.65-3.885 0-7.284 2.655-8.265 6.459-.856 3.232-1.837 5.136-4.336 5.327-.594-.011-1.102-.147-1.532-.401a3.19 3.19 0 0 1-1.082-1.07l-.018-.036-.016-.037c-1.01-2.226.138-4.025 2.46-6.384a8.644 8.644 0 0 0 2.523-6.133c.005-4.772-3.83-8.65-8.551-8.65-4.72 0-8.556 3.878-8.556 8.648 0 2.298.882 4.463 2.48 6.094l1.22 1.314c1.27 1.502 2.282 3.17 1.181 5.328l-.027.053-.037.047c-.28.365-.571.635-.896.825-.406.233-.891.372-1.412.394l-.035.004-.04-.006c-2.157-.168-3.335-1.514-4.072-4.642-.99-4.202-4.451-7.138-8.422-7.138-4.715.001-8.552 3.882-8.552 8.652 0 4.769 3.837 8.648 8.55 8.648.798 0 1.642-.136 2.664-.429 1.205-.35 2.142-.513 2.943-.513 1.455 0 2.509.548 3.309 1.724l.02.034.019.033c.233.457.364.975.364 1.456a3.07 3.07 0 0 1-.399 1.5c-.82 1.214-1.886 1.78-3.285 1.78-.73 0-1.577-.154-2.592-.463-.946-.29-1.963-.576-3.044-.576-4.713.004-8.55 3.885-8.55 8.659 0 4.77 3.837 8.65 8.55 8.65 4.023 0 7.425-3.011 8.477-7.492.618-2.633 1.881-3.962 3.976-4.178l.047-.004h.045c.363.017.905.1 1.43.407a3.16 3.16 0 0 1 1.125 1.147l.02.038.016.04c.822 2.052-.324 3.74-1.684 5.255l-.899.955a8.647 8.647 0 0 0-2.492 6.102c0 4.772 3.837 8.652 8.556 8.652 4.721-.001 8.555-3.882 8.555-8.653a8.65 8.65 0 0 0-2.447-6.053l-.06-.043-.034-.056c-2.235-2.263-3.376-4.001-2.55-6.124l.017-.04.023-.034a3.07 3.07 0 0 1 1.147-1.185 3.12 3.12 0 0 1 1.519-.414h.04l.038.005c2.503.289 3.538 2.352 4.397 5.591 1.104 3.63 4.392 6.088 8.174 6.088 4.722 0 8.557-3.88 8.557-8.65.002-4.776-3.833-8.657-8.557-8.657zm-.013-16.21c1.73 0 3.136 1.424 3.136 3.174 0 1.754-1.406 3.174-3.136 3.174-1.735 0-3.144-1.42-3.144-3.174 0-1.75 1.41-3.173 3.144-3.173zM8.933 22.91c-1.74 0-3.147-1.42-3.147-3.175 0-1.75 1.408-3.173 3.147-3.173 1.728 0 3.134 1.423 3.134 3.173 0 1.754-1.406 3.174-3.134 3.174zm0 21.702c-1.74 0-3.147-1.423-3.147-3.176 0-1.75 1.408-3.171 3.147-3.171 1.728 0 3.134 1.421 3.134 3.171 0 1.753-1.406 3.176-3.134 3.176zM27.54 55.504c-1.738 0-3.145-1.422-3.145-3.175 0-1.75 1.407-3.172 3.146-3.172 1.727 0 3.136 1.423 3.136 3.171 0 1.752-1.409 3.174-3.135 3.174zm.001-43.793c-1.738.001-3.145-1.42-3.145-3.173 0-1.751 1.407-3.173 3.146-3.173 1.727 0 3.136 1.42 3.136 3.173 0 1.754-1.409 3.174-3.135 3.174zm18.787 32.902c-1.735 0-3.144-1.423-3.144-3.176 0-1.75 1.41-3.171 3.144-3.171 1.73 0 3.136 1.421 3.136 3.171 0 1.753-1.406 3.176-3.136 3.176z" fill="white"/></g><defs><clipPath id="clip0_511_1174"><rect width="293.619" height="61" fill="white" transform="translate(0.353516)"/></clipPath></defs></svg>