<svg width="183" height="61" viewBox="0 0 183 61" fill="none" xmlns="http://www.w3.org/2000/svg"><g clip-path="url(#clip0_511_1043)"><path d="M91.936 30.117c-.316-.32-.726-.67-1.295-.894a10.002 10.002 0 0 0-1.958-.67l-1.137-.256c-.316-.096-.569-.16-.821-.256a3.305 3.305 0 0 1-.57-.254c-.157-.096-.252-.255-.315-.32-.096-.16-.096-.255-.096-.415 0-.158.095-.414.158-.573.095-.16.316-.256.569-.416.254-.094.57-.158.885-.158.57 0 1.074.16 1.296.415.316.255.506.575.506 1.054h3.507c0-.893-.253-1.628-.664-2.363-.411-.67-1.075-1.213-1.896-1.565-.822-.415-1.706-.574-2.875-.574-1.075 0-2.055.16-2.876.574-.821.32-1.485.895-1.958 1.566-.506.67-.727 1.405-.664 2.299 0 1.054.316 1.884 1.074 2.523.664.67 1.643 1.054 2.875 1.31l1.39.319c.507.095.886.254 1.233.318.316.16.506.256.663.415.158.16.158.32.158.575 0 .256-.094.415-.252.575s-.316.32-.569.415a2.73 2.73 0 0 1-.98.16 2.82 2.82 0 0 1-1.231-.256c-.316-.16-.57-.319-.822-.67-.158-.256-.316-.67-.316-1.054h-3.506c0 1.15.253 2.044.726 2.778.506.735 1.138 1.31 2.054 1.63.916.319 1.895.478 3.096.478 1.137 0 2.116-.16 2.938-.479.821-.32 1.484-.83 1.895-1.405.41-.67.664-1.405.664-2.3 0-.479-.094-.99-.252-1.469-.063-.222-.316-.637-.632-1.053z" fill="white"/><path d="M102.898 28.489H97.97v-5.335h-3.664v13.67h3.664V31.49h4.897v5.334h3.664V23.155h-3.663v5.334h.03z" fill="white"/><path d="M108.27 36.824H118V33.79h-6.035v-2.3h5.56v-3.033h-5.56v-2.364h6.13v-2.938h-9.826v13.67z" fill="white"/><path d="M130.1 30.277c.41-.67.662-1.47.662-2.46s-.252-1.788-.663-2.522c-.412-.671-.98-1.214-1.802-1.63-.726-.415-1.643-.574-2.622-.574h-5.813v13.67h3.696v-4.503h1.295l2.37 4.503h4.01l-2.78-5.174c.665-.224 1.265-.734 1.644-1.31zm-6.54-4.184h1.295c.41 0 .82.096 1.137.16.316.095.57.32.727.574.157.256.25.575.25.99 0 .416-.093.735-.25.895-.16.255-.412.415-.728.479a3.75 3.75 0 0 1-1.137.16h-1.296v-3.257z" fill="white"/><path d="M136.007 23.155h-3.665v13.67h9.162V33.79h-5.466V23.155h-.03z" fill="white"/><path d="M151.708 23.73c-.98-.576-2.117-.831-3.35-.831-1.23-.001-2.368.254-3.348.83-.98.574-1.8 1.309-2.37 2.363-.568 1.054-.884 2.3-.884 3.864 0 1.565.316 2.779.885 3.864.57 1.055 1.39 1.79 2.37 2.365.98.575 2.117.83 3.35.83 1.23 0 2.368-.255 3.348-.83s1.8-1.31 2.37-2.364c.568-1.052.884-2.298.884-3.863 0-1.565-.316-2.779-.885-3.864-.57-1.054-1.39-1.789-2.37-2.364zm-.822 8.367c-.252.575-.505.99-.98 1.31-.41.319-.884.414-1.547.414-.57.001-1.138-.158-1.55-.414-.41-.32-.726-.734-.978-1.31-.253-.574-.316-1.213-.316-2.043 0-.83.094-1.47.316-2.044.252-.576.505-.991.98-1.31.41-.32.884-.416 1.547-.416.568 0 1.136.16 1.547.415.41.319.727.734.98 1.309.252.574.315 1.212.315 2.043 0 .734-.158 1.47-.316 2.044z" fill="white"/><path d="M160.87 26.668c.41-.32.978-.48 1.546-.48.316 0 .664.097.98.16.253.097.505.256.726.416.158.16.316.415.506.67.095.256.158.576.253.83h3.76c-.095-.83-.253-1.628-.57-2.299-.315-.67-.725-1.213-1.294-1.628-.57-.48-1.137-.83-1.895-1.054-.726-.256-1.484-.32-2.37-.32-1.23 0-2.273.256-3.347.83-.98.576-1.8 1.31-2.37 2.364-.568 1.054-.884 2.3-.884 3.865 0 1.564.25 2.778.82 3.864.57 1.054 1.39 1.788 2.37 2.363.98.574 2.116.83 3.348.83.98 0 1.896-.16 2.622-.48.727-.319 1.39-.734 1.896-1.213a5.075 5.075 0 0 0 1.137-1.629c.253-.575.41-1.214.505-1.788h-3.76c-.094.32-.157.574-.252.83-.158.256-.252.415-.505.575-.157.16-.41.32-.726.415-.253.096-.568.16-.884.16-.57 0-1.138-.16-1.548-.415-.41-.256-.727-.735-.98-1.31-.252-.575-.316-1.213-.316-2.14 0-.83.095-1.469.316-2.044.158-.637.506-1.116.917-1.372z" fill="white"/><path d="m177.297 29.223 4.58-6.068h-4.264l-4.076 5.493h-.158v-5.493h-3.697v13.67h3.665V33.31l1.232-1.628 3.033 5.174h4.422l-4.738-7.633z" fill="white"/><path fill-rule="evenodd" clip-rule="evenodd" d="M.542.224H61.04V60.81H.542V.223zM49.257 15.97l7.045-.097c.632 0 1.232.575 1.263 1.182 0 .639-.473 1.213-1.137 1.213h-5.086c-1.706 0-3.19.671-4.328 1.725l-.664.735-3.285 3.353-2.78 2.94c0 .095-.063.159-.158.255L27.048 41.04c-.077.085-.164.185-.258.292-.291.334-.655.75-1.037 1.113-.727.734-1.39 1.405-1.8 1.724a1.27 1.27 0 0 0-.34.202 2.134 2.134 0 0 1-.166.117c-1.295 1.148-3.507 1.883-5.876 1.883-2.368 0-4.485-.735-5.875-1.788-.474-.352-1.043-.83-1.548-1.565a4.69 4.69 0 0 1-.569-.895c-.252-.35-.41-.83-.568-1.405-.021-.085-.046-.16-.07-.23-.046-.142-.088-.27-.088-.44 0-.037-.014-.092-.03-.16a1.7 1.7 0 0 1-.065-.415v-3.098l-.095-9.741c0-.735.569-1.31 1.295-1.31l14.627-.16c.727 0 1.295.576 1.295 1.31v5.973l14.058-10.892c0-.096.094-.096.094-.096l5.15-4.024a6.625 6.625 0 0 1 3.76-1.47h.315z" fill="white"/></g><defs><clipPath id="clip0_511_1043"><rect width="181.966" height="61" fill="white" transform="translate(0.354004)"/></clipPath></defs></svg>