<svg width="239" height="61" viewBox="0 0 239 61" fill="none" xmlns="http://www.w3.org/2000/svg"><path d="M234.725 47.958a17.34 17.34 0 0 0-1.13-.19c-.153-.02-.594.019-.958.076a7.326 7.326 0 0 0-1.437.514c-.42.21-.976.63-1.245.934-.268.306-.69 1.049-.92 1.64-.4 1.067-.4 1.163-.133 2.382.19.915.48 1.525.92 2.06.344.418 1.015.952 1.493 1.18.46.23 1.226.477 1.705.535.632.094 1.15.018 1.916-.25.65-.247 1.34-.685 1.82-1.18.42-.44.92-1.183 1.11-1.678.25-.63.346-1.182.27-1.85-.04-.533-.27-1.296-.46-1.715-.212-.42-.767-1.105-1.246-1.525-.562-.508-1.13-.82-1.705-.934z" fill="white"/><path d="M188.867.44c.077-.191 1.034-.268 3.697-.306 1.973-.019 10-.038 32.125-.038l.056 6.576c.02 3.622 0 6.767-.057 7.015-.06.229-.902 1.353-1.86 2.497a328.765 328.765 0 0 0-4.003 4.822 1261.55 1261.55 0 0 0-5.038 6.157 1112.46 1112.46 0 0 1-3.526 4.27c-.383.457-1.36 1.62-2.145 2.592-.787.953-1.898 2.287-2.472 2.974-.575.666-1.15 1.238-1.284 1.276-.153.019-.46-.4-.747-1.01-.268-.572-.48-1.087-.48-1.144 0-.057-.727-1.868-1.608-4.041-.882-2.191-1.974-4.898-2.415-6.06-.46-1.144-.9-2.212-.996-2.326-.096-.172.23-.724.957-1.658.594-.782 1.954-2.46 3.008-3.736 1.053-1.296 2.337-2.86 2.835-3.508.498-.648.92-1.22.9-1.296 0-.095-2.663-.152-5.938-.152-4.54 0-5.977-.057-6.073-.23-.077-.132-.384-.819-.67-1.524-.308-.724-.538-1.372-.538-1.487 0-.095-.172-.552-.363-.99-.212-.458-1.074-2.536-1.917-4.633-.862-2.096-1.513-3.926-1.456-4.04z" fill="white"/><path fill-rule="evenodd" clip-rule="evenodd" d="M18.435.248C18.32.058 16.96 0 12.727 0 8.455 0 7.133.057 7.076.23c-.058.132-.115 2.896-.134 6.155l-.058 5.91-6.034.095v8.387l6.034.095c.173 26.362.268 29.907.46 30.498.134.42.46 1.144.747 1.62a7.554 7.554 0 0 0 1.17 1.506c.383.343 1.168.877 1.743 1.163.574.285 1.705.685 2.49.875 1.226.306 2.165.363 6.609.363 2.835 0 5.325-.057 5.517-.153.286-.114.324-.495.324-4.04 0-2.155-.038-4.042-.095-4.194-.078-.228-.519-.285-2.243-.285-1.187-.02-2.586-.134-3.122-.267-.632-.172-1.092-.438-1.34-.763-.384-.514-.384-.82-.384-13.418V20.871c5.882-.095 6.935-.171 7.031-.343.078-.135.154-1.812.154-3.756s-.038-3.717-.095-3.965c-.097-.42-.135-.42-3.568-.477h-.016l-3.505-.038c-.152-9.17-.248-11.933-.325-12.047zm206.54 13.667c0-10.79-.058-13.915-.134-13.915-.095 0-.133 2.974-.095 6.614.02 3.66 0 6.824-.058 7.053-.057.248-.9 1.372-1.858 2.516a328.557 328.557 0 0 0-4.004 4.822 1262.45 1262.45 0 0 0-5.038 6.157 1104.6 1104.6 0 0 1-3.525 4.27l-.106.126c-.436.52-1.32 1.574-2.04 2.466-.785.953-1.896 2.288-2.47 2.974-.575.667-1.15 1.239-1.284 1.258-.153.038-.46-.381-.747-.991-.268-.572-.48-1.087-.48-1.144 0-.056-.727-1.867-1.608-4.06a519.16 519.16 0 0 1-2.414-6.042c-.46-1.162-.9-2.21-.996-2.344-.096-.153.23-.705.958-1.64.594-.78 1.954-2.458 3.007-3.735.25-.31.514-.633.777-.955a155.19 155.19 0 0 0 2.058-2.553c.498-.649.92-1.22.9-1.316 0-.076-.152-.133-.325-.114-.19 0-.23.038-.096.095.154.05.026.343-.383.877-.345.458-.67.858-.728.915-.057.056-.44.514-.862 1.028l-.6.737c-.37.46-.792.978-1.124 1.38-.517.647-1.475 1.81-2.126 2.591-.632.782-1.303 1.62-1.475 1.887-.288.458-.27.572.574 2.67.478 1.2.92 2.534.977 2.954.077.648.058.724-.172.514-.23-.19-.44-.056-1.264.764-.537.552-1.743 1.868-2.682 2.916a151.438 151.438 0 0 0-3.6 4.289c-1.055 1.314-1.994 2.477-2.108 2.59l-.068.081c-.138.165-.403.478-.64.779-.187.25-.858 1.066-1.673 2.056-.363.442-.755.917-1.144 1.393l-2.32 2.82.097 9.816c17.738.077 23.79.039 24.883-.057l1.993-.134c.92 1.62 1.168 2.23 1.168 2.382 0 .153.154.439.346.61.306.305.94.343 6.724.343h6.36c.344-.875.383-3.277.344-7.775-.057-5.719-.096-6.748-.345-6.9-.173-.115-3.985-.191-9.387-.191-5 0-9.214.076-9.348.152-.192.096-.192.267-.038.706.134.4.134.629 0 .762-.135.114-1.36.153-3.22.114a170.79 170.79 0 0 0-3.715-.095c-.383-.02-.747-.076-.804-.171-.058-.077.344-.706.9-1.41a51.022 51.022 0 0 1 1.302-1.678l.083-.1c.26-.315.898-1.09 1.507-1.864.69-.857 1.265-1.62 1.265-1.715 0-.076.287-.477.632-.896.364-.42 1.55-1.888 2.643-3.241.525-.64 1.22-1.496 1.935-2.375.8-.984 1.623-1.998 2.26-2.773a257.148 257.148 0 0 1 3.142-3.812l.458-.552c.43-.515.87-1.042 1.094-1.335.102-.127.292-.36.54-.662.53-.65 1.33-1.627 2.102-2.578a816.03 816.03 0 0 0 2.874-3.45c.44-.514 1.34-1.6 2.01-2.42l1.19-1.487zM192.467.133l3.678-.038c-7.222-.095-7.758-.057-7.758.19 0 .153.23.82.498 1.469l.205.478c.253.59.54 1.26.734 1.676.207.464.757 1.796 1.285 3.074l.17.414c.65 1.563.957 2.573.842 2.668-.096.077-1.896.096-4.003.038-2.09-.057-3.87-.057-3.967 0-.095.058-.153 2.25-.115 4.956l.04 4.86c9.25.077 12.048.04 12.163-.037.173-.113.077-.533-.287-1.486-.287-.743-.862-2.04-1.264-2.916-.422-.858-.748-1.659-.748-1.754 0-.114.747-.21 1.782-.229l1.762-.038c-2.663-.095-3.525-.228-3.64-.324-.095-.114-.42-.8-.708-1.525-.307-.724-.537-1.41-.537-1.506 0-.114-.17-.552-.363-1.01-.21-.438-1.073-2.497-1.915-4.575C189.46 2.46 188.77.63 188.77.477c0-.248.555-.286 3.697-.344zM51.805 11.17c-1.111-.19-2.816-.305-4.406-.286-1.419.02-2.76.057-2.97.095-.154.04-.562.113-1.018.194l-.515.091a24.81 24.81 0 0 0-2.202.515c-.575.152-1.648.553-2.395.896-.728.324-1.935.99-2.682 1.467-.728.477-2.011 1.525-2.816 2.326-.823.8-1.954 2.153-2.528 3.01-.575.877-1.246 2.06-1.495 2.63-.269.573-.614 1.43-.786 1.907-.153.477-.44 1.372-.613 2.001-.19.63-.44 1.907-.593 2.86-.134.953-.306 2.84-.383 4.193-.076 1.45-.038 3.47.096 4.862.115 1.315.364 3.03.517 3.812.153.782.556 2.192.881 3.145.307.952.881 2.267 1.265 2.954.364.686 1.11 1.791 1.647 2.458.536.687 1.532 1.697 2.222 2.269a31.9 31.9 0 0 0 2.203 1.66 41.32 41.32 0 0 0 2.107 1.2c.632.324 1.763.82 2.49 1.086.747.267 2.127.668 3.065.896 1.418.324 2.357.4 5.173.4 2.835 0 3.792-.076 5.325-.4 1.015-.228 2.528-.667 3.352-.99.805-.306 2.165-.973 3.008-1.45 1.091-.629 2.126-1.486 3.543-2.916 1.322-1.334 2.318-2.554 2.931-3.545.497-.838 1.11-2.153 1.379-2.916.267-.743.478-1.544.478-1.753 0-.209-.115-.4-.23-.438-.134-.019-2.855-.019-6.035 0l-5.804.057c-.844 1.544-1.495 2.363-1.993 2.802-.479.457-1.226.99-1.647 1.2-.422.21-1.303.515-1.954.687-.882.227-1.667.285-2.931.208-1.092-.057-2.184-.267-2.97-.553-.69-.247-1.704-.78-2.279-1.2-.575-.42-1.264-1.068-1.551-1.43-.288-.362-.805-1.182-1.13-1.81-.307-.63-.71-1.62-.863-2.193-.153-.572-.306-1.6-.345-2.287l-.057-1.24c23.466-.152 30.286-.209 30.324-.247.02-.02.038-1.43.038-3.145 0-1.696-.134-3.984-.268-5.09-.153-1.105-.46-2.649-.69-3.43a50.46 50.46 0 0 0-.728-2.288 20.724 20.724 0 0 0-.9-2.001 35.423 35.423 0 0 0-1.34-2.288c-.403-.628-1.342-1.772-2.089-2.535-.747-.78-1.743-1.695-2.222-2.038-.479-.343-1.417-.915-2.107-1.296-.69-.363-2.011-.915-2.97-1.24a24.652 24.652 0 0 0-3.543-.876zm44.633.267c-1.11-.19-3.122-.4-4.501-.439-1.36-.057-2.835-.057-3.257-.019-.398.035-1.412.156-2.33.266l-.16.02c-.939.114-2.241.323-2.874.476a61.47 61.47 0 0 0-2.01.572c-.48.171-1.514.628-2.3 1.048-.785.42-1.992 1.239-2.662 1.849-.69.592-1.629 1.678-2.127 2.422-.479.743-1.11 1.906-1.398 2.61-.288.725-.69 2.155-.901 3.203-.212 1.049-.384 2.116-.384 2.383 0 .267.134.515.287.572.153.057 2.643.095 5.517.095 4.042.02 5.249-.038 5.42-.229.116-.133.307-.648.441-1.162.117-.496.366-1.182.557-1.525.172-.325.46-.783.613-.993.153-.21.575-.628.92-.914.325-.286 1.187-.687 1.915-.896.9-.267 1.858-.382 3.2-.382 1.053 0 2.47.115 3.16.267.69.134 1.59.42 2.011.648.422.21.958.591 1.169.84.23.228.555.838.728 1.333.172.515.306 1.201.306 1.525 0 .343-.154.972-.346 1.392-.191.42-.593.953-.92 1.181-.306.23-.938.573-1.417.783-.479.21-1.59.515-2.49.667-.9.172-2.318.381-3.16.496l-1.55.208-2.282.306c-1.264.172-2.892.458-3.64.648-.727.191-1.896.534-2.585.763-.69.23-1.725.668-2.3.954-.574.286-1.57.915-2.202 1.372-.632.458-1.57 1.392-2.088 2.078-.498.667-1.092 1.563-1.284 1.982-.191.42-.536 1.316-.747 2.002-.23.686-.48 1.925-.537 2.764-.077.838-.077 2.42-.02 3.526.09 1.334.275 2.415.556 3.24.248.687.67 1.64.938 2.135.268.496.843 1.297 1.264 1.792.422.496 1.207 1.24 1.724 1.62.537.4 1.59 1.03 2.356 1.392.747.38 2.088.858 2.97 1.067 1.168.286 2.24.381 4.214.381 2.241 0 2.873-.076 4.406-.495.958-.267 2.28-.744 2.911-1.068.633-.305 1.456-.743 1.82-.972a26.436 26.436 0 0 0 1.533-1.067 27.8 27.8 0 0 0 1.877-1.525c.556-.477 1.073-.858 1.15-.839.076.018.268.8.44 1.715.172.915.44 1.944.575 2.25l.268.57h12.643c.095-1.543.037-1.658-.518-2.039-.345-.229-.747-.552-.882-.724-.134-.153-.383-.59-.555-.953-.307-.611-.345-2.06-.46-15.631-.076-9.627-.19-15.27-.325-15.822a17.898 17.898 0 0 0-.633-2.002c-.23-.628-.747-1.62-1.13-2.191-.402-.572-1.092-1.373-1.55-1.792-.46-.4-1.61-1.087-2.568-1.544-.94-.459-2.415-1.05-3.258-1.316-.843-.286-2.433-.668-3.544-.877zm48.465.095c-.843-.229-2.126-.362-4.023-.4-1.724-.038-3.218.038-3.927.19a25.87 25.87 0 0 0-2.107.553c-.517.172-1.475.63-2.107.991-.633.382-1.572 1.087-2.07 1.582-.517.496-1.38 1.487-1.916 2.23l-.996 1.316c-.21-1.906-.268-3.145-.25-3.984.02-.839-.037-1.64-.095-1.773-.095-.171-1.417-.228-5.593-.228h-5.46c-.153.666-.172 10.635-.153 22.586l.058 21.73h11.685c.19-27.506.25-29.87.498-30.593.153-.477.517-1.258.804-1.773.288-.496.805-1.106 1.15-1.353.325-.267 1.015-.649 1.532-.858.498-.23 1.57-.478 2.395-.573.957-.114 1.876-.114 2.623.02.632.113 1.533.4 2.01.628.48.248 1.093.686 1.38.991.27.286.69.877.9 1.296a8.6 8.6 0 0 1 .614 1.716c.172.667.268 5.375.345 15.725l.115 14.773h11.493c.192-22.683.307-28.554.44-29.069a17.41 17.41 0 0 1 .403-1.524c.096-.363.537-1.182.94-1.811.46-.686 1.13-1.392 1.685-1.754.517-.343 1.455-.762 2.088-.915.632-.152 1.628-.267 2.202-.286.575 0 1.533.134 2.108.286.574.153 1.38.496 1.78.763.384.266.92.762 1.19 1.086.248.343.67 1.106.9 1.677l.44 1.048.19 30.498c8.62.076 11.303.057 11.552 0l.422-.096c0-25.694-.077-31.946-.21-32.975-.116-.896-.327-2.097-.48-2.669-.134-.572-.594-1.677-.977-2.459-.46-.896-1.226-1.963-2.07-2.84-.727-.781-1.857-1.734-2.49-2.135-.63-.38-1.665-.896-2.298-1.124a22.665 22.665 0 0 0-2.432-.706c-.728-.152-2.05-.266-2.97-.266-.938 0-2.452.133-3.41.285-.938.173-2.375.573-3.16.878-.785.324-1.954.915-2.586 1.315-.632.42-1.552 1.163-2.03 1.659-.48.495-1.188 1.372-1.57 1.906-.404.553-.787 1.01-.902 1.01-.096 0-.517-.572-.9-1.296-.383-.705-1.264-1.85-1.954-2.535-.746-.744-1.742-1.506-2.413-1.83-.632-.324-1.705-.724-2.394-.915zm58.425 1.944c.997-.019.096-.057-2.01-.057-2.108 0-2.932.037-1.82.056 1.11.038 2.834.038 3.83 0zM44.142 21.08c.48-.172 1.284-.4 1.82-.477a17.66 17.66 0 0 1 1.399-.19c.23 0 1.054.095 1.801.247.768.153 1.706.4 2.07.553.364.153 1.092.61 1.629 1.01.516.4 1.167.972 1.435 1.297.268.304.69.953.958 1.43.268.476.651 1.448.824 2.153.172.724.325 1.601.325 2.63h-8.907c-8.352 0-8.908-.019-8.908-.343 0-.171.134-.857.288-1.525.153-.648.517-1.677.785-2.287.268-.59.824-1.544 1.245-2.097.402-.532 1.111-1.238 1.552-1.524.46-.304 1.207-.705 1.686-.876zm51.243 14.982c.536-.19 1.226-.496 1.532-.648l.575-.305.057 2.877c.038 1.754-.04 3.355-.173 4.04-.134.63-.44 1.621-.69 2.193-.268.572-.708 1.353-.996 1.715-.286.363-1.11 1.03-1.8 1.468-.708.458-1.953 1.03-2.758 1.296-1.207.38-1.877.476-3.41.476-1.609 0-2.068-.076-2.873-.458-.518-.247-1.246-.743-1.61-1.086-.345-.362-.766-.953-.939-1.315-.21-.458-.305-1.24-.305-2.478 0-1.278.095-2.022.325-2.536.173-.382.67-1.049 1.092-1.468.422-.42 1.111-.934 1.533-1.144.421-.21 1.513-.59 2.433-.839a69.016 69.016 0 0 1 4.367-.952c1.475-.286 3.122-.648 3.64-.838z" fill="white"/><path d="M207.315 46.413c-.326-.934-.345-1.163-.135-1.296.154-.076 4.33-.115 18.275-.038l.04 6.956c.037 5.28 0 7.014-.193 7.205-.172.192-1.552.249-6.168.249-4.962-.02-6.015-.058-6.36-.306-.25-.152-.44-.4-.44-.534 0-.114-.25-.743-.556-1.372-.307-.63-1.073-2.44-1.705-4.003-.632-1.582-1.437-3.507-1.762-4.289-.325-.781-.785-1.944-.995-2.573z" fill="white"/></svg>