<svg width="239" height="61" viewBox="0 0 239 61" fill="none" xmlns="http://www.w3.org/2000/svg">
<path d="M234.725 47.9583C234.265 47.863 233.748 47.7867 233.595 47.7677C233.442 47.7486 233.001 47.7867 232.637 47.8439C232.273 47.9201 231.622 48.1489 231.2 48.3585C230.779 48.5682 230.224 48.9876 229.955 49.2925C229.687 49.5975 229.266 50.3409 229.036 50.9318C228.634 51.9992 228.634 52.0945 228.902 53.3145C229.093 54.2294 229.381 54.8394 229.821 55.3731C230.166 55.7924 230.837 56.3261 231.315 56.5549C231.775 56.7836 232.541 57.0314 233.02 57.0886C233.652 57.1839 234.17 57.1076 234.936 56.8408C235.587 56.593 236.277 56.1546 236.756 55.659C237.177 55.2206 237.675 54.4772 237.867 53.9816C238.116 53.3526 238.212 52.7998 238.135 52.1327C238.097 51.5989 237.867 50.8365 237.675 50.4172C237.464 49.9978 236.909 49.3116 236.43 48.8923C235.868 48.384 235.3 48.0726 234.725 47.9583Z" fill="white"/>
<path d="M188.867 0.439293C188.944 0.248681 189.901 0.172436 192.564 0.134314C194.537 0.115253 202.564 0.0961914 224.689 0.0961914L224.746 6.6723C224.765 10.2939 224.746 13.439 224.689 13.6868C224.631 13.9156 223.788 15.0402 222.831 16.1838C221.854 17.3275 220.053 19.5005 218.827 21.0063C217.601 22.4931 215.321 25.276 213.789 27.1631C212.237 29.0501 210.647 30.9753 210.264 31.4328C209.881 31.8903 208.904 33.053 208.119 34.0251C207.333 34.9782 206.222 36.3125 205.648 36.9987C205.073 37.6658 204.498 38.2376 204.364 38.2758C204.211 38.2948 203.904 37.8755 203.617 37.2655C203.349 36.6937 203.138 36.179 203.138 36.1218C203.138 36.0647 202.41 34.2538 201.529 32.0809C200.648 29.8888 199.556 27.1821 199.115 26.0194C198.656 24.8757 198.215 23.8083 198.119 23.6939C198.024 23.5224 198.349 22.9696 199.077 22.0356C199.671 21.2541 201.031 19.5767 202.085 18.2996C203.138 17.0035 204.422 15.4404 204.92 14.7924C205.418 14.1443 205.839 13.5725 205.82 13.4962C205.82 13.4009 203.157 13.3437 199.882 13.3437C195.342 13.3437 193.905 13.2865 193.809 13.115C193.733 12.9816 193.426 12.2954 193.139 11.5901C192.832 10.8658 192.602 10.2177 192.602 10.1033C192.602 10.008 192.43 9.55054 192.239 9.11213C192.028 8.65466 191.166 6.577 190.323 4.48026C189.461 2.38353 188.81 0.55366 188.867 0.439293Z" fill="white"/>
<path fill-rule="evenodd" clip-rule="evenodd" d="M18.4353 0.247795C18.3203 0.0571836 16.9603 0 12.7268 0C8.45501 0 7.13325 0.0571836 7.07578 0.228734C7.01831 0.362163 6.96084 3.12604 6.94169 6.3855L6.88422 12.2945L0.850098 12.3898V20.7767L6.88422 20.872C7.05662 47.2336 7.1524 50.779 7.34396 51.3699C7.47806 51.7893 7.80371 52.5136 8.09105 52.9901C8.35923 53.4666 8.87644 54.1338 9.25956 54.4959C9.64268 54.8391 10.4281 55.3728 11.0028 55.6587C11.5774 55.9446 12.7076 56.3449 13.493 56.5355C14.719 56.8405 15.6576 56.8977 20.1018 56.8977C22.9369 56.8977 25.4272 56.8405 25.6187 56.7452C25.9061 56.6308 25.9444 56.2496 25.9444 52.7042C25.9444 50.5503 25.9061 48.6632 25.8486 48.5107C25.772 48.282 25.3314 48.2248 23.6074 48.2248C22.4197 48.2058 21.0213 48.0914 20.4849 47.958C19.8528 47.7864 19.3931 47.5196 19.144 47.1955C18.7609 46.6809 18.7609 46.3759 18.7609 33.7766V33.7764V20.872C24.6418 20.7767 25.6954 20.7005 25.7911 20.5289C25.8678 20.3955 25.9444 18.7181 25.9444 16.7738C25.9444 14.8296 25.9061 13.0569 25.8486 12.8091C25.753 12.3904 25.7146 12.3898 22.2821 12.3329L22.2664 12.3326L18.7609 12.2945C18.6077 3.12604 18.5119 0.362163 18.4353 0.247795ZM224.975 13.9147C224.975 3.12604 224.917 0 224.841 0C224.745 0 224.707 2.97355 224.745 6.61423C224.764 10.274 224.745 13.4381 224.687 13.6669C224.63 13.9147 223.787 15.0393 222.829 16.183C221.852 17.3266 220.052 19.4996 218.826 21.0054C217.6 22.4922 215.32 25.2751 213.788 27.1622C212.236 29.0493 210.646 30.9744 210.263 31.4319L210.157 31.5581C209.721 32.0787 208.838 33.1318 208.117 34.0242C207.332 34.9773 206.221 36.3116 205.646 36.9978C205.072 37.6649 204.497 38.2368 204.363 38.2558C204.21 38.2939 203.903 37.8746 203.616 37.2646C203.348 36.6928 203.137 36.1781 203.137 36.121C203.137 36.0638 202.409 34.253 201.528 32.0609C200.647 29.8879 199.555 27.1622 199.114 26.0185C198.654 24.8558 198.214 23.8074 198.118 23.674C198.022 23.5215 198.348 22.9687 199.076 22.0347C199.67 21.2532 201.03 19.5758 202.083 18.2987C202.334 17.9905 202.597 17.6671 202.86 17.3446C203.703 16.3109 204.539 15.2854 204.918 14.7915C205.416 14.1434 205.838 13.5716 205.819 13.4763C205.819 13.4 205.666 13.3428 205.493 13.3619C205.302 13.3619 205.263 13.4 205.397 13.4572C205.551 13.508 205.423 13.8003 205.014 14.334C204.669 14.7915 204.344 15.1918 204.286 15.249C204.229 15.3061 203.846 15.7636 203.424 16.2783C203.264 16.4741 203.054 16.7334 202.825 17.0152C202.453 17.4741 202.032 17.9926 201.7 18.3941C201.183 19.0421 200.225 20.2049 199.574 20.9864C198.942 21.7679 198.271 22.6066 198.099 22.8734C197.812 23.3309 197.831 23.4453 198.674 25.542C199.152 26.7429 199.593 28.0771 199.651 28.4965C199.727 29.1446 199.708 29.2208 199.478 29.0111C199.248 28.8205 199.038 28.954 198.214 29.7736C197.677 30.3264 196.471 31.6416 195.532 32.6899C194.613 33.7383 192.984 35.6635 191.931 36.9787C190.877 38.2939 189.938 39.4567 189.824 39.571C189.807 39.5905 189.784 39.6178 189.756 39.6514C189.618 39.8148 189.353 40.1284 189.115 40.4288C188.929 40.6794 188.258 41.4957 187.443 42.4864C187.08 42.9275 186.688 43.4032 186.299 43.8789L183.981 46.6999L184.077 56.5164C201.815 56.5927 207.868 56.5546 208.96 56.4593L210.953 56.3258C211.872 57.946 212.121 58.556 212.121 58.7085C212.121 58.861 212.274 59.1469 212.466 59.3184C212.772 59.6234 213.405 59.6615 219.19 59.6615H225.549C225.894 58.7847 225.933 56.383 225.894 51.8846C225.837 46.1662 225.798 45.1369 225.549 44.9844C225.377 44.87 221.565 44.7938 216.163 44.7938C211.163 44.7938 206.949 44.87 206.815 44.9463C206.623 45.0416 206.623 45.2132 206.777 45.6516C206.911 46.0518 206.911 46.2806 206.777 46.414C206.642 46.5284 205.416 46.5665 203.558 46.5284C201.911 46.4712 200.244 46.4331 199.842 46.4331C199.459 46.414 199.095 46.3568 199.038 46.2615C198.98 46.1853 199.382 45.5563 199.938 44.851C200.474 44.1267 201.068 43.3833 201.24 43.1736C201.261 43.1491 201.288 43.1156 201.323 43.074C201.582 42.7593 202.221 41.9848 202.83 41.2103C203.52 40.3525 204.095 39.5901 204.095 39.4948C204.095 39.4185 204.382 39.0183 204.727 38.5989C205.091 38.1796 206.278 36.7119 207.37 35.3585C207.895 34.7197 208.59 33.8643 209.305 32.9848C210.104 32.0009 210.928 30.9869 211.566 30.212C212.753 28.7443 214.171 27.0288 214.707 26.3997C214.851 26.2257 215.008 26.0378 215.165 25.8485C215.595 25.3328 216.035 24.8055 216.259 24.5127C216.362 24.3858 216.552 24.1537 216.799 23.8514C217.331 23.1999 218.13 22.2228 218.902 21.2723C220.052 19.8999 221.335 18.3559 221.776 17.8222C222.216 17.3076 223.117 16.2211 223.787 15.4014L224.975 13.9147ZM192.467 0.133428L196.145 0.095306C188.923 0 188.387 0.0381224 188.387 0.285918C188.387 0.438407 188.617 1.10555 188.885 1.75363C188.949 1.90161 189.018 2.06365 189.09 2.23206C189.343 2.82293 189.63 3.49221 189.824 3.90754C190.031 4.37171 190.581 5.70417 191.109 6.98195L191.279 7.39574C191.931 8.95876 192.237 9.969 192.122 10.0643C192.026 10.1406 190.226 10.1596 188.119 10.1024C186.031 10.0452 184.249 10.0452 184.153 10.1024C184.058 10.1596 184 12.3517 184.038 15.0583L184.077 19.9189C193.329 19.9952 196.126 19.9571 196.241 19.8808C196.413 19.7665 196.317 19.3471 195.953 18.3941C195.666 17.6507 195.091 16.3545 194.689 15.4777C194.268 14.6199 193.942 13.8194 193.942 13.7241C193.942 13.6097 194.689 13.5144 195.724 13.4953L197.486 13.4572C194.823 13.3619 193.961 13.2285 193.846 13.1332C193.751 13.0188 193.425 12.3326 193.138 11.6083C192.831 10.8839 192.601 10.1977 192.601 10.1024C192.601 9.98806 192.429 9.54966 192.237 9.09219C192.026 8.65378 191.164 6.59517 190.322 4.5175C189.46 2.45889 188.77 0.629019 188.77 0.47653C188.77 0.228734 189.325 0.190612 192.467 0.133428ZM51.8049 11.1699C50.6939 10.9792 48.989 10.8649 47.3991 10.8839C45.9815 10.903 44.6406 10.9411 44.4299 10.9792C44.2761 11.021 43.8675 11.0931 43.4122 11.1735C43.2435 11.2033 43.0683 11.2342 42.8974 11.2652C42.2653 11.3795 41.2691 11.6083 40.6945 11.7798C40.1198 11.9323 39.0471 12.3326 38.3 12.6757C37.5721 12.9997 36.3652 13.6669 35.6181 14.1434C34.8902 14.6199 33.6068 15.6683 32.8022 16.4689C31.9785 17.2694 30.8483 18.6228 30.2736 19.4805C29.699 20.3574 29.0285 21.5391 28.7795 22.111C28.5113 22.6828 28.1665 23.5406 27.9941 24.0171C27.8408 24.4936 27.5535 25.3895 27.3811 26.0185C27.1895 26.6475 26.9405 27.9246 26.7873 28.8777C26.6532 29.8308 26.4808 31.7178 26.4041 33.0712C26.3275 34.5198 26.3658 36.5403 26.4999 37.9318C26.6148 39.247 26.8639 40.9625 27.0171 41.744C27.1704 42.5255 27.5726 43.936 27.8983 44.8891C28.2048 45.8422 28.7795 47.1574 29.1626 47.8436C29.5266 48.5298 30.2736 49.6353 30.81 50.3025C31.3464 50.9887 32.3425 51.9989 33.0321 52.5708C33.7217 53.1426 34.7178 53.886 35.235 54.2291C35.7714 54.5531 36.71 55.1059 37.3422 55.4299C37.9743 55.754 39.1045 56.2496 39.8325 56.5164C40.5795 56.7833 41.9588 57.1836 42.8974 57.4123C44.3149 57.7364 45.2536 57.8126 48.0695 57.8126C50.9046 57.8126 51.8624 57.7364 53.3949 57.4123C54.4101 57.1836 55.9234 56.7452 56.7472 56.4211C57.5517 56.1161 58.9118 55.449 59.7546 54.9725C60.8465 54.3435 61.8809 53.4857 63.2985 52.0561C64.6202 50.7218 65.6164 49.5019 66.2293 48.5107C66.7274 47.672 67.3404 46.3568 67.6086 45.5944C67.8768 44.851 68.0875 44.0504 68.0875 43.8407C68.0875 43.6311 67.9725 43.4405 67.8576 43.4023C67.7235 43.3833 65.0034 43.3833 61.8235 43.4023L56.0192 43.4595C55.1764 45.0035 54.5251 45.8231 54.027 46.2615C53.5481 46.719 52.801 47.2527 52.3796 47.4624C51.9582 47.672 51.077 47.977 50.4257 48.1486C49.5445 48.3773 48.7591 48.4345 47.4948 48.3582C46.4029 48.3011 45.3111 48.0914 44.5257 47.8055C43.836 47.5577 42.8208 47.024 42.2461 46.6046C41.6714 46.1853 40.9818 45.5372 40.6945 45.175C40.4071 44.8129 39.8899 43.9932 39.5643 43.3642C39.2578 42.7352 38.8555 41.744 38.7023 41.1722C38.549 40.6003 38.3958 39.571 38.3574 38.8848L38.3 37.6459C61.766 37.4934 68.5855 37.4362 68.6238 37.3981C68.643 37.379 68.6622 35.9685 68.6622 34.253C68.6622 32.5565 68.5281 30.2692 68.394 29.1636C68.2407 28.0581 67.9342 26.5141 67.7044 25.7326C67.4745 24.9511 67.1488 23.9218 66.9764 23.4453C66.804 22.9687 66.4017 22.0729 66.0761 21.4438C65.7505 20.8148 65.1375 19.7855 64.7352 19.1565C64.3329 18.5275 63.3943 17.3838 62.6472 16.6214C61.9001 15.8399 60.904 14.9249 60.4251 14.5818C59.9462 14.2387 59.0076 13.6669 58.3179 13.2857C57.6283 12.9235 56.3066 12.3707 55.3488 12.0467C54.4101 11.7226 52.801 11.3223 51.8049 11.1699ZM96.4383 11.4367C95.3272 11.2461 93.3159 11.0364 91.9366 10.9983C90.5766 10.9411 89.1015 10.9411 88.6801 10.9792C88.282 11.0153 87.2684 11.1363 86.35 11.246L86.1898 11.2652C85.2512 11.3795 83.9486 11.5892 83.3165 11.7417C82.6843 11.9132 81.784 12.161 81.3051 12.3135C80.8262 12.4851 79.7918 12.9425 79.0064 13.3619C78.221 13.7812 77.0142 14.6009 76.3437 15.2108C75.6541 15.8017 74.7154 16.8882 74.2174 17.6316C73.7385 18.375 73.1063 19.5377 72.819 20.243C72.5317 20.9673 72.1294 22.3969 71.9187 23.4453C71.708 24.4936 71.5355 25.5611 71.5355 25.8279C71.5355 26.0948 71.6696 26.3426 71.8229 26.3997C71.9761 26.4569 74.4664 26.4951 77.3398 26.4951C81.3817 26.5141 82.5885 26.4569 82.7609 26.2663C82.8759 26.1329 83.0674 25.6182 83.2015 25.1036C83.3165 24.608 83.5655 23.9218 83.757 23.5787C83.9294 23.2547 84.2168 22.7972 84.37 22.5875C84.5233 22.3778 84.9447 21.9585 85.2895 21.6726C85.6152 21.3867 86.4772 20.9864 87.2051 20.7767C88.1054 20.5098 89.0632 20.3955 90.4042 20.3955C91.4577 20.3955 92.8753 20.5098 93.5649 20.6623C94.2545 20.7958 95.1548 21.0817 95.5763 21.3104C95.9977 21.5201 96.5341 21.9013 96.7448 22.1491C96.9746 22.3778 97.3003 22.9878 97.4727 23.4834C97.6451 23.998 97.7792 24.6842 97.7792 25.0083C97.7792 25.3514 97.6259 25.9804 97.4344 26.3997C97.2428 26.8191 96.8406 27.3528 96.5149 27.5815C96.2084 27.8103 95.5763 28.1534 95.0974 28.3631C94.6185 28.5727 93.5074 28.8777 92.6071 29.0302C91.7068 29.2017 90.2892 29.4114 89.4464 29.5258C89.0675 29.5772 88.5105 29.6517 87.8973 29.7338C87.1464 29.8342 86.3111 29.946 85.6152 30.0404C84.3509 30.212 82.7226 30.4979 81.9755 30.6885C81.2476 30.8791 80.0791 31.2222 79.3895 31.451C78.6999 31.6797 77.6655 32.1181 77.0908 32.404C76.5161 32.6899 75.52 33.319 74.8878 33.7764C74.2557 34.2339 73.3171 35.1679 72.7998 35.8541C72.3018 36.5212 71.7079 37.4171 71.5164 37.8365C71.3248 38.2558 70.98 39.1517 70.7693 39.8379C70.5394 40.5241 70.2904 41.7631 70.2329 42.6018C70.1563 43.4405 70.1563 45.0225 70.2138 46.1281C70.3032 47.4624 70.4883 48.5425 70.7693 49.3685C71.0183 50.0547 71.4398 51.0078 71.7079 51.5033C71.9761 51.9989 72.5508 52.7995 72.9722 53.2951C73.3937 53.7907 74.1791 54.5341 74.6963 54.9153C75.2326 55.3156 76.2862 55.9446 77.0525 56.3068C77.7995 56.688 79.1404 57.1645 80.0216 57.3742C81.1901 57.6601 82.2629 57.7554 84.2359 57.7554C86.4772 57.7554 87.1093 57.6792 88.6418 57.2598C89.5996 56.993 90.9214 56.5164 91.5535 56.1924C92.1857 55.8874 93.0094 55.449 93.3733 55.2203C93.7373 54.9915 94.4269 54.515 94.9058 54.1528C95.3847 53.8097 96.2276 53.1235 96.7831 52.628C97.3386 52.1514 97.8558 51.7702 97.9324 51.7893C98.0091 51.8083 98.2006 52.5898 98.373 53.5048C98.5454 54.4197 98.8136 55.449 98.9477 55.754L99.2159 56.3258H111.859C111.955 54.7819 111.897 54.6675 111.342 54.2863C110.997 54.0575 110.595 53.7335 110.46 53.562C110.326 53.4095 110.077 52.9711 109.905 52.6089C109.598 51.9989 109.56 50.5503 109.445 36.9787C109.369 27.3528 109.254 21.7107 109.12 21.1579C109.005 20.6814 108.736 19.7855 108.487 19.1565C108.258 18.5275 107.74 17.5363 107.357 16.9645C106.955 16.3926 106.265 15.5921 105.806 15.1727C105.346 14.7724 104.196 14.0862 103.239 13.6288C102.3 13.1713 100.825 12.5804 99.9821 12.3135C99.1393 12.0276 97.5493 11.6464 96.4383 11.4367ZM144.903 11.532C144.06 11.3033 142.777 11.1699 140.88 11.1317C139.156 11.0936 137.662 11.1699 136.953 11.3223C136.321 11.4558 135.382 11.7036 134.846 11.8751C134.329 12.0467 133.371 12.5041 132.739 12.8663C132.107 13.2475 131.168 13.9528 130.67 14.4484C130.153 14.944 129.291 15.9352 128.754 16.6785L127.758 17.9938C127.548 16.0876 127.49 14.8487 127.509 14.01C127.528 13.1713 127.471 12.3707 127.413 12.2373C127.318 12.0657 125.996 12.0086 121.82 12.0086H116.36C116.207 12.6757 116.188 22.6447 116.207 34.5961L116.265 56.3258H127.95C128.141 28.8205 128.199 26.4569 128.448 25.7326C128.601 25.2561 128.965 24.4746 129.252 23.9599C129.54 23.4643 130.057 22.8544 130.402 22.6066C130.727 22.3397 131.417 21.9585 131.934 21.7488C132.432 21.5201 133.505 21.2723 134.329 21.177C135.287 21.0626 136.206 21.0626 136.953 21.196C137.585 21.3104 138.486 21.5963 138.964 21.8251C139.443 22.0729 140.056 22.5113 140.344 22.8162C140.612 23.1022 141.033 23.6931 141.244 24.1124C141.455 24.5318 141.742 25.2942 141.857 25.8279C142.029 26.4951 142.125 31.2032 142.202 41.5534L142.317 56.3258H153.81C154.002 33.643 154.117 27.7722 154.251 27.2575C154.347 26.781 154.538 26.0948 154.653 25.7326C154.749 25.3704 155.19 24.5508 155.592 23.9218C156.052 23.2356 156.722 22.5303 157.278 22.1682C157.795 21.8251 158.733 21.4057 159.366 21.2532C159.998 21.1007 160.994 20.9864 161.568 20.9673C162.143 20.9673 163.101 21.1007 163.676 21.2532C164.25 21.4057 165.055 21.7488 165.457 22.0157C165.84 22.2825 166.377 22.7781 166.645 23.1022C166.894 23.4453 167.315 24.2077 167.545 24.7795L167.986 25.8279L168.177 56.3258C176.797 56.4021 179.479 56.383 179.728 56.3258L180.15 56.2305C180.15 30.536 180.073 24.284 179.939 23.2547C179.824 22.3588 179.613 21.1579 179.46 20.5861C179.326 20.0143 178.866 18.9087 178.483 18.1272C178.023 17.2313 177.257 16.1639 176.414 15.2871C175.686 14.5056 174.556 13.5525 173.924 13.1522C173.292 12.771 172.258 12.2563 171.625 12.0276C170.993 11.7989 169.901 11.4748 169.193 11.3223C168.465 11.1699 167.143 11.0555 166.223 11.0555C165.285 11.0555 163.771 11.1889 162.814 11.3414C161.875 11.513 160.438 11.9132 159.653 12.2182C158.868 12.5423 157.699 13.1332 157.067 13.5334C156.435 13.9528 155.515 14.6962 155.036 15.1918C154.557 15.6874 153.849 16.5642 153.466 17.0979C153.063 17.6507 152.68 18.1081 152.565 18.1081C152.469 18.1081 152.048 17.5363 151.665 16.812C151.282 16.1067 150.401 14.963 149.711 14.2768C148.964 13.5334 147.968 12.771 147.297 12.447C146.665 12.1229 145.592 11.7226 144.903 11.532ZM203.328 13.4763C204.325 13.4572 203.424 13.4191 201.317 13.4191C199.21 13.4191 198.386 13.4572 199.497 13.4763C200.608 13.5144 202.332 13.5144 203.328 13.4763ZM44.1425 21.0797C44.6214 20.9081 45.426 20.6794 45.9623 20.6031C46.4987 20.5078 47.1117 20.4316 47.3607 20.4125C47.5906 20.4125 48.4143 20.5078 49.1614 20.6603C49.9276 20.8128 50.8663 21.0606 51.2302 21.2131C51.5942 21.3656 52.3221 21.8231 52.8585 22.2233C53.3757 22.6236 54.027 23.1955 54.2952 23.5195C54.5634 23.8245 54.9848 24.4726 55.253 24.9491C55.5212 25.4256 55.9043 26.3977 56.0767 27.103C56.2491 27.8273 56.4023 28.7041 56.4023 29.7334H47.4948C39.1428 29.7334 38.5873 29.7144 38.5873 29.3903C38.5873 29.2188 38.7214 28.5326 38.8746 27.8654C39.0279 27.2174 39.3919 26.1881 39.66 25.5781C39.9282 24.9872 40.4837 24.0341 40.9052 23.4814C41.3074 22.9477 42.0162 22.2424 42.4568 21.9565C42.9165 21.6515 43.6636 21.2512 44.1425 21.0797ZM95.3847 36.0618C95.9211 35.8711 96.6107 35.5662 96.9172 35.4137L97.4918 35.1087L97.5493 37.9869C97.5876 39.7406 97.511 41.3417 97.3769 42.0279C97.2428 42.6569 96.9363 43.6481 96.6873 44.2199C96.4191 44.7918 95.9785 45.5733 95.6912 45.9355C95.4038 46.2976 94.5801 46.9648 93.8905 47.4032C93.1818 47.8606 91.9366 48.4325 91.1321 48.6993C89.9252 49.0806 89.2548 49.1759 87.7223 49.1759C86.1132 49.1759 85.6535 49.0996 84.8489 48.7184C84.3317 48.4706 83.6038 47.975 83.2398 47.6319C82.895 47.2697 82.4736 46.6788 82.3012 46.3167C82.0905 45.8592 81.9947 45.0777 81.9947 43.8387C81.9947 42.5616 82.0905 41.8182 82.3203 41.3036C82.4927 40.9224 82.9908 40.2552 83.4122 39.8359C83.8336 39.4165 84.5233 38.9019 84.9447 38.6922C85.3661 38.4825 86.458 38.1013 87.3775 37.8535C88.3161 37.6057 90.2701 37.1673 91.7451 36.9005C93.2201 36.6145 94.8675 36.2524 95.3847 36.0618Z" fill="white"/>
<path d="M207.315 46.413C206.989 45.479 206.97 45.2502 207.18 45.1168C207.334 45.0405 211.51 45.0024 225.455 45.0787L225.494 52.036C225.532 57.316 225.494 59.0505 225.302 59.2411C225.13 59.4317 223.75 59.4889 219.134 59.4889C214.172 59.4699 213.119 59.4317 212.774 59.1839C212.525 59.0315 212.333 58.7837 212.333 58.6502C212.333 58.5359 212.084 57.9068 211.778 57.2778C211.471 56.6488 210.705 54.838 210.073 53.275C209.441 51.6929 208.636 49.7677 208.311 48.9862C207.985 48.2047 207.525 47.042 207.315 46.413Z" fill="white"/>
</svg>
