<svg width="217" height="61" viewBox="0 0 217 61" fill="none" xmlns="http://www.w3.org/2000/svg"><g clip-path="url(#clip0_511_1018)"><path d="M106.51 12.574H81.874V6.598h32.822v5.976L89.02 47.182v1.245h25.607v5.975H80.76v-5.975l25.747-34.608v-1.246h.003z" fill="white"/><path d="M131.28 55.246c-2.55 0-4.79-.468-6.713-1.407-1.923-.937-3.524-2.227-4.797-3.868-1.276-1.64-2.227-3.607-2.852-5.905-.626-2.296-.94-4.828-.94-7.592s.336-5.238 1.01-7.556c.67-2.322 1.67-4.301 2.99-5.942a14.298 14.298 0 0 1 4.796-3.867c1.877-.935 4.044-1.405 6.502-1.405 2.458 0 4.773.445 6.677 1.334 1.9.89 3.477 2.108 4.73 3.654 1.25 1.546 2.188 3.364 2.816 5.448.625 2.086.937 4.322.937 6.715v3.374h-23.852v3.797c0 1.312.244 2.473.73 3.481a7.69 7.69 0 0 0 1.98 2.567 8.597 8.597 0 0 0 2.82 1.581 10.07 10.07 0 0 0 3.233.528c2.226 0 4.147-.573 5.772-1.723 1.623-1.147 2.55-2.962 2.78-5.447h6.26c-.14 1.923-.64 3.633-1.496 5.132a12.86 12.86 0 0 1-3.337 3.832c-1.367 1.055-2.91 1.862-4.625 2.425a17.304 17.304 0 0 1-5.423.844zm8.69-24.044c0-1.312-.234-2.495-.695-3.55a7.67 7.67 0 0 0-1.91-2.672 8.406 8.406 0 0 0-2.78-1.653 9.74 9.74 0 0 0-3.304-.563 9.67 9.67 0 0 0-3.302.562 8.356 8.356 0 0 0-2.78 1.654 7.606 7.606 0 0 0-1.91 2.671c-.464 1.057-.696 2.24-.696 3.552v1.97h17.385v-1.97h-.007z" fill="white"/><path d="M182.508 6.598h-6.537v6.608h6.538V6.598z" fill="white"/><path d="M151.077 54.402V6.598h6.258v47.804h-6.258z" fill="white"/><path d="M163.593 54.402V6.598h6.258v47.804h-6.257z" fill="white"/><path d="M182.37 18.549h-6.26V54.4h6.26V18.549z" fill="white"/><path d="M187.086 36.757c0-2.859.335-5.473 1.007-7.838.673-2.367 1.658-4.37 2.956-6.012a13.48 13.48 0 0 1 4.796-3.832c1.902-.913 4.056-1.371 6.468-1.371 1.854 0 3.603.246 5.25.737 1.646.493 3.096 1.254 4.347 2.285 1.252 1.03 2.272 2.343 3.06 3.937.788 1.593 1.273 3.468 1.46 5.624h-6.257c-.138-1.451-.44-2.66-.904-3.62-.464-.961-1.068-1.733-1.81-2.32a6.593 6.593 0 0 0-2.538-1.23 12.325 12.325 0 0 0-2.956-.352c-1.02 0-2.086.177-3.058.528a8.052 8.052 0 0 0-2.643 1.581c-.788.702-1.414 1.581-1.877 2.637-.463 1.056-.694 2.286-.694 3.69v10.544c0 1.265.22 2.425.66 3.48.44 1.056 1.044 1.945 1.807 2.672a8.242 8.242 0 0 0 2.644 1.688c.998.399 2.074.598 3.234.598 2.317 0 4.24-.632 5.773-1.897 1.53-1.265 2.412-3.234 2.643-5.906h6.258c-.23 2.204-.787 4.114-1.668 5.73-.882 1.616-1.97 2.953-3.27 4.006a13.157 13.157 0 0 1-4.415 2.355c-1.645.517-3.37.776-5.18.776-2.597 0-4.833-.458-6.713-1.372a12.817 12.817 0 0 1-4.694-3.867c-1.25-1.663-2.18-3.62-2.78-5.87-.604-2.251-.904-4.711-.904-7.383v.002z" fill="white"/><path d="M20.688.622v24.129l-3.94-2.3V.622h3.94z" fill="white"/><path d="M28.569.622V29.35l-3.942-2.301V.62h3.94z" fill="white"/><path d="m1.99 27.636 20.668 12.063-3.94 2.3L.02 31.083l1.97-3.448z" fill="white"/><path d="m5.93 20.734 24.61 14.364-3.941 2.3-22.64-13.213 1.97-3.451z" fill="white"/><path d="M15.782 57.514 36.45 45.448v4.601L17.752 60.961l-1.97-3.448z" fill="white"/><path d="m11.841 50.612 24.61-14.363v4.6L13.812 54.063l-1.97-3.45z" fill="white"/><path d="M48.272 60.377V36.25l3.94 2.3v21.827h-3.94z" fill="white"/><path d="M40.39 60.377V31.649l3.94 2.3v26.427h-3.94z" fill="white"/><path d="M66.97 33.363 46.302 21.3l3.94-2.3L68.94 29.913l-1.97 3.449z" fill="white"/><path d="M63.03 40.264 38.42 25.901l3.94-2.3L65 36.813l-1.97 3.451z" fill="white"/><path d="M53.177 3.485 32.51 15.55v-4.6L51.206.036l1.97 3.448z" fill="white"/><path d="M57.118 10.386 32.509 24.75V20.15L55.147 6.935l1.97 3.45z" fill="white"/></g><defs><clipPath id="clip0_511_1018"><rect width="216.729" height="61" fill="white"/></clipPath></defs></svg>