<svg width="112" height="112" viewBox="0 0 112 112" fill="none" xmlns="http://www.w3.org/2000/svg">
<path d="M53.0417 60.9637C53.0417 58.9562 52.2594 57.0679 50.8459 55.6471C49.4278 54.2262 47.5431 53.4425 45.5395 53.4425H44.1854V49.1296C44.1854 48.245 43.4672 47.5254 42.5843 47.5254C41.7014 47.5254 40.9832 48.245 40.9832 49.1296V53.4425H36.6832C35.8003 53.4425 35.0821 54.1621 35.0821 55.0467V78.7104C35.0821 79.595 35.8003 80.3146 36.6832 80.3146H40.9832V84.6275C40.9832 85.5121 41.7014 86.2317 42.5843 86.2317C43.4672 86.2317 44.1854 85.5121 44.1854 84.6275V80.3146H45.5395C47.5431 80.3146 49.4278 79.5308 50.8459 78.11C52.264 76.6892 53.0417 74.8008 53.0417 72.7933C53.0417 70.7858 52.2594 68.8975 50.8459 67.4767C50.6309 67.2612 50.4068 67.0642 50.1735 66.8762C50.4068 66.6929 50.6309 66.4912 50.8459 66.2758C52.264 64.855 53.0417 62.9667 53.0417 60.9592V60.9637ZM48.5815 75.8412C47.7672 76.6571 46.6877 77.1062 45.5395 77.1062H38.2843V68.485H45.5395C46.6877 68.485 47.7718 68.9342 48.5815 69.7454C49.3958 70.5612 49.8395 71.6429 49.8395 72.7933C49.8395 73.9437 49.3912 75.03 48.5815 75.8412ZM48.5815 64.0117C47.7672 64.8275 46.6877 65.2767 45.5395 65.2767H38.2843V56.6554H45.5395C46.6877 56.6554 47.7718 57.1046 48.5815 57.9158C49.3912 58.7271 49.8395 59.8133 49.8395 60.9637C49.8395 62.1142 49.3912 63.2004 48.5815 64.0117Z" fill="white"/>
<path d="M94.3725 90.9433C93.1648 90.9433 92.0303 91.4154 91.1749 92.2679C90.3332 93.1113 89.8528 94.28 89.8528 95.4717C89.8528 96.6633 90.324 97.8183 91.1749 98.6754C92.0303 99.5325 93.1648 100 94.3725 100C95.5801 100 96.7146 99.5279 97.57 98.6754C98.4255 97.8183 98.8921 96.6817 98.8921 95.4717C98.8921 94.2617 98.4072 93.1113 97.57 92.2679C96.7146 91.4108 95.5801 90.9433 94.3725 90.9433ZM95.3011 96.4067C94.8025 96.9062 93.9333 96.9062 93.4347 96.4067C93.1877 96.1592 93.0504 95.8246 93.0504 95.4717C93.0504 95.1188 93.1923 94.7842 93.4347 94.5367C93.6817 94.2892 94.0156 94.1517 94.3679 94.1517C94.7201 94.1517 95.0495 94.2892 95.3011 94.5413C95.5481 94.7842 95.6853 95.1279 95.6853 95.4763C95.6853 95.8246 95.5481 96.1592 95.3011 96.4112V96.4067Z" fill="white"/>
<path d="M85.2234 93.8675H77.6114C76.3946 93.8675 75.4065 92.8775 75.4065 91.6583V77.12C91.0194 74.6542 103 61.0875 103 44.7617C103 26.6942 88.3295 12 70.2967 12C57.7626 12 46.8615 19.1042 41.3721 29.4992V20.3417C41.3721 17.3533 38.9476 14.9242 35.965 14.9242H28.353C27.4701 14.9242 26.7519 15.6438 26.7519 16.5283C26.7519 17.4129 27.4701 18.1325 28.353 18.1325H35.965C37.1818 18.1325 38.1699 19.1225 38.1699 20.3417V34.7929C22.278 37.0112 10 50.7108 10 67.2337C10 85.3012 24.6705 99.9954 42.6987 99.9954C55.6812 99.9954 66.9208 92.3733 72.1998 81.3642V91.6537C72.1998 94.6421 74.6243 97.0712 77.6069 97.0712H85.2188C86.1017 97.0712 86.8199 96.3517 86.8199 95.4671C86.8199 94.5825 86.1017 93.8629 85.2188 93.8629L85.2234 93.8675ZM68.3663 46.9708L74.7935 49.5467C75.8091 49.9546 76.6554 50.7108 77.1814 51.6779C77.7029 52.6404 77.8767 53.7633 77.6709 54.845C77.465 55.9221 76.8841 56.8983 76.0378 57.5996C75.5026 58.0396 74.8804 58.3558 74.2171 58.53C73.0415 54.2675 71.0287 50.3533 68.3617 46.9708H68.3663ZM70.2967 15.2083C86.5638 15.2083 99.7978 28.4679 99.7978 44.7617C99.7978 59.5567 88.8876 71.8308 74.7066 73.9712C75.164 71.7942 75.4065 69.5437 75.4065 67.2337C75.4065 65.3317 75.2327 63.4662 74.9216 61.6512C76.0744 61.3671 77.1585 60.8308 78.0826 60.0654C79.5007 58.8921 80.4705 57.2512 80.8181 55.4454C81.1658 53.6396 80.8731 51.7512 79.9948 50.1379C79.1165 48.52 77.6938 47.255 75.9875 46.5675L66.2529 42.6625C65.2373 42.2546 64.3911 41.4983 63.865 40.5312C63.3435 39.5688 63.1651 38.4413 63.3755 37.3688C63.5859 36.2917 64.1623 35.3108 65.0086 34.6142C65.8549 33.9175 66.9208 33.5279 68.0141 33.5279H77.6023C78.4852 33.5279 79.2034 32.8083 79.2034 31.9238C79.2034 31.0392 78.4852 30.3196 77.6023 30.3196H72.1311V28.3808C72.1311 27.4962 71.4129 26.7767 70.5301 26.7767C69.6472 26.7767 68.929 27.4962 68.929 28.3808V30.3196H68.0095C66.1705 30.3196 64.3819 30.9658 62.9638 32.1392C61.5503 33.3125 60.5759 34.9487 60.2282 36.7592C60.0498 37.6942 60.0407 38.6475 60.1962 39.5779C55.1322 36.3512 49.1305 34.4721 42.6987 34.4721C42.6804 34.4721 42.6667 34.4721 42.6484 34.4721C46.8295 23.2337 57.6345 15.2083 70.2922 15.2083H70.2967ZM42.7033 96.7917C26.4363 96.7917 13.2067 83.5321 13.2067 67.2383C13.2067 50.9446 26.4408 37.6804 42.7033 37.6804C58.9657 37.6804 72.2043 50.94 72.2043 67.2383C72.2043 83.5367 58.9703 96.7917 42.7033 96.7917Z" fill="white"/>
<path d="M19.2039 21.0612C20.4116 21.0612 21.5461 20.5892 22.4015 19.7367C23.257 18.8796 23.7281 17.7429 23.7281 16.5329C23.7281 15.3229 23.257 14.1862 22.4061 13.3292C21.5507 12.4721 20.4162 12 19.2085 12C18.0008 12 16.8663 12.4721 16.0109 13.3246C15.1555 14.1817 14.6843 15.3183 14.6843 16.5283C14.6843 17.7383 15.1555 18.875 16.0063 19.7321C16.8618 20.5892 17.9963 21.0612 19.2039 21.0612ZM18.2753 15.5979C18.5223 15.3504 18.8563 15.2129 19.2085 15.2129C19.5608 15.2129 19.8947 15.355 20.1417 15.6025C20.3887 15.85 20.526 16.1846 20.526 16.5375C20.526 16.8904 20.3887 17.2204 20.1417 17.4725C19.6477 17.9675 18.7739 17.9675 18.2753 17.4725C18.0283 17.225 17.8911 16.8858 17.8911 16.5375C17.8911 16.1892 18.0328 15.85 18.2799 15.6025L18.2753 15.5979Z" fill="white"/>
</svg>
