<svg width="112" height="113" viewBox="0 0 112 113" fill="none" xmlns="http://www.w3.org/2000/svg">
<path d="M99.2398 57.8557C98.7423 56.6537 98.0212 55.5748 97.071 54.63C96.1486 53.7076 95.0754 52.9864 93.8736 52.4888C91.4644 51.4881 88.7254 51.4937 86.3218 52.4888C85.12 52.9864 84.0412 53.7076 83.1245 54.63L77.5682 60.1869V30.7921C77.5682 28.7739 76.78 26.8732 75.3546 25.4476L64.6223 14.7138C63.1969 13.2883 61.2963 12.5 59.2784 12.5H19.5574C17.5395 12.5 15.639 13.2883 14.2136 14.7138C12.7826 16.1394 12 18.0402 12 20.0639V81.7327C12 83.7509 12.7882 85.6516 14.2136 87.0772C15.639 88.5084 17.5395 89.2911 19.563 89.2911H53.0514L51.2794 98.1632C51.1509 98.8061 51.3521 99.4658 51.8161 99.9298C52.185 100.299 52.6881 100.5 53.1967 100.5C53.3253 100.5 53.4539 100.489 53.5824 100.461L67.596 97.66C67.9761 97.5818 68.3227 97.3973 68.5966 97.1233L97.1101 68.6062C98.0324 67.6894 98.7479 66.6104 99.251 65.4085C99.7485 64.2065 100 62.9375 100 61.6349C100 60.3323 99.7485 59.0633 99.251 57.8613L99.2398 57.8557ZM54.0743 84.1478L53.8284 85.3777H19.5574C18.5848 85.3777 17.668 84.9976 16.9749 84.3099C16.2985 83.6335 15.9073 82.6887 15.9073 81.7271V20.0583C15.9073 19.0856 16.2874 18.1688 16.9749 17.4755C17.6624 16.7879 18.5792 16.4078 19.5518 16.4078H59.2728C60.2454 16.4078 61.1622 16.7879 61.8497 17.4755L72.5821 28.2093C73.2696 28.8969 73.6498 29.8138 73.6498 30.7865V64.0947L54.6054 83.1415C54.3315 83.4155 54.147 83.762 54.0687 84.1422L54.0743 84.1478ZM95.6288 63.9046C95.3269 64.6314 94.8909 65.2799 94.3375 65.8333L66.2433 93.9368L55.6898 96.05L57.8027 85.4951L85.897 57.3973C86.4504 56.8438 87.0988 56.4078 87.8255 56.1059C89.2732 55.5021 90.9222 55.5021 92.3811 56.1059C93.1078 56.4078 93.7562 56.8382 94.3431 57.4308C94.8965 57.9843 95.3325 58.6328 95.6344 59.3595C95.9362 60.0863 96.0872 60.8522 96.0872 61.6349C96.0872 62.4175 95.9362 63.189 95.6344 63.9102L95.6288 63.9046Z" fill="white"/>
<path d="M39.3788 21.4336C34.4542 21.4336 29.8202 23.3511 26.3378 26.8396C22.8554 30.3281 20.9325 34.957 20.9325 39.8823C20.9325 44.8075 22.8498 49.442 26.3378 52.9249C29.8258 56.4078 34.4542 58.3309 39.3788 58.3309C44.3034 58.3309 48.8311 56.4525 52.2968 53.0423C52.3471 52.9975 52.403 52.964 52.4533 52.9137C52.5036 52.8634 52.5427 52.8075 52.5874 52.7516C55.9637 49.2855 57.8251 44.7292 57.8251 39.8767C57.8251 35.0241 55.9078 30.3169 52.4197 26.834C48.9373 23.3512 44.3034 21.428 39.3788 21.428V21.4336ZM39.3788 54.4175C35.4995 54.4175 31.8493 52.9081 29.1047 50.1576C26.3602 47.4071 24.8453 43.7621 24.8453 39.8823C24.8453 36.0025 26.3546 32.3519 29.1047 29.6069C31.3854 27.326 34.2865 25.9004 37.4224 25.4811V39.8823C37.4224 40.4022 37.6292 40.8997 37.9981 41.2687L48.1939 51.4378C45.6729 53.3721 42.6041 54.4175 39.3788 54.4175ZM50.9608 48.6649L41.3352 39.0716V25.4811C44.4767 25.9004 47.3778 27.326 49.6528 29.6069C52.3974 32.3519 53.9122 36.0025 53.9122 39.8823C53.9122 43.0968 52.8725 46.1492 50.9608 48.6649Z" fill="white"/>
<path d="M47.484 63.9214H22.8889C21.8101 63.9214 20.9325 64.7991 20.9325 65.8781C20.9325 66.957 21.8101 67.8347 22.8889 67.8347H47.484C48.5628 67.8347 49.4404 66.957 49.4404 65.8781C49.4404 64.7991 48.5628 63.9214 47.484 63.9214Z" fill="white"/>
<path d="M38.5403 73.9843H22.8889C21.8101 73.9843 20.9325 74.862 20.9325 75.941C20.9325 77.0199 21.8101 77.8976 22.8889 77.8976H38.5403C39.6191 77.8976 40.4967 77.0199 40.4967 75.941C40.4967 74.862 39.6191 73.9843 38.5403 73.9843Z" fill="white"/>
</svg>
