<svg width="112" height="112" viewBox="0 0 112 112" fill="none" xmlns="http://www.w3.org/2000/svg">
<path d="M13.5924 37.809C14.4705 37.809 15.1848 37.0948 15.1848 36.2167V19.2518C15.1848 18.1691 15.6079 17.1454 16.3722 16.3811C17.1411 15.6123 18.1603 15.1937 19.2431 15.1937H36.2043C37.0824 15.1937 37.7967 14.4794 37.7967 13.6014C37.7967 12.7234 37.0824 12.0091 36.2043 12.0091H19.2476C17.314 12.0091 15.4942 12.7643 14.1247 14.1337C12.7552 15.5031 12.0045 17.3228 12.0045 19.2564V36.2213C12.0045 37.0993 12.7189 37.8136 13.5969 37.8136L13.5924 37.809Z" fill="white"/>
<path d="M97.8753 14.1246C96.5058 12.7552 94.686 12 92.7523 12H75.7911C74.913 12 74.1987 12.7143 74.1987 13.5923C74.1987 14.4704 74.913 15.1846 75.7911 15.1846H92.7523C93.8215 15.1846 94.868 15.6168 95.6232 16.372C96.3921 17.1409 96.8152 18.1599 96.8152 19.2427V36.2076C96.8152 37.0857 97.5295 37.7999 98.4076 37.7999C99.2857 37.7999 100 37.0857 100 36.2076V19.2427C100 17.3092 99.2448 15.4894 97.8753 14.12V14.1246Z" fill="white"/>
<path d="M36.2089 96.8108H19.2476C18.1648 96.8108 17.1411 96.3877 16.3768 95.6234C15.6079 94.8546 15.1848 93.8355 15.1848 92.7527V75.7924C15.1848 74.9143 14.4705 74.2001 13.5924 74.2001C12.7143 74.2001 12 74.9143 12 75.7924V92.7527C12 94.6862 12.7552 96.506 14.1247 97.8754C15.4942 99.2448 17.314 100 19.2476 100H36.2089C37.087 100 37.8013 99.2857 37.8013 98.4077C37.8013 97.5296 37.087 96.8154 36.2089 96.8154V96.8108Z" fill="white"/>
<path d="M98.4076 74.1955C97.5295 74.1955 96.8152 74.9098 96.8152 75.7878V92.7482C96.8152 93.8264 96.3876 94.8591 95.6277 95.6189C94.868 96.3786 93.8306 96.8063 92.7569 96.8063H75.7957C74.9176 96.8063 74.2033 97.5205 74.2033 98.3986C74.2033 99.2766 74.9176 99.9909 75.7957 99.9909H92.7569C94.6769 99.9909 96.524 99.2266 97.8798 97.8709C99.2402 96.5106 100 94.668 100 92.7482V75.7878C100 74.9098 99.2857 74.1955 98.4076 74.1955Z" fill="white"/>
<path d="M47.6013 44.0281C47.6013 42.4586 46.9916 40.9845 45.8815 39.879C44.7714 38.769 43.2973 38.1593 41.7322 38.1593C40.1671 38.1593 38.693 38.769 37.5829 39.879C36.4728 40.9891 35.8631 42.4631 35.8631 44.0281C35.8631 45.5931 36.4728 47.0717 37.5829 48.1772C38.693 49.2873 40.1671 49.8969 41.7322 49.8969C43.2973 49.8969 44.7759 49.2873 45.8815 48.1772C46.9916 47.0672 47.6013 45.5931 47.6013 44.0281ZM43.6294 45.9252C43.1244 46.4302 42.4465 46.7123 41.7322 46.7123C41.0179 46.7123 40.3354 46.4257 39.835 45.9252C39.33 45.4202 39.0479 44.7424 39.0479 44.0281C39.0479 43.3139 39.3254 42.636 39.835 42.131C40.3354 41.6306 41.027 41.344 41.7322 41.344C42.4374 41.344 43.1244 41.6215 43.6294 42.131C44.1344 42.636 44.4165 43.3139 44.4165 44.0281C44.4165 44.7424 44.139 45.4202 43.6294 45.9252Z" fill="white"/>
<path d="M70.2405 49.8969C71.8102 49.8969 73.2797 49.2873 74.3898 48.1772C75.5 47.0672 76.1096 45.5931 76.1096 44.0281C76.1096 42.4631 75.5 40.9845 74.3898 39.879C73.2797 38.769 71.8056 38.1593 70.2405 38.1593C68.6754 38.1593 67.2013 38.769 66.0912 39.879C64.9811 40.9891 64.3714 42.4631 64.3714 44.0281C64.3714 45.5931 64.9811 47.0717 66.0912 48.1772C67.2013 49.2873 68.6754 49.8969 70.2405 49.8969ZM68.3433 42.131C68.8483 41.626 69.5262 41.344 70.2405 41.344C70.9548 41.344 71.6327 41.6215 72.1377 42.131C72.6427 42.636 72.9248 43.3139 72.9248 44.0281C72.9248 44.7424 72.6473 45.4202 72.1377 45.9252C71.6282 46.4302 70.9548 46.7123 70.2405 46.7123C69.5262 46.7123 68.8483 46.4348 68.3433 45.9252C67.8383 45.4202 67.5562 44.7424 67.5562 44.0281C67.5562 43.3139 67.8337 42.636 68.3433 42.131Z" fill="white"/>
<path d="M55.9864 47.0444C57.9336 47.0444 59.7671 46.2846 61.1457 44.9062C62.5242 43.5277 63.284 41.6988 63.284 39.7471C63.284 37.7954 62.5242 35.9665 61.1457 34.588C59.7671 33.2095 57.9382 32.4498 55.9864 32.4498C54.0345 32.4498 52.2056 33.2095 50.827 34.588C49.4485 35.9665 48.6887 37.7954 48.6887 39.7471C48.6887 41.6988 49.4485 43.5277 50.827 44.9062C52.2056 46.2846 54.0345 47.0444 55.9864 47.0444ZM53.0791 36.8445C53.8571 36.0666 54.8853 35.6389 55.9864 35.6389C57.0874 35.6389 58.1156 36.0666 58.8936 36.8445C59.6716 37.6225 60.0993 38.6507 60.0993 39.7516C60.0993 40.8526 59.6716 41.8808 58.8936 42.6587C58.1156 43.4367 57.0874 43.8643 55.9864 43.8643C54.8853 43.8643 53.8571 43.4367 53.0791 42.6587C52.3011 41.8808 51.8734 40.8526 51.8734 39.7516C51.8734 38.6507 52.3011 37.6225 53.0791 36.8445Z" fill="white"/>
<path d="M80.3954 85.6419C80.3954 84.7639 79.6811 84.0496 78.803 84.0496H57.5833V78.1081H83.3663C87.8796 78.1081 89.5221 74.4275 89.5221 71.9526V30.8939C89.5221 26.3808 85.8414 24.7385 83.3663 24.7385H28.62C24.1067 24.7385 22.4643 28.419 22.4643 30.8939V71.9526C22.4643 76.4703 26.145 78.1081 28.62 78.1081H54.4031V84.0496H33.1833C32.3052 84.0496 31.5909 84.7639 31.5909 85.6419C31.5909 86.52 32.3052 87.2342 33.1833 87.2342H78.8076C79.6857 87.2342 80.4 86.52 80.4 85.6419H80.3954ZM60.1084 64.1913L58.8481 74.7688H53.1246L51.8643 64.1913C51.7688 63.3906 51.0909 62.7855 50.281 62.7855H47.5967V60.1013C47.5967 57.863 48.4703 55.7566 50.0536 54.1734C51.6369 52.5902 53.7434 51.7167 55.9864 51.7167C58.2293 51.7167 60.3313 52.5902 61.9146 54.1734C63.4979 55.7566 64.3714 57.863 64.3714 60.1013V62.7855H61.6871C60.8818 62.7855 60.1994 63.3906 60.1038 64.1913H60.1084ZM40.2854 74.9234L39.0342 64.6371C38.9341 63.841 38.2562 63.2404 37.4555 63.2404H36.1952V60.5563C36.1952 59.0777 36.773 57.6856 37.8149 56.6437C38.8613 55.5974 40.249 55.0241 41.7276 55.0241C42.6057 55.0241 43.32 54.3099 43.32 53.4318C43.32 52.5538 42.6057 51.8395 41.7276 51.8395C39.3982 51.8395 37.2098 52.7449 35.5628 54.3918C33.9158 56.0387 33.0104 58.2269 33.0104 60.5563V64.8327C33.0104 65.7108 33.7247 66.4251 34.6028 66.4251H36.0496L37.0824 74.9234H28.6291C27.9284 74.9098 25.6491 74.6641 25.6491 71.9526V30.8939C25.6491 30.398 25.7901 27.9231 28.62 27.9231H83.3663C83.8623 27.9231 86.3373 28.0641 86.3373 30.8939V71.939C86.3236 72.6396 86.078 74.9234 83.3663 74.9234H74.8948L75.9231 66.7026H77.3699C78.248 66.7026 78.9622 65.9883 78.9622 65.1103V60.8338C78.9622 58.5045 78.0569 56.3162 76.4099 54.6693C74.7629 53.0224 72.5745 52.117 70.2451 52.117C69.367 52.117 68.6527 52.8313 68.6527 53.7094C68.6527 54.5874 69.367 55.3017 70.2451 55.3017C71.7237 55.3017 73.1159 55.8794 74.1578 56.9213C75.1997 57.9631 75.7775 59.3552 75.7775 60.8338V63.518H74.5172C73.7165 63.518 73.0386 64.1139 72.9385 64.9146L71.6873 74.9234H62.0374L63.1021 65.9701H65.9638C66.8419 65.9701 67.5562 65.2558 67.5562 64.3778V60.1013C67.5562 57.0122 66.3505 54.1052 64.1667 51.9214C61.9828 49.7377 59.0756 48.5321 55.9864 48.5321C52.8971 48.5321 49.9899 49.7377 47.806 51.9214C45.6222 54.1052 44.4165 57.0122 44.4165 60.1013V64.3778C44.4165 65.2558 45.1308 65.9701 46.0089 65.9701H48.8706L49.9353 74.9234H40.2854Z" fill="white"/>
</svg>
