<svg width="112" height="112" viewBox="0 0 112 112" fill="none" xmlns="http://www.w3.org/2000/svg">
<path d="M98.0134 65.1711C91.9257 58.9969 82.6816 57.4929 75.0364 61.2598L61.3449 38.0576C62.0433 37.1683 62.4246 36.0787 62.4246 34.924C62.4246 33.6668 61.9468 32.4329 61.1106 31.5109C61.9605 30.575 62.4246 29.3737 62.4246 28.0979C62.4246 26.7522 61.9054 25.4857 60.9681 24.5312C60.0263 23.5767 58.7766 23.0551 57.4488 23.0551H57.3707V21.2718C57.3707 20.3731 56.6493 19.6421 55.7626 19.6421C54.8759 19.6421 54.1545 20.3731 54.1545 21.2718V23.0551H52.3948C51.5081 23.0551 50.7868 23.7862 50.7868 24.6848V38.3463C50.7868 39.245 51.5081 39.976 52.3948 39.976H54.1545V41.7594C54.1545 42.658 54.8759 43.3891 55.7626 43.3891C56.6493 43.3891 57.3707 42.658 57.3707 41.7594V39.976H57.4488C57.8577 39.976 58.2528 39.9201 58.6387 39.827L73.07 64.2724C73.5248 65.0407 74.5035 65.2968 75.2662 64.8405C81.7903 60.9525 90.4004 62.0654 95.7483 67.4806C98.9966 70.7726 100.784 75.061 100.784 79.559C100.784 84.0569 98.9966 88.3454 95.7483 91.6373C92.5 94.9293 88.2685 96.7406 83.8348 96.7406C79.4012 96.7406 75.1651 94.9293 71.9214 91.6373C71.2919 90.9994 70.2765 90.9994 69.6471 91.6373C69.0176 92.2753 69.0176 93.3043 69.6471 93.9422C73.5019 97.8488 78.542 100 83.8348 100C89.1277 100 94.1724 97.8488 98.0226 93.9422C101.877 90.0356 104 84.9277 104 79.559C104 74.1903 101.877 69.087 98.0226 65.1804L98.0134 65.1711ZM58.6939 36.1858C58.3585 36.5211 57.9174 36.7073 57.4488 36.7073H54.0029V33.136H57.4488C57.9174 33.136 58.3631 33.3222 58.6939 33.6575C59.0201 33.9881 59.2085 34.449 59.2085 34.9193C59.2085 35.3896 59.0201 35.8506 58.6939 36.1812V36.1858ZM58.6939 29.3551C58.3585 29.6903 57.9174 29.8766 57.4488 29.8766H54.0029V26.3052H57.4488C57.9174 26.3052 58.3631 26.4915 58.6939 26.8267C59.0201 27.1573 59.2085 27.6183 59.2085 28.0886C59.2085 28.5589 59.0201 29.0198 58.6939 29.3504V29.3551Z" fill="white"/>
<path d="M82.6357 83.4935C82.9205 83.7124 83.2606 83.8195 83.6005 83.8195C83.9405 83.8195 84.2805 83.7124 84.5654 83.4935L90.7495 78.7907C91.4525 78.2552 91.6041 77.2495 91.0849 76.5277L84.9008 67.909C84.5975 67.4853 84.1151 67.2385 83.6005 67.2385C83.086 67.2385 82.6035 67.4899 82.3003 67.909L76.1161 76.5277C75.9048 76.8211 75.8083 77.1656 75.8129 77.5056H47.3133C46.4266 77.5056 45.7053 78.2366 45.7053 79.1353C45.7053 88.4944 38.1933 96.1074 28.9584 96.1074C19.7235 96.1074 12.2116 88.4944 12.2116 79.1353C12.2116 71.8016 17.316 64.8359 24.0883 62.9314C24.9428 62.6893 25.4436 61.7907 25.2093 60.9246C24.9704 60.0585 24.0883 59.551 23.2291 59.7885C14.982 62.1119 9 70.2464 9 79.1353C9 90.2917 17.9546 99.3668 28.963 99.3668C39.9714 99.3668 48.0393 91.1624 48.8617 80.7649H79.0474L82.6357 83.4935ZM83.6005 71.6387L87.5518 77.147L83.6005 80.1503L79.6493 77.147L83.6005 71.6387Z" fill="white"/>
<path d="M88.728 82.5297L83.6005 87.0742L78.4731 82.5297C77.8069 81.9383 76.7869 82.0035 76.2034 82.6833C75.6199 83.3585 75.6842 84.3922 76.355 84.9835L82.5392 90.4686C82.8424 90.7387 83.2192 90.8737 83.5959 90.8737C83.9727 90.8737 84.3494 90.7387 84.6527 90.4686L90.8368 84.9835C91.5076 84.3922 91.5719 83.3631 90.9884 82.6833C90.4049 82.0035 89.3896 81.9383 88.7188 82.5297H88.728Z" fill="white"/>
<path d="M19.8108 71.5875C19.8108 72.4861 20.5322 73.2172 21.4189 73.2172H28.7838C30.323 73.2172 31.7703 73.8225 32.8591 74.926C33.948 76.0295 34.5453 77.4963 34.5453 79.0561C34.5453 80.616 33.948 82.0827 32.8591 83.1862C31.7703 84.2898 30.323 84.8951 28.7838 84.8951H26.188L28.329 76.7559C28.5587 75.8852 28.0487 74.9912 27.1895 74.763C26.3304 74.5302 25.4483 75.0471 25.2231 75.9178L22.5445 86.1057C22.4159 86.5946 22.517 87.1161 22.8248 87.5165C23.1326 87.917 23.6013 88.1545 24.1021 88.1545H25.8434V89.2394C25.8434 90.138 26.5647 90.8691 27.4514 90.8691C28.3382 90.8691 29.0595 90.138 29.0595 89.2394V88.1405C29.3306 88.1312 29.5971 88.1126 29.8635 88.0846V89.244C29.8635 90.1427 30.5849 90.8737 31.4716 90.8737C32.3583 90.8737 33.0797 90.1427 33.0797 89.244V87.0509C33.8286 86.6365 34.5223 86.115 35.138 85.4911C36.8333 83.7729 37.766 81.4867 37.766 79.0561C37.766 76.6255 36.8333 74.3393 35.138 72.6211L48.4068 49.3631C48.8433 48.5994 48.5998 47.6216 47.8555 47.1607C43.307 44.325 40.4354 39.9062 39.7692 34.7238C39.0984 29.4901 40.826 24.2378 44.4786 20.3499C51.1589 13.5796 61.6297 13.5796 68.3101 20.3499C72.2705 24.3636 73.9383 30.305 72.7668 36.2417C72.5922 37.1264 73.1573 37.9832 74.0302 38.1601C74.9032 38.337 75.7486 37.7643 75.9232 36.8796C77.3061 29.8719 75.3121 22.8316 70.589 18.045C62.6313 9.98034 50.1665 9.98035 42.1813 18.073C37.8304 22.7059 35.7904 28.9267 36.5853 35.1382C37.2974 40.7117 40.2884 45.7033 44.8691 49.0511L33.0797 69.7203V68.8682C33.0797 67.9695 32.3583 67.2385 31.4716 67.2385C30.5849 67.2385 29.8635 67.9695 29.8635 68.8682V70.0276C29.5971 69.995 29.3306 69.9764 29.0595 69.9717V68.8728C29.0595 67.9742 28.3382 67.2431 27.4514 67.2431C26.5647 67.2431 25.8434 67.9742 25.8434 68.8728V69.9578H21.4235C20.5367 69.9578 19.8154 70.6888 19.8154 71.5875H19.8108Z" fill="white"/>
</svg>
