<svg width="112" height="112" viewBox="0 0 112 112" fill="none" xmlns="http://www.w3.org/2000/svg">
<path d="M94.0907 35.5759H73.8818C70.6163 35.5759 67.9667 38.2309 67.9609 41.496V66.1002C67.9609 67.1227 67.13 67.9535 66.1074 67.9535H40.5296C37.2641 67.9535 34.6087 70.6086 34.6087 73.8736V94.0799C34.6087 97.345 37.2641 100 40.5296 100H94.0849C97.3504 100 100 97.345 100 94.0799V41.496C100 38.2309 97.3446 35.5759 94.0849 35.5759H94.0907ZM95.9443 94.0741C95.9443 95.0966 95.1134 95.9274 94.0965 95.9274H40.5412C39.5185 95.9274 38.6876 95.0966 38.6876 94.0741V73.8678C38.6876 72.8453 39.5185 72.0145 40.5412 72.0145H66.119C69.3845 72.0145 72.0341 69.3595 72.0341 66.0944V41.4902C72.0341 40.4677 72.865 39.6369 73.8876 39.6369H94.0965C95.1192 39.6369 95.9501 40.4677 95.9501 41.4902V94.0741H95.9443Z" fill="white"/>
<path d="M42.2146 16.0668H53.8705C54.9919 16.0668 55.9041 15.1547 55.9041 14.0334C55.9041 12.9121 54.9919 12 53.8705 12H42.2146C41.0932 12 40.1809 12.9121 40.1809 14.0334C40.1809 15.1547 41.0932 16.0668 42.2146 16.0668Z" fill="white"/>
<path d="M14.0337 36.1743C15.1551 36.1743 16.0673 35.2622 16.0673 34.1409V22.4866C16.0673 21.3653 15.1551 20.4532 14.0337 20.4532C12.9122 20.4532 12 21.3653 12 22.4866V34.1409C12 35.2622 12.9122 36.1743 14.0337 36.1743Z" fill="white"/>
<path d="M26.474 67.9535H17.9209C17.4154 67.9535 16.9447 67.756 16.5961 67.3958C15.8117 66.594 14.5218 66.5766 13.7199 67.3609C12.9181 68.1452 12.9006 69.4292 13.685 70.2367C14.8065 71.3871 16.3172 72.0261 17.9209 72.0261H26.474C27.5954 72.0261 28.5076 71.114 28.5076 69.9927C28.5076 68.8715 27.5954 67.9593 26.474 67.9593V67.9535Z" fill="white"/>
<path d="M16.0673 57.4495V45.7952C16.0673 44.6739 15.1551 43.7618 14.0337 43.7618C12.9122 43.7618 12 44.6739 12 45.7952V57.4495C12 58.5708 12.9122 59.4829 14.0337 59.4829C15.1551 59.4829 16.0673 58.5708 16.0673 57.4495Z" fill="white"/>
<path d="M30.5587 12H18.9029C17.7814 12 16.8692 12.9121 16.8692 14.0334C16.8692 15.1547 17.7814 16.0668 18.9029 16.0668H30.5587C31.6802 16.0668 32.5924 15.1547 32.5924 14.0334C32.5924 12.9121 31.6802 12 30.5587 12Z" fill="white"/>
<path d="M41.9299 48.154C42.0635 48.154 42.1972 48.1423 42.3308 48.1133L52.3597 46.1089C52.7548 46.0276 53.1151 45.8359 53.3998 45.5512L73.8005 25.1474C74.521 24.4328 75.0788 23.5904 75.4681 22.655C75.8574 21.7197 76.0549 20.7262 76.0549 19.7153C76.0549 18.7044 75.8574 17.711 75.4681 16.7698C75.0788 15.8344 74.5152 14.992 73.783 14.26C73.0683 13.5396 72.2258 12.9818 71.2903 12.5926C69.4193 11.8141 67.2753 11.8141 65.4043 12.5926C64.4688 12.9818 63.6263 13.5454 62.9116 14.26L42.5109 34.658C42.2262 34.9426 42.0345 35.3028 41.9531 35.6979L39.9485 45.7255C39.8149 46.3936 40.024 47.0792 40.5063 47.5614C40.8898 47.9448 41.4128 48.154 41.9415 48.154H41.9299ZM45.8113 37.098L65.7762 17.1358C66.1132 16.7988 66.5083 16.5316 66.9499 16.3515C67.8331 15.9855 68.8383 15.9855 69.7215 16.3515C70.1631 16.5316 70.5582 16.7988 70.9185 17.159C71.2555 17.496 71.5228 17.8911 71.7029 18.3326C71.883 18.7741 71.976 19.2389 71.976 19.7211C71.976 20.2033 71.883 20.6681 71.7029 21.1038C71.5169 21.5454 71.2555 21.9405 70.9185 22.2774L50.9536 42.2455L44.5214 43.5294L45.8055 37.098H45.8113Z" fill="white"/>
</svg>
