<svg width="1725.000000" height="584.500000" viewBox="0 0 1725 584.5" fill="none" xmlns="http://www.w3.org/2000/svg" xmlns:xlink="http://www.w3.org/1999/xlink">
	<defs/>
	<path id="Vector 38" d="M0 45.5L731 45.5L731 584L1680 584" stroke="#2B24FF" stroke-opacity="1.000000" stroke-width="1.000000"/>
	<g opacity="0.900000">
		<path id="Vector 39" d="M5 40.5L736 40.5L736 579L1685 579" stroke="#2B24FF" stroke-opacity="1.000000" stroke-width="1.000000"/>
	</g>
	<g opacity="0.800000">
		<path id="Vector 40" d="M10 35.5L741 35.5L741 574L1690 574" stroke="#2B24FF" stroke-opacity="1.000000" stroke-width="1.000000"/>
	</g>
	<g opacity="0.700000">
		<path id="Vector 41" d="M15 30.5L746 30.5L746 569L1695 569" stroke="#2B24FF" stroke-opacity="1.000000" stroke-width="1.000000"/>
	</g>
	<g opacity="0.600000">
		<path id="Vector 42" d="M20 25.5L751 25.5L751 564L1700 564" stroke="#2B24FF" stroke-opacity="1.000000" stroke-width="1.000000"/>
	</g>
	<g opacity="0.500000">
		<path id="Vector 43" d="M25 20.5L756 20.5L756 559L1705 559" stroke="#2B24FF" stroke-opacity="1.000000" stroke-width="1.000000"/>
	</g>
	<g opacity="0.400000">
		<path id="Vector 44" d="M30 15.5L761 15.5L761 554L1710 554" stroke="#2B24FF" stroke-opacity="1.000000" stroke-width="1.000000"/>
	</g>
	<g opacity="0.300000">
		<path id="Vector 45" d="M35 10.5L766 10.5L766 549L1715 549" stroke="#2B24FF" stroke-opacity="1.000000" stroke-width="1.000000"/>
	</g>
	<g opacity="0.200000">
		<path id="Vector 46" d="M40 5.5L771 5.5L771 544L1720 544" stroke="#2B24FF" stroke-opacity="1.000000" stroke-width="1.000000"/>
	</g>
	<g opacity="0.100000">
		<path id="Vector 47" d="M45 0.5L776 0.5L776 539L1725 539" stroke="#2B24FF" stroke-opacity="1.000000" stroke-width="1.000000"/>
	</g>
</svg>
