<svg width="236.000000" height="227.000061" viewBox="0 0 236 227" fill="none" xmlns="http://www.w3.org/2000/svg" xmlns:xlink="http://www.w3.org/1999/xlink">
	<defs/>
	<path id="Vector" d="M113.68 0C51.76 -0.15 0.03 51.17 0 112.76C-0.04 174.85 51.85 227.05 113.55 227C175.1 226.95 226.37 175.34 226.44 113.35C226.52 50.97 175.95 0.14 113.68 0ZM112.19 42.36C150.81 42.51 180.92 73.41 181.05 113.03C181.07 118.29 180.58 123.4 179.64 128.3L187.06 128.3L187.06 177.65L143.07 177.65C134.18 182.06 124.13 184.54 113.37 184.6C75.44 184.81 45.1 153.19 45.06 113.4C45.02 73.58 74.66 42.22 112.19 42.36Z" fill="#FFFFFF" fill-opacity="1.000000" fill-rule="evenodd"/>
	<path id="Vector" d="M201.16 128.42L172.5 128.42L172.5 163.35L137.66 163.35L137.66 192.07L172.5 192.07L172.5 227L201.16 227L201.16 192.07L236 192.07L236 163.35L201.16 163.35L201.16 128.42Z" fill="#352ED0" fill-opacity="1.000000" fill-rule="evenodd"/>
</svg>
